<svg width="393" height="167" viewBox="0 0 393 167" fill="none" xmlns="http://www.w3.org/2000/svg">
<path d="M77.8099 122.134H189.398C194.728 122.134 199.049 126.455 199.049 131.785C199.049 137.115 194.728 141.436 189.398 141.436H77.8099V122.134Z" fill="#B2D237"/>
<path d="M77.8099 98.0071H358.287C363.617 98.0071 367.938 102.328 367.938 107.658C367.938 112.988 363.617 117.309 358.287 117.309H77.8099V98.0071Z" fill="#8CC541"/>
<path d="M77.8099 73.8799H263.589C268.919 73.8799 273.239 78.2007 273.239 83.5307C273.239 88.8607 268.919 93.1816 263.589 93.1816H77.8099V73.8799Z" fill="#00AB6C"/>
<path d="M77.8099 49.7529H310.033C315.363 49.7529 319.684 54.0738 319.684 59.4038C319.684 64.7338 315.363 69.0546 310.033 69.0546H77.8099V49.7529Z" fill="#1D93D1"/>
<path d="M77.8099 25.6257H358.287C363.617 25.6257 367.938 29.9466 367.938 35.2766C367.938 40.6066 363.617 44.9274 358.287 44.9274H77.8099V25.6257Z" fill="#1383C6"/>
<path d="M77.8099 1.49878H129.08C134.41 1.49878 138.731 5.81961 138.731 11.1496C138.731 16.4796 134.41 20.8005 129.08 20.8005H77.8099V1.49878Z" fill="#8A4482"/>
<path d="M78.4131 0.895508V146.261H380.002" stroke="#122836"/>
<path d="M73.5932 161.778C71.7892 161.778 70.4472 160.348 70.4472 157.84C70.4472 155.332 71.7892 153.902 73.5932 153.902C75.3862 153.902 76.7282 155.332 76.7282 157.84C76.7282 160.348 75.3862 161.778 73.5932 161.778ZM73.5932 160.799C74.7922 160.799 75.6282 159.809 75.6282 157.84C75.6282 155.871 74.7922 154.881 73.5932 154.881C72.3832 154.881 71.5472 155.871 71.5472 157.84C71.5472 159.809 72.3832 160.799 73.5932 160.799Z" fill="black"/>
<path d="M37.0119 127.45H39.8389V135.15H38.7499V128.407H37.0119V127.45ZM46.2312 131.113C47.1112 131.454 47.5952 132.092 47.5952 132.972C47.5952 134.369 46.4072 135.238 44.5262 135.238C42.6562 135.238 41.4792 134.369 41.4792 132.972C41.4792 132.092 41.9632 131.443 42.8322 131.113C42.1282 130.783 41.7542 130.211 41.7542 129.452C41.7542 128.165 42.8652 127.362 44.5262 127.362C46.1982 127.362 47.3202 128.165 47.3202 129.452C47.3202 130.211 46.9352 130.783 46.2312 131.113ZM44.5262 128.253C43.4922 128.253 42.8432 128.726 42.8432 129.496C42.8432 130.255 43.4702 130.728 44.5262 130.728C45.5932 130.728 46.2422 130.255 46.2422 129.496C46.2422 128.726 45.5602 128.253 44.5262 128.253ZM44.5262 134.347C45.7472 134.347 46.4952 133.808 46.4952 132.939C46.4952 132.092 45.7472 131.564 44.5262 131.564C43.3052 131.564 42.5792 132.092 42.5792 132.939C42.5792 133.808 43.3052 134.347 44.5262 134.347ZM48.7013 132.587V131.674H51.6603V132.587H48.7013ZM54.1366 134.193H58.0856V135.15H52.5526V134.402L55.6876 131.377C56.5016 130.585 56.6556 130.101 56.6556 129.617C56.6556 128.825 56.0946 128.341 55.0166 128.341C54.1916 128.341 53.5206 128.605 53.0476 129.177L52.2996 128.528C52.8936 127.791 53.9166 127.362 55.1156 127.362C56.7216 127.362 57.7556 128.187 57.7556 129.507C57.7556 130.255 57.5356 130.926 56.4906 131.927L54.1366 134.193ZM65.4849 132.312V133.258H64.0219V135.15H62.9549V133.258H58.6759V132.488L62.6139 127.45H63.8019L60.0289 132.312H62.9879V130.64H64.0219V132.312H65.4849Z" fill="black"/>
<path d="M38.4215 109.463H42.3705V110.42H36.8375V109.672L39.9725 106.647C40.7865 105.855 40.9405 105.371 40.9405 104.887C40.9405 104.095 40.3795 103.611 39.3015 103.611C38.4765 103.611 37.8055 103.875 37.3325 104.447L36.5845 103.798C37.1785 103.061 38.2015 102.632 39.4005 102.632C41.0065 102.632 42.0405 103.457 42.0405 104.777C42.0405 105.525 41.8205 106.196 40.7755 107.197L38.4215 109.463ZM45.475 105.789C47.774 105.789 48.676 106.746 48.676 108.11C48.676 109.441 47.73 110.508 45.761 110.508C44.672 110.508 43.594 110.156 42.934 109.573L43.44 108.704C43.957 109.188 44.815 109.529 45.75 109.529C46.916 109.529 47.576 108.99 47.576 108.154C47.576 107.285 47.026 106.746 45.244 106.746H43.495L43.902 102.72H48.247V103.677H44.826L44.617 105.789H45.475ZM49.6904 107.857V106.944H52.6494V107.857H49.6904ZM56.5355 105.954C58.0755 106.097 58.8565 106.966 58.8565 108.154C58.8565 109.452 57.8995 110.508 55.9415 110.508C54.8415 110.508 53.7635 110.156 53.1145 109.573L53.6205 108.704C54.1375 109.188 54.9955 109.529 55.9415 109.529C57.0965 109.529 57.7565 109.001 57.7565 108.165C57.7565 107.351 57.1735 106.823 55.8535 106.823H55.2375V106.053L57.1735 103.677H53.4665V102.72H58.5485V103.468L56.5355 105.954ZM66.5814 107.582V108.528H65.1184V110.42H64.0514V108.528H59.7724V107.758L63.7104 102.72H64.8984L61.1254 107.582H64.0844V105.91H65.1184V107.582H66.5814Z" fill="black"/>
<path d="M39.2943 82.43C40.8343 82.573 41.6153 83.442 41.6153 84.63C41.6153 85.928 40.6583 86.984 38.7003 86.984C37.6003 86.984 36.5223 86.632 35.8733 86.049L36.3793 85.18C36.8963 85.664 37.7543 86.005 38.7003 86.005C39.8553 86.005 40.5153 85.477 40.5153 84.641C40.5153 83.827 39.9323 83.299 38.6123 83.299H37.9963V82.529L39.9323 80.153H36.2253V79.196H41.3073V79.944L39.2943 82.43ZM44.7338 82.265C47.0328 82.265 47.9348 83.222 47.9348 84.586C47.9348 85.917 46.9888 86.984 45.0198 86.984C43.9308 86.984 42.8528 86.632 42.1928 86.049L42.6988 85.18C43.2158 85.664 44.0738 86.005 45.0088 86.005C46.1748 86.005 46.8348 85.466 46.8348 84.63C46.8348 83.761 46.2848 83.222 44.5028 83.222H42.7538L43.1608 79.196H47.5058V80.153H44.0848L43.8758 82.265H44.7338ZM48.9492 84.333V83.42H51.9082V84.333H48.9492ZM59.8353 84.058V85.004H58.3723V86.896H57.3053V85.004H53.0263V84.234L56.9643 79.196H58.1523L54.3793 84.058H57.3383V82.386H58.3723V84.058H59.8353ZM67.1937 84.058V85.004H65.7307V86.896H64.6637V85.004H60.3847V84.234L64.3227 79.196H65.5107L61.7377 84.058H64.6967V82.386H65.7307V84.058H67.1937Z" fill="black"/>
<path d="M43.0345 59.9308V60.8768H41.5715V62.7688H40.5045V60.8768H36.2255V60.1068L40.1635 55.0688H41.3515L37.5785 59.9308H40.5375V58.2588H41.5715V59.9308H43.0345ZM45.8617 58.1378C48.1607 58.1378 49.0627 59.0948 49.0627 60.4588C49.0627 61.7898 48.1167 62.8568 46.1477 62.8568C45.0587 62.8568 43.9807 62.5048 43.3207 61.9218L43.8267 61.0528C44.3437 61.5368 45.2017 61.8778 46.1367 61.8778C47.3027 61.8778 47.9627 61.3388 47.9627 60.5028C47.9627 59.6338 47.4127 59.0948 45.6307 59.0948H43.8817L44.2887 55.0688H48.6337V56.0258H45.2127L45.0037 58.1378H45.8617ZM50.0771 60.2058V59.2928H53.0361V60.2058H50.0771ZM56.389 58.1378C58.688 58.1378 59.59 59.0948 59.59 60.4588C59.59 61.7898 58.644 62.8568 56.675 62.8568C55.586 62.8568 54.508 62.5048 53.848 61.9218L54.354 61.0528C54.871 61.5368 55.729 61.8778 56.664 61.8778C57.83 61.8778 58.49 61.3388 58.49 60.5028C58.49 59.6338 57.94 59.0948 56.158 59.0948H54.409L54.816 55.0688H59.161V56.0258H55.74L55.531 58.1378H56.389ZM67.2044 59.9308V60.8768H65.7414V62.7688H64.6744V60.8768H60.3954V60.1068L64.3334 55.0688H65.5214L61.7484 59.9308H64.7074V58.2588H65.7414V59.9308H67.2044Z" fill="black"/>
<path d="M52.0471 34.0108C54.3461 34.0108 55.2481 34.9678 55.2481 36.3318C55.2481 37.6628 54.3021 38.7298 52.3331 38.7298C51.2441 38.7298 50.1661 38.3778 49.5061 37.7948L50.0121 36.9258C50.5291 37.4098 51.3871 37.7508 52.3221 37.7508C53.4881 37.7508 54.1481 37.2118 54.1481 36.3758C54.1481 35.5068 53.5981 34.9678 51.8161 34.9678H50.0671L50.4741 30.9418H54.8191V31.8988H51.3981L51.1891 34.0108H52.0471ZM58.3098 34.0108C60.6088 34.0108 61.5108 34.9678 61.5108 36.3318C61.5108 37.6628 60.5648 38.7298 58.5958 38.7298C57.5068 38.7298 56.4288 38.3778 55.7688 37.7948L56.2748 36.9258C56.7918 37.4098 57.6498 37.7508 58.5848 37.7508C59.7508 37.7508 60.4108 37.2118 60.4108 36.3758C60.4108 35.5068 59.8608 34.9678 58.0788 34.9678H56.3298L56.7368 30.9418H61.0818V31.8988H57.6608L57.4518 34.0108H58.3098ZM67.5632 34.3628V35.2318H65.5612V37.2008H64.6372V35.2318H62.6352V34.3628H64.6372V32.3828H65.5612V34.3628H67.5632Z" fill="black"/>
<path d="M7.30812 12.7931C4.94312 12.7931 3.20512 11.1101 3.20512 8.85508C3.20512 6.60008 4.94312 4.91708 7.30812 4.91708C9.65112 4.91708 11.3891 6.58908 11.3891 8.85508C11.3891 11.1211 9.65112 12.7931 7.30812 12.7931ZM7.30812 11.8141C9.01312 11.8141 10.2891 10.5601 10.2891 8.85508C10.2891 7.15008 9.01312 5.89608 7.30812 5.89608C5.58112 5.89608 4.30512 7.15008 4.30512 8.85508C4.30512 10.5601 5.58112 11.8141 7.30812 11.8141ZM15.5323 12.7711C13.7393 12.7711 12.4523 11.5281 12.4523 9.79008C12.4523 8.05208 13.7393 6.82008 15.5323 6.82008C16.5773 6.82008 17.4463 7.24908 17.9083 8.06308L17.1053 8.58008C16.7313 8.00808 16.1593 7.74408 15.5213 7.74408C14.3773 7.74408 13.5193 8.54708 13.5193 9.79008C13.5193 11.0551 14.3773 11.8471 15.5213 11.8471C16.1593 11.8471 16.7313 11.5831 17.1053 11.0111L17.9083 11.5171C17.4463 12.3311 16.5773 12.7711 15.5323 12.7711ZM23.5453 6.87508V7.79908H21.4113V12.7051H20.3553V7.79908H18.2213V6.87508H23.5453ZM26.7041 6.82008C28.2991 6.82008 29.2011 7.59008 29.2011 9.18508V12.7051H28.2001V11.9351C27.8481 12.4631 27.1991 12.7711 26.2861 12.7711C24.9661 12.7711 24.1301 12.0671 24.1301 11.0551C24.1301 10.1201 24.7351 9.35008 26.4731 9.35008H28.1451V9.14108C28.1451 8.25008 27.6281 7.73308 26.5831 7.73308C25.8901 7.73308 25.1861 7.97508 24.7351 8.36008L24.2951 7.56808C24.9001 7.08408 25.7691 6.82008 26.7041 6.82008ZM26.4621 11.9571C27.2541 11.9571 27.8811 11.5941 28.1451 10.9231V10.1091H26.5171C25.4721 10.1091 25.1751 10.5161 25.1751 11.0111C25.1751 11.5941 25.6591 11.9571 26.4621 11.9571ZM31.6307 6.87508H36.1077V12.7051H35.0517V7.79908H32.5437L32.4777 9.09708C32.3787 11.1541 32.1037 12.7931 30.7837 12.7931C30.5857 12.7931 30.3767 12.7601 30.1347 12.6941L30.2007 11.8031C30.2997 11.8251 30.3877 11.8361 30.4647 11.8361C31.4107 11.8361 31.4547 10.4061 31.5317 9.03108L31.6307 6.87508ZM40.8445 8.85508C42.3295 8.86608 43.1215 9.55908 43.1215 10.7581C43.1215 12.0231 42.2415 12.7271 40.6795 12.7161L38.1495 12.7051V6.87508H39.2055V8.84408L40.8445 8.85508ZM40.5915 11.9131C41.5485 11.9241 42.0435 11.5281 42.0435 10.7471C42.0435 9.97708 41.5595 9.64708 40.5915 9.63608L39.2055 9.61408V11.9021L40.5915 11.9131ZM44.4767 12.7051V6.87508H45.5327V9.35008H48.8547V6.87508H49.9107V12.7051H48.8547V10.2631H45.5327V12.7051H44.4767ZM54.593 8.85508C56.067 8.86608 56.859 9.55908 56.859 10.7581C56.859 12.0231 55.979 12.7271 54.417 12.7161L51.964 12.7051V6.87508H53.02V8.84408L54.593 8.85508ZM57.728 12.7051V6.87508H58.784V12.7051H57.728ZM54.34 11.9131C55.286 11.9241 55.792 11.5281 55.792 10.7471C55.792 9.97708 55.297 9.64708 54.34 9.63608L53.02 9.61408V11.9021L54.34 11.9131ZM66.106 9.82308C66.106 9.91108 66.095 10.0431 66.084 10.1421H61.354C61.486 11.1651 62.311 11.8471 63.466 11.8471C64.148 11.8471 64.72 11.6161 65.149 11.1431L65.732 11.8251C65.204 12.4411 64.401 12.7711 63.433 12.7711C61.552 12.7711 60.298 11.5281 60.298 9.79008C60.298 8.06308 61.541 6.82008 63.224 6.82008C64.907 6.82008 66.106 8.03008 66.106 9.82308ZM63.224 7.71108C62.212 7.71108 61.464 8.39308 61.354 9.38308H65.094C64.984 8.40408 64.247 7.71108 63.224 7.71108Z" fill="black"/>
<path d="M138.301 157.059C140.6 157.059 141.502 158.016 141.502 159.38C141.502 160.711 140.556 161.778 138.587 161.778C137.498 161.778 136.42 161.426 135.76 160.843L136.266 159.974C136.783 160.458 137.641 160.799 138.576 160.799C139.742 160.799 140.402 160.26 140.402 159.424C140.402 158.555 139.852 158.016 138.07 158.016H136.321L136.728 153.99H141.073V154.947H137.652L137.443 157.059H138.301Z" fill="black"/>
<path d="M193.734 153.99H196.561V161.69H195.472V154.947H193.734V153.99ZM201.391 161.778C199.587 161.778 198.245 160.348 198.245 157.84C198.245 155.332 199.587 153.902 201.391 153.902C203.184 153.902 204.526 155.332 204.526 157.84C204.526 160.348 203.184 161.778 201.391 161.778ZM201.391 160.799C202.59 160.799 203.426 159.809 203.426 157.84C203.426 155.871 202.59 154.881 201.391 154.881C200.181 154.881 199.345 155.871 199.345 157.84C199.345 159.809 200.181 160.799 201.391 160.799Z" fill="black"/>
<path d="M253.959 153.99H256.786V161.69H255.697V154.947H253.959V153.99ZM260.67 157.059C262.969 157.059 263.871 158.016 263.871 159.38C263.871 160.711 262.925 161.778 260.956 161.778C259.867 161.778 258.789 161.426 258.129 160.843L258.635 159.974C259.152 160.458 260.01 160.799 260.945 160.799C262.111 160.799 262.771 160.26 262.771 159.424C262.771 158.555 262.221 158.016 260.439 158.016H258.69L259.097 153.99H263.442V154.947H260.021L259.812 157.059H260.67Z" fill="black"/>
<path d="M314.563 160.733H318.512V161.69H312.979V160.942L316.114 157.917C316.928 157.125 317.082 156.641 317.082 156.157C317.082 155.365 316.521 154.881 315.443 154.881C314.618 154.881 313.947 155.145 313.474 155.717L312.726 155.068C313.32 154.331 314.343 153.902 315.542 153.902C317.148 153.902 318.182 154.727 318.182 156.047C318.182 156.795 317.962 157.466 316.917 158.467L314.563 160.733ZM322.53 161.778C320.726 161.778 319.384 160.348 319.384 157.84C319.384 155.332 320.726 153.902 322.53 153.902C324.323 153.902 325.665 155.332 325.665 157.84C325.665 160.348 324.323 161.778 322.53 161.778ZM322.53 160.799C323.729 160.799 324.565 159.809 324.565 157.84C324.565 155.871 323.729 154.881 322.53 154.881C321.32 154.881 320.484 155.871 320.484 157.84C320.484 159.809 321.32 160.799 322.53 160.799Z" fill="black"/>
<path d="M371.095 160.733H375.044V161.69H369.511V160.942L372.646 157.917C373.46 157.125 373.614 156.641 373.614 156.157C373.614 155.365 373.053 154.881 371.975 154.881C371.15 154.881 370.479 155.145 370.006 155.717L369.258 155.068C369.852 154.331 370.875 153.902 372.074 153.902C373.68 153.902 374.714 154.727 374.714 156.047C374.714 156.795 374.494 157.466 373.449 158.467L371.095 160.733ZM378.148 157.059C380.447 157.059 381.349 158.016 381.349 159.38C381.349 160.711 380.403 161.778 378.434 161.778C377.345 161.778 376.267 161.426 375.607 160.843L376.113 159.974C376.63 160.458 377.488 160.799 378.423 160.799C379.589 160.799 380.249 160.26 380.249 159.424C380.249 158.555 379.699 158.016 377.917 158.016H376.168L376.575 153.99H380.92V154.947H377.499L377.29 157.059H378.148ZM383.829 158.126C382.762 158.126 382.036 157.279 382.036 156.025C382.036 154.771 382.762 153.924 383.829 153.924C384.896 153.924 385.611 154.76 385.611 156.025C385.611 157.29 384.896 158.126 383.829 158.126ZM383.213 161.69L388.471 153.99H389.318L384.06 161.69H383.213ZM383.829 157.499C384.5 157.499 384.907 156.949 384.907 156.025C384.907 155.101 384.5 154.551 383.829 154.551C383.169 154.551 382.751 155.112 382.751 156.025C382.751 156.938 383.169 157.499 383.829 157.499ZM388.702 161.756C387.635 161.756 386.92 160.909 386.92 159.655C386.92 158.401 387.635 157.554 388.702 157.554C389.769 157.554 390.495 158.401 390.495 159.655C390.495 160.909 389.769 161.756 388.702 161.756ZM388.702 161.129C389.362 161.129 389.78 160.568 389.78 159.655C389.78 158.742 389.362 158.181 388.702 158.181C388.031 158.181 387.624 158.731 387.624 159.655C387.624 160.579 388.031 161.129 388.702 161.129Z" fill="black"/>
<line x1="138.231" y1="151.087" x2="138.231" y2="146.261" stroke="#122836"/>
<line x1="77.9131" y1="151.087" x2="77.9131" y2="146.261" stroke="#122836"/>
<line x1="73.5876" y1="35.3799" x2="78.4131" y2="35.3799" stroke="#122836"/>
<line x1="73.5876" y1="59.5068" x2="78.4131" y2="59.5068" stroke="#122836"/>
<line x1="73.5876" y1="83.634" x2="78.4131" y2="83.634" stroke="#122836"/>
<line x1="73.5876" y1="107.761" x2="78.4131" y2="107.761" stroke="#122836"/>
<line x1="73.5876" y1="131.888" x2="78.4131" y2="131.888" stroke="#122836"/>
<line x1="73.5876" y1="11.2498" x2="78.4131" y2="11.2498" stroke="#122836"/>
<line x1="198.549" y1="151.087" x2="198.549" y2="146.261" stroke="#122836"/>
<line x1="258.866" y1="151.087" x2="258.866" y2="146.261" stroke="#122836"/>
<line x1="319.184" y1="151.087" x2="319.184" y2="146.261" stroke="#122836"/>
<line x1="379.502" y1="151.087" x2="379.502" y2="146.261" stroke="#122836"/>
</svg>
