<?xml version="1.0" encoding="utf-8"?>
<!-- Generator: Adobe Illustrator 27.0.0, SVG Export Plug-In . SVG Version: 6.00 Build 0)  -->
<svg version="1.1" id="Layer_1" xmlns="http://www.w3.org/2000/svg" xmlns:xlink="http://www.w3.org/1999/xlink" x="0px" y="0px"
	 viewBox="0 0 393 236" style="enable-background:new 0 0 393 236;" xml:space="preserve">
<style type="text/css">
	.st0{fill:#B2D237;}
	.st1{fill:#8CC541;}
	.st2{fill:#00AB6C;}
	.st3{fill:#1D93D1;}
	.st4{fill:#1383C6;}
	.st5{fill:#8A4482;}
	.st6{fill:none;stroke:#122836;}
</style>
<g>
	<path class="st0" d="M77.8,158.8h111.6c5.3,0,9.7,4.3,9.7,9.7s-4.3,9.7-9.7,9.7H77.8V158.8z"/>
	<path class="st1" d="M77.8,134.6h280.5c5.3,0,9.7,4.3,9.7,9.7c0,5.3-4.3,9.7-9.7,9.7H77.8V134.6z"/>
	<path class="st2" d="M77.8,110.5h185.8c5.3,0,9.7,4.3,9.7,9.7s-4.3,9.7-9.7,9.7H77.8V110.5z"/>
	<path class="st3" d="M77.8,86.4H310c5.3,0,9.7,4.3,9.7,9.7c0,5.3-4.3,9.7-9.7,9.7H77.8V86.4z"/>
	<path class="st4" d="M77.8,62.2h280.5c5.3,0,9.7,4.3,9.7,9.7c0,5.3-4.3,9.7-9.7,9.7H77.8V62.2z"/>
	<path class="st5" d="M77.8,38.1h51.3c5.3,0,9.7,4.3,9.7,9.7c0,5.3-4.3,9.7-9.7,9.7H77.8V38.1z"/>
	<path class="st6" d="M78.4,37.5v145.4H380"/>
	<path d="M73.6,198.4c-1.8,0-3.1-1.4-3.1-3.9s1.3-3.9,3.1-3.9c1.8,0,3.1,1.4,3.1,3.9C76.7,196.9,75.4,198.4,73.6,198.4z M73.6,197.4
		c1.2,0,2-1,2-3s-0.8-3-2-3s-2,1-2,3C71.5,196.4,72.4,197.4,73.6,197.4z"/>
	<path d="M37,164h2.8v7.7h-1.1V165H37V164z M46.2,167.8c0.9,0.3,1.4,1,1.4,1.9c0,1.4-1.2,2.3-3.1,2.3c-1.9,0-3-0.9-3-2.3
		c0-0.9,0.5-1.5,1.4-1.9c-0.7-0.3-1.1-0.9-1.1-1.7c0-1.3,1.1-2.1,2.8-2.1s2.8,0.8,2.8,2.1C47.3,166.8,46.9,167.4,46.2,167.8z
		 M44.5,164.9c-1,0-1.7,0.5-1.7,1.2c0,0.8,0.6,1.2,1.7,1.2c1.1,0,1.7-0.5,1.7-1.2C46.2,165.3,45.6,164.9,44.5,164.9z M44.5,170.9
		c1.2,0,2-0.5,2-1.4c0-0.8-0.7-1.4-2-1.4s-1.9,0.5-1.9,1.4S43.3,170.9,44.5,170.9z M48.7,169.2v-0.9h3v0.9H48.7z M54.1,170.8H58v1
		h-5.5v-0.7l3.1-3c0.8-0.8,1-1.3,1-1.8c0-0.8-0.6-1.3-1.6-1.3c-0.8,0-1.5,0.3-2,0.8l-0.7-0.6c0.6-0.7,1.6-1.2,2.8-1.2
		c1.6,0,2.6,0.8,2.6,2.1c0,0.7-0.2,1.4-1.3,2.4L54.1,170.8z M65.5,168.9v0.9H64v1.9h-1v-1.9h-4.3V169l3.9-5h1.2l-3.8,4.9h3v-1.7h1
		v1.7L65.5,168.9L65.5,168.9z"/>
	<path d="M38.4,146.1h3.9v1h-5.5v-0.7l3.1-3c0.8-0.8,1-1.3,1-1.8c0-0.8-0.6-1.3-1.6-1.3c-0.8,0-1.5,0.3-2,0.8l-0.7-0.6
		c0.6-0.7,1.6-1.2,2.8-1.2c1.6,0,2.6,0.8,2.6,2.1c0,0.7-0.2,1.4-1.3,2.4L38.4,146.1z M45.5,142.4c2.3,0,3.2,1,3.2,2.3
		s-0.9,2.4-2.9,2.4c-1.1,0-2.2-0.4-2.8-0.9l0.5-0.9c0.5,0.5,1.4,0.8,2.3,0.8c1.2,0,1.8-0.5,1.8-1.4s-0.5-1.4-2.3-1.4h-1.7l0.4-4h4.3
		v1h-3.4l-0.2,2.1L45.5,142.4L45.5,142.4z M49.7,144.5v-0.9h3v0.9H49.7z M56.5,142.6c1.5,0.1,2.3,1,2.3,2.2c0,1.3-1,2.4-2.9,2.4
		c-1.1,0-2.2-0.4-2.8-0.9l0.5-0.9c0.5,0.5,1.4,0.8,2.3,0.8c1.2,0,1.8-0.5,1.8-1.4c0-0.8-0.6-1.3-1.9-1.3h-0.6v-0.8l1.9-2.4h-3.7v-1
		h5.1v0.7L56.5,142.6z M66.6,144.2v0.9h-1.5v1.9H64v-1.9h-4.3v-0.8l3.9-5h1.2l-3.8,4.9h3v-1.7h1v1.7L66.6,144.2L66.6,144.2z"/>
	<path d="M39.3,119c1.5,0.1,2.3,1,2.3,2.2c0,1.3-1,2.4-2.9,2.4c-1.1,0-2.2-0.4-2.8-0.9l0.5-0.9c0.5,0.5,1.4,0.8,2.3,0.8
		c1.2,0,1.8-0.5,1.8-1.4c0-0.8-0.6-1.3-1.9-1.3H38v-0.8l1.9-2.4h-3.7v-1h5.1v0.7L39.3,119z M44.7,118.9c2.3,0,3.2,1,3.2,2.3
		s-0.9,2.4-2.9,2.4c-1.1,0-2.2-0.4-2.8-0.9l0.5-0.9c0.5,0.5,1.4,0.8,2.3,0.8c1.2,0,1.8-0.5,1.8-1.4s-0.5-1.4-2.3-1.4h-1.7l0.4-4h4.3
		v1h-3.4l-0.2,2.1L44.7,118.9L44.7,118.9z M48.9,120.9v-0.9h3v0.9H48.9z M59.8,120.8v0.9h-1.5v1.9h-1.1v-1.9H53v-0.8l3.9-5h1.2
		l-3.8,4.9h3V119h1v1.7L59.8,120.8L59.8,120.8z M67.2,120.8v0.9h-1.5v1.9h-1.1v-1.9h-4.3v-0.8l3.9-5h1.2l-3.8,4.9h3V119h1v1.7
		L67.2,120.8L67.2,120.8z"/>
	<path d="M43,96.5v0.9h-1.5v1.9h-1.1v-1.9h-4.3v-0.8l3.9-5h1.2l-3.8,4.9h3v-1.7h1v1.7L43,96.5L43,96.5z M45.9,94.8
		c2.3,0,3.2,1,3.2,2.3c0,1.3-0.9,2.4-2.9,2.4c-1.1,0-2.2-0.4-2.8-0.9l0.5-0.9c0.5,0.5,1.4,0.8,2.3,0.8c1.2,0,1.8-0.5,1.8-1.4
		s-0.5-1.4-2.3-1.4H44l0.4-4h4.3v1h-3.4l-0.2,2.1L45.9,94.8L45.9,94.8z M50.1,96.8v-0.9h3v0.9H50.1z M56.4,94.8c2.3,0,3.2,1,3.2,2.3
		c0,1.3-0.9,2.4-2.9,2.4c-1.1,0-2.2-0.4-2.8-0.9l0.5-0.9c0.5,0.5,1.4,0.8,2.3,0.8c1.2,0,1.8-0.5,1.8-1.4s-0.6-1.4-2.3-1.4h-1.7
		l0.4-4h4.3v1h-3.4l-0.2,2.1L56.4,94.8L56.4,94.8z M67.2,96.5v0.9h-1.5v1.9h-1.1v-1.9h-4.3v-0.8l3.9-5h1.2l-3.8,4.9h3v-1.7h1v1.7
		L67.2,96.5L67.2,96.5z"/>
	<path d="M52,70.6c2.3,0,3.2,1,3.2,2.3s-0.9,2.4-2.9,2.4c-1.1,0-2.2-0.4-2.8-0.9l0.5-0.9c0.5,0.5,1.4,0.8,2.3,0.8
		c1.2,0,1.8-0.5,1.8-1.4c0-0.9-0.6-1.4-2.3-1.4h-1.7l0.4-4h4.3v1h-3.4l-0.2,2.1H52z M58.3,70.6c2.3,0,3.2,1,3.2,2.3
		s-0.9,2.4-2.9,2.4c-1.1,0-2.2-0.4-2.8-0.9l0.5-0.9c0.5,0.5,1.4,0.8,2.3,0.8c1.2,0,1.8-0.5,1.8-1.4c0-0.9-0.5-1.4-2.3-1.4h-1.7
		l0.4-4h4.3v1h-3.4l-0.2,2.1H58.3z M67.6,71.1v0.9h-2v2h-0.9v-2h-2v-0.9h2v-2h0.9v2H67.6z"/>
	<path d="M7.3,49.5c-2.4,0-4.1-1.7-4.1-3.9c0-2.3,1.7-3.9,4.1-3.9c2.3,0,4.1,1.7,4.1,3.9C11.4,47.7,9.7,49.5,7.3,49.5z M7.3,48.5
		c1.7,0,3-1.3,3-3s-1.3-3-3-3s-3,1.3-3,3C4.3,47.2,5.6,48.5,7.3,48.5z M15.5,49.5c-1.8,0-3.1-1.2-3.1-3c0-1.7,1.3-3,3.1-3
		c1,0,1.9,0.4,2.4,1.2l-0.8,0.5c-0.4-0.6-0.9-0.8-1.6-0.8c-1.1,0-2,0.8-2,2c0,1.3,0.9,2.1,2,2.1c0.6,0,1.2-0.3,1.6-0.8l0.8,0.5
		C17.4,49,16.6,49.5,15.5,49.5z M23.5,43.5v0.9h-2.1v4.9h-1.1v-4.9h-2.1v-0.9H23.5z M26.7,43.5c1.6,0,2.5,0.8,2.5,2.4v3.5h-1v-0.8
		c-0.4,0.5-1,0.8-1.9,0.8c-1.3,0-2.2-0.7-2.2-1.7c0-0.9,0.6-1.7,2.3-1.7h1.7v-0.2c0-0.9-0.5-1.4-1.6-1.4c-0.7,0-1.4,0.2-1.8,0.6
		l-0.4-0.8C24.9,43.7,25.8,43.5,26.7,43.5z M26.5,48.6c0.8,0,1.4-0.4,1.7-1v-0.8h-1.6c-1,0-1.3,0.4-1.3,0.9
		C25.2,48.2,25.7,48.6,26.5,48.6z M31.6,43.5h4.5v5.8H35v-4.9h-2.5l-0.1,1.3c-0.1,2.1-0.4,3.7-1.7,3.7c-0.2,0-0.4,0-0.6-0.1l0.1-0.9
		c0.1,0,0.2,0,0.3,0c0.9,0,1-1.4,1.1-2.8V43.5z M40.8,45.5c1.5,0,2.3,0.7,2.3,1.9c0,1.3-0.9,2-2.4,2h-2.5v-5.8h1.1v2L40.8,45.5z
		 M40.6,48.5c1,0,1.5-0.4,1.5-1.2c0-0.8-0.5-1.1-1.5-1.1h-1.4v2.3L40.6,48.5z M44.5,49.3v-5.8h1.1V46h3.3v-2.5H50v5.8h-1.1v-2.4
		h-3.3v2.4H44.5z M54.6,45.5c1.5,0,2.3,0.7,2.3,1.9c0,1.3-0.9,2-2.4,2H52v-5.8h1v2L54.6,45.5z M57.7,49.3v-5.8h1.1v5.8H57.7z
		 M54.3,48.5c0.9,0,1.5-0.4,1.5-1.2c0-0.8-0.5-1.1-1.5-1.1H53v2.3L54.3,48.5z M66.1,46.5c0,0.1,0,0.2,0,0.3h-4.7
		c0.1,1,1,1.7,2.1,1.7c0.7,0,1.3-0.2,1.7-0.7l0.6,0.7c-0.5,0.6-1.3,0.9-2.3,0.9c-1.9,0-3.1-1.2-3.1-3c0-1.7,1.2-3,2.9-3
		S66.1,44.6,66.1,46.5z M63.2,44.3c-1,0-1.8,0.7-1.9,1.7H65C65,45,64.2,44.3,63.2,44.3z"/>
	<path d="M138.3,193.8c2.3,0,3.2,1,3.2,2.3s-0.9,2.4-2.9,2.4c-1.1,0-2.2-0.4-2.8-0.9l0.5-0.9c0.5,0.5,1.4,0.8,2.3,0.8
		c1.2,0,1.8-0.5,1.8-1.4s-0.5-1.4-2.3-1.4h-1.7l0.4-4h4.3v1h-3.4l-0.2,2.1L138.3,193.8L138.3,193.8z"/>
	<path d="M193.7,190.6h2.8v7.7h-1.1v-6.7h-1.7V190.6z M201.4,198.4c-1.8,0-3.1-1.4-3.1-3.9s1.3-3.9,3.1-3.9s3.1,1.4,3.1,3.9
		C204.5,196.9,203.2,198.4,201.4,198.4z M201.4,197.4c1.2,0,2-1,2-3s-0.8-3-2-3s-2,1-2,3C199.3,196.4,200.2,197.4,201.4,197.4z"/>
	<path d="M254,190.6h2.8v7.7h-1.1v-6.7H254V190.6z M260.7,193.8c2.3,0,3.2,1,3.2,2.3s-0.9,2.4-2.9,2.4c-1.1,0-2.2-0.4-2.8-0.9
		l0.5-0.9c0.5,0.5,1.4,0.8,2.3,0.8c1.2,0,1.8-0.5,1.8-1.4s-0.5-1.4-2.3-1.4h-1.7l0.4-4h4.3v1H260l-0.2,2.1L260.7,193.8L260.7,193.8z
		"/>
	<path d="M314.6,197.3h3.9v1H313v-0.7l3.1-3c0.8-0.8,1-1.3,1-1.8c0-0.8-0.6-1.3-1.6-1.3c-0.8,0-1.5,0.3-2,0.8l-0.7-0.6
		c0.6-0.7,1.6-1.2,2.8-1.2c1.6,0,2.6,0.8,2.6,2.1c0,0.7-0.2,1.4-1.3,2.4L314.6,197.3z M322.5,198.4c-1.8,0-3.1-1.4-3.1-3.9
		s1.3-3.9,3.1-3.9c1.8,0,3.1,1.4,3.1,3.9C325.7,196.9,324.3,198.4,322.5,198.4z M322.5,197.4c1.2,0,2-1,2-3s-0.8-3-2-3s-2,1-2,3
		S321.3,197.4,322.5,197.4z"/>
	<path d="M371.1,197.3h3.9v1h-5.5v-0.7l3.1-3c0.8-0.8,1-1.3,1-1.8c0-0.8-0.6-1.3-1.6-1.3c-0.8,0-1.5,0.3-2,0.8l-0.7-0.6
		c0.6-0.7,1.6-1.2,2.8-1.2c1.6,0,2.6,0.8,2.6,2.1c0,0.7-0.2,1.4-1.3,2.4L371.1,197.3z M378.1,193.8c2.3,0,3.2,1,3.2,2.3
		s-0.9,2.4-2.9,2.4c-1.1,0-2.2-0.4-2.8-0.9l0.5-0.9c0.5,0.5,1.4,0.8,2.3,0.8c1.2,0,1.8-0.5,1.8-1.4s-0.5-1.4-2.3-1.4h-1.7l0.4-4h4.3
		v1h-3.4l-0.2,2.1L378.1,193.8L378.1,193.8z M383.8,194.8c-1.1,0-1.8-0.8-1.8-2.1s0.7-2.1,1.8-2.1c1.1,0,1.8,0.8,1.8,2.1
		S384.9,194.8,383.8,194.8z M383.2,198.3l5.3-7.7h0.8l-5.3,7.7H383.2z M383.8,194.1c0.7,0,1.1-0.5,1.1-1.5c0-0.9-0.4-1.5-1.1-1.5
		s-1.1,0.6-1.1,1.5C382.8,193.5,383.2,194.1,383.8,194.1z M388.7,198.4c-1.1,0-1.8-0.8-1.8-2.1s0.7-2.1,1.8-2.1
		c1.1,0,1.8,0.8,1.8,2.1S389.8,198.4,388.7,198.4z M388.7,197.8c0.7,0,1.1-0.6,1.1-1.5s-0.4-1.5-1.1-1.5s-1.1,0.6-1.1,1.5
		S388,197.8,388.7,197.8z"/>
	<line class="st6" x1="138.2" y1="187.8" x2="138.2" y2="182.9"/>
	<line class="st6" x1="77.9" y1="187.8" x2="77.9" y2="182.9"/>
	<line class="st6" x1="73.6" y1="72.1" x2="78.4" y2="72.1"/>
	<line class="st6" x1="73.6" y1="96.1" x2="78.4" y2="96.1"/>
	<line class="st6" x1="73.6" y1="120.2" x2="78.4" y2="120.2"/>
	<line class="st6" x1="73.6" y1="144.4" x2="78.4" y2="144.4"/>
	<line class="st6" x1="73.6" y1="168.5" x2="78.4" y2="168.5"/>
	<line class="st6" x1="73.6" y1="47.8" x2="78.4" y2="47.8"/>
	<line class="st6" x1="198.5" y1="187.8" x2="198.5" y2="182.9"/>
	<line class="st6" x1="258.9" y1="187.8" x2="258.9" y2="182.9"/>
	<line class="st6" x1="319.2" y1="187.8" x2="319.2" y2="182.9"/>
	<line class="st6" x1="379.5" y1="187.8" x2="379.5" y2="182.9"/>
</g>
</svg>
