<?xml version="1.0" encoding="utf-8"?>
<!-- Generator: Adobe Illustrator 27.0.0, SVG Export Plug-In . SVG Version: 6.00 Build 0)  -->
<svg version="1.1" id="Layer_1" xmlns="http://www.w3.org/2000/svg" xmlns:xlink="http://www.w3.org/1999/xlink" x="0px" y="0px"
	 viewBox="0 0 402 236" style="enable-background:new 0 0 402 236;" xml:space="preserve">
<style type="text/css">
	.st0{fill:#8A4482;stroke:#FFFFFF;stroke-width:3;}
	.st1{fill:#8CC541;stroke:#FFFFFF;stroke-width:3;}
	.st2{fill:#1D93D1;stroke:#FFFFFF;stroke-width:3;}
	.st3{fill:#122836;}
	.st4{fill:none;stroke:#122836;}
</style>
<circle class="st0" cx="186.4" cy="128.7" r="105"/>
<path class="st1" d="M289.7,148.3c-3.7,19.6-12.9,37.7-26.5,52.2c-13.6,14.5-31.1,24.9-50.4,29.9c-19.3,5-39.6,4.4-58.6-1.8
	c-19-6.1-35.8-17.5-48.5-32.9s-20.8-34-23.3-53.7c-2.5-19.8,0.6-39.8,9.1-57.9c8.5-18,21.9-33.3,38.7-44
	c16.8-10.7,36.3-16.4,56.2-16.4l0.1,105L289.7,148.3z"/>
<path class="st2" d="M186,23.7c14.3-0.1,28.6,2.8,41.7,8.4c13.2,5.6,25.1,13.9,35,24.3c9.9,10.4,17.5,22.7,22.4,36.2
	c4.9,13.5,7,27.8,6.2,42.1l-104.8-6.1L186,23.7z"/>
<path class="st3" d="M2,4.6h16.9v2.2L9.8,27H6.4l8.9-19.6H5v4H2V4.6z M25.9,24.2h11.5V27H21.3v-2.2l9.1-8.8c2.4-2.3,2.8-3.7,2.8-5.1
	c0-2.3-1.6-3.7-4.8-3.7c-2.4,0-4.4,0.8-5.7,2.4l-2.2-1.9c1.7-2.1,4.7-3.4,8.2-3.4c4.7,0,7.7,2.4,7.7,6.2c0,2.2-0.6,4.1-3.7,7
	L25.9,24.2z M45.2,16.6c-3.1,0-5.2-2.5-5.2-6.1c0-3.6,2.1-6.1,5.2-6.1s5.2,2.4,5.2,6.1S48.3,16.6,45.2,16.6z M43.4,27L58.7,4.6h2.5
	L45.9,27H43.4z M45.2,14.8c2,0,3.1-1.6,3.1-4.3s-1.2-4.3-3.1-4.3c-1.9,0-3.1,1.6-3.1,4.3C42.1,13.2,43.3,14.8,45.2,14.8z M59.4,27.2
	c-3.1,0-5.2-2.5-5.2-6.1s2.1-6.1,5.2-6.1c3.1,0,5.2,2.5,5.2,6.1S62.5,27.2,59.4,27.2z M59.4,25.4c1.9,0,3.1-1.6,3.1-4.3
	c0-2.7-1.2-4.3-3.1-4.3c-2,0-3.1,1.6-3.1,4.3S57.4,25.4,59.4,25.4z M10.8,38.5h1.4V47h-1.4v-6.2L7.7,46H7l-3.1-5.2V47H2.5v-8.5h1.6
	l3.3,5.7L10.8,38.5z M18.9,47.1c-2.5,0-4.4-1.8-4.4-4.3s1.9-4.3,4.4-4.3s4.4,1.8,4.4,4.3S21.4,47.1,18.9,47.1z M18.9,45.8
	c1.6,0,2.8-1.2,2.8-3s-1.2-3-2.8-3S16,41,16,42.8S17.3,45.8,18.9,45.8z M29.8,38.8c2.4,0,4.1,1.7,4.1,4.1c0,2.5-1.8,4.2-4.4,4.2
	c-2.9,0-4.5-2.1-4.5-5.6c0-3.5,1.4-5.4,4.4-6l3.9-0.9l0.2,1.4l-3.6,0.8c-2.2,0.5-3.2,1.6-3.4,3.8C27.2,39.4,28.4,38.8,29.8,38.8z
	 M29.6,45.8c1.6,0,2.8-1.2,2.8-2.9s-1.1-2.8-2.8-2.8c-1.7,0-2.8,1.1-2.8,2.8S27.9,45.8,29.6,45.8z M36.1,47v-8.5h1.5v6.2l5.2-6.2
	h1.4V47h-1.5v-6.2L37.5,47H36.1z M48,38.5h6.5V47H53v-7.1h-3.6l-0.1,1.9c-0.1,3-0.5,5.4-2.5,5.4c-0.3,0-0.6,0-0.9-0.1l0.1-1.3
	c0.1,0,0.3,0,0.4,0c1.4,0,1.4-2.1,1.6-4.1L48,38.5z M61.4,41.4c2.2,0,3.3,1,3.3,2.8c0,1.8-1.3,2.9-3.6,2.8l-3.7,0v-8.5H59v2.9
	L61.4,41.4z M61,45.8c1.4,0,2.1-0.6,2.1-1.7c0-1.1-0.7-1.6-2.1-1.6l-2,0v3.3L61,45.8z M66.7,47v-8.5h1.5v3.6H73v-3.6h1.5V47H73v-3.6
	h-4.8V47H66.7z M81.4,41.4c2.1,0,3.3,1,3.3,2.8c0,1.8-1.3,2.9-3.6,2.8l-3.6,0v-8.5h1.5v2.9L81.4,41.4z M85.9,47v-8.5h1.5V47H85.9z
	 M81,45.8c1.4,0,2.1-0.6,2.1-1.7c0-1.1-0.7-1.6-2.1-1.6l-1.9,0v3.3L81,45.8z M98.1,42.8c0,0.1,0,0.3,0,0.5h-6.9
	c0.2,1.5,1.4,2.5,3.1,2.5c1,0,1.8-0.3,2.4-1l0.8,1c-0.8,0.9-1.9,1.4-3.3,1.4c-2.7,0-4.6-1.8-4.6-4.3c0-2.5,1.8-4.3,4.3-4.3
	S98.1,40.2,98.1,42.8z M93.9,39.7c-1.5,0-2.6,1-2.7,2.4h5.4C96.5,40.7,95.4,39.7,93.9,39.7z"/>
<path class="st3" d="M309.8,26.2h11.5V29h-16.1v-2.2l9.1-8.8c2.4-2.3,2.8-3.7,2.8-5.1c0-2.3-1.6-3.7-4.8-3.7c-2.4,0-4.4,0.8-5.7,2.4
	l-2.2-1.9c1.7-2.1,4.7-3.4,8.2-3.4c4.7,0,7.7,2.4,7.7,6.2c0,2.2-0.6,4.1-3.7,7L309.8,26.2z M333.5,15.4c4.4,0,7.7,2.7,7.7,6.8
	c0,4.3-3.5,7.1-7.9,7.1c-6,0-9.4-4-9.4-11.2c0-7.6,4.3-11.7,10.6-11.7c2.1,0,4.1,0.4,5.6,1.3l-1.2,2.5c-1.2-0.8-2.7-1.1-4.3-1.1
	c-4.5,0-7.5,2.8-7.5,8.4c0,0.3,0,0.5,0,0.8C328.3,16.4,330.7,15.4,333.5,15.4z M333.1,26.7c2.9,0,5-1.7,5-4.4c0-2.6-2-4.3-5.1-4.3
	c-3,0-5.2,1.9-5.2,4.4C327.8,24.6,329.6,26.7,333.1,26.7z M347.8,18.6c-3.1,0-5.2-2.5-5.2-6.1c0-3.6,2.1-6.1,5.2-6.1
	s5.2,2.4,5.2,6.1S350.9,18.6,347.8,18.6z M346,29l15.3-22.4h2.5L348.5,29H346z M347.8,16.8c2,0,3.1-1.6,3.1-4.3s-1.2-4.3-3.1-4.3
	c-1.9,0-3.1,1.6-3.1,4.3C344.7,15.2,345.9,16.8,347.8,16.8z M362,29.2c-3.1,0-5.2-2.5-5.2-6.1s2.1-6.1,5.2-6.1s5.2,2.5,5.2,6.1
	S365.1,29.2,362,29.2z M362,27.4c1.9,0,3.1-1.6,3.1-4.3c0-2.7-1.2-4.3-3.1-4.3c-2,0-3.1,1.6-3.1,4.3S360,27.4,362,27.4z M312.8,47.7
	h1.3V51h-1.4v-2h-7.1v2h-1.5v-3.3h0.4c1.2-0.1,1.4-2.1,1.5-4.3l0.1-2.9h6.6V47.7z M307.5,43.5c-0.1,1.8-0.2,3.5-1,4.2h4.8v-5.8h-3.7
	L307.5,43.5z M323.8,44.8c0,0.1,0,0.3,0,0.5h-6.9c0.2,1.5,1.4,2.5,3.1,2.5c1,0,1.8-0.3,2.4-1l0.8,1c-0.8,0.9-1.9,1.4-3.3,1.4
	c-2.7,0-4.6-1.8-4.6-4.3c0-2.5,1.8-4.3,4.3-4.3S323.8,42.2,323.8,44.8z M319.6,41.7c-1.5,0-2.6,1-2.7,2.4h5.4
	C322.1,42.7,321.1,41.7,319.6,41.7z M329.9,49.1c-2.6,0-4.5-1.8-4.5-4.3s1.9-4.3,4.5-4.3c1.5,0,2.8,0.6,3.5,1.8l-1.2,0.8
	c-0.5-0.8-1.4-1.2-2.3-1.2c-1.7,0-2.9,1.2-2.9,3c0,1.8,1.2,3,2.9,3c0.9,0,1.8-0.4,2.3-1.2l1.2,0.7C332.6,48.5,331.4,49.1,329.9,49.1
	z M341.4,49l-2.8-3.6h-1.8V49h-1.5v-8.5h1.5v3.6h1.8l2.8-3.6h1.6l-3.2,4.1l3.4,4.4H341.4z M351,40.5v1.3h-3.1V49h-1.5v-7.1h-3.1
	v-1.3H351z M355.9,49.1c-2.5,0-4.4-1.8-4.4-4.3s1.9-4.3,4.4-4.3s4.4,1.8,4.4,4.3S358.4,49.1,355.9,49.1z M355.9,47.8
	c1.6,0,2.8-1.2,2.8-3s-1.2-3-2.8-3c-1.6,0-2.9,1.2-2.9,3S354.2,47.8,355.9,47.8z M362.5,40.5h7.9V49h-1.5v-7.1H364V49h-1.5V40.5z"/>
<path class="st3" d="M319.8,169.2h11.5v2.8h-16.1v-2.2l9.1-8.8c2.4-2.3,2.8-3.7,2.8-5.1c0-2.3-1.6-3.7-4.8-3.7
	c-2.4,0-4.4,0.8-5.7,2.4l-2.2-1.9c1.7-2.1,4.7-3.4,8.2-3.4c4.7,0,7.7,2.4,7.7,6.2c0,2.2-0.6,4.1-3.7,7L319.8,169.2z M339.1,161.6
	c-3.1,0-5.2-2.5-5.2-6.1c0-3.6,2.1-6.1,5.2-6.1c3.1,0,5.2,2.4,5.2,6.1C344.3,159.2,342.2,161.6,339.1,161.6z M337.3,172l15.3-22.4
	h2.5L339.8,172H337.3z M339.1,159.8c2,0,3.1-1.6,3.1-4.3c0-2.7-1.2-4.3-3.1-4.3c-1.9,0-3.1,1.6-3.1,4.3
	C336,158.2,337.2,159.8,339.1,159.8z M353.3,172.2c-3.1,0-5.2-2.5-5.2-6.1s2.1-6.1,5.2-6.1s5.2,2.5,5.2,6.1S356.4,172.2,353.3,172.2
	z M353.3,170.4c1.9,0,3.1-1.6,3.1-4.3c0-2.7-1.2-4.3-3.1-4.3c-2,0-3.1,1.6-3.1,4.3S351.3,170.4,353.3,170.4z M315.5,183.5h7.9v8.5
	h-1.5v-7.1H317v7.1h-1.5V183.5z M327.1,183.5h6.5v8.5h-1.5v-7.1h-3.6l-0.1,1.9c-0.1,3-0.5,5.4-2.5,5.4c-0.3,0-0.6,0-0.9-0.1l0.1-1.3
	c0.1,0,0.3,0,0.4,0c1.4,0,1.4-2.1,1.6-4.1L327.1,183.5z M339.6,183.4c2.3,0,3.6,1.1,3.6,3.4v5.1h-1.5v-1.1c-0.5,0.8-1.5,1.2-2.8,1.2
	c-1.9,0-3.1-1-3.1-2.5c0-1.4,0.9-2.5,3.4-2.5h2.4v-0.3c0-1.3-0.8-2-2.3-2c-1,0-2,0.4-2.7,0.9l-0.6-1.2
	C337,183.8,338.2,183.4,339.6,183.4z M339.2,190.9c1.2,0,2.1-0.5,2.4-1.5v-1.2h-2.4c-1.5,0-2,0.6-2,1.3
	C337.4,190.4,338.1,190.9,339.2,190.9z M346,192v-8.5h1.5v3.6h4.8v-3.6h1.5v8.5h-1.5v-3.6h-4.8v3.6H346z M367.4,183.5h1.5v8.5h-12.1
	v-8.5h1.5v7.1h3.7v-7.1h1.5v7.1h3.7V183.5z M379.6,187.8c0,0.1,0,0.3,0,0.5h-6.9c0.2,1.5,1.4,2.5,3.1,2.5c1,0,1.8-0.3,2.4-1l0.8,1
	c-0.8,0.9-1.9,1.4-3.3,1.4c-2.7,0-4.6-1.8-4.6-4.3c0-2.5,1.8-4.3,4.3-4.3S379.6,185.2,379.6,187.8z M375.4,184.7
	c-1.5,0-2.6,1-2.7,2.4h5.4C378,185.7,376.9,184.7,375.4,184.7z M387.9,183.5v1.3h-3.1v7.1h-1.5v-7.1h-3.1v-1.3H387.9z M393.3,186.4
	c2.1,0,3.3,1,3.3,2.8c0,1.8-1.3,2.9-3.6,2.8l-3.6,0v-8.5h1.5v2.9L393.3,186.4z M397.9,192v-8.5h1.5v8.5H397.9z M393,190.8
	c1.4,0,2.1-0.6,2.1-1.7c0-1.1-0.7-1.6-2.1-1.6l-1.9,0v3.3L393,190.8z"/>
<path class="st4" d="M1,55.5h95.4l33.3,77.3"/>
<path class="st4" d="M372,57h-68l-67.7,28.1"/>
<path class="st4" d="M399.8,200h-85.3l-35.7-59.3"/>
<circle class="st3" cx="236.7" cy="84.8" r="2"/>
<circle class="st3" cx="279" cy="141" r="2"/>
<circle class="st3" cx="129.4" cy="133.2" r="2"/>
</svg>
