<svg width="433" height="340" viewBox="0 0 433 340" fill="none" xmlns="http://www.w3.org/2000/svg">
<circle cx="201.448" cy="178.725" r="104.951" transform="rotate(143.277 201.448 178.725)" fill="#8A4482" stroke="white" stroke-width="3"/>
<path d="M304.651 198.334C300.94 217.91 291.737 236.027 278.115 250.568C264.493 265.109 247.014 275.474 227.721 280.452C208.428 285.431 188.117 284.817 169.16 278.682C150.203 272.548 133.382 261.146 120.663 245.809C107.944 230.472 99.8517 211.832 97.3307 192.067C94.8097 172.302 97.9645 152.228 106.427 134.19C114.889 116.151 128.308 100.892 145.119 90.1955C161.929 79.499 181.436 73.8064 201.361 73.7825L201.487 178.782L304.651 198.334Z" fill="#8CC541" stroke="white" stroke-width="3"/>
<path d="M200.958 73.6767C215.301 73.6031 229.508 76.4692 242.702 82.0983C255.895 87.7273 267.796 96 277.668 106.406C287.541 116.812 295.177 129.13 300.105 142.601C305.033 156.072 307.149 170.41 306.322 184.73L201.497 178.675L200.958 73.6767Z" fill="#1D93D1" stroke="white" stroke-width="3"/>
<path d="M16.9601 54.6002L33.8561 54.6002L33.8561 56.7762L24.8001 77.0002L21.4081 77.0002L30.2721 57.3842L20.0321 57.3842L20.0321 61.3842L16.9601 61.3842L16.9601 54.6002ZM40.9171 74.2162L52.4051 74.2162L52.4051 77.0002L36.3091 77.0002L36.3091 74.8242L45.4291 66.0242C47.7971 63.7202 48.2451 62.3122 48.2451 60.9042C48.2451 58.6002 46.6131 57.1922 43.4771 57.1922C41.0771 57.1922 39.1251 57.9602 37.7491 59.6242L35.5731 57.7362C37.3011 55.5922 40.2771 54.3442 43.7651 54.3442C48.4371 54.3442 51.4451 56.7442 51.4451 60.5842C51.4451 62.7602 50.8051 64.7122 47.7651 67.6242L40.9171 74.2162ZM60.2126 66.6322C57.1086 66.6322 54.9966 64.1682 54.9966 60.5202C54.9966 56.8722 57.1086 54.4082 60.2126 54.4082C63.3166 54.4082 65.3966 56.8402 65.3966 60.5202C65.3966 64.2002 63.3166 66.6322 60.2126 66.6322ZM58.4206 77.0002L73.7166 54.6002L76.1806 54.6002L60.8846 77.0002L58.4206 77.0002ZM60.2126 64.8082C62.1646 64.8082 63.3486 63.2082 63.3486 60.5202C63.3486 57.8322 62.1646 56.2322 60.2126 56.2322C58.2926 56.2322 57.0766 57.8642 57.0766 60.5202C57.0766 63.1762 58.2926 64.8082 60.2126 64.8082ZM74.3886 77.1922C71.2846 77.1922 69.2046 74.7282 69.2046 71.0802C69.2046 67.4322 71.2846 64.9682 74.3886 64.9682C77.4926 64.9682 79.6046 67.4322 79.6046 71.0802C79.6046 74.7282 77.4926 77.1922 74.3886 77.1922ZM74.3886 75.3682C76.3086 75.3682 77.5246 73.7362 77.5246 71.0802C77.5246 68.4242 76.3086 66.7922 74.3886 66.7922C72.4366 66.7922 71.2526 68.3922 71.2526 71.0802C71.2526 73.7682 72.4366 75.3682 74.3886 75.3682ZM25.8241 88.5202L27.2641 88.5202L27.2641 97.0002L25.8721 97.0002L25.8721 90.8082L22.7041 96.0402L22.0321 96.0402L18.8961 90.7922L18.8961 97.0002L17.4881 97.0002L17.4881 88.5202L19.0721 88.5202L22.4001 94.2482L25.8241 88.5202ZM33.8857 97.0962C31.3417 97.0962 29.4697 95.2882 29.4697 92.7602C29.4697 90.2322 31.3417 88.4402 33.8857 88.4402C36.4297 88.4402 38.2857 90.2322 38.2857 92.7602C38.2857 95.2882 36.4297 97.0962 33.8857 97.0962ZM33.8857 95.7522C35.5177 95.7522 36.7337 94.5682 36.7337 92.7602C36.7337 90.9522 35.5177 89.7842 33.8857 89.7842C32.2537 89.7842 31.0217 90.9522 31.0217 92.7602C31.0217 94.5682 32.2537 95.7522 33.8857 95.7522ZM44.8237 88.8082C47.2237 88.8082 48.9037 90.5042 48.9037 92.9362C48.9037 95.4322 47.1117 97.1282 44.5197 97.1282C41.6237 97.1282 40.0077 95.0482 40.0077 91.4802C40.0077 87.9762 41.4317 86.0722 44.3597 85.4322L48.2317 84.5682L48.4557 85.9762L44.8877 86.7442C42.6797 87.2242 41.6397 88.3122 41.4797 90.5202C42.1997 89.4322 43.3997 88.8082 44.8237 88.8082ZM44.5517 95.8482C46.1997 95.8482 47.3357 94.6642 47.3357 92.9842C47.3357 91.3042 46.2157 90.1842 44.5517 90.1842C42.8877 90.1842 41.7517 91.3042 41.7517 92.9842C41.7517 94.6642 42.9197 95.8482 44.5517 95.8482ZM51.0975 97.0002L51.0975 88.5202L52.6335 88.5202L52.6335 94.6962L57.8335 88.5202L59.2255 88.5202L59.2255 97.0002L57.6895 97.0002L57.6895 90.8242L52.5055 97.0002L51.0975 97.0002ZM62.9748 88.5202L69.4868 88.5202L69.4868 97.0002L67.9508 97.0002L67.9508 89.8642L64.3028 89.8642L64.2068 91.7522C64.0628 94.7442 63.6628 97.1282 61.7428 97.1282C61.4548 97.1282 61.1508 97.0802 60.7988 96.9842L60.8948 95.6882C61.0388 95.7202 61.1668 95.7362 61.2788 95.7362C62.6548 95.7362 62.7188 93.6562 62.8308 91.6562L62.9748 88.5202ZM76.3768 91.4002C78.5368 91.4162 79.6888 92.4242 79.6888 94.1682C79.6888 96.0082 78.4088 97.0322 76.1368 97.0162L72.4568 97.0002L72.4568 88.5202L73.9928 88.5202L73.9928 91.3842L76.3768 91.4002ZM76.0088 95.8482C77.4008 95.8642 78.1208 95.2882 78.1208 94.1522C78.1208 93.0322 77.4168 92.5522 76.0088 92.5362L73.9928 92.5042L73.9928 95.8322L76.0088 95.8482ZM81.66 97.0002L81.66 88.5202L83.196 88.5202L83.196 92.1202L88.028 92.1202L88.028 88.5202L89.564 88.5202L89.564 97.0002L88.028 97.0002L88.028 93.4482L83.196 93.4482L83.196 97.0002L81.66 97.0002ZM96.3746 91.4002C98.5186 91.4162 99.6706 92.4242 99.6706 94.1682C99.6706 96.0082 98.3906 97.0322 96.1186 97.0162L92.5506 97.0002L92.5506 88.5202L94.0866 88.5202L94.0866 91.3842L96.3746 91.4002ZM100.935 97.0002L100.935 88.5202L102.471 88.5202L102.471 97.0002L100.935 97.0002ZM96.0066 95.8482C97.3826 95.8642 98.1186 95.2882 98.1186 94.1522C98.1186 93.0322 97.3986 92.5522 96.0066 92.5362L94.0866 92.5042L94.0866 95.8322L96.0066 95.8482ZM113.121 92.8082C113.121 92.9362 113.105 93.1282 113.089 93.2722L106.209 93.2722C106.401 94.7602 107.601 95.7522 109.281 95.7522C110.273 95.7522 111.105 95.4162 111.729 94.7282L112.577 95.7202C111.809 96.6162 110.641 97.0962 109.233 97.0962C106.497 97.0962 104.673 95.2882 104.673 92.7602C104.673 90.2482 106.481 88.4402 108.929 88.4402C111.377 88.4402 113.121 90.2002 113.121 92.8082ZM108.929 89.7362C107.457 89.7362 106.369 90.7282 106.209 92.1682L111.649 92.1682C111.489 90.7442 110.417 89.7362 108.929 89.7362Z" fill="#122836"/>
<path d="M324.792 76.2162L336.28 76.2162L336.28 79.0002L320.184 79.0002L320.184 76.8242L329.304 68.0242C331.672 65.7202 332.12 64.3122 332.12 62.9042C332.12 60.6002 330.488 59.1922 327.352 59.1922C324.952 59.1922 323 59.9602 321.624 61.6242L319.448 59.7362C321.176 57.5922 324.152 56.3442 327.64 56.3442C332.312 56.3442 335.32 58.7442 335.32 62.5842C335.32 64.7602 334.68 66.7122 331.64 69.6242L324.792 76.2162ZM348.481 65.4002C352.929 65.4002 356.161 68.0562 356.161 72.1842C356.161 76.5042 352.673 79.2562 348.225 79.2562C342.209 79.2562 338.817 75.2242 338.817 68.0882C338.817 60.4402 343.137 56.3442 349.409 56.3442C351.521 56.3442 353.537 56.7602 354.977 57.6562L353.761 60.1522C352.609 59.3842 351.073 59.0962 349.473 59.0962C344.929 59.0962 342.017 61.9442 342.017 67.5442C342.017 67.8002 342.017 68.0562 342.049 68.3442C343.329 66.4242 345.697 65.4002 348.481 65.4002ZM348.097 76.6642C351.009 76.6642 353.057 74.9682 353.057 72.3122C353.057 69.6882 351.073 67.9922 347.937 67.9922C344.897 67.9922 342.785 69.8802 342.785 72.3442C342.785 74.6482 344.641 76.6642 348.097 76.6642ZM362.806 68.6322C359.702 68.6322 357.59 66.1682 357.59 62.5202C357.59 58.8722 359.702 56.4082 362.806 56.4082C365.91 56.4082 367.99 58.8402 367.99 62.5202C367.99 66.2002 365.91 68.6322 362.806 68.6322ZM361.014 79.0002L376.31 56.6002L378.774 56.6002L363.478 79.0002L361.014 79.0002ZM362.806 66.8082C364.758 66.8082 365.942 65.2082 365.942 62.5202C365.942 59.8322 364.758 58.2322 362.806 58.2322C360.886 58.2322 359.67 59.8642 359.67 62.5202C359.67 65.1762 360.886 66.8082 362.806 66.8082ZM376.982 79.1922C373.878 79.1922 371.798 76.7282 371.798 73.0802C371.798 69.4322 373.878 66.9682 376.982 66.9682C380.086 66.9682 382.198 69.4322 382.198 73.0802C382.198 76.7282 380.086 79.1922 376.982 79.1922ZM376.982 77.3682C378.902 77.3682 380.118 75.7362 380.118 73.0802C380.118 70.4242 378.902 68.7922 376.982 68.7922C375.03 68.7922 373.846 70.3922 373.846 73.0802C373.846 75.7682 375.03 77.3682 376.982 77.3682ZM327.816 97.6562L329.112 97.6562L329.112 100.968L327.672 100.968L327.672 99.0002L320.584 99.0002L320.584 100.968L319.128 100.968L319.128 97.6562L319.576 97.6562C320.792 97.5922 321 95.5282 321.112 93.3842L321.24 90.5202L327.816 90.5202L327.816 97.6562ZM322.52 93.4962C322.456 95.2562 322.296 96.9842 321.528 97.6562L326.28 97.6562L326.28 91.8642L322.6 91.8642L322.52 93.4962ZM338.777 94.8082C338.777 94.9362 338.761 95.1282 338.745 95.2722L331.865 95.2722C332.057 96.7602 333.257 97.7522 334.937 97.7522C335.929 97.7522 336.761 97.4162 337.385 96.7282L338.233 97.7202C337.465 98.6162 336.297 99.0962 334.889 99.0962C332.153 99.0962 330.329 97.2882 330.329 94.7602C330.329 92.2482 332.137 90.4402 334.585 90.4402C337.033 90.4402 338.777 92.2002 338.777 94.8082ZM334.585 91.7362C333.113 91.7362 332.025 92.7282 331.865 94.1682L337.305 94.1682C337.145 92.7442 336.073 91.7362 334.585 91.7362ZM344.856 99.0962C342.248 99.0962 340.376 97.2882 340.376 94.7602C340.376 92.2322 342.248 90.4402 344.856 90.4402C346.376 90.4402 347.64 91.0642 348.312 92.2482L347.144 93.0002C346.6 92.1682 345.768 91.7842 344.84 91.7842C343.176 91.7842 341.928 92.9522 341.928 94.7602C341.928 96.6002 343.176 97.7522 344.84 97.7522C345.768 97.7522 346.6 97.3682 347.144 96.5362L348.312 97.2722C347.64 98.4562 346.376 99.0962 344.856 99.0962ZM356.445 99.0002L353.597 95.4162L351.837 95.4162L351.837 99.0002L350.301 99.0002L350.301 90.5202L351.837 90.5202L351.837 94.1042L353.629 94.1042L356.381 90.5202L358.029 90.5202L354.813 94.6002L358.253 99.0002L356.445 99.0002ZM366.042 90.5202L366.042 91.8642L362.938 91.8642L362.938 99.0002L361.402 99.0002L361.402 91.8642L358.298 91.8642L358.298 90.5202L366.042 90.5202ZM370.87 99.0962C368.326 99.0962 366.454 97.2882 366.454 94.7602C366.454 92.2322 368.326 90.4402 370.87 90.4402C373.414 90.4402 375.27 92.2322 375.27 94.7602C375.27 97.2882 373.414 99.0962 370.87 99.0962ZM370.87 97.7522C372.502 97.7522 373.718 96.5682 373.718 94.7602C373.718 92.9522 372.502 91.7842 370.87 91.7842C369.238 91.7842 368.006 92.9522 368.006 94.7602C368.006 96.5682 369.238 97.7522 370.87 97.7522ZM377.488 90.5202L385.344 90.5202L385.344 99.0002L383.808 99.0002L383.808 91.8642L379.024 91.8642L379.024 99.0002L377.488 99.0002L377.488 90.5202Z" fill="#122836"/>
<path d="M334.792 219.216L346.28 219.216L346.28 222L330.184 222L330.184 219.824L339.304 211.024C341.672 208.72 342.12 207.312 342.12 205.904C342.12 203.6 340.488 202.192 337.352 202.192C334.952 202.192 333 202.96 331.624 204.624L329.448 202.736C331.176 200.592 334.152 199.344 337.64 199.344C342.312 199.344 345.32 201.744 345.32 205.584C345.32 207.76 344.68 209.712 341.64 212.624L334.792 219.216ZM354.088 211.632C350.984 211.632 348.872 209.168 348.872 205.52C348.872 201.872 350.984 199.408 354.088 199.408C357.192 199.408 359.272 201.84 359.272 205.52C359.272 209.2 357.192 211.632 354.088 211.632ZM352.296 222L367.592 199.6L370.056 199.6L354.76 222L352.296 222ZM354.088 209.808C356.04 209.808 357.224 208.208 357.224 205.52C357.224 202.832 356.04 201.232 354.088 201.232C352.168 201.232 350.952 202.864 350.952 205.52C350.952 208.176 352.168 209.808 354.088 209.808ZM368.264 222.192C365.16 222.192 363.08 219.728 363.08 216.08C363.08 212.432 365.16 209.968 368.264 209.968C371.368 209.968 373.48 212.432 373.48 216.08C373.48 219.728 371.368 222.192 368.264 222.192ZM368.264 220.368C370.184 220.368 371.4 218.736 371.4 216.08C371.4 213.424 370.184 211.792 368.264 211.792C366.312 211.792 365.128 213.392 365.128 216.08C365.128 218.768 366.312 220.368 368.264 220.368ZM330.488 233.52L338.344 233.52L338.344 242L336.808 242L336.808 234.864L332.024 234.864L332.024 242L330.488 242L330.488 233.52ZM342.084 233.52L348.596 233.52L348.596 242L347.06 242L347.06 234.864L343.412 234.864L343.316 236.752C343.172 239.744 342.772 242.128 340.852 242.128C340.564 242.128 340.26 242.08 339.908 241.984L340.004 240.688C340.148 240.72 340.276 240.736 340.388 240.736C341.764 240.736 341.828 238.656 341.94 236.656L342.084 233.52ZM354.59 233.44C356.91 233.44 358.222 234.56 358.222 236.88L358.222 242L356.766 242L356.766 240.88C356.254 241.648 355.31 242.096 353.982 242.096C352.062 242.096 350.846 241.072 350.846 239.6C350.846 238.24 351.726 237.12 354.254 237.12L356.686 237.12L356.686 236.816C356.686 235.52 355.934 234.768 354.414 234.768C353.406 234.768 352.382 235.12 351.726 235.68L351.086 234.528C351.966 233.824 353.23 233.44 354.59 233.44ZM354.238 240.912C355.39 240.912 356.302 240.384 356.686 239.408L356.686 238.224L354.318 238.224C352.798 238.224 352.366 238.816 352.366 239.536C352.366 240.384 353.07 240.912 354.238 240.912ZM360.988 242L360.988 233.52L362.524 233.52L362.524 237.12L367.356 237.12L367.356 233.52L368.892 233.52L368.892 242L367.356 242L367.356 238.448L362.524 238.448L362.524 242L360.988 242ZM382.423 233.52L383.959 233.52L383.959 242L371.879 242L371.879 233.52L373.415 233.52L373.415 240.656L377.159 240.656L377.159 233.52L378.695 233.52L378.695 240.656L382.423 240.656L382.423 233.52ZM394.605 237.808C394.605 237.936 394.589 238.128 394.573 238.272L387.693 238.272C387.885 239.76 389.085 240.752 390.765 240.752C391.757 240.752 392.589 240.416 393.213 239.728L394.061 240.72C393.293 241.616 392.125 242.096 390.717 242.096C387.981 242.096 386.157 240.288 386.157 237.76C386.157 235.248 387.965 233.44 390.413 233.44C392.861 233.44 394.605 235.2 394.605 237.808ZM390.413 234.736C388.941 234.736 387.853 235.728 387.693 237.168L393.133 237.168C392.973 235.744 391.901 234.736 390.413 234.736ZM402.949 233.52L402.949 234.864L399.845 234.864L399.845 242L398.309 242L398.309 234.864L395.205 234.864L395.205 233.52L402.949 233.52ZM408.343 236.4C410.487 236.416 411.639 237.424 411.639 239.168C411.639 241.008 410.359 242.032 408.087 242.016L404.519 242L404.519 233.52L406.055 233.52L406.055 236.384L408.343 236.4ZM412.903 242L412.903 233.52L414.439 233.52L414.439 242L412.903 242ZM407.975 240.848C409.351 240.864 410.087 240.288 410.087 239.152C410.087 238.032 409.367 237.552 407.975 237.536L406.055 237.504L406.055 240.832L407.975 240.848Z" fill="#122836"/>
<path d="M16.0001 105.5L111.447 105.5L144.769 182.845" stroke="#122836"/>
<path d="M386.99 107L319 107L251.33 135.122" stroke="#122836"/>
<path d="M414.814 250L329.5 250L293.824 190.69" stroke="#122836"/>
<circle cx="251.657" cy="134.795" r="1.96125" fill="#122836"/>
<circle cx="293.961" cy="190.961" r="1.96125" fill="#122836"/>
<circle cx="144.443" cy="183.172" r="1.96125" fill="#122836"/>
<path d="M142.597 23.2005L147.229 23.2005L140.269 36.1845C138.781 38.9925 136.597 40.4325 134.077 40.4325C133.117 40.4325 132.133 40.2165 131.101 39.8085L132.229 36.3045C132.877 36.4965 133.405 36.5925 133.909 36.5925C134.845 36.5925 135.517 36.2085 136.141 35.2965L129.613 23.2005L134.629 23.2005L138.541 31.3125L142.597 23.2005ZM154.056 40.2165C149.688 40.2165 146.592 37.4325 146.592 33.4725C146.592 29.5605 149.688 26.7765 154.056 26.7765C157.008 26.7765 159.264 28.0965 160.152 30.3525L156.624 32.1525C156 30.9285 155.088 30.4005 154.032 30.4005C152.448 30.4005 151.2 31.5045 151.2 33.4725C151.2 35.4885 152.448 36.5925 154.032 36.5925C155.088 36.5925 156 36.0645 156.624 34.8405L160.152 36.6405C159.264 38.8965 157.008 40.2165 154.056 40.2165ZM173.722 26.9925L173.722 30.6165L169.546 30.6165L169.546 40.0005L165.01 40.0005L165.01 30.6165L160.81 30.6165L160.81 26.9925L173.722 26.9925ZM183.673 26.7765C187.201 26.7765 190.057 29.3685 190.057 33.4965C190.057 37.6245 187.201 40.2165 183.673 40.2165C182.161 40.2165 180.937 39.7605 180.049 38.8485L180.049 44.6565L175.489 44.6565L175.489 26.9925L179.833 26.9925L179.833 28.2885C180.697 27.2565 181.969 26.7765 183.673 26.7765ZM182.713 36.5925C184.249 36.5925 185.449 35.4645 185.449 33.4965C185.449 31.5285 184.249 30.4005 182.713 30.4005C181.177 30.4005 179.977 31.5285 179.977 33.4965C179.977 35.4645 181.177 36.5925 182.713 36.5925ZM198.655 40.2165C194.407 40.2165 191.311 37.4085 191.311 33.4725C191.311 29.5605 194.407 26.7765 198.655 26.7765C202.951 26.7765 205.999 29.5605 205.999 33.4725C205.999 37.4085 202.951 40.2165 198.655 40.2165ZM198.655 36.5925C200.215 36.5925 201.391 35.4645 201.391 33.4725C201.391 31.5045 200.215 30.4005 198.655 30.4005C197.119 30.4005 195.919 31.5045 195.919 33.4725C195.919 35.4645 197.119 36.5925 198.655 36.5925ZM214.93 25.7445C211.858 25.7445 210.442 24.4725 210.418 21.7845L213.37 21.7845C213.394 22.8405 213.802 23.4645 214.906 23.4645C215.986 23.4645 216.49 22.8405 216.49 21.7845L219.49 21.7845C219.49 24.4725 218.026 25.7445 214.93 25.7445ZM208.138 40.0005L208.138 26.9925L212.674 26.9925L212.674 33.8085L218.122 26.9925L222.322 26.9925L222.322 40.0005L217.762 40.0005L217.762 33.1605L212.362 40.0005L208.138 40.0005ZM231.916 40.2165C227.548 40.2165 224.452 37.4325 224.452 33.4725C224.452 29.5605 227.548 26.7765 231.916 26.7765C234.868 26.7765 237.124 28.0965 238.012 30.3525L234.484 32.1525C233.86 30.9285 232.948 30.4005 231.892 30.4005C230.308 30.4005 229.06 31.5045 229.06 33.4725C229.06 35.4885 230.308 36.5925 231.892 36.5925C232.948 36.5925 233.86 36.0645 234.484 34.8405L238.012 36.6405C237.124 38.8965 234.868 40.2165 231.916 40.2165ZM251.582 26.9925L251.582 30.6165L247.406 30.6165L247.406 40.0005L242.87 40.0005L242.87 30.6165L238.67 30.6165L238.67 26.9925L251.582 26.9925ZM263.837 33.1845C265.325 33.6885 266.069 34.7445 266.069 36.2565C266.069 38.5365 264.317 40.0005 260.669 40.0005L253.349 40.0005L253.349 26.9925L260.333 26.9925C263.717 26.9925 265.685 28.2165 265.685 30.3765C265.685 31.6245 265.013 32.6085 263.837 33.1845ZM257.429 29.9205L257.429 32.2245L259.925 32.2245C260.981 32.2245 261.509 31.8165 261.509 31.0485C261.509 30.2805 260.981 29.9205 259.925 29.9205L257.429 29.9205ZM260.261 37.0485C261.365 37.0485 261.917 36.6405 261.917 35.8485C261.917 35.0565 261.389 34.6485 260.309 34.6485L257.429 34.6485L257.429 37.0485L260.261 37.0485ZM273.676 26.7765C277.9 26.7765 280.324 28.6485 280.324 32.7765L280.324 40.0005L276.076 40.0005L276.076 38.3205C275.428 39.5685 274.132 40.2165 272.236 40.2165C269.116 40.2165 267.388 38.4645 267.388 36.2085C267.388 33.8085 269.14 32.3205 273.172 32.3205L275.764 32.3205C275.692 31.0005 274.804 30.2565 273.004 30.2565C271.756 30.2565 270.364 30.6885 269.476 31.3845L267.94 28.2885C269.428 27.3045 271.636 26.7765 273.676 26.7765ZM273.508 37.3365C274.516 37.3365 275.404 36.8565 275.764 35.8245L275.764 34.6965L273.796 34.6965C272.332 34.6965 271.804 35.2245 271.804 36.0165C271.804 36.7845 272.428 37.3365 273.508 37.3365Z" fill="#122836"/>
</svg>
