<svg width="35" height="35" viewBox="0 0 35 35" fill="none" xmlns="http://www.w3.org/2000/svg">
<path d="M20.8708 20.8708C18.107 23.6863 17.9262 27.2509 17.6937 35C24.9004 35 29.9114 34.9742 32.4686 32.4686C34.9742 29.9114 35 24.6679 35 17.6937C27.2509 17.9262 23.7122 18.1328 20.8708 20.8708ZM0 17.6937C0 24.6679 0.0258304 29.9114 2.53137 32.4686C5.08856 34.9742 10.0996 35 17.3063 35C17.0738 27.2509 16.8672 23.7122 14.1292 20.8708C11.2878 18.1328 7.74908 17.9262 0 17.6937ZM17.3063 0C10.0996 0 5.08856 0.0258304 2.53137 2.53137C0.0258304 5.08856 0 10.3321 0 17.3063C7.74908 17.0738 11.2878 16.8672 14.1292 14.1292C16.8672 11.2878 17.0738 7.74908 17.3063 0ZM20.8708 14.1292C18.107 11.2878 17.9262 7.74908 17.6937 0C24.9004 0 29.9114 0.0258304 32.4686 2.53137C34.9742 5.08856 35 10.3321 35 17.3063C27.2509 17.0738 23.7122 16.8672 20.8708 14.1292Z" fill="#1383C6"/>
</svg>
