<svg width="1400" height="1246" viewBox="0 0 1400 1246" fill="none" xmlns="http://www.w3.org/2000/svg">
<mask id="mask0_163_5" style="mask-type:alpha" maskUnits="userSpaceOnUse" x="0" y="0" width="1400" height="1246">
<rect width="1400" height="1246" fill="#D9D9D9"/>
</mask>
<g mask="url(#mask0_163_5)">
<path d="M1035.15 70.8628C1035.15 70.8628 1034.85 70.8628 1034.55 70.8628C1033.64 71.1653 1032.12 72.0728 1031.82 72.0728C1031.52 72.3753 1028.8 74.4928 1028.8 74.4928C1028.49 74.4928 1028.49 74.7953 1028.49 74.7953C1028.49 74.7953 1029.7 75.4004 1033.64 72.6778C1035.76 71.4678 1035.45 70.8628 1035.15 70.8628Z" fill="url(#paint0_linear_163_5)" fill-opacity="0.08"/>
<path d="M1026.98 69.6526C1027.28 69.6526 1028.8 68.7451 1028.8 68.4426H1028.49C1027.89 68.7451 1026.38 69.3501 1026.07 69.6526C1025.77 69.9551 1025.47 70.2577 1025.47 70.2577C1025.77 70.2577 1026.38 69.9551 1026.98 69.6526Z" fill="url(#paint1_linear_163_5)" fill-opacity="0.08"/>
<path d="M1039.99 63.3001C1041.2 62.9976 1041.2 62.9976 1042.11 62.6951C1042.11 62.6951 1043.32 62.0901 1044.83 61.485C1044.83 61.485 1046.65 60.5775 1046.95 60.275C1046.95 60.275 1046.95 60.275 1046.65 60.275C1046.65 60.275 1039.69 62.6951 1033.64 66.0226L1036.97 64.8126C1038.18 64.2076 1039.08 63.6026 1039.99 63.3001Z" fill="url(#paint2_linear_163_5)" fill-opacity="0.08"/>
<path d="M1032.73 67.535C1032.73 67.2325 1032.73 67.2325 1035.45 66.325C1036.36 66.0225 1037.57 65.4175 1038.18 65.115C1038.18 65.115 1038.48 65.115 1038.48 64.8125C1038.18 64.8125 1038.18 64.8125 1037.87 64.8125C1030.31 67.2325 1024.56 71.1651 1023.65 71.7701C1024.26 71.7701 1032.12 68.1401 1032.73 67.535C1032.73 67.8375 1032.73 67.535 1032.73 67.535Z" fill="url(#paint3_linear_163_5)" fill-opacity="0.08"/>
<path d="M1040.29 66.6274C1040.6 66.6274 1040.6 66.3249 1040.6 66.3249C1040.9 66.0224 1041.2 65.7199 1041.2 65.7199C1041.5 65.4174 1042.11 64.8124 1042.41 64.5099C1042.71 64.2074 1042.71 64.2074 1042.71 64.2074C1042.71 64.2074 1042.71 64.2074 1042.41 64.2074C1040.9 64.8124 1038.18 66.6274 1038.18 66.9299C1038.48 66.9299 1038.48 66.9299 1037.87 67.8375C1038.48 67.8375 1040.29 66.6274 1040.29 66.6274Z" fill="url(#paint4_linear_163_5)" fill-opacity="0.08"/>
<path d="M1021.84 80.5428C1021.53 80.5428 1021.53 80.5428 1021.23 80.5428C1020.63 80.8454 1020.02 81.1479 1020.02 81.1479C1018.21 82.0554 1016.09 83.5679 1016.09 83.8704C1016.39 83.8704 1019.72 82.6604 1021.23 81.4504C1021.84 80.8454 1022.14 80.5428 1021.84 80.5428Z" fill="url(#paint5_linear_163_5)" fill-opacity="0.08"/>
<path d="M1025.17 88.1054C1024.86 88.1054 1024.86 87.8029 1023.96 88.1054C1023.65 88.1054 1023.65 88.1054 1023.35 88.1054C1021.84 88.4079 1020.02 88.7104 1018.51 89.0129C1016.39 89.3154 1010.04 92.643 1009.13 93.853C1009.73 94.1555 1010.34 93.853 1010.64 94.1555C1011.55 94.7605 1011.25 95.063 1010.95 95.3655C1010.64 95.9705 1006.41 98.9956 1005.2 99.6006C1004.59 99.9031 1004.59 99.9031 1004.29 99.9031C1003.99 98.6931 1005.5 98.3905 1005.5 97.1805C1004.59 97.1805 1000.66 99.2981 1000.36 100.508V100.811C1000.66 101.718 1000.96 102.626 1001.26 103.533C1001.26 103.836 1001.57 104.138 1001.57 104.743C1001.57 105.348 1001.26 105.953 1001.26 106.861C1001.26 106.861 1001.26 107.163 1001.57 107.163C1002.78 108.373 1013.67 102.021 1016.39 99.2981C1017 98.6931 1018.81 94.7605 1017.6 95.063C1016.39 95.063 1015.18 95.668 1013.67 95.9705C1016.09 94.1555 1019.11 93.248 1021.54 91.4329C1021.84 90.8279 1025.17 88.4079 1025.17 88.1054Z" fill="url(#paint6_linear_163_5)" fill-opacity="0.08"/>
<path d="M994.304 87.5004C998.842 85.3829 1003.08 82.0553 1007.62 79.9378C1003.08 82.9629 1003.08 82.9629 1002.78 83.2654L1018.51 74.1902C1018.81 73.8877 1019.42 73.8877 1019.72 73.2827C1019.42 73.2827 1019.42 73.2827 1019.11 73.2827C1015.79 74.7952 993.396 86.8954 988.857 90.5255C990.975 90.223 992.488 88.4079 994.304 87.5004Z" fill="url(#paint7_linear_163_5)" fill-opacity="0.08"/>
<path d="M994.304 120.776C994.001 120.776 994.304 120.776 994.304 120.776C993.699 120.776 993.699 121.078 993.094 121.381C990.976 122.893 989.463 125.011 987.345 126.523C983.714 128.641 982.504 129.548 982.504 130.154C982.806 130.154 983.109 130.154 984.017 129.851C985.53 129.548 985.53 129.548 985.832 129.851C986.437 130.154 986.135 131.061 986.74 131.061C987.042 131.061 987.95 131.061 988.858 130.759C995.212 129.548 997.935 126.826 997.935 126.826C998.54 125.918 996.725 122.591 996.725 122.591C996.119 121.683 994.304 120.776 994.304 120.776Z" fill="url(#paint8_linear_163_5)" fill-opacity="0.08"/>
<path d="M1003.08 93.853C1003.08 93.853 1002.78 93.853 1001.87 94.1555C998.54 95.063 996.119 97.1806 995.817 97.4831C996.119 97.4831 996.422 97.1806 996.724 97.4831C996.724 97.7856 996.724 97.7856 996.422 98.3906C996.119 98.6931 995.817 99.9031 996.422 99.6006C997.632 99.2981 1000.96 96.2731 1001.26 95.9706C1003.38 94.458 1003.99 93.853 1003.08 93.853Z" fill="url(#paint9_linear_163_5)" fill-opacity="0.08"/>
<path d="M1155.27 31.8396C1152.85 34.5621 1147.1 36.3771 1143.77 36.9822C1143.77 36.9822 1127.43 41.8222 1126.83 42.7297C1122.29 48.7798 1133.48 50.5948 1133.79 50.5948C1161.62 48.4773 1162.23 48.7798 1164.04 50.5948C1164.04 50.5948 1177.05 65.1151 1172.82 72.9802C1171 76.3077 1171 76.3077 1171.31 76.6102C1171.61 78.4253 1173.73 78.4253 1174.33 79.9378C1175.24 82.0553 1174.33 84.4753 1175.54 86.5929C1179.17 85.6854 1182.2 81.7528 1186.43 83.8703C1194 87.1979 1190.37 93.248 1190.37 93.248C1187.34 96.878 1181.59 96.5755 1178.87 100.811C1177.36 102.928 1175.84 109.281 1177.05 112.911C1177.66 114.726 1199.44 151.631 1209.73 154.959C1204.59 78.1228 1200.65 43.3347 1195.21 26.697C1200.05 41.2172 1203.68 69.9551 1209.73 154.959C1235.75 160.101 1236.36 159.496 1238.17 157.379C1240.9 154.354 1245.74 130.456 1245.74 130.154C1246.34 126.523 1244.53 122.893 1246.64 119.566C1247.86 117.751 1247.86 117.751 1254.51 115.633C1275.09 109.281 1275.09 109.281 1275.69 105.348C1276.3 101.416 1276.6 98.9956 1280.23 97.1805C1289.31 92.643 1299.59 92.0379 1308.67 87.5004C1312.3 85.6854 1316.24 84.4753 1319.87 82.0553C1319.87 82.0553 1321.68 80.8453 1319.56 78.1227C1316.54 74.1902 1311.7 71.7702 1308.97 67.8376C1307.16 65.1151 1307.16 62.09 1305.95 59.065C1304.44 55.7374 1305.04 54.8299 1306.86 53.0149C1309.28 50.2923 1307.76 49.3848 1302.32 46.3598C1285.07 36.3771 1285.07 36.0746 1283.56 33.6546C1283.56 33.3521 1283.86 33.0496 1283.86 33.0496C1284.16 33.0496 1284.47 32.7471 1284.77 32.7471C1279.62 27.907 1269.64 31.8396 1267.22 22.4619C1266.61 22.1594 1266.01 21.8569 1265.4 21.5544C1265.4 21.2519 1265.71 20.6469 1265.71 20.0419C1266.01 20.0419 1266.31 20.0419 1266.31 19.7394C1264.19 19.4369 1257.54 19.1344 1257.54 19.1344C1253.3 18.8319 1247.86 19.7394 1246.64 20.0419C1243.01 20.6469 1239.69 18.2269 1236.06 18.2269C1230.91 17.9244 1219.72 17.9244 1215.48 18.2269C1207.31 18.8319 1207.31 18.8319 1206.4 19.4369C1197.63 20.0419 1197.63 20.0419 1193.39 20.6469H1193.09H1193.39C1198.54 20.9494 1198.54 20.9494 1200.05 21.5544C1199.75 21.5544 1199.75 21.5544 1193.7 21.5544C1191.28 21.5544 1190.37 21.5544 1187.64 21.8569C1166.77 24.277 1151.94 30.9321 1151.64 30.9321C1152.55 31.8396 1152.55 31.8396 1155.27 31.8396Z" fill="url(#paint10_linear_163_5)" fill-opacity="0.08"/>
<path d="M1076.6 120.171C1077.81 117.448 1077.21 115.936 1075.09 116.238C1075.09 116.238 1069.04 117.751 1068.13 120.473C1067.53 121.986 1069.95 125.919 1070.85 126.524C1073.27 128.036 1076.6 120.171 1076.6 120.171Z" fill="url(#paint11_linear_163_5)" fill-opacity="0.08"/>
<path d="M1118.96 35.7723C1117.75 36.3773 1116.24 36.6798 1115.03 37.2849C1119.26 36.3773 1133.18 32.4448 1135.3 31.8398C1125.92 34.8648 1118.66 37.2849 1110.79 39.0999C1108.98 39.4024 1108.37 40.0074 1107.77 40.6124C1107.77 41.2174 1107.16 43.94 1105.65 45.15C1101.41 43.94 1090.82 49.99 1090.52 50.5951C1091.43 50.8976 1092.64 50.8976 1093.55 51.5026C1093.55 51.5026 1093.55 51.8051 1093.55 52.1076C1095.06 51.8051 1095.36 51.8051 1099.9 50.2926C1092.03 54.5276 1091.13 53.6201 1090.52 53.0151C1084.47 53.0151 1084.17 55.4351 1084.17 56.6451C1080.84 58.7627 1076.3 59.0652 1073.27 62.0902L1073.58 62.3927C1074.48 62.3927 1075.09 62.3927 1081.44 61.1827C1085.98 60.2752 1090.22 56.9477 1095.06 58.1577C1094.76 59.0652 1094.76 59.0652 1093.55 59.9727C1096.87 60.5777 1107.77 55.4351 1106.56 52.7126C1106.25 52.7126 1105.65 52.4101 1105.35 52.4101C1106.25 51.2001 1113.21 46.6625 1114.73 46.36C1124.41 43.94 1127.74 40.3099 1127.74 39.7049C1127.74 39.7049 1127.43 39.7049 1127.13 39.4024C1135.91 36.9824 1140.14 36.0748 1142.86 34.2598C1142.26 34.2598 1142.26 34.2598 1140.75 34.5623C1140.75 34.5623 1161.02 28.2097 1161.93 27.9072C1156.78 28.5122 1156.48 28.8147 1154.36 28.8147C1159.2 27.6047 1164.35 26.6972 1169.49 25.4872C1164.65 25.4872 1156.48 26.3947 1156.48 26.3947C1156.18 26.3947 1137.12 29.7222 1132.88 31.2348C1133.18 31.5373 1133.48 31.8398 1133.79 31.8398C1132.88 32.1423 1132.27 32.4448 1130.16 32.1423C1128.64 31.8398 1112 36.0748 1110.49 38.1924C1111.4 37.5874 1111.7 37.8899 1118.96 35.7723Z" fill="url(#paint12_linear_163_5)" fill-opacity="0.08"/>
<path d="M1041.2 69.3501C1040.9 69.9551 1040.6 70.5601 1040.29 71.1651C1039.69 71.7701 1039.69 71.7701 1037.57 73.5852C1037.87 72.9802 1038.18 72.3751 1038.18 71.7701C1038.18 71.4676 1038.48 71.1651 1038.48 70.8626C1038.18 70.8626 1036.66 70.8626 1034.85 72.6777C1035.15 72.6777 1035.15 72.6777 1035.45 72.6777C1035.45 72.6777 1035.45 72.6777 1035.45 72.9802C1033.33 74.7952 1030.91 74.7952 1028.49 76.3077C1028.8 76.6102 1029.1 76.0052 1029.4 76.3077C1029.1 76.9127 1029.1 76.9127 1029.1 76.9127C1029.4 76.9127 1029.4 76.9127 1035.76 74.7952C1033.64 76.0052 1028.19 79.0302 1027.89 80.2403C1027.89 80.2403 1035.15 77.5177 1036.06 76.9127C1036.66 76.6102 1036.66 76.6102 1040.9 72.9802C1040.9 72.9802 1040.9 73.2827 1040.9 73.5852C1042.71 71.7701 1042.71 71.7701 1047.86 67.8376C1049.07 66.9301 1049.07 66.9301 1049.07 66.6276C1048.77 66.6276 1048.77 66.6276 1048.46 66.6276C1048.46 66.9301 1042.11 68.7451 1041.2 69.3501Z" fill="url(#paint13_linear_163_5)" fill-opacity="0.08"/>
<path d="M1111.1 120.473C1114.12 120.171 1120.78 128.641 1120.78 128.641C1122.29 130.759 1124.11 132.876 1125.32 132.574C1129.55 131.666 1135.6 115.936 1135.6 115.936C1135.91 115.331 1135.91 114.726 1135.91 114.423L1105.95 107.466C1106.86 106.861 1107.46 106.256 1114.73 102.928C1117.75 101.416 1119.57 100.811 1119.26 99.9031C1118.96 97.7856 1108.37 87.803 1103.23 86.8954C1100.81 86.5929 1098.39 87.1979 1096.27 86.2904C1093.85 85.0804 1094.15 81.4504 1091.13 81.1479C1088.1 80.8454 1081.75 83.2654 1077.21 85.0804C1072.37 86.8954 1072.37 86.8954 1071.76 86.8954C1071.46 86.2904 1071.16 85.3829 1070.85 78.4253C1069.04 77.8203 1062.99 78.7278 1061.17 79.0303C1052.09 81.1479 1025.17 103.836 1030.31 107.163C1035.45 110.491 1052.7 107.163 1055.12 105.953C1054.82 104.441 1054.51 103.533 1062.08 102.626C1068.43 102.021 1069.34 100.508 1069.95 99.2981C1071.46 100.206 1075.69 103.836 1075.69 103.836C1077.81 106.256 1078.72 109.281 1080.84 111.701C1083.56 114.726 1089.31 114.423 1089.61 120.171C1089.61 120.171 1088.4 133.179 1070.55 138.321C1065.1 139.834 1059.36 139.531 1054.51 142.254C1052.4 143.464 1052.09 147.094 1052.7 147.699C1053.61 148.606 1056.94 148.909 1066.32 145.884C1073.58 143.464 1073.58 143.464 1086.28 148.909C1085.38 150.119 1085.38 150.119 1080.23 151.934C1082.96 154.354 1104.74 158.892 1109.28 156.471C1108.98 155.866 1108.98 155.866 1108.07 155.261C1107.46 154.959 1107.46 154.959 1097.78 145.884C1105.35 146.791 1107.77 147.699 1112 150.421C1112.91 151.026 1113.52 151.329 1113.82 151.329C1116.24 150.724 1120.17 141.346 1118.36 139.531C1114.12 135.296 1106.25 135.599 1103.83 128.944C1101.41 123.498 1111.1 120.473 1111.1 120.473Z" fill="url(#paint14_linear_163_5)" fill-opacity="0.08"/>
<path d="M1013.06 77.8203C1013.37 78.1228 1014.88 77.2153 1016.39 76.3078C1016.69 76.0053 1017 75.7028 1017.3 75.7028C1017.3 75.7028 1017.3 75.7028 1017 75.7028C1016.09 76.0053 1013.06 77.5178 1013.06 77.8203Z" fill="url(#paint15_linear_163_5)" fill-opacity="0.08"/>
<path d="M1179.48 94.7604L1184.01 93.8529C1184.01 93.8529 1185.22 93.2479 1185.53 92.3404C1185.83 91.7354 1185.53 91.4329 1185.22 91.1304C1184.92 90.5254 1184.01 90.2229 1183.41 89.6179C1183.11 89.3154 1183.11 89.0129 1183.11 88.7104C1183.11 88.7104 1183.11 88.7104 1183.11 88.4079C1183.11 88.4079 1182.5 88.1053 1180.99 88.1053C1178.87 88.4079 1173.12 92.0379 1176.15 93.8529C1176.75 94.4579 1177.96 94.7604 1179.48 94.7604Z" fill="url(#paint16_linear_163_5)" fill-opacity="0.08"/>
<path d="M1089.31 78.7277C1089.01 77.8202 1082.65 76.0052 1077.81 76.6102C1073.58 77.2152 1075.09 80.2403 1076 80.8453C1079.02 83.5678 1089.31 78.7277 1089.31 78.7277Z" fill="url(#paint17_linear_163_5)" fill-opacity="0.08"/>
<path d="M1056.94 57.2501C1055.73 57.8551 1053.61 58.7626 1053 59.0651C1053.3 59.0651 1053.3 59.0651 1053.61 59.0651C1055.73 58.4601 1057.54 58.4601 1057.54 58.4601C1057.24 59.0651 1056.33 59.0651 1056.33 59.9726C1056.63 60.2751 1059.96 59.0651 1060.26 58.7626C1061.47 58.1576 1065.41 54.5276 1065.41 53.9225C1064.8 53.62 1064.5 54.225 1063.89 54.225C1064.5 53.3175 1065.41 53.3175 1066.01 52.7125C1066.01 52.7125 1066.01 52.7125 1065.71 52.7125C1062.08 53.9225 1057.24 56.0401 1056.63 56.3426C1057.54 56.6451 1058.15 56.0401 1059.05 56.0401C1059.36 56.3426 1059.05 56.6451 1056.94 57.2501Z" fill="url(#paint18_linear_163_5)" fill-opacity="0.08"/>
<path d="M1039.69 76.3076C1038.78 76.9126 1038.48 77.2151 1039.99 77.8201C1041.2 78.4251 1043.92 77.8201 1046.65 75.7026C1048.16 74.4926 1050.88 71.4675 1049.67 71.4675C1049.37 71.4675 1049.37 71.4675 1049.07 71.4675C1046.35 72.375 1039.99 76.3076 1039.69 76.3076Z" fill="url(#paint19_linear_163_5)" fill-opacity="0.08"/>
<path d="M1079.02 54.8301C1078.72 54.8301 1078.72 54.8301 1078.72 54.8301H1078.42C1076.6 55.4351 1074.79 56.0401 1072.97 56.6451C1070.85 57.2501 1068.74 57.8551 1066.62 58.4601C1065.1 59.0651 1064.2 59.3676 1063.89 59.3676C1064.5 59.3676 1070.85 58.4601 1074.18 57.5526C1076 56.9476 1076.6 56.6451 1079.02 55.1326C1078.72 55.1326 1079.02 55.1326 1079.02 54.8301Z" fill="url(#paint20_linear_163_5)" fill-opacity="0.08"/>
<path d="M1063.59 58.1575C1064.2 58.1575 1070.85 55.435 1072.67 54.5275C1073.58 54.225 1073.58 53.9224 1073.58 53.6199C1073.58 53.3174 1072.97 53.3174 1072.97 53.0149C1072.97 52.7124 1072.97 52.7124 1072.97 52.4099C1072.97 52.4099 1072.97 52.4099 1072.67 52.1074C1072.37 52.1074 1072.06 52.1074 1071.76 52.1074C1071.46 52.1074 1071.16 52.4099 1070.85 52.7124C1069.34 53.6199 1068.43 55.435 1066.92 56.04C1064.8 56.9475 1063.89 56.9475 1063.59 58.1575Z" fill="url(#paint21_linear_163_5)" fill-opacity="0.08"/>
<path d="M1078.42 48.4774C1082.96 46.3599 1082.96 46.0574 1082.96 46.0574H1082.65C1082.65 46.0574 1078.12 47.5699 1076.9 48.1749C1075.39 48.7799 1076 49.3849 1076 49.3849C1076 49.6874 1076.9 49.0824 1078.42 48.4774Z" fill="url(#paint22_linear_163_5)" fill-opacity="0.08"/>
<path d="M1088.1 46.3598C1089.92 45.7548 1090.52 45.7548 1091.43 45.7548V46.0573C1090.82 46.3598 1090.22 46.6623 1088.4 47.2673C1083.26 48.7798 1081.75 49.3848 1081.44 49.6873C1080.23 50.2923 1080.23 51.8049 1080.54 52.1074C1080.54 52.1074 1080.54 52.1074 1084.17 51.1999C1085.38 50.8974 1086.89 51.1999 1088.1 50.5948C1091.43 49.3848 1094.15 47.2673 1097.18 46.0573C1098.99 45.1498 1101.41 44.8473 1103.23 43.9398L1103.53 43.6372C1103.53 43.6372 1103.53 43.6372 1102.02 43.3347C1102.32 43.0322 1102.62 43.0322 1102.93 42.7297C1105.65 41.5197 1105.65 41.5197 1105.65 41.2172C1105.35 41.2172 1105.04 41.2172 1104.74 40.9147C1105.04 40.3097 1106.25 40.3097 1105.95 39.0997C1106.56 38.4947 1107.46 38.1922 1108.07 37.5872C1107.77 37.5872 1107.77 37.5872 1107.46 37.5872C1104.14 38.4947 1092.34 42.7297 1091.43 43.6372C1092.03 43.6372 1092.64 43.3347 1093.24 43.3347C1092.34 43.9398 1089.92 44.5448 1089.01 44.8473C1085.38 45.7548 1083.56 47.5698 1083.56 47.5698C1083.86 47.5698 1087.8 46.3598 1088.1 46.3598Z" fill="url(#paint23_linear_163_5)" fill-opacity="0.08"/>
<path d="M1050.88 76.6104C1051.19 76.6104 1083.86 73.2829 1092.64 64.5103C1095.06 62.0902 1089.31 61.7877 1089.01 61.7877C1085.98 61.7877 1071.16 66.9303 1068.13 68.1403C1065.41 69.3503 1063.29 66.6278 1063.89 66.0228C1064.2 65.7203 1064.5 65.7203 1065.71 65.4178C1071.16 63.9053 1068.43 62.0902 1067.83 62.0902C1066.31 62.0902 1065.41 62.6952 1063.89 62.9977C1062.38 63.3002 1060.87 62.6952 1059.36 62.6952C1058.75 62.6952 1057.24 62.9977 1056.33 63.3002C1055.42 63.6027 1053 66.3253 1053 66.9303C1053.61 66.9303 1053.61 66.9303 1055.12 66.3253C1056.63 65.7203 1058.75 65.1153 1059.05 65.4178C1059.96 66.0228 1057.24 69.3503 1057.24 69.3503C1055.72 70.8629 1053.3 71.4679 1051.79 72.9804C1048.77 76.6104 1049.98 76.6104 1050.88 76.6104Z" fill="url(#paint24_linear_163_5)" fill-opacity="0.08"/>
<path d="M999.145 85.3829C998.237 85.9879 989.765 90.828 989.463 91.433C989.765 91.1305 990.37 91.1305 999.145 85.3829Z" fill="url(#paint25_linear_163_5)" fill-opacity="0.08"/>
<path d="M951.944 120.473C952.247 120.776 952.549 120.473 952.549 120.473C955.272 118.658 957.39 116.238 960.113 114.423C964.954 111.096 970.098 108.373 974.939 104.743C976.149 103.836 976.149 103.836 977.36 101.416V101.113C975.544 101.416 974.334 102.626 973.124 103.533C974.334 102.626 974.334 102.626 974.637 101.718C974.637 101.718 974.637 101.718 974.334 101.718C974.032 101.718 974.031 101.718 973.729 102.021C967.678 104.441 967.678 104.441 941.657 125.919C939.236 127.734 937.723 129.246 935.605 133.179H935.908C942.262 129.851 946.498 124.708 951.944 120.473Z" fill="url(#paint26_linear_163_5)" fill-opacity="0.08"/>
<path d="M988.555 95.6678C989.16 95.6678 991.278 94.4578 993.396 93.5503C1001.57 89.0127 1005.5 87.1977 1005.5 87.1977C1008.22 86.2901 1010.95 85.3826 1013.37 84.1726C1015.48 83.2651 1022.75 77.82 1022.75 77.82C1024.26 76.9125 1024.26 76.61 1024.56 76.3075C1023.65 76.3075 1022.44 76.9125 1022.44 76.9125C1020.02 78.1225 1018.21 79.9376 1015.79 81.4501C1018.51 78.7275 1021.84 76.3075 1024.56 73.585H1024.26C1024.26 73.585 1014.88 78.425 1014.58 79.635C1014.27 80.5426 1013.06 82.9626 1006.1 84.7776C1006.1 84.7776 1006.1 84.7776 1005.8 84.4751C1006.1 84.1726 1006.1 84.1726 1006.41 83.8701C1006.41 83.8701 1006.41 83.8701 1006.71 83.5676C1007.62 82.3576 1010.95 81.7526 1009.73 80.2401C1009.43 80.2401 990.371 89.6177 990.371 92.0377C990.371 92.0377 990.371 92.0377 999.75 86.8952C998.843 88.4077 997.027 89.0127 995.817 89.9202C996.119 89.9202 996.119 89.9202 998.237 88.7102C998.843 88.4077 1000.05 87.8027 1002.17 86.8952C1000.05 88.4077 993.396 92.0377 989.463 93.5503C987.95 94.7603 987.95 95.6678 988.555 95.6678Z" fill="url(#paint27_linear_163_5)" fill-opacity="0.08"/>
<path d="M935.304 143.161C936.816 143.464 937.724 142.254 938.934 142.254C938.934 142.254 938.934 142.556 939.237 142.556C938.632 144.069 937.119 145.279 936.211 146.791C937.724 146.791 950.734 141.044 957.996 135.296C960.417 133.481 961.324 132.574 962.535 132.271C962.535 132.271 962.837 132.271 962.837 132.574C962.232 133.784 962.232 133.784 962.232 134.086C962.837 134.691 967.678 135.599 967.678 135.599C972.217 134.086 972.217 134.086 976.755 128.944C977.058 128.641 977.058 128.641 977.058 128.641C976.453 128.641 976.453 128.641 972.217 130.759C972.822 129.246 977.058 125.919 980.083 125.919C981.294 125.919 981.294 125.919 981.899 125.616C981.899 125.616 984.319 123.499 983.714 121.684C981.294 120.171 980.386 117.751 981.596 115.936C982.807 114.423 992.489 102.323 992.489 101.416C991.884 101.113 991.581 101.113 990.976 100.811C990.976 100.811 990.976 100.508 990.673 100.206C986.135 104.138 983.109 109.583 977.663 112.608C977.058 110.491 979.478 109.583 980.083 108.071L979.781 107.768C977.663 108.676 975.848 110.188 973.73 110.491C974.335 109.583 975.545 108.978 975.848 107.768L975.545 107.466C972.519 108.373 970.401 110.793 967.376 111.701C969.191 109.281 972.217 108.071 974.032 105.953C972.217 106.256 948.616 121.381 949.222 124.104C949.524 124.104 949.827 124.406 950.129 124.709C949.827 125.616 949.524 125.616 946.801 127.129C942.263 129.851 941.96 130.456 941.96 131.061C942.263 131.061 942.565 131.364 942.868 131.061C945.591 130.456 947.709 128.944 950.129 128.339C951.945 128.036 953.76 128.641 955.576 128.339C952.247 130.759 948.011 132.271 945.893 132.876C934.396 137.111 933.186 142.556 935.304 143.161Z" fill="url(#paint28_linear_163_5)" fill-opacity="0.08"/>
<path d="M1043.02 165.244C1043.32 164.337 1042.41 164.337 1041.5 164.337C1041.5 164.337 1037.87 164.942 1036.97 166.152C1035.76 167.664 1036.06 170.084 1036.66 170.387C1037.87 171.597 1042.41 166.757 1043.02 165.244Z" fill="url(#paint29_linear_163_5)" fill-opacity="0.08"/>
<path d="M1036.97 156.774C1037.27 156.774 1037.57 156.471 1037.87 156.169C1038.18 155.261 1037.57 154.051 1037.27 153.446C1036.36 152.841 1035.45 152.236 1034.85 151.631C1033.64 150.421 1033.03 148.304 1031.52 147.396C1031.22 147.094 1030.91 147.094 1030.61 146.791C1029.1 145.884 1027.28 146.186 1025.77 145.279C1024.86 144.674 1024.86 143.464 1023.96 142.859H1023.65C1022.44 143.464 1017.6 149.816 1017.6 150.119C1017 151.026 1016.39 152.236 1015.79 152.841L1010.64 161.009C1013.67 161.312 1013.67 161.312 1013.97 162.824C1014.27 164.639 1014.27 164.639 1014.58 164.639C1014.88 164.639 1015.79 164.034 1017.3 162.522C1019.72 160.404 1023.65 157.379 1028.19 156.774C1030.61 156.169 1033.94 157.681 1036.97 156.774Z" fill="url(#paint30_linear_163_5)" fill-opacity="0.08"/>
<path d="M1028.8 162.219C1028.8 162.219 1022.14 163.732 1020.02 165.244C1018.81 166.152 1018.51 168.874 1019.42 169.479C1020.93 170.387 1029.1 165.547 1030.61 163.429C1030.91 162.824 1030.91 161.917 1028.8 162.219Z" fill="url(#paint31_linear_163_5)" fill-opacity="0.08"/>
<path d="M1011.85 532.484C1009.43 533.392 1010.64 537.324 1012.46 537.93C1013.37 538.232 1020.02 539.442 1020.02 536.719C1019.72 535.207 1015.18 531.879 1011.85 532.484Z" fill="url(#paint32_linear_163_5)" fill-opacity="0.08"/>
<path d="M1161.02 240.568C1164.04 236.635 1165.25 233.913 1164.95 232.703C1164.65 232.703 1164.65 232.703 1164.35 232.703C1162.83 233.308 1158.3 236.938 1154.97 241.173C1150.73 246.315 1148.01 252.063 1144.07 257.206C1141.96 259.928 1138.93 261.743 1136.81 264.768C1135.91 265.978 1136.51 266.281 1137.12 266.281C1137.72 266.583 1137.72 266.583 1149.82 267.491C1156.78 268.096 1161.93 268.701 1167.37 270.213C1167.98 270.516 1168.89 270.516 1169.49 270.818C1171.61 270.818 1173.42 269.003 1175.54 271.121C1176.45 272.028 1176.45 273.843 1176.75 275.053C1176.75 276.263 1177.36 276.566 1177.96 276.566C1179.78 276.263 1182.2 272.633 1182.5 269.306C1182.8 264.163 1178.87 256.298 1175.24 252.063C1173.12 249.945 1173.12 249.945 1166.16 251.458C1164.04 252.063 1163.44 251.458 1163.14 249.643C1162.23 246.315 1161.32 245.71 1160.11 244.803C1159.51 244.5 1159.51 244.198 1159.81 243.593C1159.51 242.383 1160.41 241.173 1161.02 240.568Z" fill="url(#paint33_linear_163_5)" fill-opacity="0.08"/>
<path d="M814.579 301.674C815.789 298.951 816.394 295.624 817.604 292.901C818.21 291.086 819.117 289.573 819.722 287.758C819.722 287.456 819.722 287.153 820.025 287.153C820.025 287.153 820.63 285.641 819.722 285.641C819.722 285.641 819.42 285.641 819.42 285.943C816.697 288.061 813.974 301.371 814.276 302.279C814.276 301.976 814.276 301.976 814.579 301.674Z" fill="url(#paint34_linear_163_5)" fill-opacity="0.08"/>
<path d="M1382.8 113.516C1382.8 113.213 1382.8 113.213 1382.8 112.911C1382.2 112.003 1380.68 110.188 1378.87 109.281C1378.56 109.281 1378.26 108.978 1377.96 108.978C1375.24 108.373 1372.21 108.978 1369.49 107.768C1367.67 106.861 1366.16 105.046 1363.74 105.348C1361.02 105.953 1358.59 107.163 1355.87 107.768C1353.45 108.373 1350.73 108.071 1348.01 108.978C1346.49 109.583 1347.7 111.398 1346.19 112.306C1344.68 113.213 1343.47 111.701 1341.95 112.306C1341.65 112.306 1341.35 112.608 1341.35 112.608C1340.74 115.028 1342.86 117.448 1340.44 119.566C1339.53 119.264 1333.78 114.423 1332.88 112.608C1330.76 108.373 1321.38 105.953 1318.96 108.071C1319.56 110.188 1322.29 109.583 1323.5 111.096C1322.89 114.121 1319.26 113.516 1317.75 115.936C1318.66 116.541 1321.38 116.238 1323.19 115.936C1325.92 115.331 1334.99 118.658 1330.15 122.591C1332.27 125.314 1335.3 122.894 1337.72 123.801C1339.84 124.709 1339.84 125.616 1339.84 127.734C1340.44 128.339 1341.05 128.339 1345.89 128.036C1349.22 127.734 1350.43 127.734 1351.33 127.734C1353.75 128.036 1355.87 128.944 1358.29 129.246C1358.59 129.246 1358.9 129.246 1359.2 129.246C1360.11 129.246 1361.32 129.246 1367.97 127.431C1374.03 125.919 1383.41 119.264 1382.8 117.146C1382.5 115.936 1381.29 115.028 1380.98 113.818C1381.89 113.516 1381.89 113.516 1382.8 113.516Z" fill="url(#paint35_linear_163_5)" fill-opacity="0.08"/>
<path d="M1020.02 521.594C1022.75 524.922 1039.39 526.434 1039.69 524.317C1039.99 523.409 1018.51 498.604 1018.21 498.604C1016.09 497.091 1009.43 492.554 997.027 494.974C990.068 497.091 985.227 501.932 985.227 501.932C986.134 502.839 991.278 501.931 995.817 499.511C1001.87 495.881 1006.1 497.999 1006.41 498.906C1006.1 499.511 1005.2 500.419 1003.38 499.209C1003.38 499.209 1003.08 499.209 1003.08 499.511C1003.38 502.537 1008.22 503.747 1011.55 504.654C1017.6 506.167 1017.9 507.377 1019.11 511.309C1019.72 513.124 1020.02 514.334 1021.53 515.847C1022.44 517.057 1023.05 517.662 1023.05 518.267C1023.35 520.687 1020.93 520.687 1020.02 521.594Z" fill="url(#paint36_linear_163_5)" fill-opacity="0.08"/>
<path d="M1046.65 542.164C1048.46 543.072 1046.95 546.399 1049.37 546.702C1053.61 547.004 1053 541.257 1056.94 540.954C1057.24 540.954 1057.84 540.954 1059.05 541.257C1065.71 542.467 1076.9 542.769 1076.9 542.769C1077.51 542.769 1077.81 542.467 1077.81 542.164C1077.81 540.349 1076.3 538.837 1076.9 536.719C1078.42 530.669 1047.25 527.947 1045.44 528.249C1044.83 528.249 1044.83 528.552 1044.53 528.552C1044.53 529.157 1044.53 529.157 1044.83 529.459C1049.37 533.694 1047.86 538.534 1047.56 538.837C1046.95 539.442 1044.53 538.837 1041.2 538.534C1034.85 537.627 1034.24 537.627 1033.94 537.929C1033.94 537.929 1033.94 538.232 1034.24 538.232C1038.18 540.047 1042.71 540.047 1046.65 542.164Z" fill="url(#paint37_linear_163_5)" fill-opacity="0.08"/>
<path d="M1108.98 253.878C1106.25 254.785 1112.3 257.81 1113.51 258.415C1121.38 262.045 1124.41 258.113 1124.41 258.113C1125.62 255.693 1112 253.273 1108.98 253.878Z" fill="url(#paint38_linear_163_5)" fill-opacity="0.08"/>
<path d="M833.338 246.92C833.338 246.618 833.64 246.618 833.338 246.92C833.64 246.618 833.64 246.618 833.338 246.92Z" fill="url(#paint39_linear_163_5)" fill-opacity="0.08"/>
<path d="M1313.51 669.822C1312.91 666.494 1317.14 661.956 1313.21 659.839C1310.18 658.326 1307.46 660.444 1304.44 659.839C1295.06 657.721 1288.7 649.554 1279.62 646.831C1266.01 642.596 1252.09 640.176 1238.48 636.849C1230.61 633.823 1229.7 624.748 1224.86 619.303C1216.39 613.858 1210.34 605.086 1201.56 599.943C1190.06 593.288 1176.15 595.708 1164.65 588.75C1155.57 583.305 1149.52 574.23 1140.14 569.39C1138.63 568.785 1136.81 568.18 1135.3 567.878C1088.7 560.92 1052.09 555.475 1047.86 592.078C1033.94 582.398 998.54 597.825 1001.87 574.835C1003.99 560.92 997.935 550.635 997.935 550.635C987.042 545.19 976.15 550.937 965.257 550.03C968.888 538.232 968.888 538.232 966.165 532.484C971.006 521.594 971.006 521.594 972.519 511.612C970.401 509.797 952.247 495.276 948.616 536.115C942.262 535.812 938.329 544.585 931.067 540.35C914.426 530.669 908.677 518.569 906.559 512.217C904.139 504.352 910.795 497.999 910.795 490.436C910.795 485.596 904.139 483.176 905.954 477.731C908.072 470.774 921.385 457.161 924.411 455.043C929.857 450.808 951.037 455.648 951.339 455.648C951.944 455.043 952.549 454.438 953.155 454.136C951.642 452.321 949.221 451.716 947.406 450.203C947.708 449.598 947.708 448.691 948.011 447.783C952.247 445.363 986.134 442.338 986.134 442.338C1000.66 450.203 991.883 470.471 1005.8 478.336C1022.14 461.093 995.817 445.666 998.842 428.423C1001.87 410.273 1019.72 406.34 1030.01 394.845C1029.7 394.845 1029.7 394.845 1029.7 394.845C1029.4 394.24 1028.8 393.635 1028.19 393.03C1028.19 392.425 1028.49 391.517 1028.49 390.912C1029.1 390.61 1030.01 390.61 1030.61 390.307C1030.61 389.4 1030.91 388.492 1030.91 387.585C1030.31 387.282 1029.4 386.98 1028.8 386.677L1032.12 353.704C1032.43 358.544 1032.43 373.367 1032.43 373.367C1033.94 372.46 1033.94 372.46 1035.45 350.679C1036.66 353.099 1038.78 354.914 1039.39 357.637C1042.41 352.494 1041.5 345.839 1046.04 341.302C1046.04 341.302 1065.71 330.714 1066.92 330.714C1068.74 313.774 1068.74 313.774 1078.42 304.699C1079.93 304.699 1079.93 304.699 1107.77 288.666C1107.46 289.271 1107.16 289.876 1106.86 290.481C1108.37 291.086 1110.19 291.388 1112 291.388C1112 291.993 1112 293.203 1112 293.808C1095.97 305.304 1095.97 305.304 1095.66 308.631C1106.56 308.934 1140.14 289.271 1134.09 274.146C1129.55 277.171 1129.25 282.918 1126.53 287.153C1122.89 286.246 1120.17 285.338 1117.75 284.733C1120.17 284.128 1121.99 281.708 1121.99 281.708C1121.68 281.708 1121.68 281.708 1121.08 281.708C1116.84 282.313 1114.42 281.406 1113.52 281.103C1111.4 279.893 1111.09 278.683 1111.09 276.868C1111.09 276.263 1111.09 276.263 1111.09 275.961C1110.79 276.263 1109.58 279.591 1110.79 282.313C1106.56 280.196 1105.95 278.078 1104.14 273.238C1100.2 271.726 1099.9 271.423 1098.39 269.306C1104.14 267.793 1108.37 266.583 1109.88 260.533C1106.86 257.508 1106.86 257.508 1065.1 283.826C1093.85 253.878 1093.85 253.878 1123.5 244.803C1130.16 249.34 1160.41 234.518 1164.95 226.047C1163.44 222.417 1163.44 222.417 1165.56 216.972C1165.25 216.367 1164.65 215.46 1164.35 214.855C1161.93 214.25 1159.51 213.947 1157.08 213.342C1154.97 213.342 1154.97 213.342 1154.97 213.342C1153.45 213.342 1148.92 213.947 1141.05 219.09C1140.75 218.485 1140.44 217.577 1140.14 216.972C1142.56 213.645 1143.77 213.04 1152.55 209.712C1135.3 211.225 1118.36 212.737 1099.6 214.552C1116.84 212.737 1131.67 211.527 1152.55 209.712C1153.15 209.41 1153.76 209.107 1154.06 208.805C1154.36 207.595 1147.4 201.847 1138.63 203.965C1136.51 204.57 1136.51 204.57 1135.6 204.267C1135 202.452 1136.51 200.637 1135 199.125C1133.18 197.007 1130.16 197.612 1128.34 195.192C1127.74 194.284 1128.04 193.377 1129.55 191.562C1131.37 188.839 1131.37 188.839 1127.13 181.277C1116.54 162.219 1116.54 162.219 1111.4 172.202C1110.49 173.714 1112.61 175.227 1111.4 176.739C1109.88 178.554 1107.16 176.739 1105.65 178.857C1102.32 183.394 1102.32 183.394 1101.41 183.697C1095.66 185.512 1091.73 180.672 1086.59 179.764C1085.68 178.252 1087.8 167.967 1090.82 165.244C1087.8 164.336 1084.77 165.547 1081.75 164.639C1081.14 164.336 1080.54 164.034 1079.63 162.219C1079.33 161.614 1078.72 160.404 1071.46 157.984C1069.95 157.379 1069.34 157.379 1068.13 157.681C1061.47 159.496 1054.21 157.984 1047.86 160.706C1049.07 166.757 1041.5 172.504 1046.65 178.857C1045.74 181.882 1041.81 182.789 1041.5 186.419C1041.2 190.654 1045.44 193.074 1045.44 197.007C1045.44 197.309 1045.74 213.04 1036.66 215.157C1034.55 215.762 1030.01 216.972 1031.22 220.3C1030.91 220.905 1030.61 221.207 1028.8 222.417C1026.38 231.795 1032.43 243.29 1021.84 250.55C1018.51 245.408 1012.76 244.198 1008.22 240.87C1010.64 233.61 1009.73 230.887 1008.22 227.56C1008.83 226.955 1010.04 226.047 1010.95 225.442C1010.95 225.14 1010.95 224.232 1010.95 223.93C1010.04 223.93 1009.13 223.627 1008.22 223.627C1003.99 219.392 998.54 223.325 994.001 222.115C989.16 220.905 986.74 216.065 982.201 214.552C981.293 214.25 980.386 213.947 979.478 213.947C975.242 213.342 972.519 216.367 968.888 217.275C967.678 216.367 967.678 216.367 966.165 206.687C965.56 203.36 965.56 203.36 957.693 202.755C955.878 192.772 980.386 174.319 990.976 166.757C989.765 163.429 986.134 164.941 984.319 163.429C1004.59 159.799 1004.59 159.799 1016.39 147.396C1008.52 148.909 1006.71 149.211 1000.36 145.279C1007.92 142.556 1017.6 147.396 1023.65 138.321C1023.05 138.019 1022.14 137.716 1021.53 137.414C1021.53 137.414 1025.47 132.876 1029.4 135.296C1042.71 130.456 1042.71 130.456 1046.04 127.431C1046.65 126.826 1047.56 125.616 1048.16 125.011C1049.67 122.591 1047.25 120.171 1048.46 117.751C1049.67 115.633 1052.4 115.633 1053.91 114.121C1054.82 112.911 1054.82 111.701 1055.42 110.491C1055.42 110.491 1044.23 98.9955 1040.29 115.028C1033.33 118.961 1028.49 134.994 1020.02 127.733C1020.63 122.893 1030.91 119.566 1026.07 114.726C1020.63 116.843 1018.51 121.986 1014.58 125.616C1013.67 122.893 1019.11 115.936 1019.11 115.936C1018.81 115.936 1018.81 115.936 1013.97 115.633C1022.14 102.323 1022.14 102.323 1022.14 100.811C1021.84 100.508 1021.23 100.206 1020.93 99.903C1025.77 92.6429 1025.77 92.6429 1047.56 79.6352C1046.04 79.3327 1046.04 79.3327 1043.62 79.9377C1024.86 85.6853 1001.26 118.658 1000.96 118.961C1001.26 119.263 1001.26 119.868 1001.57 120.171C1003.38 120.171 1005.2 119.868 1007.01 119.566C1007.01 119.868 1007.31 120.473 1007.31 120.776C1003.38 122.591 1002.78 123.196 1000.96 124.708C1000.96 125.616 1000.96 125.616 1000.96 125.616C1001.26 125.616 1001.87 125.918 1002.17 125.918C998.54 132.271 990.37 134.389 987.345 141.649C984.622 138.624 984.622 138.624 989.765 132.876C986.74 131.969 986.74 131.969 976.755 139.834C976.15 140.136 972.822 142.254 960.416 141.951C959.509 140.741 959.811 139.229 958.903 138.019C948.919 140.439 945.893 146.489 940.144 157.984C938.934 154.959 941.657 152.539 941.355 149.816C935.908 150.724 931.672 154.959 925.621 154.354C928.042 151.934 931.975 151.026 932.883 147.094C932.58 146.791 932.277 146.791 931.975 146.489C930.765 147.094 930.462 147.396 926.529 146.791C926.226 146.186 925.318 145.279 925.016 144.976C922.293 145.581 920.78 148.001 918.662 149.211C918.965 148.606 919.57 147.396 920.175 146.791C918.662 148.001 918.662 148.001 916.241 150.119C917.452 147.396 917.452 147.396 921.385 142.859C915.031 148.909 915.031 148.909 902.928 158.891C906.559 155.261 910.795 151.934 914.426 148.606C914.426 148.606 905.954 154.959 895.364 165.547C895.667 164.941 896.272 164.034 896.877 163.429C890.221 170.689 881.446 180.672 875.092 187.932C846.651 225.14 846.046 226.047 833.641 246.618C833.943 246.315 833.943 246.013 834.246 245.71C825.774 266.886 825.774 266.886 824.866 272.633C824.261 274.448 823.656 276.566 823.051 278.078C823.353 278.683 823.958 279.591 824.261 280.196C821.538 288.666 821.538 288.666 818.815 302.884C818.21 306.211 818.815 309.539 820.025 312.564C819.722 312.564 818.815 312.261 817.907 312.261C817.302 312.261 817.302 312.261 816.999 311.959C816.697 311.656 816.697 311.656 816.394 310.749C816.394 310.144 815.789 308.631 815.184 308.329C815.184 308.329 813.974 313.169 815.184 317.404C816.092 320.731 818.512 320.429 818.512 320.429C819.117 320.126 819.722 319.521 820.025 318.614C820.328 317.706 820.328 316.799 820.328 316.496C820.328 315.891 820.328 315.286 820.328 314.984C820.328 314.984 820.328 314.984 820.328 314.681C821.538 318.009 822.748 321.336 822.446 324.664C821.235 324.059 819.722 323.151 818.512 322.546C804.292 340.092 799.45 428.423 808.83 445.061C810.343 445.363 810.343 445.363 830.917 487.411C829.405 487.411 827.589 487.411 826.076 487.714C828.497 492.856 846.651 516.149 846.651 516.452C848.164 514.032 849.979 511.612 841.81 499.814C837.877 494.369 833.641 488.319 826.379 458.976C835.456 465.631 836.364 469.866 837.574 475.311C838.482 479.244 839.389 483.479 841.205 486.504C844.836 492.554 849.374 497.696 853.307 503.444C858.451 511.007 867.226 514.939 871.461 523.107C874.79 529.762 873.277 538.535 880.236 543.375C881.144 543.98 882.656 544.585 883.867 544.887C885.985 545.795 888.405 547.005 890.523 547.61C897.785 549.425 905.349 550.635 912.611 552.45C920.175 554.265 928.042 550.03 935.303 554.265C952.247 563.945 952.247 563.945 957.996 564.55C958.903 564.55 960.114 564.852 961.021 564.852C987.345 568.483 998.54 601.456 1027.59 600.245C1040.6 578.768 1048.46 604.481 1051.19 616.581C1052.09 620.513 1052.09 620.513 1044.83 636.244C1044.83 636.546 1037.87 665.284 1040.6 670.427C1041.2 671.334 1041.81 672.544 1042.41 673.452C1051.79 687.669 1090.82 726.087 1091.13 726.39C1100.5 734.557 1113.52 736.373 1123.5 743.633C1131.06 749.078 1136.81 759.968 1139.54 774.186C1139.54 774.791 1154.66 841.947 1180.69 878.55C1213.67 925.135 1245.74 919.993 1246.04 919.69C1215.18 903.96 1215.18 903.96 1218.2 890.952C1213.97 886.415 1213.97 886.415 1205.8 864.332C1207.01 864.029 1207.01 864.029 1212.76 864.029C1212.76 863.424 1212.76 863.424 1205.8 853.744C1211.24 848.904 1211.24 848.904 1210.94 844.972C1211.24 844.669 1211.85 844.367 1212.15 844.064C1221.83 847.089 1224.86 839.224 1222.44 835.594L1219.72 831.661C1241.5 831.056 1250.58 778.421 1250.88 778.118C1253.91 771.463 1262.08 767.53 1265.71 766.018C1273.27 762.69 1273.57 753.918 1279.02 748.775C1281.44 746.658 1283.56 746.355 1285.37 746.658C1288.4 746.96 1288.7 746.96 1289.31 744.238C1290.21 737.583 1289.61 730.927 1289.91 724.575C1290.21 720.945 1287.79 717.012 1290.21 713.382C1292.94 709.147 1294.15 707.635 1292.03 704.912C1291.73 704.307 1291.12 703.702 1291.12 703.097C1309.28 696.442 1315.63 676.779 1315.63 676.477C1315.63 676.174 1315.63 675.872 1315.63 675.872C1315.63 673.754 1313.81 671.939 1313.51 669.822ZM857.846 259.323C864.2 257.205 871.159 255.088 878.118 253.273C871.159 255.088 864.2 257.205 857.846 259.323ZM1082.96 631.706C1076.9 632.311 1070.55 633.218 1063.89 634.126C1069.95 633.218 1076.3 632.613 1082.96 631.706ZM1248.16 749.078C1247.86 745.75 1246.64 735.465 1245.13 717.012C1246.04 727.902 1247.25 738.49 1248.16 749.985C1248.16 749.683 1248.16 749.38 1248.16 749.078Z" fill="url(#paint40_linear_163_5)" fill-opacity="0.08"/>
<path d="M1087.49 544.585C1085.07 546.4 1088.1 549.425 1091.13 550.03C1093.24 550.332 1100.2 549.425 1100.5 548.82C1100.81 548.517 1100.2 547.61 1095.06 546.097C1089.61 543.98 1088.7 544.282 1087.49 544.585Z" fill="url(#paint41_linear_163_5)" fill-opacity="0.08"/>
</g>
<defs>
<linearGradient id="paint0_linear_163_5" x1="1031.93" y1="70.8628" x2="1031.93" y2="74.8526" gradientUnits="userSpaceOnUse">
<stop offset="0.40625" stop-color="#00AFE5"/>
<stop offset="1" stop-color="#00AFE5" stop-opacity="0"/>
</linearGradient>
<linearGradient id="paint1_linear_163_5" x1="1027.13" y1="68.4426" x2="1027.13" y2="70.2577" gradientUnits="userSpaceOnUse">
<stop offset="0.40625" stop-color="#00AFE5"/>
<stop offset="1" stop-color="#00AFE5" stop-opacity="0"/>
</linearGradient>
<linearGradient id="paint2_linear_163_5" x1="1040.29" y1="60.275" x2="1040.29" y2="66.0226" gradientUnits="userSpaceOnUse">
<stop offset="0.40625" stop-color="#00AFE5"/>
<stop offset="1" stop-color="#00AFE5" stop-opacity="0"/>
</linearGradient>
<linearGradient id="paint3_linear_163_5" x1="1031.07" y1="64.8125" x2="1031.07" y2="71.7701" gradientUnits="userSpaceOnUse">
<stop offset="0.40625" stop-color="#00AFE5"/>
<stop offset="1" stop-color="#00AFE5" stop-opacity="0"/>
</linearGradient>
<linearGradient id="paint4_linear_163_5" x1="1040.29" y1="64.2074" x2="1040.29" y2="67.8375" gradientUnits="userSpaceOnUse">
<stop offset="0.40625" stop-color="#00AFE5"/>
<stop offset="1" stop-color="#00AFE5" stop-opacity="0"/>
</linearGradient>
<linearGradient id="paint5_linear_163_5" x1="1019.02" y1="80.5428" x2="1019.02" y2="83.8704" gradientUnits="userSpaceOnUse">
<stop offset="0.40625" stop-color="#00AFE5"/>
<stop offset="1" stop-color="#00AFE5" stop-opacity="0"/>
</linearGradient>
<linearGradient id="paint6_linear_163_5" x1="1012.76" y1="87.9709" x2="1012.76" y2="107.315" gradientUnits="userSpaceOnUse">
<stop offset="0.40625" stop-color="#00AFE5"/>
<stop offset="1" stop-color="#00AFE5" stop-opacity="0"/>
</linearGradient>
<linearGradient id="paint7_linear_163_5" x1="1004.29" y1="73.2827" x2="1004.29" y2="90.5255" gradientUnits="userSpaceOnUse">
<stop offset="0.40625" stop-color="#00AFE5"/>
<stop offset="1" stop-color="#00AFE5" stop-opacity="0"/>
</linearGradient>
<linearGradient id="paint8_linear_163_5" x1="990.281" y1="120.776" x2="990.281" y2="131.061" gradientUnits="userSpaceOnUse">
<stop offset="0.40625" stop-color="#00AFE5"/>
<stop offset="1" stop-color="#00AFE5" stop-opacity="0"/>
</linearGradient>
<linearGradient id="paint9_linear_163_5" x1="999.652" y1="93.853" x2="999.652" y2="99.6488" gradientUnits="userSpaceOnUse">
<stop offset="0.40625" stop-color="#00AFE5"/>
<stop offset="1" stop-color="#00AFE5" stop-opacity="0"/>
</linearGradient>
<linearGradient id="paint10_linear_163_5" x1="1223.17" y1="18" x2="1223.17" y2="158.935" gradientUnits="userSpaceOnUse">
<stop offset="0.40625" stop-color="#00AFE5"/>
<stop offset="1" stop-color="#00AFE5" stop-opacity="0"/>
</linearGradient>
<linearGradient id="paint11_linear_163_5" x1="1072.63" y1="116.2" x2="1072.63" y2="126.717" gradientUnits="userSpaceOnUse">
<stop offset="0.40625" stop-color="#00AFE5"/>
<stop offset="1" stop-color="#00AFE5" stop-opacity="0"/>
</linearGradient>
<linearGradient id="paint12_linear_163_5" x1="1121.38" y1="25.4872" x2="1121.38" y2="62.3927" gradientUnits="userSpaceOnUse">
<stop offset="0.40625" stop-color="#00AFE5"/>
<stop offset="1" stop-color="#00AFE5" stop-opacity="0"/>
</linearGradient>
<linearGradient id="paint13_linear_163_5" x1="1038.48" y1="66.6276" x2="1038.48" y2="80.2403" gradientUnits="userSpaceOnUse">
<stop offset="0.40625" stop-color="#00AFE5"/>
<stop offset="1" stop-color="#00AFE5" stop-opacity="0"/>
</linearGradient>
<linearGradient id="paint14_linear_163_5" x1="1082.78" y1="78.2218" x2="1082.78" y2="157.161" gradientUnits="userSpaceOnUse">
<stop offset="0.40625" stop-color="#00AFE5"/>
<stop offset="1" stop-color="#00AFE5" stop-opacity="0"/>
</linearGradient>
<linearGradient id="paint15_linear_163_5" x1="1015.18" y1="75.7028" x2="1015.18" y2="77.8796" gradientUnits="userSpaceOnUse">
<stop offset="0.40625" stop-color="#00AFE5"/>
<stop offset="1" stop-color="#00AFE5" stop-opacity="0"/>
</linearGradient>
<linearGradient id="paint16_linear_163_5" x1="1180.47" y1="88.1053" x2="1180.47" y2="94.7604" gradientUnits="userSpaceOnUse">
<stop offset="0.40625" stop-color="#00AFE5"/>
<stop offset="1" stop-color="#00AFE5" stop-opacity="0"/>
</linearGradient>
<linearGradient id="paint17_linear_163_5" x1="1082.14" y1="76.4893" x2="1082.14" y2="81.6761" gradientUnits="userSpaceOnUse">
<stop offset="0.40625" stop-color="#00AFE5"/>
<stop offset="1" stop-color="#00AFE5" stop-opacity="0"/>
</linearGradient>
<linearGradient id="paint18_linear_163_5" x1="1059.51" y1="52.7125" x2="1059.51" y2="60.0208" gradientUnits="userSpaceOnUse">
<stop offset="0.40625" stop-color="#00AFE5"/>
<stop offset="1" stop-color="#00AFE5" stop-opacity="0"/>
</linearGradient>
<linearGradient id="paint19_linear_163_5" x1="1044.45" y1="71.4675" x2="1044.45" y2="78.0425" gradientUnits="userSpaceOnUse">
<stop offset="0.40625" stop-color="#00AFE5"/>
<stop offset="1" stop-color="#00AFE5" stop-opacity="0"/>
</linearGradient>
<linearGradient id="paint20_linear_163_5" x1="1071.46" y1="54.8301" x2="1071.46" y2="59.3676" gradientUnits="userSpaceOnUse">
<stop offset="0.40625" stop-color="#00AFE5"/>
<stop offset="1" stop-color="#00AFE5" stop-opacity="0"/>
</linearGradient>
<linearGradient id="paint21_linear_163_5" x1="1068.58" y1="52.1074" x2="1068.58" y2="58.1575" gradientUnits="userSpaceOnUse">
<stop offset="0.40625" stop-color="#00AFE5"/>
<stop offset="1" stop-color="#00AFE5" stop-opacity="0"/>
</linearGradient>
<linearGradient id="paint22_linear_163_5" x1="1079.42" y1="46.0574" x2="1079.42" y2="49.4654" gradientUnits="userSpaceOnUse">
<stop offset="0.40625" stop-color="#00AFE5"/>
<stop offset="1" stop-color="#00AFE5" stop-opacity="0"/>
</linearGradient>
<linearGradient id="paint23_linear_163_5" x1="1094.22" y1="37.5872" x2="1094.22" y2="52.1074" gradientUnits="userSpaceOnUse">
<stop offset="0.40625" stop-color="#00AFE5"/>
<stop offset="1" stop-color="#00AFE5" stop-opacity="0"/>
</linearGradient>
<linearGradient id="paint24_linear_163_5" x1="1071.55" y1="61.7877" x2="1071.55" y2="76.6104" gradientUnits="userSpaceOnUse">
<stop offset="0.40625" stop-color="#00AFE5"/>
<stop offset="1" stop-color="#00AFE5" stop-opacity="0"/>
</linearGradient>
<linearGradient id="paint25_linear_163_5" x1="994.304" y1="85.3829" x2="994.304" y2="91.433" gradientUnits="userSpaceOnUse">
<stop offset="0.40625" stop-color="#00AFE5"/>
<stop offset="1" stop-color="#00AFE5" stop-opacity="0"/>
</linearGradient>
<linearGradient id="paint26_linear_163_5" x1="956.483" y1="101.113" x2="956.483" y2="133.179" gradientUnits="userSpaceOnUse">
<stop offset="0.40625" stop-color="#00AFE5"/>
<stop offset="1" stop-color="#00AFE5" stop-opacity="0"/>
</linearGradient>
<linearGradient id="paint27_linear_163_5" x1="1006.37" y1="73.585" x2="1006.37" y2="95.6678" gradientUnits="userSpaceOnUse">
<stop offset="0.40625" stop-color="#00AFE5"/>
<stop offset="1" stop-color="#00AFE5" stop-opacity="0"/>
</linearGradient>
<linearGradient id="paint28_linear_163_5" x1="963.468" y1="100.206" x2="963.468" y2="146.791" gradientUnits="userSpaceOnUse">
<stop offset="0.40625" stop-color="#00AFE5"/>
<stop offset="1" stop-color="#00AFE5" stop-opacity="0"/>
</linearGradient>
<linearGradient id="paint29_linear_163_5" x1="1039.61" y1="164.337" x2="1039.61" y2="170.579" gradientUnits="userSpaceOnUse">
<stop offset="0.40625" stop-color="#00AFE5"/>
<stop offset="1" stop-color="#00AFE5" stop-opacity="0"/>
</linearGradient>
<linearGradient id="paint30_linear_163_5" x1="1024.3" y1="142.859" x2="1024.3" y2="164.639" gradientUnits="userSpaceOnUse">
<stop offset="0.40625" stop-color="#00AFE5"/>
<stop offset="1" stop-color="#00AFE5" stop-opacity="0"/>
</linearGradient>
<linearGradient id="paint31_linear_163_5" x1="1024.82" y1="162.159" x2="1024.82" y2="169.591" gradientUnits="userSpaceOnUse">
<stop offset="0.40625" stop-color="#00AFE5"/>
<stop offset="1" stop-color="#00AFE5" stop-opacity="0"/>
</linearGradient>
<linearGradient id="paint32_linear_163_5" x1="1015.26" y1="532.412" x2="1015.26" y2="538.459" gradientUnits="userSpaceOnUse">
<stop offset="0.40625" stop-color="#00AFE5"/>
<stop offset="1" stop-color="#00AFE5" stop-opacity="0"/>
</linearGradient>
<linearGradient id="paint33_linear_163_5" x1="1159.43" y1="232.703" x2="1159.43" y2="276.566" gradientUnits="userSpaceOnUse">
<stop offset="0.40625" stop-color="#00AFE5"/>
<stop offset="1" stop-color="#00AFE5" stop-opacity="0"/>
</linearGradient>
<linearGradient id="paint34_linear_163_5" x1="817.238" y1="285.641" x2="817.238" y2="302.279" gradientUnits="userSpaceOnUse">
<stop offset="0.40625" stop-color="#00AFE5"/>
<stop offset="1" stop-color="#00AFE5" stop-opacity="0"/>
</linearGradient>
<linearGradient id="paint35_linear_163_5" x1="1350.29" y1="105.315" x2="1350.29" y2="129.246" gradientUnits="userSpaceOnUse">
<stop offset="0.40625" stop-color="#00AFE5"/>
<stop offset="1" stop-color="#00AFE5" stop-opacity="0"/>
</linearGradient>
<linearGradient id="paint36_linear_163_5" x1="1012.46" y1="494.277" x2="1012.46" y2="525.294" gradientUnits="userSpaceOnUse">
<stop offset="0.40625" stop-color="#00AFE5"/>
<stop offset="1" stop-color="#00AFE5" stop-opacity="0"/>
</linearGradient>
<linearGradient id="paint37_linear_163_5" x1="1055.88" y1="528.227" x2="1055.88" y2="546.714" gradientUnits="userSpaceOnUse">
<stop offset="0.40625" stop-color="#00AFE5"/>
<stop offset="1" stop-color="#00AFE5" stop-opacity="0"/>
</linearGradient>
<linearGradient id="paint38_linear_163_5" x1="1116.38" y1="253.784" x2="1116.38" y2="259.954" gradientUnits="userSpaceOnUse">
<stop offset="0.40625" stop-color="#00AFE5"/>
<stop offset="1" stop-color="#00AFE5" stop-opacity="0"/>
</linearGradient>
<linearGradient id="paint39_linear_163_5" x1="833.451" y1="246.693" x2="833.451" y2="246.92" gradientUnits="userSpaceOnUse">
<stop offset="0.40625" stop-color="#00AFE5"/>
<stop offset="1" stop-color="#00AFE5" stop-opacity="0"/>
</linearGradient>
<linearGradient id="paint40_linear_163_5" x1="1059.82" y1="79.4365" x2="1059.82" y2="920" gradientUnits="userSpaceOnUse">
<stop offset="0.40625" stop-color="#00AFE5"/>
<stop offset="1" stop-color="#00AFE5" stop-opacity="0"/>
</linearGradient>
<linearGradient id="paint41_linear_163_5" x1="1093.59" y1="544.371" x2="1093.59" y2="550.09" gradientUnits="userSpaceOnUse">
<stop offset="0.40625" stop-color="#00AFE5"/>
<stop offset="1" stop-color="#00AFE5" stop-opacity="0"/>
</linearGradient>
</defs>
</svg>
