<svg width="739" height="902" viewBox="0 0 739 902" fill="none" xmlns="http://www.w3.org/2000/svg">
<path d="M66.1503 52.8628C66.1503 52.8628 65.8477 52.8628 65.5451 52.8628C64.6374 53.1653 63.1246 54.0728 62.822 54.0728C62.5194 54.3753 59.7963 56.4928 59.7963 56.4928C59.4938 56.4928 59.4938 56.7953 59.4938 56.7953C59.4938 56.7953 60.7041 57.4004 64.6374 54.6778C66.7554 53.4678 66.4528 52.8628 66.1503 52.8628Z" fill="url(#paint0_linear_108_93)" fill-opacity="0.15"/>
<path d="M57.981 51.6524C58.2835 51.6524 59.7964 50.7449 59.7964 50.4424H59.4938C58.8887 50.7449 57.3759 51.3499 57.0733 51.6524C56.7707 51.9549 56.4681 52.2574 56.4681 52.2574C56.7707 52.2574 57.3758 51.9549 57.981 51.6524Z" fill="url(#paint1_linear_108_93)" fill-opacity="0.15"/>
<path d="M70.9912 45.2999C72.2015 44.9974 72.2015 44.9974 73.1092 44.6949C73.1092 44.6949 74.3195 44.0899 75.8323 43.4849C75.8323 43.4849 77.6477 42.5774 77.9503 42.2749C77.9503 42.2749 77.9503 42.2749 77.6477 42.2749C77.6477 42.2749 70.6887 44.6949 64.6373 48.0225L67.9656 46.8125C69.1758 46.2075 70.0835 45.6025 70.9912 45.2999Z" fill="url(#paint2_linear_108_93)" fill-opacity="0.15"/>
<path d="M63.7299 49.535C63.7299 49.2325 63.7299 49.2325 66.453 48.325C67.3607 48.0225 68.571 47.4175 69.1761 47.115C69.1761 47.115 69.4787 47.115 69.4787 46.8125C69.1761 46.8125 69.1761 46.8125 68.8735 46.8125C61.3094 49.2325 55.5606 53.1651 54.6529 53.7701C55.258 53.7701 63.1248 50.1401 63.7299 49.535C63.7299 49.535 63.7299 49.8375 63.7299 49.535Z" fill="url(#paint3_linear_108_93)" fill-opacity="0.15"/>
<path d="M71.2937 48.6276C71.5962 48.6276 71.5962 48.3251 71.5962 48.3251C71.8988 48.0225 72.2014 47.72 72.2014 47.72C72.5039 47.4175 73.109 46.8125 73.4116 46.51C73.7142 46.2075 73.7142 46.2075 73.7142 46.2075C73.7142 46.2075 73.7142 46.2075 73.4116 46.2075C71.8988 46.8125 69.1757 48.6276 69.1757 48.9301C69.4783 48.9301 69.4782 48.9301 68.8731 49.8376C69.4782 49.8376 71.2937 48.6276 71.2937 48.6276Z" fill="url(#paint4_linear_108_93)" fill-opacity="0.15"/>
<path d="M52.8372 62.543C52.5347 62.543 52.5346 62.543 52.2321 62.543C51.6269 62.8455 51.0218 63.148 51.0218 63.148C49.2064 64.0555 47.0884 65.568 47.0884 65.8705C47.391 65.8705 50.7192 64.6605 52.2321 63.4505C52.8372 62.8455 53.1398 62.543 52.8372 62.543Z" fill="url(#paint5_linear_108_93)" fill-opacity="0.15"/>
<path d="M56.1658 70.1051C55.8632 70.1051 55.8632 69.8026 54.9555 70.1051C54.653 70.1051 54.653 70.1051 54.3504 70.1051C52.8376 70.4077 51.0222 70.7102 49.5093 71.0127C47.3914 71.3152 41.0374 74.6427 40.1297 75.8527C40.7349 76.1552 41.34 75.8527 41.6426 76.1552C42.5503 76.7602 42.2477 77.0628 41.9451 77.3653C41.6426 77.9703 37.4066 80.9953 36.1964 81.6003C35.5912 81.9028 35.5912 81.9028 35.2886 81.9028C34.9861 80.6928 36.4989 80.3903 36.4989 79.1803C35.5912 79.1803 31.6579 81.2978 31.3553 82.5078V82.8103C31.6579 83.7179 31.9604 84.6254 32.263 85.5329C32.263 85.8354 32.5655 86.1379 32.5655 86.7429C32.5655 87.3479 32.263 87.9529 32.263 88.8604C32.263 88.8604 32.263 89.1629 32.5655 89.1629C33.7758 90.373 44.6682 84.0204 47.3913 81.2978C47.9965 80.6928 49.8119 76.7603 48.6016 77.0628C47.3914 77.0628 46.1811 77.6678 44.6682 77.9703C47.0888 76.1552 50.1145 75.2477 52.535 73.4327C52.8376 72.8277 56.1658 70.4077 56.1658 70.1051Z" fill="url(#paint6_linear_108_93)" fill-opacity="0.15"/>
<path d="M25.3036 69.5004C29.8421 67.3829 34.0781 64.0553 38.6166 61.9378C34.0781 64.9629 34.0781 64.9629 33.7755 65.2654L49.509 56.1902C49.8116 55.8877 50.4167 55.8877 50.7193 55.2827C50.4167 55.2827 50.4167 55.2827 50.1142 55.2827C46.7859 56.7952 24.3959 68.8954 19.8574 72.5255C21.9754 72.223 23.4882 70.4079 25.3036 69.5004Z" fill="url(#paint7_linear_108_93)" fill-opacity="0.15"/>
<path d="M25.304 102.776C25.304 102.776 25.0015 102.776 25.304 102.776C24.6989 102.776 24.6989 103.078 24.0938 103.381C21.9758 104.893 20.4629 107.011 18.345 108.523C14.7142 110.641 13.5039 111.548 13.5039 112.154C13.8065 112.154 14.109 112.154 15.0167 111.851C16.5296 111.548 16.5296 111.548 16.8321 111.851C17.4373 112.154 17.1347 113.061 17.7398 113.061C18.0424 113.061 18.9501 113.061 19.8578 112.759C26.2117 111.548 28.9348 108.826 28.9348 108.826C29.54 107.918 27.7246 104.591 27.7246 104.591C27.1194 103.683 25.304 102.776 25.304 102.776Z" fill="url(#paint8_linear_108_93)" fill-opacity="0.15"/>
<path d="M34.0784 75.853C34.0784 75.853 33.7758 75.853 32.8681 76.1555C29.5399 77.063 27.1193 79.1806 26.8168 79.4831C27.1193 79.4831 27.4219 79.1806 27.7245 79.4831C27.7245 79.7856 27.7245 79.7856 27.4219 80.3906C27.1193 80.6931 26.8168 81.9031 27.4219 81.6006C28.6322 81.2981 31.9604 78.2731 32.263 77.9706C34.3809 76.458 34.9861 75.853 34.0784 75.853Z" fill="url(#paint9_linear_108_93)" fill-opacity="0.15"/>
<path d="M186.27 13.8396C183.849 16.5621 178.1 18.3771 174.772 18.9822C174.772 18.9822 158.433 23.8222 157.828 24.7297C153.29 30.7798 164.485 32.5948 164.787 32.5948C192.624 30.4773 193.229 30.7798 195.044 32.5948C195.044 32.5948 208.054 47.1151 203.819 54.9802C202.003 58.3077 202.003 58.3077 202.306 58.6102C202.608 60.4253 204.726 60.4253 205.331 61.9378C206.239 64.0553 205.331 66.4753 206.542 68.5929C210.172 67.6854 213.198 63.7528 217.434 65.8703C224.998 69.1979 221.367 75.248 221.367 75.248C218.342 78.878 212.593 78.5755 209.87 82.8106C208.357 84.9281 206.844 91.2807 208.054 94.9108C208.66 96.7258 230.444 133.631 240.732 136.959C235.588 60.1228 231.655 25.3347 226.208 8.697C231.05 23.2172 234.68 51.9551 240.732 136.959C266.753 142.101 267.358 141.496 269.173 139.379C271.896 136.354 276.737 112.456 276.737 112.154C277.342 108.523 275.527 104.893 277.645 101.566C278.855 99.7508 278.855 99.7508 285.512 97.6333C306.086 91.2807 306.086 91.2807 306.691 87.3481C307.297 83.4156 307.599 80.9955 311.23 79.1805C320.307 74.643 330.594 74.038 339.671 69.5004C343.302 67.6854 347.235 66.4753 350.866 64.0553C350.866 64.0553 352.682 62.8453 350.564 60.1227C347.538 56.1902 342.697 53.7702 339.974 49.8376C338.158 47.1151 338.158 44.09 336.948 41.065C335.435 37.7374 336.04 36.8299 337.856 35.0149C340.276 32.2923 338.764 31.3848 333.317 28.3598C316.071 18.3771 316.071 18.0746 314.558 15.6546C314.558 15.3521 314.861 15.0496 314.861 15.0496C315.163 15.0496 315.466 14.7471 315.768 14.7471C310.625 9.90702 300.64 13.8396 298.22 4.46194C297.614 4.15944 297.009 3.85693 296.404 3.55443C296.404 3.25192 296.707 2.64691 296.707 2.0419C297.009 2.0419 297.312 2.0419 297.312 1.7394C295.194 1.4369 288.537 1.13439 288.537 1.13439C284.301 0.831887 278.855 1.7394 277.645 2.0419C274.014 2.64691 270.686 0.226878 267.055 0.226878C261.911 -0.0756261 250.716 -0.0756261 246.48 0.226878C238.311 0.831887 238.311 0.831887 237.403 1.4369C228.629 2.0419 228.629 2.0419 224.393 2.64691H224.091H224.393C229.537 2.94942 229.537 2.94942 231.05 3.55443C230.747 3.55443 230.747 3.55443 224.696 3.55443C222.275 3.55443 221.367 3.55443 218.644 3.85693C197.767 6.27697 182.941 12.9321 182.639 12.9321C183.547 13.8396 183.547 13.8396 186.27 13.8396Z" fill="url(#paint10_linear_108_93)" fill-opacity="0.15"/>
<path d="M107.602 102.171C108.812 99.4484 108.207 97.9359 106.089 98.2384C106.089 98.2384 100.038 99.7509 99.1303 102.473C98.5252 103.986 100.946 107.919 101.853 108.524C104.274 110.036 107.602 102.171 107.602 102.171Z" fill="url(#paint11_linear_108_93)" fill-opacity="0.15"/>
<path d="M149.961 17.7725C148.751 18.3775 147.238 18.68 146.028 19.285C150.264 18.3775 164.182 14.4449 166.3 13.8399C156.92 16.8649 149.659 19.285 141.792 21.1C139.977 21.4025 139.371 22.0075 138.766 22.6125C138.766 23.2175 138.161 25.9401 136.648 27.1501C132.412 25.9401 121.823 31.9902 121.52 32.5952C122.428 32.8977 123.638 32.8977 124.546 33.5027C124.546 33.5027 124.546 33.8052 124.546 34.1077C126.059 33.8052 126.361 33.8052 130.9 32.2927C123.033 36.5277 122.125 35.6202 121.52 35.0152C115.469 35.0152 115.166 37.4352 115.166 38.6453C111.838 40.7628 107.299 41.0653 104.274 44.0903L104.576 44.3929C105.484 44.3929 106.089 44.3929 112.443 43.1828C116.981 42.2753 121.217 38.9478 126.059 40.1578C125.756 41.0653 125.756 41.0653 124.546 41.9728C127.874 42.5778 138.766 37.4352 137.556 34.7127C137.254 34.7127 136.648 34.4102 136.346 34.4102C137.254 33.2002 144.213 28.6626 145.725 28.3601C155.408 25.9401 158.736 22.31 158.736 21.705C158.736 21.705 158.433 21.705 158.131 21.4025C166.905 18.9825 171.141 18.075 173.864 16.2599C173.259 16.2599 173.259 16.2599 171.746 16.5624C171.746 16.5624 192.018 10.2098 192.926 9.90734C187.782 10.5123 187.48 10.8149 185.362 10.8149C190.203 9.60484 195.346 8.69732 200.49 7.4873C195.649 7.4873 187.48 8.39482 187.48 8.39482C187.177 8.39482 168.115 11.7224 163.879 13.2349C164.182 13.5374 164.485 13.8399 164.787 13.8399C163.879 14.1424 163.274 14.4449 161.156 14.1424C159.643 13.8399 143.002 18.075 141.489 20.1925C142.397 19.5875 142.7 19.89 149.961 17.7725Z" fill="url(#paint12_linear_108_93)" fill-opacity="0.15"/>
<path d="M72.2016 51.35C71.8991 51.955 71.5965 52.56 71.2939 53.165C70.6888 53.77 70.6888 53.77 68.5708 55.585C68.8734 54.98 69.176 54.375 69.176 53.77C69.176 53.4675 69.4785 53.165 69.4785 52.8625C69.176 52.8625 67.6631 52.8625 65.8477 54.6775C66.1503 54.6775 66.1503 54.6775 66.4529 54.6775C66.4529 54.6775 66.4529 54.6775 66.4529 54.98C64.3349 56.7951 61.9143 56.7951 59.4938 58.3076C59.7964 58.6101 60.0989 58.0051 60.4015 58.3076C60.0989 58.9126 60.0989 58.9126 60.0989 58.9126C60.4015 58.9126 60.4015 58.9126 66.7554 56.7951C64.6374 58.0051 59.1912 61.0301 58.8887 62.2401C58.8887 62.2401 66.1503 59.5176 67.058 58.9126C67.6631 58.6101 67.6631 58.6101 71.899 54.98C71.899 54.98 71.899 55.2825 71.899 55.585C73.7144 53.77 73.7145 53.77 78.8581 49.8375C80.0684 48.9299 80.0684 48.9299 80.0684 48.6274C79.7658 48.6274 79.7658 48.6274 79.4632 48.6274C79.4632 48.9299 73.1093 50.745 72.2016 51.35Z" fill="url(#paint13_linear_108_93)" fill-opacity="0.15"/>
<path d="M142.095 102.473C145.121 102.171 151.777 110.641 151.777 110.641C153.29 112.758 155.105 114.876 156.316 114.573C160.552 113.666 166.603 97.9357 166.603 97.9357C166.906 97.3307 166.906 96.7257 166.906 96.4232L136.951 89.4656C137.859 88.8606 138.464 88.2556 145.726 84.9281C148.751 83.4155 150.567 82.8105 150.264 81.903C149.962 79.7855 139.372 69.8028 134.228 68.8953C131.808 68.5928 129.387 69.1978 127.269 68.2903C124.849 67.0803 125.151 63.4502 122.126 63.1477C119.1 62.8452 112.746 65.2653 108.207 67.0803C103.366 68.8953 103.366 68.8953 102.761 68.8953C102.459 68.2903 102.156 67.3828 101.854 60.4252C100.038 59.8202 93.9868 60.7277 92.1714 61.0302C83.0944 63.1477 56.1659 85.8356 61.3096 89.1631C66.4532 92.4907 83.6995 89.1631 86.1201 87.9531C85.8175 86.4406 85.5149 85.5331 93.0791 84.6256C99.433 84.0205 100.341 82.508 100.946 81.298C102.459 82.2055 106.695 85.8356 106.695 85.8356C108.813 88.2556 109.72 91.2806 111.838 93.7007C114.561 96.7257 120.31 96.4232 120.613 102.171C120.613 102.171 119.402 115.179 101.551 120.321C96.1048 121.834 90.356 121.531 85.5149 124.254C83.397 125.464 83.0944 129.094 83.6995 129.699C84.6072 130.606 87.9355 130.909 97.3151 127.884C104.577 125.464 104.577 125.464 117.284 130.909C116.377 132.119 116.377 132.119 111.233 133.934C113.956 136.354 135.741 140.891 140.28 138.471C139.977 137.866 139.977 137.866 139.069 137.261C138.464 136.959 138.464 136.959 128.782 127.884C136.346 128.791 138.767 129.699 143.003 132.421C143.91 133.026 144.516 133.329 144.818 133.329C147.239 132.724 151.172 123.346 149.357 121.531C145.121 117.296 137.254 117.599 134.833 110.943C132.413 105.498 142.095 102.473 142.095 102.473Z" fill="url(#paint14_linear_108_93)" fill-opacity="0.15"/>
<path d="M44.0632 59.8202C44.3657 60.1227 45.8786 59.2152 47.3914 58.3076C47.694 58.0051 47.9965 57.7026 48.2991 57.7026C48.2991 57.7026 48.2991 57.7026 47.9965 57.7026C47.0888 58.0051 44.0632 59.5177 44.0632 59.8202Z" fill="url(#paint15_linear_108_93)" fill-opacity="0.15"/>
<path d="M210.475 76.7606L215.014 75.8531C215.014 75.8531 216.224 75.248 216.527 74.3405C216.829 73.7355 216.527 73.433 216.224 73.1305C215.922 72.5255 215.014 72.223 214.409 71.618C214.106 71.3155 214.106 71.013 214.106 70.7105C214.106 70.7105 214.106 70.7105 214.106 70.408C214.106 70.408 213.501 70.1055 211.988 70.1055C209.87 70.408 204.121 74.038 207.147 75.8531C207.752 76.4581 208.962 76.7606 210.475 76.7606Z" fill="url(#paint16_linear_108_93)" fill-opacity="0.15"/>
<path d="M120.31 60.7277C120.008 59.8202 113.654 58.0052 108.813 58.6102C104.577 59.2152 106.09 62.2403 106.997 62.8453C110.023 65.5678 120.31 60.7277 120.31 60.7277Z" fill="url(#paint17_linear_108_93)" fill-opacity="0.15"/>
<path d="M87.9353 39.25C86.7251 39.855 84.6071 40.7625 84.002 41.065C84.3045 41.065 84.3045 41.065 84.6071 41.065C86.7251 40.46 88.5405 40.46 88.5405 40.46C88.2379 41.065 87.3302 41.065 87.3302 41.9725C87.6328 42.275 90.961 41.065 91.2636 40.7625C92.4738 40.1575 96.4072 36.5274 96.4072 35.9224C95.8021 35.6199 95.4995 36.2249 94.8944 36.2249C95.4995 35.3174 96.4072 35.3174 97.0124 34.7124C97.0124 34.7124 97.0124 34.7124 96.7098 34.7124C93.079 35.9224 88.2379 38.04 87.6328 38.3425C88.5405 38.645 89.1456 38.04 90.0533 38.04C90.3559 38.3425 90.0533 38.645 87.9353 39.25Z" fill="url(#paint18_linear_108_93)" fill-opacity="0.15"/>
<path d="M70.6887 58.3074C69.781 58.9124 69.4785 59.2149 70.9913 59.8199C72.2016 60.4249 74.9247 59.8199 77.6478 57.7023C79.1606 56.4923 81.8837 53.4673 80.6734 53.4673C80.3709 53.4673 80.3709 53.4673 80.0683 53.4673C77.3452 54.3748 70.9913 58.3074 70.6887 58.3074Z" fill="url(#paint19_linear_108_93)" fill-opacity="0.15"/>
<path d="M110.023 36.8301C109.72 36.8301 109.72 36.8301 109.72 36.8301H109.418C107.602 37.4351 105.787 38.0401 103.971 38.6451C101.853 39.2501 99.7355 39.8551 97.6175 40.4601C96.1047 41.0651 95.197 41.3676 94.8944 41.3676C95.4995 41.3676 101.853 40.4601 105.182 39.5526C106.997 38.9476 107.602 38.6451 110.023 37.1326C109.72 37.1326 110.023 37.1326 110.023 36.8301Z" fill="url(#paint20_linear_108_93)" fill-opacity="0.15"/>
<path d="M94.5912 40.1575C95.1963 40.1575 101.853 37.435 103.668 36.5275C104.576 36.225 104.576 35.9224 104.576 35.6199C104.576 35.3174 103.971 35.3174 103.971 35.0149C103.971 34.7124 103.971 34.7124 103.971 34.4099C103.971 34.4099 103.971 34.4099 103.668 34.1074C103.366 34.1074 103.063 34.1074 102.761 34.1074C102.458 34.1074 102.155 34.4099 101.853 34.7124C100.34 35.6199 99.4323 37.435 97.9194 38.04C95.8015 38.9475 94.8938 38.9475 94.5912 40.1575Z" fill="url(#paint21_linear_108_93)" fill-opacity="0.15"/>
<path d="M109.418 30.4772C113.956 28.3596 113.956 28.0571 113.956 28.0571H113.654C113.654 28.0571 109.115 29.5697 107.905 30.1747C106.392 30.7797 106.997 31.3847 106.997 31.3847C106.997 31.6872 107.905 31.0822 109.418 30.4772Z" fill="url(#paint22_linear_108_93)" fill-opacity="0.15"/>
<path d="M119.1 28.36C120.915 27.755 121.52 27.755 122.428 27.755V28.0575C121.823 28.36 121.218 28.6625 119.402 29.2675C114.259 30.7801 112.746 31.3851 112.443 31.6876C111.233 32.2926 111.233 33.8051 111.536 34.1076C111.536 34.1076 111.536 34.1076 115.166 33.2001C116.377 32.8976 117.889 33.2001 119.1 32.5951C122.428 31.3851 125.151 29.2675 128.177 28.0575C129.992 27.15 132.413 26.8475 134.228 25.94L134.531 25.6375C134.531 25.6375 134.531 25.6375 133.018 25.335C133.32 25.0325 133.623 25.0325 133.925 24.73C136.649 23.52 136.649 23.52 136.649 23.2175C136.346 23.2175 136.043 23.2175 135.741 22.915C136.043 22.3099 137.254 22.3099 136.951 21.0999C137.556 20.4949 138.464 20.1924 139.069 19.5874C138.767 19.5874 138.767 19.5874 138.464 19.5874C135.136 20.4949 123.336 24.73 122.428 25.6375C123.033 25.6375 123.638 25.335 124.243 25.335C123.336 25.94 120.915 26.545 120.007 26.8475C116.377 27.755 114.561 29.57 114.561 29.57C114.864 29.57 118.797 28.36 119.1 28.36Z" fill="url(#paint23_linear_108_93)" fill-opacity="0.15"/>
<path d="M81.8837 58.6103C82.1862 58.6103 114.863 55.2828 123.638 46.5101C126.058 44.0901 120.31 43.7876 120.007 43.7876C116.981 43.7876 102.156 48.9302 99.13 50.1402C96.4069 51.3502 94.2889 48.6277 94.8941 48.0227C95.1966 47.7202 95.4992 47.7202 96.7095 47.4177C102.156 45.9051 99.4326 44.0901 98.8274 44.0901C97.3146 44.0901 96.4069 44.6951 94.8941 44.9976C93.3812 45.3001 91.8684 44.6951 90.3556 44.6951C89.7504 44.6951 88.2376 44.9976 87.3299 45.3001C86.4222 45.6026 84.0016 48.3252 84.0016 48.9302C84.6068 48.9302 84.6068 48.9302 86.1196 48.3252C87.6324 47.7202 89.7504 47.1151 90.053 47.4177C90.9607 48.0227 88.2376 51.3502 88.2376 51.3502C86.7247 52.8627 84.3042 53.4677 82.7914 54.9803C79.7657 58.6103 80.976 58.6103 81.8837 58.6103Z" fill="url(#paint24_linear_108_93)" fill-opacity="0.15"/>
<path d="M737.547 463.059C736.942 450.051 736.034 432.506 734.824 419.498C734.219 415.566 733.614 411.936 733.311 408.608C730.285 398.323 729.983 396.508 723.932 360.207C723.932 360.207 724.234 360.51 724.234 360.812C709.408 311.202 709.408 311.202 709.106 308.782C709.106 308.782 709.106 308.782 709.408 309.084C704.265 293.656 701.844 288.211 694.582 272.784L678.546 241.323C672.495 231.341 664.628 217.728 657.972 207.745C629.833 169.327 629.228 168.722 611.982 149.967L593.222 131.212C592.617 130.607 591.71 130.002 591.104 129.396C592.012 130.607 592.315 130.909 599.879 138.774C598.366 137.867 597.156 136.959 595.946 136.052C598.063 139.984 601.997 142.102 605.023 145.429C604.72 145.429 604.417 145.732 604.417 146.034C591.407 135.447 580.515 122.741 567.202 112.154C573.858 116.086 579.002 122.136 585.961 125.464C584.145 122.439 564.479 105.196 551.166 97.331C541.786 91.5834 540.576 90.6759 539.668 89.7684C540.273 90.0709 540.878 90.0709 541.483 90.3734C540.576 89.4659 539.971 89.1634 537.247 87.6509C536.945 87.9534 536.642 87.9534 536.642 88.2559C535.735 87.9534 534.222 87.3484 527.868 83.1133C528.473 83.4158 529.078 83.7183 529.683 83.7183C528.473 81.2983 516.975 75.8532 516.37 75.5507C516.975 76.7607 516.975 76.7607 518.791 79.1807C514.857 77.6682 512.74 73.4332 508.806 72.2231C509.411 74.0382 511.529 74.9457 512.437 76.7607C510.924 79.7858 510.924 79.7858 511.227 81.9033C511.529 84.9283 520.909 100.961 520.909 101.264C527.868 111.851 527.565 115.481 527.565 116.086C526.355 126.069 526.355 126.069 520.909 129.699C518.791 131.212 519.093 131.817 520.001 134.539C520.001 134.842 534.524 168.722 548.14 162.672C552.376 160.554 550.258 153.597 549.35 150.269C550.56 151.177 574.463 174.772 579.002 182.335C581.12 185.965 583.238 189.292 586.869 189.292C587.474 188.082 588.079 178.402 585.658 174.167C580.212 164.185 581.422 163.277 584.145 160.554C584.145 158.134 583.843 157.227 576.884 152.689C572.043 149.362 572.043 149.362 565.386 139.077C562.966 135.144 566.899 130.002 563.268 126.069C553.586 116.086 553.586 116.086 553.284 115.481C552.981 115.179 552.981 114.574 552.678 114.271C552.678 113.969 552.981 113.666 553.284 113.666C556.914 114.876 568.714 122.741 569.622 125.161C569.32 125.161 569.017 125.161 568.714 125.161C578.094 145.732 578.094 145.732 586.869 153.899C594.433 161.159 606.233 159.949 613.797 166.907C612.587 166.605 611.376 166 610.166 165.395C609.864 165.395 609.561 165.697 609.561 166C610.166 166.907 610.771 167.815 611.074 168.722C606.535 167.512 602.299 165.395 597.761 164.79C602.905 171.747 610.166 176.89 614.1 184.755C608.956 184.452 608.653 177.192 603.51 177.797C603.207 178.1 603.207 178.402 602.905 178.705C602.905 178.705 608.956 189.897 609.561 190.502C610.469 191.41 614.402 196.855 614.1 198.973C611.074 198.67 611.074 198.67 610.469 198.973C610.166 199.88 609.864 201.09 609.561 201.998C609.864 202.3 609.864 202.603 610.166 202.603C595.946 201.695 595.946 201.695 595.946 202.905C595.34 203.208 594.735 203.813 594.13 204.115C591.104 202.3 587.474 201.393 583.54 200.485L590.499 201.695C589.289 200.788 586.263 198.67 580.817 198.67C579.002 198.67 578.397 198.67 573.253 192.62C569.32 188.082 564.781 181.73 565.084 176.285C565.084 173.865 561.755 164.487 559.032 164.185C558.73 164.185 551.468 164.185 552.678 167.815C553.284 169.327 562.663 185.662 569.32 193.527C572.043 196.552 572.043 197.158 572.345 197.158C572.043 197.46 572.043 197.46 569.925 198.065C568.412 198.368 566.597 198.67 565.084 198.973C564.781 199.578 564.176 200.183 563.571 200.788C556.007 200.485 556.007 200.485 554.191 202.603C554.494 204.72 555.402 208.35 557.822 215.308C557.52 215.913 556.914 216.82 556.612 217.425C550.258 217.425 550.258 217.425 546.93 218.635C546.93 218.938 546.93 218.938 549.653 225.593C548.14 226.5 546.022 227.71 544.509 228.315C544.509 229.828 544.207 231.946 543.299 233.458C536.037 233.156 534.827 232.248 531.801 229.828C532.709 231.341 533.617 232.853 534.524 234.366C534.222 234.971 533.919 235.878 533.919 236.786C532.406 237.391 530.591 237.996 529.078 238.601C525.447 236.483 525.447 236.483 520.001 236.181C519.699 236.786 519.396 237.693 519.093 238.298C520.606 239.508 522.422 241.323 523.935 242.533C523.329 242.836 522.422 243.441 522.119 244.046C556.007 253.423 550.56 287.304 550.258 287.606C534.524 286.396 519.396 281.859 503.663 280.044C504.57 281.254 505.78 283.069 506.688 284.279C506.688 284.581 508.504 326.629 513.647 328.142C512.134 341.15 512.134 341.15 511.832 342.36C522.724 341.452 525.145 341.452 529.683 342.36C531.499 349.62 531.499 349.62 531.499 349.922L557.217 341.452C564.176 340.545 565.991 331.47 562.361 325.722C566.294 308.782 566.597 308.782 577.186 304.547C577.489 290.934 577.489 290.934 578.397 290.026C583.238 286.094 587.171 292.446 591.71 292.446C595.946 285.186 599.274 280.346 605.93 285.791C606.233 286.094 641.936 326.932 645.567 338.427C648.29 347.2 647.079 347.2 631.951 349.317C634.977 354.46 644.054 362.325 644.054 362.325C645.264 358.09 642.843 354.157 643.449 350.225C644.054 350.225 644.961 350.527 645.567 350.527C647.382 347.805 648.29 344.477 650.105 341.452C647.987 333.587 647.987 333.587 647.987 330.864C648.592 330.562 649.5 330.562 650.408 330.259C651.315 331.47 652.526 333.285 653.433 334.495C652.828 330.864 652.828 330.864 640.726 316.344C641.028 315.739 641.028 314.832 641.331 313.924C635.582 311.504 631.043 309.387 615.915 278.531C616.52 277.321 618.033 276.111 619.243 275.506L653.433 315.739C653.433 316.042 653.433 316.042 663.721 345.385L674.613 370.19C674.916 368.678 674.916 366.863 674.916 365.35C674.916 359.3 672.495 353.855 671.587 348.107C667.957 329.654 667.957 329.654 669.772 328.142C673.1 328.747 680.059 332.982 681.572 338.427C682.177 337.217 683.085 335.402 683.69 333.89C684.295 333.89 685.505 333.89 686.111 333.89C688.229 316.949 676.428 302.429 678.546 285.791C679.757 285.489 681.572 285.489 682.782 286.094C682.48 286.699 682.177 287.606 681.875 288.211C683.993 290.631 684.9 291.236 687.321 292.749C687.926 295.774 687.926 295.774 687.321 300.312C689.439 302.732 690.649 306.059 692.464 308.782C700.634 303.942 688.531 295.774 690.952 288.816C694.582 287.909 695.188 289.119 696.095 292.144C695.793 292.749 695.188 293.656 694.885 294.261C696.095 296.379 696.095 296.379 697.911 303.639C697.608 304.244 697.003 305.152 696.7 305.454C702.449 319.974 715.762 331.167 715.157 348.41C714.552 348.712 713.644 349.317 713.039 349.62C706.08 344.78 706.383 329.352 694.885 332.377C694.885 333.587 693.977 335.402 693.07 336.612C691.859 336.31 689.741 335.705 688.531 335.402C688.834 336.612 689.741 338.427 690.649 339.335C687.926 341.452 684.598 340.242 681.572 341.755C681.27 343.267 681.27 345.385 681.27 346.897C681.875 347.2 682.782 347.2 683.387 347.502C684.598 355.972 686.716 372.308 697.306 381.08C697.911 380.475 698.516 379.87 698.818 379.265C698.818 378.66 698.818 377.753 698.818 376.845C702.147 379.87 703.357 384.71 707.29 387.13C707.895 385.92 708.198 383.803 708.501 382.593C709.408 383.5 710.921 384.71 712.434 385.315C714.249 417.986 714.552 422.826 710.921 431.901C706.08 431.598 705.475 430.388 703.962 425.851C702.752 425.851 700.936 426.456 700.029 427.666C684.295 426.456 685.808 403.768 669.469 403.466C666.444 408.911 668.864 415.263 666.746 420.708C666.141 421.011 665.233 421.313 664.628 421.616C661.3 419.196 625.597 386.525 622.874 382.29C621.966 381.08 623.177 378.66 624.084 377.148C625.9 374.123 625.9 374.123 624.689 354.762C620.756 352.342 620.151 351.737 617.73 350.527C614.705 352.947 614.705 352.947 601.392 349.922C600.181 350.83 598.971 352.645 598.064 353.855C581.12 347.2 567.202 365.955 550.56 359.905C548.745 359.602 548.442 359.602 548.14 359.602C543.299 360.51 541.786 360.812 536.642 354.762C535.735 354.157 535.735 354.157 535.735 354.157C535.13 354.762 534.222 355.367 533.617 355.972C530.288 359.905 532.709 365.35 529.683 369.283C525.75 374.123 518.488 374.123 514.858 379.265C513.647 380.778 514.252 383.5 514.252 385.618C513.042 406.188 513.042 406.188 507.596 408.911C502.755 411.331 493.98 417.986 493.073 419.498C490.047 424.338 467.354 463.664 467.354 463.664C466.447 474.252 473.406 483.024 473.406 493.309C473.708 502.082 461.303 506.015 465.236 515.997C470.985 530.82 479.155 544.735 486.114 559.255C489.139 565.305 510.924 586.178 514.858 585.876C535.432 584.061 555.099 576.196 576.279 578.616C576.884 578.616 577.792 579.221 578.397 579.826C582.33 582.851 579.607 588.598 583.238 591.926C586.869 594.951 591.71 593.438 595.643 594.648C598.366 602.816 598.366 602.816 595.038 610.681C630.438 617.336 652.526 623.084 668.562 630.949C652.828 623.386 629.833 617.034 595.038 610.681C585.658 632.461 585.658 632.461 587.171 638.814C589.289 648.797 592.617 662.107 579.909 691.752C574.161 705.365 562.966 715.348 555.402 727.75C548.14 739.246 547.535 753.161 540.878 764.958C515.16 810.637 514.555 811.242 510.319 815.477C507.596 818.199 506.083 820.014 503.057 826.669C516.068 830.602 531.499 820.317 536.642 816.687L556.914 802.469L582.633 781.899C588.381 775.849 592.012 767.983 598.064 762.236C605.023 755.581 614.705 752.556 621.664 745.901C638.305 729.868 654.038 698.105 655.551 694.172C661.905 678.442 684.295 653.939 690.952 646.982C701.239 635.487 715.157 605.539 718.485 593.741C715.762 592.833 715.762 592.833 711.224 593.741C710.316 592.228 710.316 592.228 712.434 573.473C713.342 566.515 711.526 559.558 711.526 552.6C711.224 534.45 714.552 516.602 713.039 498.452L708.198 441.581C709.408 443.396 709.408 443.396 710.618 451.564C711.829 450.656 712.737 448.539 713.342 447.026C725.142 489.982 712.736 532.937 713.947 575.893C718.788 573.776 718.788 573.776 720.906 574.078C733.311 547.155 733.311 547.155 733.916 543.828C733.916 544.735 733.614 545.643 733.614 546.248C733.916 544.735 734.219 542.92 734.521 541.408L734.824 539.895L736.337 529.912C736.942 525.375 737.547 519.627 738.757 504.2C738.757 505.107 738.757 505.712 738.757 506.62C736.639 492.704 737.547 476.067 737.547 463.059ZM664.931 228.315C665.839 228.92 666.746 229.828 667.654 230.433C667.049 229.828 665.839 228.92 664.931 228.315ZM668.864 231.341C671.587 233.761 674.008 236.181 676.428 238.903C674.008 236.181 671.587 233.761 668.864 231.341ZM734.521 512.972C733.614 511.157 733.614 511.157 734.219 494.822C733.916 499.964 733.916 499.964 733.614 502.082C732.403 466.991 733.008 463.966 733.614 459.429C735.732 462.454 736.639 488.469 736.034 503.292C735.429 509.645 735.429 510.552 734.521 512.972Z" fill="url(#paint25_linear_108_93)" fill-opacity="0.15"/>
<path d="M724.537 359.905C724.537 360.51 724.839 361.115 725.142 361.72L727.562 372.005C727.562 371.702 727.562 371.702 727.562 371.4C728.47 377.45 729.68 383.803 730.891 389.853C727.26 366.862 726.05 362.325 720.604 343.267C719.696 340.242 718.788 337.519 717.88 334.797C723.327 353.552 723.629 354.157 725.747 364.14C725.142 363.232 724.839 361.72 724.537 359.905Z" fill="url(#paint26_linear_108_93)" fill-opacity="0.15"/>
<path d="M716.065 330.562C716.367 331.167 716.367 331.772 716.67 332.377C716.065 330.26 715.157 327.84 714.552 325.722C714.855 326.327 715.157 327.234 715.157 327.839L709.711 311.504V311.807C709.106 309.992 708.803 309.689 708.803 309.387C710.921 315.739 713.644 324.209 717.275 335.705C717.275 333.89 716.67 332.377 716.065 330.562Z" fill="url(#paint27_linear_108_93)" fill-opacity="0.15"/>
<path d="M733.614 410.423C733.009 403.768 731.798 397.113 730.285 390.458C731.193 395.6 732.101 401.65 733.009 408.91C733.311 409.515 733.614 409.818 733.614 410.423Z" fill="url(#paint28_linear_108_93)" fill-opacity="0.15"/>
<path d="M467.354 190.805C467.354 190.805 467.354 191.107 467.052 191.107C465.237 194.435 464.026 201.09 464.026 201.09C463.724 203.812 463.724 205.022 464.631 205.93C466.144 207.745 473.103 206.837 478.247 203.812C479.457 202.905 480.667 201.997 482.18 201.392C483.693 200.485 485.811 201.09 487.021 199.577C487.626 198.67 487.324 196.25 486.114 192.922C485.509 191.107 484.601 190.2 483.996 188.99C482.785 187.175 482.483 186.267 483.391 184.452C483.693 183.544 484.298 182.032 483.996 180.217C483.391 178.402 482.18 177.192 480.97 176.587C480.365 176.284 479.76 175.679 479.155 175.377C477.642 174.469 475.826 174.167 474.314 173.562C473.103 172.957 472.801 172.654 472.498 172.352L472.196 172.049C471.893 172.049 461.303 174.772 467.96 178.402C468.262 178.704 468.565 178.704 469.472 178.704C469.17 179.007 468.867 179.007 468.565 179.309C464.329 181.427 463.119 182.637 462.211 183.544C461.606 184.15 460.698 185.662 461.001 187.477C461.303 188.082 461.606 188.99 463.421 189.897C464.329 190.805 465.842 190.502 467.354 190.805Z" fill="url(#paint29_linear_108_93)" fill-opacity="0.15"/>
<path d="M30.1449 67.3828C29.2372 67.9878 20.7653 72.8279 20.4628 73.4329C20.7653 73.1304 21.3705 73.1304 30.1449 67.3828Z" fill="url(#paint30_linear_108_93)" fill-opacity="0.15"/>
<path d="M689.136 388.945C689.136 388.945 689.439 388.945 689.136 388.945C689.439 388.642 689.439 388.642 689.136 388.945C689.439 388.642 685.203 383.5 685.203 383.5C684.598 382.592 683.69 382.592 683.387 382.29C682.177 381.987 680.664 381.987 679.454 381.685C677.336 380.777 677.336 380.777 677.034 380.777C676.126 380.777 675.823 381.685 676.428 382.895C677.941 385.012 686.716 389.852 689.136 388.945Z" fill="url(#paint31_linear_108_93)" fill-opacity="0.15"/>
<path d="M604.418 326.327C605.325 327.234 607.141 326.932 607.443 328.444C607.746 329.957 607.141 331.469 607.443 332.679C607.746 333.889 608.654 334.192 608.956 334.192C609.864 334.494 614.705 332.982 615.008 329.049C615.008 328.747 615.008 328.142 615.008 327.537C614.705 326.024 614.1 324.512 613.797 322.697C613.495 320.882 613.797 319.067 613.495 317.554C613.192 314.832 611.982 314.529 611.074 314.227C609.561 314.227 605.628 315.739 604.418 318.159C603.51 319.672 603.207 324.814 604.418 326.327Z" fill="url(#paint32_linear_108_93)" fill-opacity="0.15"/>
<path d="M580.212 325.419C580.212 325.419 582.33 323.302 582.33 322.999C582.633 322.092 581.12 321.487 578.7 321.184C575.976 320.882 571.741 321.487 573.556 323.302C574.464 324.209 577.792 325.722 579.305 325.722C579.607 326.024 579.91 325.722 580.212 325.419Z" fill="url(#paint33_linear_108_93)" fill-opacity="0.15"/>
<path d="M604.418 303.336C604.115 303.639 603.51 303.941 603.812 304.849C603.812 305.151 604.115 305.756 604.418 306.059L608.351 310.596C609.259 310.294 608.351 303.336 607.746 300.009C607.746 300.009 606.536 294.564 605.93 294.261C605.93 294.261 605.628 294.564 605.628 294.866V295.169C605.325 296.984 605.93 298.496 605.93 300.311C605.628 302.126 605.023 302.731 604.418 303.336Z" fill="url(#paint34_linear_108_93)" fill-opacity="0.15"/>
<path d="M704.87 401.045C704.87 401.045 706.988 401.348 707.291 401.348C707.593 401.045 708.198 395.903 708.198 395.903V395.6C708.198 394.995 708.198 394.995 707.896 394.995C707.291 394.995 706.685 395.297 706.08 395.297C705.778 395.297 705.173 394.995 704.568 394.995C703.962 394.693 703.66 394.087 703.055 393.785C702.45 393.482 702.45 393.785 702.147 394.087C701.542 394.995 702.147 398.625 703.66 400.44C704.265 400.743 704.568 400.743 704.87 401.045Z" fill="url(#paint35_linear_108_93)" fill-opacity="0.15"/>
<path d="M-17.0559 102.474C-16.7533 102.776 -16.4508 102.474 -16.4508 102.474C-13.7277 100.659 -11.6097 98.2385 -8.88658 96.4235C-4.04551 93.0959 1.09814 90.3734 5.93922 86.7433C7.14949 85.8358 7.14949 85.8358 8.35976 83.4158V83.1133C6.54435 83.4158 5.33408 84.6258 4.12381 85.5333C5.33408 84.6258 5.33408 84.6258 5.63665 83.7183C5.63665 83.7183 5.63665 83.7183 5.33408 83.7183C5.03152 83.7183 5.03151 83.7183 4.72895 84.0208C-1.3224 86.4408 -1.32239 86.4408 -27.3432 107.919C-29.7637 109.734 -31.2766 111.246 -33.3945 115.179H-33.092C-26.7381 111.851 -22.5021 106.709 -17.0559 102.474Z" fill="url(#paint36_linear_108_93)" fill-opacity="0.15"/>
<path d="M19.5552 77.6678C20.1604 77.6678 22.2783 76.4578 24.3963 75.5503C32.5656 71.0127 36.499 69.1977 36.499 69.1977C39.2221 68.2901 41.9452 67.3826 44.3658 66.1726C46.4837 65.2651 53.7453 59.82 53.7453 59.82C55.2582 58.9125 55.2582 58.61 55.5608 58.3075C54.6531 58.3075 53.4428 58.9125 53.4428 58.9125C51.0222 60.1225 49.2068 61.9376 46.7863 63.4501C49.5094 60.7275 52.8377 58.3075 55.5608 55.585H55.2582C55.2582 55.585 45.8786 60.425 45.576 61.635C45.2735 62.5426 44.0632 64.9626 37.1041 66.7776C37.1041 66.7776 37.1041 66.7776 36.8016 66.4751C37.1041 66.1726 37.1042 66.1726 37.4067 65.8701C37.4067 65.8701 37.4067 65.8701 37.7093 65.5676C38.617 64.3576 41.9452 63.7526 40.735 62.2401C40.4324 62.2401 21.3706 71.6177 21.3706 74.0377C21.3706 74.0377 21.3706 74.0377 30.7502 68.8952C29.8425 70.4077 28.0271 71.0127 26.8169 71.9202C27.1194 71.9202 27.1194 71.9202 29.2374 70.7102C29.8425 70.4077 31.0528 69.8027 33.1708 68.8952C31.0528 70.4077 24.3963 74.0377 20.4629 75.5503C18.9501 76.7603 18.9501 77.6678 19.5552 77.6678Z" fill="url(#paint37_linear_108_93)" fill-opacity="0.15"/>
<path d="M-33.6965 125.161C-32.1837 125.464 -31.276 124.254 -30.0657 124.254C-30.0657 124.254 -30.0657 124.556 -29.7631 124.556C-30.3683 126.069 -31.8811 127.279 -32.7888 128.791C-31.276 128.791 -18.2656 123.044 -11.004 117.296C-8.58341 115.481 -7.67571 114.574 -6.46544 114.271C-6.46544 114.271 -6.16287 114.271 -6.16287 114.574C-6.768 115.784 -6.768 115.784 -6.768 116.086C-6.16287 116.691 -1.32179 117.599 -1.32179 117.599C3.21671 116.086 3.21671 116.086 7.75522 110.943C8.05779 110.641 8.05779 110.641 8.05779 110.641C7.45265 110.641 7.45266 110.641 3.21671 112.759C3.82185 111.246 8.05779 107.918 11.0835 107.918C12.2937 107.918 12.2937 107.918 12.8989 107.616C12.8989 107.616 15.3194 105.498 14.7143 103.683C12.2937 102.171 11.386 99.7508 12.5963 97.9358C13.8066 96.4233 23.4887 84.3231 23.4887 83.4156C22.8836 83.1131 22.581 83.1131 21.9759 82.8106C21.9759 82.8106 21.9759 82.5081 21.6733 82.2056C17.1348 86.1381 14.1091 91.5832 8.66292 94.6082C8.05779 92.4907 10.4783 91.5832 11.0835 90.0707L10.7809 89.7682C8.66293 90.6757 6.84752 92.1882 4.72955 92.4907C5.33469 91.5832 6.54496 90.9782 6.84752 89.7682L6.54495 89.4657C3.51928 90.3732 1.40132 92.7932 -1.62436 93.7007C0.191047 91.2807 3.21671 90.0707 5.03211 87.9531C3.21671 88.2557 -20.3835 103.381 -19.7784 106.103C-19.4758 106.103 -19.1733 106.406 -18.8707 106.708C-19.1733 107.616 -19.4758 107.616 -22.1989 109.128C-26.7375 111.851 -27.04 112.456 -27.04 113.061C-26.7374 113.061 -26.4349 113.364 -26.1323 113.061C-23.4092 112.456 -21.2912 110.943 -18.8707 110.338C-17.0553 110.036 -15.2399 110.641 -13.4245 110.338C-16.7527 112.759 -20.9887 114.271 -23.1066 114.876C-34.6042 119.111 -35.8145 124.556 -33.6965 125.161Z" fill="url(#paint38_linear_108_93)" fill-opacity="0.15"/>
<path d="M74.017 147.244C74.3196 146.336 73.4119 146.336 72.5042 146.336C72.5042 146.336 68.8734 146.941 67.9657 148.151C66.7555 149.664 67.058 152.084 67.6632 152.387C68.8734 153.597 73.4119 148.756 74.017 147.244Z" fill="url(#paint39_linear_108_93)" fill-opacity="0.15"/>
<path d="M67.9659 138.774C68.2685 138.774 68.5711 138.472 68.8736 138.169C69.1762 137.262 68.5711 136.052 68.2685 135.447C67.3608 134.842 66.4531 134.237 65.848 133.632C64.6377 132.421 64.0326 130.304 62.5197 129.396C62.2172 129.094 61.9146 129.094 61.612 128.791C60.0992 127.884 58.2838 128.186 56.7709 127.279C55.8632 126.674 55.8632 125.464 54.9555 124.859H54.653C53.4427 125.464 48.6016 131.816 48.6016 132.119C47.9965 133.027 47.3914 134.237 46.7862 134.842L41.6426 143.009C44.6683 143.312 44.6683 143.312 44.9708 144.824C45.2734 146.639 45.2734 146.639 45.576 146.639C45.8785 146.639 46.7862 146.034 48.2991 144.522C50.7196 142.404 54.653 139.379 59.1915 138.774C61.612 138.169 64.9403 139.682 67.9659 138.774Z" fill="url(#paint40_linear_108_93)" fill-opacity="0.15"/>
<path d="M59.7966 144.219C59.7966 144.219 53.1401 145.732 51.0221 147.244C49.8119 148.152 49.5093 150.874 50.417 151.479C51.9298 152.387 60.0991 147.547 61.612 145.429C61.9145 144.824 61.9145 143.917 59.7966 144.219Z" fill="url(#paint41_linear_108_93)" fill-opacity="0.15"/>
<path d="M42.8529 514.484C40.4324 515.392 41.6427 519.324 43.4581 519.929C44.3658 520.232 51.0223 521.442 51.0223 518.719C50.7197 517.207 46.1812 513.879 42.8529 514.484Z" fill="url(#paint42_linear_108_93)" fill-opacity="0.15"/>
<path d="M497.611 188.99C497.006 188.99 497.309 189.292 497.309 189.897L500.334 190.2C498.822 189.292 497.914 188.99 497.611 188.99Z" fill="url(#paint43_linear_108_93)" fill-opacity="0.15"/>
<path d="M192.018 222.568C195.044 218.635 196.254 215.913 195.952 214.703C195.649 214.703 195.649 214.703 195.347 214.703C193.834 215.308 189.295 218.938 185.967 223.173C181.731 228.315 179.008 234.063 175.075 239.206C172.957 241.928 169.931 243.743 167.813 246.768C166.905 247.978 167.511 248.281 168.116 248.281C168.721 248.583 168.721 248.583 180.823 249.491C187.783 250.096 192.926 250.701 198.372 252.213C198.978 252.516 199.885 252.516 200.49 252.818C202.608 252.818 204.424 251.003 206.542 253.121C207.449 254.028 207.449 255.843 207.752 257.053C207.752 258.263 208.357 258.566 208.962 258.566C210.778 258.263 213.198 254.633 213.501 251.306C213.803 246.163 209.87 238.298 206.239 234.063C204.121 231.945 204.121 231.945 197.162 233.458C195.044 234.063 194.439 233.458 194.136 231.643C193.229 228.315 192.321 227.71 191.111 226.803C190.506 226.5 190.506 226.198 190.808 225.593C190.506 224.383 191.413 223.173 192.018 222.568Z" fill="url(#paint44_linear_108_93)" fill-opacity="0.15"/>
<path d="M476.129 159.042C476.432 161.462 474.616 163.882 475.524 166.302C476.432 166.604 477.945 166.302 481.273 163.882C482.483 162.974 483.693 162.067 484.299 162.672C487.627 164.487 483.693 168.419 484.904 171.142C487.324 176.587 490.047 177.494 493.678 178.402C499.427 179.914 500.032 179.914 500.94 180.822C501.242 181.729 500.637 182.637 501.242 183.544C502.755 186.267 505.478 188.082 506.689 190.805C507.294 193.83 503.965 192.015 501.242 190.805C500.032 190.2 500.032 190.2 497.006 189.897C498.217 193.527 502.453 195.342 503.36 199.275C503.663 201.392 501.847 202.602 498.822 203.812C498.217 204.115 497.006 204.72 497.309 205.627C497.612 205.93 498.822 207.442 505.478 207.442C508.504 207.442 514.253 207.14 514.555 209.257C514.555 211.072 513.345 211.072 511.227 211.072C509.109 211.072 508.504 211.677 507.899 212.282C506.386 213.492 506.083 215.61 504.873 217.122C503.36 218.937 501.242 220.148 499.427 221.66C499.427 221.963 499.427 221.963 499.427 222.265C500.335 222.568 500.335 222.568 513.345 220.753C520.002 219.845 526.658 220.45 533.314 219.543H533.617L544.812 215.61V215.307C542.391 212.887 539.366 215.005 536.945 214.097C535.735 210.77 538.761 207.442 537.55 204.115C535.13 198.065 532.709 198.065 530.894 198.367C526.658 198.67 523.632 192.317 523.632 192.317V192.015C523.935 192.015 523.935 192.015 527.263 192.62C528.776 193.225 530.894 193.83 530.894 193.225C530.591 192.922 530.289 192.317 529.079 191.41C523.632 187.175 516.976 185.36 512.135 180.519C509.714 178.099 508.201 175.377 505.176 173.562C500.335 170.537 495.796 169.629 493.376 169.629C496.099 167.209 500.032 154.504 492.165 154.202C490.652 154.202 489.14 154.504 488.232 154.504C483.391 155.109 482.483 155.109 482.483 153.899C482.483 151.479 486.719 146.639 483.088 146.336C483.088 146.336 473.406 146.639 472.196 149.966C472.196 150.269 472.196 150.874 472.196 151.177C473.406 153.597 475.524 156.017 476.129 159.042Z" fill="url(#paint45_linear_108_93)" fill-opacity="0.15"/>
<path d="M413.8 95.5157C413.8 95.2132 413.8 95.2132 413.8 94.9107C413.195 94.0032 411.682 92.1881 409.867 91.2806C409.564 91.2806 409.262 90.9781 408.959 90.9781C406.236 90.3731 403.21 90.9781 400.487 89.7681C398.672 88.8606 397.159 87.0456 394.739 87.3481C392.015 87.9531 389.595 89.1631 386.872 89.7681C384.451 90.3731 381.728 90.0706 379.005 90.9781C377.492 91.5831 378.703 93.3981 377.19 94.3057C375.677 95.2132 374.467 93.7007 372.954 94.3057C372.651 94.3057 372.349 94.6082 372.349 94.6082C371.743 97.0282 373.861 99.4482 371.441 101.566C370.533 101.263 364.784 96.4232 363.877 94.6082C361.759 90.3731 352.379 87.9531 349.959 90.0706C350.564 92.1881 353.287 91.5831 354.497 93.0956C353.892 96.1207 350.261 95.5157 348.748 97.9357C349.656 98.5407 352.379 98.2382 354.195 97.9357C356.918 97.3307 365.995 100.658 361.154 104.591C363.272 107.313 366.297 104.893 368.718 105.801C370.836 106.708 370.836 107.616 370.836 109.733C371.441 110.338 372.046 110.338 376.887 110.036C380.215 109.733 381.426 109.733 382.333 109.733C384.754 110.036 386.872 110.943 389.292 111.246C389.595 111.246 389.897 111.246 390.2 111.246C391.108 111.246 392.318 111.246 398.975 109.431C405.026 107.918 414.405 101.263 413.8 99.1457C413.498 97.9357 412.288 97.0282 411.985 95.8182C412.893 95.5157 412.893 95.5157 413.8 95.5157Z" fill="url(#paint46_linear_108_93)" fill-opacity="0.15"/>
<path d="M51.0219 503.594C53.745 506.922 70.3862 508.435 70.6888 506.317C70.9914 505.409 49.5091 480.604 49.2065 480.604C47.0885 479.092 40.4321 474.554 28.0268 476.974C21.0678 479.092 16.2267 483.932 16.2267 483.932C17.1344 484.839 22.278 483.932 26.8165 481.512C32.8679 477.882 37.1038 479.999 37.4064 480.907C37.1038 481.512 36.1961 482.419 34.3807 481.209C34.3807 481.209 34.0781 481.209 34.0781 481.512C34.3807 484.537 39.2218 485.747 42.55 486.654C48.6014 488.167 48.9039 489.377 50.1142 493.309C50.7194 495.124 51.0219 496.334 52.5348 497.847C53.4425 499.057 54.0476 499.662 54.0476 500.267C54.3502 502.687 51.9296 502.687 51.0219 503.594Z" fill="url(#paint47_linear_108_93)" fill-opacity="0.15"/>
<path d="M77.648 524.164C79.4634 525.072 77.9506 528.399 80.3711 528.702C84.6071 529.004 84.0019 523.257 87.9353 522.954C88.2379 522.954 88.843 522.954 90.0533 523.257C96.7097 524.467 107.905 524.769 107.905 524.769C108.51 524.769 108.812 524.467 108.812 524.164C108.812 522.349 107.3 520.837 107.905 518.719C109.418 512.669 78.2531 509.947 76.4377 510.249C75.8326 510.249 75.8326 510.552 75.53 510.552C75.53 511.157 75.53 511.157 75.8326 511.459C80.3711 515.694 78.8583 520.534 78.5557 520.837C77.9506 521.442 75.53 520.837 72.2018 520.534C65.8479 519.627 65.2428 519.627 64.9402 519.929C64.9402 519.929 64.9402 520.232 65.2427 520.232C69.1761 522.047 73.7146 522.047 77.648 524.164Z" fill="url(#paint48_linear_108_93)" fill-opacity="0.15"/>
<path d="M139.976 235.878C137.253 236.785 143.305 239.81 144.515 240.415C152.382 244.045 155.407 240.113 155.407 240.113C156.618 237.693 143.002 235.273 139.976 235.878Z" fill="url(#paint49_linear_108_93)" fill-opacity="0.15"/>
<path d="M641.633 735.01C632.859 746.505 632.556 746.505 626.807 748.623C621.966 750.438 620.756 752.555 613.494 762.84C609.864 767.983 608.653 768.89 605.022 771.613C594.433 780.083 579.909 798.233 579.607 799.746C583.54 799.746 583.54 799.746 598.063 785.831C610.166 774.335 620.453 761.63 631.951 749.53C631.951 749.833 631.951 749.833 631.043 751.648C631.648 751.345 631.648 751.345 632.556 749.833C635.279 746.505 643.448 735.312 644.961 731.38H644.659C644.054 732.287 644.054 732.287 641.633 735.01Z" fill="url(#paint50_linear_108_93)" fill-opacity="0.15"/>
<path d="M344.512 651.822C343.907 648.494 348.143 643.956 344.21 641.839C341.184 640.326 338.461 642.444 335.435 641.839C326.056 639.721 319.702 631.554 310.625 628.831C297.009 624.596 283.091 622.176 269.476 618.849C261.609 615.823 260.701 606.748 255.86 601.303C247.388 595.858 241.337 587.086 232.562 581.943C221.065 575.288 207.147 577.708 195.649 570.75C186.572 565.305 180.521 556.23 171.141 551.39C169.628 550.785 167.813 550.18 166.3 549.878C119.705 542.92 83.0941 537.475 78.8582 574.078C64.9401 564.398 29.5397 579.825 32.868 556.835C34.986 542.92 28.9346 532.635 28.9346 532.635C18.0422 527.19 7.14975 532.937 -3.74267 532.03C-0.111864 520.232 -0.111867 520.232 -2.83497 514.484C2.0061 503.594 2.0061 503.594 3.51894 493.612C1.40097 491.797 -16.7531 477.276 -20.3839 518.115C-26.7378 517.812 -30.6712 526.585 -37.9328 522.35C-54.574 512.669 -60.3228 500.569 -62.4407 494.217C-64.8613 486.352 -58.2048 479.999 -58.2048 472.436C-58.2048 467.596 -64.8613 465.176 -63.0459 459.731C-60.9279 452.774 -47.6149 439.161 -44.5893 437.043C-39.143 432.808 -17.9633 437.648 -17.6608 437.648C-17.0556 437.043 -16.4505 436.438 -15.8454 436.136C-17.3582 434.321 -19.7787 433.716 -21.5941 432.203C-21.2916 431.598 -21.2916 430.691 -20.989 429.783C-16.7531 427.363 17.1345 424.338 17.1345 424.338C31.6577 432.203 22.8833 452.471 36.8013 460.336C53.14 443.093 26.8166 427.666 29.8423 410.423C32.868 392.273 50.7194 388.34 61.0067 376.845C60.7042 376.845 60.7042 376.845 60.7042 376.845C60.4016 376.24 59.7965 375.635 59.1913 375.03C59.1913 374.425 59.4939 373.517 59.4939 372.912C60.099 372.61 61.0067 372.61 61.6119 372.307C61.6119 371.4 61.9144 370.492 61.9144 369.585C61.3093 369.282 60.4016 368.98 59.7965 368.677L63.1247 335.704C63.4273 340.544 63.4273 355.367 63.4273 355.367C64.9401 354.46 64.9401 354.46 66.4529 332.679C67.6632 335.099 69.7812 336.914 70.3863 339.637C73.412 334.494 72.5043 327.839 77.0428 323.302C77.0428 323.302 96.7097 312.714 97.9199 312.714C99.7354 295.774 99.7353 295.774 109.417 286.699C110.93 286.699 110.93 286.699 138.767 270.666C138.464 271.271 138.161 271.876 137.859 272.481C139.372 273.086 141.187 273.388 143.002 273.388C143.002 273.993 143.002 275.203 143.002 275.808C126.966 287.304 126.966 287.304 126.664 290.631C137.556 290.934 171.141 271.271 165.09 256.146C160.551 259.171 160.249 264.918 157.526 269.153C153.895 268.246 151.172 267.338 148.751 266.733C151.172 266.128 152.987 263.708 152.987 263.708C152.685 263.708 152.685 263.708 152.079 263.708C147.844 264.313 145.423 263.406 144.515 263.103C142.397 261.893 142.095 260.683 142.095 258.868C142.095 258.263 142.095 258.263 142.095 257.961C141.792 258.263 140.582 261.591 141.792 264.313C137.556 262.196 136.951 260.078 135.136 255.238C131.202 253.726 130.9 253.423 129.387 251.306C135.136 249.793 139.372 248.583 140.884 242.533C137.859 239.508 137.859 239.508 96.1045 265.826C124.848 235.878 124.848 235.878 154.5 226.803C161.156 231.34 191.413 216.518 195.952 208.047C194.439 204.417 194.439 204.417 196.557 198.972C196.254 198.367 195.649 197.46 195.347 196.855C192.926 196.25 190.506 195.947 188.085 195.342C185.967 195.342 185.967 195.342 185.967 195.342C184.454 195.342 179.916 195.947 172.049 201.09C171.746 200.485 171.444 199.577 171.141 198.972C173.562 195.645 174.772 195.04 183.546 191.712C166.3 193.225 149.356 194.737 130.597 196.552C147.844 194.737 162.669 193.527 183.546 191.712C184.152 191.41 184.757 191.107 185.059 190.805C185.362 189.595 178.403 183.847 169.628 185.965C167.51 186.57 167.51 186.57 166.603 186.267C165.998 184.452 167.51 182.637 165.998 181.125C164.182 179.007 161.156 179.612 159.341 177.192C158.736 176.284 159.039 175.377 160.551 173.562C162.367 170.839 162.367 170.839 158.131 163.277C147.541 144.219 147.541 144.219 142.397 154.202C141.49 155.714 143.608 157.227 142.397 158.739C140.884 160.554 138.161 158.739 136.649 160.857C133.32 165.394 133.32 165.394 132.413 165.697C126.664 167.512 122.73 162.672 117.587 161.764C116.679 160.252 118.797 149.967 121.823 147.244C118.797 146.336 115.771 147.547 112.746 146.639C112.141 146.336 111.535 146.034 110.628 144.219C110.325 143.614 109.72 142.404 102.458 139.984C100.946 139.379 100.34 139.379 99.1302 139.681C92.4737 141.496 85.2121 139.984 78.8582 142.706C80.0685 148.757 72.5043 154.504 77.6479 160.857C76.7402 163.882 72.8069 164.789 72.5043 168.419C72.2017 172.654 76.4377 175.074 76.4377 179.007C76.4377 179.309 76.7402 195.04 67.6632 197.157C65.5453 197.762 61.0067 198.972 62.217 202.3C61.9144 202.905 61.6119 203.207 59.7965 204.417C57.3759 213.795 63.4273 225.29 52.8374 232.55C49.5092 227.408 43.7604 226.198 39.2219 222.87C41.6424 215.61 40.7347 212.887 39.2219 209.56C39.827 208.955 41.0373 208.047 41.945 207.442C41.945 207.14 41.945 206.232 41.945 205.93C41.0373 205.93 40.1296 205.627 39.2219 205.627C34.986 201.392 29.5397 205.325 25.0012 204.115C20.1601 202.905 17.7396 198.065 13.2011 196.552C12.2934 196.25 11.3857 195.947 10.478 195.947C6.24205 195.342 3.51895 198.367 -0.111862 199.275C-1.32213 198.367 -1.32214 198.367 -2.83497 188.687C-3.44011 185.36 -3.4401 185.36 -11.3069 184.755C-13.1223 174.772 11.3857 156.319 21.9755 148.757C20.7653 145.429 17.1345 146.941 15.3191 145.429C35.5911 141.799 35.5911 141.799 47.3912 129.396C39.5245 130.909 37.7091 131.211 31.3552 127.279C38.9193 124.556 48.6015 129.396 54.6528 120.321C54.0477 120.019 53.14 119.716 52.5349 119.414C52.5349 119.414 56.4682 114.876 60.4016 117.296C73.7146 112.456 73.7146 112.456 77.0428 109.431C77.6479 108.826 78.5556 107.616 79.1608 107.011C80.6736 104.591 78.2531 102.171 79.4633 99.7508C80.6736 97.6333 83.3967 97.6333 84.9095 96.1207C85.8172 94.9107 85.8172 93.7007 86.4224 92.4907C86.4224 92.4907 75.2274 80.9955 71.294 97.0282C64.335 100.961 59.4939 116.994 51.022 109.733C51.6272 104.893 61.9144 101.566 57.0734 96.7257C51.6272 98.8433 49.5092 103.986 45.5758 107.616C44.6681 104.893 50.1143 97.9358 50.1143 97.9358C49.8117 97.9358 49.8118 97.9358 44.9707 97.6333C53.14 84.3231 53.14 84.3231 53.14 82.8105C52.8374 82.508 52.2323 82.2055 51.9297 81.903C56.7708 74.6429 56.7708 74.6429 78.5556 61.6352C77.0428 61.3327 77.0428 61.3327 74.6223 61.9377C55.8631 67.6853 32.2628 100.658 31.9603 100.961C32.2628 101.263 32.2628 101.868 32.5654 102.171C34.3808 102.171 36.1962 101.868 38.0116 101.566C38.0116 101.868 38.3142 102.473 38.3142 102.776C34.3808 104.591 33.7757 105.196 31.9603 106.708C31.9603 107.616 31.9603 107.616 31.9603 107.616C32.2628 107.616 32.868 107.918 33.1705 107.918C29.5397 114.271 21.3704 116.389 18.3447 123.649C15.6216 120.624 15.6216 120.624 20.7653 114.876C17.7396 113.969 17.7396 113.969 7.75488 121.834C7.14975 122.136 3.8215 124.254 -8.58375 123.951C-9.49146 122.741 -9.18889 121.229 -10.0966 120.019C-20.0813 122.439 -23.107 128.489 -28.8558 139.984C-30.066 136.959 -27.3429 134.539 -27.6455 131.816C-33.0917 132.724 -37.3276 136.959 -43.379 136.354C-40.9585 133.934 -37.0251 133.026 -36.1174 129.094C-36.4199 128.791 -36.7225 128.791 -37.0251 128.489C-38.2353 129.094 -38.5379 129.396 -42.4713 128.791C-42.7738 128.186 -43.6815 127.279 -43.9841 126.976C-46.7072 127.581 -48.2201 130.001 -50.338 131.211C-50.0355 130.606 -49.4303 129.396 -48.8252 128.791C-50.338 130.001 -50.338 130.001 -52.7586 132.119C-51.5483 129.396 -51.5483 129.396 -47.6149 124.859C-53.9688 130.909 -53.9688 130.909 -66.0715 140.891C-62.4407 137.261 -58.2048 133.934 -54.574 130.606C-54.574 130.606 -63.0459 136.959 -73.6357 147.547C-73.3331 146.941 -72.728 146.034 -72.1229 145.429C-78.7793 152.689 -87.5538 162.672 -93.9077 169.932C-122.349 207.14 -122.954 208.047 -135.359 228.618C-135.057 228.315 -135.057 228.013 -134.754 227.71C-143.226 248.886 -143.226 248.886 -144.134 254.633C-144.739 256.448 -145.344 258.566 -145.949 260.078C-145.647 260.683 -145.042 261.591 -144.739 262.196C-147.462 270.666 -147.462 270.666 -150.185 284.884C-150.79 288.211 -150.185 291.539 -148.975 294.564C-149.278 294.564 -150.185 294.261 -151.093 294.261C-151.698 294.261 -151.698 294.261 -152.001 293.959C-152.303 293.656 -152.303 293.656 -152.606 292.749C-152.606 292.144 -153.211 290.631 -153.816 290.329C-153.816 290.329 -155.026 295.169 -153.816 299.404C-152.908 302.731 -150.488 302.429 -150.488 302.429C-149.883 302.126 -149.278 301.521 -148.975 300.614C-148.672 299.706 -148.672 298.799 -148.672 298.496C-148.672 297.891 -148.672 297.286 -148.672 296.984C-148.672 296.984 -148.672 296.984 -148.672 296.681C-147.462 300.009 -146.252 303.336 -146.554 306.664C-147.765 306.059 -149.278 305.151 -150.488 304.546C-164.708 322.092 -169.55 410.423 -160.17 427.061C-158.657 427.363 -158.657 427.363 -138.083 469.411C-139.595 469.411 -141.411 469.411 -142.924 469.714C-140.503 474.856 -122.349 498.149 -122.349 498.452C-120.836 496.032 -119.021 493.612 -127.19 481.814C-131.123 476.369 -135.359 470.319 -142.621 440.976C-133.544 447.631 -132.636 451.866 -131.426 457.311C-130.518 461.244 -129.611 465.479 -127.795 468.504C-124.164 474.554 -119.626 479.696 -115.693 485.444C-110.549 493.007 -101.774 496.939 -97.5385 505.107C-94.2103 511.762 -95.7231 520.535 -88.7641 525.375C-87.8564 525.98 -86.3435 526.585 -85.1333 526.887C-83.0153 527.795 -80.5948 529.005 -78.4768 529.61C-71.2152 531.425 -63.651 532.635 -56.3894 534.45C-48.8252 536.265 -40.9585 532.03 -33.6968 536.265C-16.7531 545.945 -16.7531 545.945 -11.0043 546.55C-10.0966 546.55 -8.88632 546.852 -7.97862 546.852C18.3447 550.483 29.5397 583.455 58.5862 582.245C71.5966 560.768 79.4633 586.481 82.1864 598.581C83.0941 602.513 83.0941 602.513 75.8325 618.244C75.8325 618.546 68.8735 647.284 71.5966 652.427C72.2017 653.334 72.8068 654.544 73.412 655.452C82.7916 669.669 121.823 708.087 122.125 708.39C131.505 716.557 144.515 718.373 154.5 725.633C162.064 731.078 167.813 741.968 170.536 756.186C170.536 756.791 185.664 823.947 211.685 860.55C244.665 907.135 276.737 901.993 277.04 901.69C246.178 885.96 246.178 885.96 249.204 872.952C244.968 868.415 244.968 868.415 236.798 846.332C238.009 846.029 238.009 846.029 243.757 846.029C243.757 845.424 243.757 845.424 236.798 835.744C242.245 830.904 242.245 830.904 241.942 826.972C242.245 826.669 242.85 826.367 243.152 826.064C252.834 829.089 255.86 821.224 253.44 817.594L250.716 813.661C272.501 813.056 281.578 760.421 281.881 760.118C284.907 753.463 293.076 749.53 296.707 748.018C304.271 744.69 304.573 735.918 310.02 730.775C312.44 728.658 314.558 728.355 316.374 728.658C319.399 728.96 319.702 728.96 320.307 726.238C321.215 719.583 320.609 712.927 320.912 706.575C321.215 702.945 318.794 699.012 321.215 695.382C323.938 691.147 325.148 689.635 323.03 686.912C322.727 686.307 322.122 685.702 322.122 685.097C340.276 678.442 346.63 658.779 346.63 658.477C346.63 658.174 346.63 657.872 346.63 657.872C346.63 655.754 344.815 653.939 344.512 651.822ZM-111.154 241.323C-104.8 239.205 -97.8411 237.088 -90.882 235.273C-97.8411 237.088 -104.8 239.205 -111.154 241.323ZM113.956 613.706C107.905 614.311 101.551 615.218 94.8943 616.126C100.946 615.218 107.3 614.613 113.956 613.706ZM279.158 731.078C278.855 727.75 277.645 717.465 276.132 699.012C277.04 709.902 278.25 720.49 279.158 731.985C279.158 731.683 279.158 731.38 279.158 731.078Z" fill="url(#paint51_linear_108_93)" fill-opacity="0.15"/>
<path d="M118.495 526.585C116.074 528.4 119.1 531.425 122.125 532.03C124.243 532.332 131.202 531.425 131.505 530.82C131.808 530.517 131.202 529.61 126.059 528.097C120.613 525.979 119.705 526.282 118.495 526.585Z" fill="url(#paint52_linear_108_93)" fill-opacity="0.15"/>
<defs>
<linearGradient id="paint0_linear_108_93" x1="62.929" y1="52.8628" x2="62.929" y2="56.8526" gradientUnits="userSpaceOnUse">
<stop offset="0.40625" stop-color="#00AFE5"/>
<stop offset="1" stop-color="#00AFE5" stop-opacity="0"/>
</linearGradient>
<linearGradient id="paint1_linear_108_93" x1="58.1323" y1="50.4424" x2="58.1323" y2="52.2574" gradientUnits="userSpaceOnUse">
<stop offset="0.40625" stop-color="#00AFE5"/>
<stop offset="1" stop-color="#00AFE5" stop-opacity="0"/>
</linearGradient>
<linearGradient id="paint2_linear_108_93" x1="71.2938" y1="42.2749" x2="71.2938" y2="48.0225" gradientUnits="userSpaceOnUse">
<stop offset="0.40625" stop-color="#00AFE5"/>
<stop offset="1" stop-color="#00AFE5" stop-opacity="0"/>
</linearGradient>
<linearGradient id="paint3_linear_108_93" x1="62.0658" y1="46.8125" x2="62.0658" y2="53.7701" gradientUnits="userSpaceOnUse">
<stop offset="0.40625" stop-color="#00AFE5"/>
<stop offset="1" stop-color="#00AFE5" stop-opacity="0"/>
</linearGradient>
<linearGradient id="paint4_linear_108_93" x1="71.2937" y1="46.2075" x2="71.2937" y2="49.8376" gradientUnits="userSpaceOnUse">
<stop offset="0.40625" stop-color="#00AFE5"/>
<stop offset="1" stop-color="#00AFE5" stop-opacity="0"/>
</linearGradient>
<linearGradient id="paint5_linear_108_93" x1="50.0222" y1="62.543" x2="50.0222" y2="65.8705" gradientUnits="userSpaceOnUse">
<stop offset="0.40625" stop-color="#00AFE5"/>
<stop offset="1" stop-color="#00AFE5" stop-opacity="0"/>
</linearGradient>
<linearGradient id="paint6_linear_108_93" x1="43.7605" y1="69.9707" x2="43.7605" y2="89.3144" gradientUnits="userSpaceOnUse">
<stop offset="0.40625" stop-color="#00AFE5"/>
<stop offset="1" stop-color="#00AFE5" stop-opacity="0"/>
</linearGradient>
<linearGradient id="paint7_linear_108_93" x1="35.2884" y1="55.2827" x2="35.2884" y2="72.5255" gradientUnits="userSpaceOnUse">
<stop offset="0.40625" stop-color="#00AFE5"/>
<stop offset="1" stop-color="#00AFE5" stop-opacity="0"/>
</linearGradient>
<linearGradient id="paint8_linear_108_93" x1="21.2811" y1="102.776" x2="21.2811" y2="113.061" gradientUnits="userSpaceOnUse">
<stop offset="0.40625" stop-color="#00AFE5"/>
<stop offset="1" stop-color="#00AFE5" stop-opacity="0"/>
</linearGradient>
<linearGradient id="paint9_linear_108_93" x1="30.6518" y1="75.853" x2="30.6518" y2="81.6488" gradientUnits="userSpaceOnUse">
<stop offset="0.40625" stop-color="#00AFE5"/>
<stop offset="1" stop-color="#00AFE5" stop-opacity="0"/>
</linearGradient>
<linearGradient id="paint10_linear_108_93" x1="254.169" y1="0" x2="254.169" y2="140.935" gradientUnits="userSpaceOnUse">
<stop offset="0.40625" stop-color="#00AFE5"/>
<stop offset="1" stop-color="#00AFE5" stop-opacity="0"/>
</linearGradient>
<linearGradient id="paint11_linear_108_93" x1="103.627" y1="98.2002" x2="103.627" y2="108.717" gradientUnits="userSpaceOnUse">
<stop offset="0.40625" stop-color="#00AFE5"/>
<stop offset="1" stop-color="#00AFE5" stop-opacity="0"/>
</linearGradient>
<linearGradient id="paint12_linear_108_93" x1="152.382" y1="7.4873" x2="152.382" y2="44.3929" gradientUnits="userSpaceOnUse">
<stop offset="0.40625" stop-color="#00AFE5"/>
<stop offset="1" stop-color="#00AFE5" stop-opacity="0"/>
</linearGradient>
<linearGradient id="paint13_linear_108_93" x1="69.4785" y1="48.6274" x2="69.4785" y2="62.2401" gradientUnits="userSpaceOnUse">
<stop offset="0.40625" stop-color="#00AFE5"/>
<stop offset="1" stop-color="#00AFE5" stop-opacity="0"/>
</linearGradient>
<linearGradient id="paint14_linear_108_93" x1="113.784" y1="60.2217" x2="113.784" y2="139.161" gradientUnits="userSpaceOnUse">
<stop offset="0.40625" stop-color="#00AFE5"/>
<stop offset="1" stop-color="#00AFE5" stop-opacity="0"/>
</linearGradient>
<linearGradient id="paint15_linear_108_93" x1="46.1811" y1="57.7026" x2="46.1811" y2="59.8795" gradientUnits="userSpaceOnUse">
<stop offset="0.40625" stop-color="#00AFE5"/>
<stop offset="1" stop-color="#00AFE5" stop-opacity="0"/>
</linearGradient>
<linearGradient id="paint16_linear_108_93" x1="211.469" y1="70.1055" x2="211.469" y2="76.7606" gradientUnits="userSpaceOnUse">
<stop offset="0.40625" stop-color="#00AFE5"/>
<stop offset="1" stop-color="#00AFE5" stop-opacity="0"/>
</linearGradient>
<linearGradient id="paint17_linear_108_93" x1="113.142" y1="58.4893" x2="113.142" y2="63.6761" gradientUnits="userSpaceOnUse">
<stop offset="0.40625" stop-color="#00AFE5"/>
<stop offset="1" stop-color="#00AFE5" stop-opacity="0"/>
</linearGradient>
<linearGradient id="paint18_linear_108_93" x1="90.5072" y1="34.7124" x2="90.5072" y2="42.0207" gradientUnits="userSpaceOnUse">
<stop offset="0.40625" stop-color="#00AFE5"/>
<stop offset="1" stop-color="#00AFE5" stop-opacity="0"/>
</linearGradient>
<linearGradient id="paint19_linear_108_93" x1="75.4537" y1="53.4673" x2="75.4537" y2="60.0422" gradientUnits="userSpaceOnUse">
<stop offset="0.40625" stop-color="#00AFE5"/>
<stop offset="1" stop-color="#00AFE5" stop-opacity="0"/>
</linearGradient>
<linearGradient id="paint20_linear_108_93" x1="102.459" y1="36.8301" x2="102.459" y2="41.3676" gradientUnits="userSpaceOnUse">
<stop offset="0.40625" stop-color="#00AFE5"/>
<stop offset="1" stop-color="#00AFE5" stop-opacity="0"/>
</linearGradient>
<linearGradient id="paint21_linear_108_93" x1="99.5835" y1="34.1074" x2="99.5835" y2="40.1575" gradientUnits="userSpaceOnUse">
<stop offset="0.40625" stop-color="#00AFE5"/>
<stop offset="1" stop-color="#00AFE5" stop-opacity="0"/>
</linearGradient>
<linearGradient id="paint22_linear_108_93" x1="110.417" y1="28.0571" x2="110.417" y2="31.4651" gradientUnits="userSpaceOnUse">
<stop offset="0.40625" stop-color="#00AFE5"/>
<stop offset="1" stop-color="#00AFE5" stop-opacity="0"/>
</linearGradient>
<linearGradient id="paint23_linear_108_93" x1="125.218" y1="19.5874" x2="125.218" y2="34.1076" gradientUnits="userSpaceOnUse">
<stop offset="0.40625" stop-color="#00AFE5"/>
<stop offset="1" stop-color="#00AFE5" stop-opacity="0"/>
</linearGradient>
<linearGradient id="paint24_linear_108_93" x1="102.546" y1="43.7876" x2="102.546" y2="58.6103" gradientUnits="userSpaceOnUse">
<stop offset="0.40625" stop-color="#00AFE5"/>
<stop offset="1" stop-color="#00AFE5" stop-opacity="0"/>
</linearGradient>
<linearGradient id="paint25_linear_108_93" x1="601.611" y1="72.2231" x2="601.611" y2="827.551" gradientUnits="userSpaceOnUse">
<stop offset="0.40625" stop-color="#00AFE5"/>
<stop offset="1" stop-color="#00AFE5" stop-opacity="0"/>
</linearGradient>
<linearGradient id="paint26_linear_108_93" x1="724.386" y1="334.797" x2="724.386" y2="389.853" gradientUnits="userSpaceOnUse">
<stop offset="0.40625" stop-color="#00AFE5"/>
<stop offset="1" stop-color="#00AFE5" stop-opacity="0"/>
</linearGradient>
<linearGradient id="paint27_linear_108_93" x1="713.039" y1="309.387" x2="713.039" y2="335.705" gradientUnits="userSpaceOnUse">
<stop offset="0.40625" stop-color="#00AFE5"/>
<stop offset="1" stop-color="#00AFE5" stop-opacity="0"/>
</linearGradient>
<linearGradient id="paint28_linear_108_93" x1="731.95" y1="390.458" x2="731.95" y2="410.423" gradientUnits="userSpaceOnUse">
<stop offset="0.40625" stop-color="#00AFE5"/>
<stop offset="1" stop-color="#00AFE5" stop-opacity="0"/>
</linearGradient>
<linearGradient id="paint29_linear_108_93" x1="474.132" y1="172.049" x2="474.132" y2="206.861" gradientUnits="userSpaceOnUse">
<stop offset="0.40625" stop-color="#00AFE5"/>
<stop offset="1" stop-color="#00AFE5" stop-opacity="0"/>
</linearGradient>
<linearGradient id="paint30_linear_108_93" x1="25.3038" y1="67.3828" x2="25.3038" y2="73.4329" gradientUnits="userSpaceOnUse">
<stop offset="0.40625" stop-color="#00AFE5"/>
<stop offset="1" stop-color="#00AFE5" stop-opacity="0"/>
</linearGradient>
<linearGradient id="paint31_linear_108_93" x1="682.738" y1="380.777" x2="682.738" y2="389.057" gradientUnits="userSpaceOnUse">
<stop offset="0.40625" stop-color="#00AFE5"/>
<stop offset="1" stop-color="#00AFE5" stop-opacity="0"/>
</linearGradient>
<linearGradient id="paint32_linear_108_93" x1="609.313" y1="314.227" x2="609.313" y2="334.229" gradientUnits="userSpaceOnUse">
<stop offset="0.40625" stop-color="#00AFE5"/>
<stop offset="1" stop-color="#00AFE5" stop-opacity="0"/>
</linearGradient>
<linearGradient id="paint33_linear_108_93" x1="577.743" y1="321.11" x2="577.743" y2="325.847" gradientUnits="userSpaceOnUse">
<stop offset="0.40625" stop-color="#00AFE5"/>
<stop offset="1" stop-color="#00AFE5" stop-opacity="0"/>
</linearGradient>
<linearGradient id="paint34_linear_108_93" x1="606.232" y1="294.261" x2="606.232" y2="310.596" gradientUnits="userSpaceOnUse">
<stop offset="0.40625" stop-color="#00AFE5"/>
<stop offset="1" stop-color="#00AFE5" stop-opacity="0"/>
</linearGradient>
<linearGradient id="paint35_linear_108_93" x1="705.057" y1="393.66" x2="705.057" y2="401.348" gradientUnits="userSpaceOnUse">
<stop offset="0.40625" stop-color="#00AFE5"/>
<stop offset="1" stop-color="#00AFE5" stop-opacity="0"/>
</linearGradient>
<linearGradient id="paint36_linear_108_93" x1="-12.5174" y1="83.1133" x2="-12.5174" y2="115.179" gradientUnits="userSpaceOnUse">
<stop offset="0.40625" stop-color="#00AFE5"/>
<stop offset="1" stop-color="#00AFE5" stop-opacity="0"/>
</linearGradient>
<linearGradient id="paint37_linear_108_93" x1="37.369" y1="55.585" x2="37.369" y2="77.6678" gradientUnits="userSpaceOnUse">
<stop offset="0.40625" stop-color="#00AFE5"/>
<stop offset="1" stop-color="#00AFE5" stop-opacity="0"/>
</linearGradient>
<linearGradient id="paint38_linear_108_93" x1="-5.53176" y1="82.2056" x2="-5.53176" y2="128.791" gradientUnits="userSpaceOnUse">
<stop offset="0.40625" stop-color="#00AFE5"/>
<stop offset="1" stop-color="#00AFE5" stop-opacity="0"/>
</linearGradient>
<linearGradient id="paint39_linear_108_93" x1="70.605" y1="146.336" x2="70.605" y2="152.579" gradientUnits="userSpaceOnUse">
<stop offset="0.40625" stop-color="#00AFE5"/>
<stop offset="1" stop-color="#00AFE5" stop-opacity="0"/>
</linearGradient>
<linearGradient id="paint40_linear_108_93" x1="55.2993" y1="124.859" x2="55.2993" y2="146.639" gradientUnits="userSpaceOnUse">
<stop offset="0.40625" stop-color="#00AFE5"/>
<stop offset="1" stop-color="#00AFE5" stop-opacity="0"/>
</linearGradient>
<linearGradient id="paint41_linear_108_93" x1="55.8222" y1="144.159" x2="55.8222" y2="151.591" gradientUnits="userSpaceOnUse">
<stop offset="0.40625" stop-color="#00AFE5"/>
<stop offset="1" stop-color="#00AFE5" stop-opacity="0"/>
</linearGradient>
<linearGradient id="paint42_linear_108_93" x1="46.2599" y1="514.412" x2="46.2599" y2="520.459" gradientUnits="userSpaceOnUse">
<stop offset="0.40625" stop-color="#00AFE5"/>
<stop offset="1" stop-color="#00AFE5" stop-opacity="0"/>
</linearGradient>
<linearGradient id="paint43_linear_108_93" x1="498.784" y1="188.99" x2="498.784" y2="190.2" gradientUnits="userSpaceOnUse">
<stop offset="0.40625" stop-color="#00AFE5"/>
<stop offset="1" stop-color="#00AFE5" stop-opacity="0"/>
</linearGradient>
<linearGradient id="paint44_linear_108_93" x1="190.434" y1="214.703" x2="190.434" y2="258.566" gradientUnits="userSpaceOnUse">
<stop offset="0.40625" stop-color="#00AFE5"/>
<stop offset="1" stop-color="#00AFE5" stop-opacity="0"/>
</linearGradient>
<linearGradient id="paint45_linear_108_93" x1="508.504" y1="146.336" x2="508.504" y2="222.415" gradientUnits="userSpaceOnUse">
<stop offset="0.40625" stop-color="#00AFE5"/>
<stop offset="1" stop-color="#00AFE5" stop-opacity="0"/>
</linearGradient>
<linearGradient id="paint46_linear_108_93" x1="381.288" y1="87.3145" x2="381.288" y2="111.246" gradientUnits="userSpaceOnUse">
<stop offset="0.40625" stop-color="#00AFE5"/>
<stop offset="1" stop-color="#00AFE5" stop-opacity="0"/>
</linearGradient>
<linearGradient id="paint47_linear_108_93" x1="43.4593" y1="476.277" x2="43.4593" y2="507.294" gradientUnits="userSpaceOnUse">
<stop offset="0.40625" stop-color="#00AFE5"/>
<stop offset="1" stop-color="#00AFE5" stop-opacity="0"/>
</linearGradient>
<linearGradient id="paint48_linear_108_93" x1="86.8763" y1="510.227" x2="86.8763" y2="528.714" gradientUnits="userSpaceOnUse">
<stop offset="0.40625" stop-color="#00AFE5"/>
<stop offset="1" stop-color="#00AFE5" stop-opacity="0"/>
</linearGradient>
<linearGradient id="paint49_linear_108_93" x1="147.381" y1="235.784" x2="147.381" y2="241.954" gradientUnits="userSpaceOnUse">
<stop offset="0.40625" stop-color="#00AFE5"/>
<stop offset="1" stop-color="#00AFE5" stop-opacity="0"/>
</linearGradient>
<linearGradient id="paint50_linear_108_93" x1="612.284" y1="731.38" x2="612.284" y2="799.746" gradientUnits="userSpaceOnUse">
<stop offset="0.40625" stop-color="#00AFE5"/>
<stop offset="1" stop-color="#00AFE5" stop-opacity="0"/>
</linearGradient>
<linearGradient id="paint51_linear_108_93" x1="90.8151" y1="61.4365" x2="90.8151" y2="902" gradientUnits="userSpaceOnUse">
<stop offset="0.40625" stop-color="#00AFE5"/>
<stop offset="1" stop-color="#00AFE5" stop-opacity="0"/>
</linearGradient>
<linearGradient id="paint52_linear_108_93" x1="124.592" y1="526.371" x2="124.592" y2="532.09" gradientUnits="userSpaceOnUse">
<stop offset="0.40625" stop-color="#00AFE5"/>
<stop offset="1" stop-color="#00AFE5" stop-opacity="0"/>
</linearGradient>
</defs>
</svg>
