<svg width="677" height="675" viewBox="0 0 677 675" fill="none" xmlns="http://www.w3.org/2000/svg">
<path d="M173.321 39.5592C173.321 39.5592 173.094 39.5592 172.868 39.5592C172.189 39.7856 171.057 40.4647 170.83 40.4647C170.604 40.6911 168.566 42.2757 168.566 42.2757C168.339 42.2757 168.339 42.5021 168.339 42.5021C168.339 42.5021 169.245 42.9548 172.189 40.9175C173.774 40.012 173.547 39.5592 173.321 39.5592Z" fill="url(#paint0_linear_27_8697)" fill-opacity="0.08"/>
<path d="M167.207 38.6535C167.434 38.6535 168.566 37.9744 168.566 37.748H168.339C167.887 37.9744 166.755 38.4272 166.528 38.6535C166.302 38.8799 166.075 39.1063 166.075 39.1063C166.302 39.1063 166.755 38.8799 167.207 38.6535Z" fill="url(#paint1_linear_27_8697)" fill-opacity="0.08"/>
<path d="M176.943 33.8997C177.849 33.6733 177.849 33.6733 178.528 33.447C178.528 33.447 179.434 32.9942 180.566 32.5415C180.566 32.5415 181.925 31.8623 182.151 31.636C182.151 31.636 182.151 31.636 181.925 31.636C181.925 31.636 176.717 33.447 172.189 35.9371L174.679 35.0316C175.585 34.5788 176.264 34.1261 176.943 33.8997Z" fill="url(#paint2_linear_27_8697)" fill-opacity="0.08"/>
<path d="M171.51 37.0689C171.51 36.8425 171.51 36.8425 173.547 36.1634C174.227 35.937 175.132 35.4842 175.585 35.2579C175.585 35.2579 175.812 35.2579 175.812 35.0315C175.585 35.0315 175.585 35.0315 175.359 35.0315C169.698 36.8425 165.396 39.7854 164.717 40.2381C165.17 40.2381 171.057 37.5216 171.51 37.0689C171.51 37.2952 171.51 37.0689 171.51 37.0689Z" fill="url(#paint3_linear_27_8697)" fill-opacity="0.08"/>
<path d="M177.17 36.3897C177.396 36.3897 177.396 36.1633 177.396 36.1633C177.623 35.937 177.849 35.7106 177.849 35.7106C178.075 35.4842 178.528 35.0315 178.755 34.8051C178.981 34.5787 178.981 34.5787 178.981 34.5787C178.981 34.5787 178.981 34.5787 178.755 34.5787C177.623 35.0315 175.585 36.3897 175.585 36.6161C175.811 36.6161 175.811 36.6161 175.358 37.2952C175.811 37.2952 177.17 36.3897 177.17 36.3897Z" fill="url(#paint4_linear_27_8697)" fill-opacity="0.08"/>
<path d="M163.358 46.8031C163.132 46.8031 163.132 46.8031 162.905 46.8031C162.452 47.0295 162 47.2559 162 47.2559C160.641 47.935 159.056 49.0669 159.056 49.2933C159.283 49.2933 161.773 48.3878 162.905 47.4823C163.358 47.0295 163.585 46.8031 163.358 46.8031Z" fill="url(#paint5_linear_27_8697)" fill-opacity="0.08"/>
<path d="M165.849 52.4625C165.623 52.4625 165.623 52.2361 164.943 52.4625C164.717 52.4625 164.717 52.4625 164.491 52.4625C163.358 52.6889 162 52.9152 160.868 53.1416C159.283 53.368 154.528 55.8581 153.849 56.7636C154.301 56.99 154.754 56.7636 154.981 56.99C155.66 57.4427 155.434 57.6691 155.207 57.8955C154.981 58.3482 151.811 60.612 150.905 61.0648C150.452 61.2911 150.452 61.2911 150.226 61.2911C149.999 60.3856 151.132 60.1592 151.132 59.2537C150.452 59.2537 147.509 60.8384 147.282 61.7439V61.9703C147.509 62.6494 147.735 63.3285 147.962 64.0076C147.962 64.234 148.188 64.4604 148.188 64.9131C148.188 65.3659 147.962 65.8186 147.962 66.4978C147.962 66.4978 147.962 66.7241 148.188 66.7241C149.094 67.6296 157.245 62.8758 159.283 60.8384C159.736 60.3856 161.094 57.4427 160.188 57.6691C159.283 57.6691 158.377 58.1219 157.245 58.3482C159.056 56.99 161.321 56.3109 163.132 54.9526C163.358 54.4999 165.849 52.6889 165.849 52.4625Z" fill="url(#paint6_linear_27_8697)" fill-opacity="0.08"/>
<path d="M142.754 52.0098C146.15 50.4251 149.32 47.935 152.716 46.3504C149.32 48.6141 149.32 48.6141 149.094 48.8405L160.868 42.0493C161.094 41.8229 161.547 41.8229 161.773 41.3701C161.547 41.3701 161.547 41.3701 161.32 41.3701C158.83 42.502 142.074 51.557 138.678 54.2735C140.263 54.0472 141.395 52.6889 142.754 52.0098Z" fill="url(#paint7_linear_27_8697)" fill-opacity="0.08"/>
<path d="M142.754 76.911C142.528 76.911 142.754 76.911 142.754 76.911C142.301 76.911 142.301 77.1374 141.848 77.3638C140.263 78.4956 139.131 80.0803 137.546 81.2121C134.829 82.7968 133.924 83.4759 133.924 83.9286C134.15 83.9286 134.376 83.9286 135.056 83.7023C136.188 83.4759 136.188 83.4759 136.414 83.7023C136.867 83.9286 136.641 84.6078 137.093 84.6078C137.32 84.6078 137.999 84.6078 138.678 84.3814C143.433 83.4759 145.471 81.4385 145.471 81.4385C145.924 80.7594 144.565 78.2693 144.565 78.2693C144.113 77.5901 142.754 76.911 142.754 76.911Z" fill="url(#paint8_linear_27_8697)" fill-opacity="0.08"/>
<path d="M149.32 56.7636C149.32 56.7636 149.094 56.7636 148.415 56.99C145.924 57.6691 144.112 59.2538 143.886 59.4801C144.112 59.4801 144.339 59.2538 144.565 59.4801C144.565 59.7065 144.565 59.7065 144.339 60.1593C144.113 60.3856 143.886 61.2911 144.339 61.0648C145.245 60.8384 147.735 58.5746 147.962 58.3483C149.547 57.2164 149.999 56.7636 149.32 56.7636Z" fill="url(#paint9_linear_27_8697)" fill-opacity="0.08"/>
<path d="M263.211 10.3567C261.399 12.394 257.097 13.7523 254.607 14.205C254.607 14.205 242.38 17.8271 241.927 18.5062C238.531 23.0337 246.908 24.3919 247.135 24.3919C267.965 22.8073 268.418 23.0337 269.777 24.3919C269.777 24.3919 279.513 35.2579 276.343 41.1437C274.985 43.6338 274.985 43.6338 275.211 43.8602C275.437 45.2185 277.022 45.2185 277.475 46.3503C278.154 47.935 277.475 49.746 278.381 51.3306C281.098 50.6515 283.362 47.7086 286.532 49.2932C292.193 51.7833 289.476 56.3108 289.476 56.3108C287.211 59.0273 282.909 58.801 280.872 61.9702C279.739 63.5549 278.607 68.3087 279.513 71.0252C279.966 72.3835 296.268 100.001 303.967 102.491C300.117 44.9921 297.174 18.9589 293.098 6.50829C296.721 17.3743 299.438 38.88 303.967 102.491C323.439 106.34 323.892 105.887 325.25 104.302C327.288 102.039 330.911 84.155 330.911 83.9286C331.364 81.2121 330.005 78.4956 331.59 76.0055C332.496 74.6472 332.496 74.6472 337.477 73.0626C352.874 68.3087 352.874 68.3087 353.327 65.3659C353.779 62.423 354.006 60.612 356.723 59.2537C363.516 55.8581 371.214 55.4053 378.007 52.0097C380.724 50.6515 383.667 49.746 386.384 47.935C386.384 47.935 387.743 47.0295 386.158 44.9921C383.894 42.0492 380.271 40.2382 378.233 37.2953C376.875 35.2579 376.875 32.9942 375.969 30.7304C374.837 28.2403 375.29 27.5612 376.648 26.2029C378.46 24.1656 377.327 23.4864 373.252 21.2227C360.346 13.7523 360.346 13.5259 359.214 11.7149C359.214 11.4885 359.44 11.2622 359.44 11.2622C359.666 11.2622 359.893 11.0358 360.119 11.0358C356.27 7.41379 348.798 10.3567 346.987 3.33904C346.534 3.11266 346.081 2.88628 345.628 2.65991C345.628 2.43353 345.855 1.98078 345.855 1.52803C346.081 1.52803 346.308 1.52803 346.308 1.30166C344.723 1.07528 339.741 0.848907 339.741 0.848907C336.571 0.622532 332.496 1.30166 331.59 1.52803C328.873 1.98078 326.382 0.169781 323.665 0.169781C319.816 -0.0565938 311.438 -0.0565938 308.269 0.169781C302.155 0.622532 302.155 0.622532 301.476 1.07528C294.91 1.52803 294.91 1.52803 291.74 1.98078H291.513H291.74C295.589 2.20716 295.589 2.20716 296.721 2.65991C296.495 2.65991 296.495 2.65991 291.966 2.65991C290.155 2.65991 289.476 2.65991 287.438 2.88628C271.815 4.69729 260.72 9.67754 260.493 9.67754C261.173 10.3567 261.173 10.3567 263.211 10.3567Z" fill="url(#paint10_linear_27_8697)" fill-opacity="0.08"/>
<path d="M204.341 76.4583C205.246 74.4209 204.794 73.289 203.209 73.5154C203.209 73.5154 198.68 74.6473 198.001 76.6847C197.548 77.8165 199.36 80.7594 200.039 81.2122C201.85 82.344 204.341 76.4583 204.341 76.4583Z" fill="url(#paint11_linear_27_8697)" fill-opacity="0.08"/>
<path d="M236.04 13.2996C235.134 13.7524 234.002 13.9787 233.096 14.4315C236.266 13.7524 246.682 10.8095 248.266 10.3567C241.247 12.6205 235.813 14.4315 229.926 15.7897C228.568 16.0161 228.115 16.4689 227.662 16.9216C227.662 17.3744 227.209 19.4118 226.077 20.3173C222.907 19.4118 214.982 23.9393 214.756 24.392C215.435 24.6184 216.341 24.6184 217.02 25.0711C217.02 25.0711 217.02 25.2975 217.02 25.5239C218.152 25.2975 218.379 25.2975 221.775 24.1656C215.888 27.3349 215.209 26.6558 214.756 26.203C210.228 26.203 210.001 28.014 210.001 28.9195C207.51 30.5041 204.114 30.7305 201.85 32.9943L202.076 33.2206C202.756 33.2206 203.208 33.2206 207.963 32.3151C211.36 31.636 214.53 29.1459 218.152 30.0514C217.926 30.7305 217.926 30.7305 217.02 31.4096C219.511 31.8624 227.662 28.014 226.756 25.9766C226.53 25.9766 226.077 25.7503 225.851 25.7503C226.53 24.8448 231.738 21.4491 232.87 21.2228C240.115 19.4118 242.606 16.6952 242.606 16.2425C242.606 16.2425 242.379 16.2425 242.153 16.0161C248.719 14.2051 251.889 13.526 253.927 12.1677C253.474 12.1677 253.474 12.1677 252.342 12.3941C252.342 12.3941 267.512 7.64024 268.192 7.41386C264.342 7.86661 264.116 8.09299 262.531 8.09299C266.154 7.18749 270.003 6.50836 273.852 5.60286C270.229 5.60286 264.116 6.28199 264.116 6.28199C263.89 6.28199 249.625 8.77211 246.455 9.90399C246.682 10.1304 246.908 10.3567 247.134 10.3567C246.455 10.5831 246.002 10.8095 244.417 10.5831C243.285 10.3567 230.832 13.526 229.7 15.1106C230.379 14.6579 230.606 14.8842 236.04 13.2996Z" fill="url(#paint12_linear_27_8697)" fill-opacity="0.08"/>
<path d="M177.849 38.4272C177.623 38.8799 177.396 39.3327 177.17 39.7854C176.717 40.2382 176.717 40.2382 175.132 41.5964C175.359 41.1437 175.585 40.6909 175.585 40.2382C175.585 40.0118 175.811 39.7854 175.811 39.5591C175.585 39.5591 174.453 39.5591 173.094 40.9173C173.321 40.9173 173.321 40.9173 173.547 40.9173C173.547 40.9173 173.547 40.9173 173.547 41.1437C171.962 42.5019 170.151 42.5019 168.339 43.6338C168.566 43.8602 168.792 43.4074 169.019 43.6338C168.792 44.0866 168.792 44.0866 168.792 44.0866C169.019 44.0866 169.019 44.0866 173.774 42.5019C172.189 43.4074 168.113 45.6712 167.887 46.5767C167.887 46.5767 173.321 44.5393 174 44.0866C174.453 43.8602 174.453 43.8602 177.623 41.1437C177.623 41.1437 177.623 41.3701 177.623 41.5964C178.981 40.2382 178.981 40.2382 182.831 37.2953C183.736 36.6162 183.736 36.6162 183.736 36.3898C183.51 36.3898 183.51 36.3898 183.283 36.3898C183.283 36.6162 178.529 37.9744 177.849 38.4272Z" fill="url(#paint13_linear_27_8697)" fill-opacity="0.08"/>
<path d="M230.153 76.6847C232.417 76.4583 237.399 82.7968 237.399 82.7968C238.531 84.3814 239.889 85.9661 240.795 85.7397C243.965 85.0606 248.493 73.289 248.493 73.289C248.72 72.8363 248.72 72.3836 248.72 72.1572L226.304 66.9505C226.983 66.4978 227.436 66.045 232.87 63.5549C235.134 62.423 236.493 61.9703 236.266 61.2912C236.04 59.7065 228.115 52.2362 224.266 51.557C222.455 51.3307 220.643 51.7834 219.058 51.1043C217.247 50.1988 217.473 47.4823 215.209 47.2559C212.945 47.0295 208.19 48.8405 204.794 50.1988C201.171 51.557 201.171 51.557 200.718 51.557C200.492 51.1043 200.265 50.4252 200.039 45.2185C198.68 44.7658 194.152 45.4449 192.793 45.6713C186.001 47.2559 165.849 64.234 169.698 66.7242C173.547 69.2143 186.454 66.7242 188.265 65.8187C188.039 64.6868 187.812 64.0077 193.473 63.3285C198.228 62.8758 198.907 61.7439 199.36 60.8384C200.492 61.5175 203.662 64.234 203.662 64.234C205.247 66.045 205.926 68.3088 207.511 70.1198C209.549 72.3836 213.851 72.1572 214.077 76.4583C214.077 76.4583 213.171 86.1924 199.812 90.0408C195.737 91.1727 191.435 90.9463 187.812 92.9837C186.227 93.8892 186.001 96.6057 186.454 97.0585C187.133 97.7376 189.623 97.964 196.643 95.7002C202.077 93.8892 202.077 93.8892 211.586 97.964C210.907 98.8695 210.907 98.8695 207.058 100.228C209.096 102.039 225.398 105.434 228.795 103.623C228.568 103.171 228.568 103.171 227.889 102.718C227.436 102.491 227.436 102.491 220.19 95.7002C225.851 96.3793 227.662 97.0585 230.832 99.0958C231.512 99.5486 231.964 99.775 232.191 99.775C234.002 99.3222 236.946 92.3046 235.587 90.9463C232.417 87.7771 226.53 88.0035 224.719 83.0232C222.908 78.9484 230.153 76.6847 230.153 76.6847Z" fill="url(#paint14_linear_27_8697)" fill-opacity="0.08"/>
<path d="M156.792 44.7657C157.019 44.9921 158.151 44.313 159.283 43.6338C159.509 43.4075 159.736 43.1811 159.962 43.1811C159.962 43.1811 159.962 43.1811 159.736 43.1811C159.056 43.4075 156.792 44.5393 156.792 44.7657Z" fill="url(#paint15_linear_27_8697)" fill-opacity="0.08"/>
<path d="M281.324 57.4427L284.721 56.7635C284.721 56.7635 285.627 56.3108 285.853 55.6317C286.079 55.1789 285.853 54.9525 285.627 54.7262C285.4 54.2734 284.721 54.047 284.268 53.5943C284.042 53.3679 284.042 53.1415 284.042 52.9152C284.042 52.9152 284.042 52.9152 284.042 52.6888C284.042 52.6888 283.589 52.4624 282.457 52.4624C280.872 52.6888 276.57 55.4053 278.834 56.7635C279.287 57.2163 280.192 57.4427 281.324 57.4427Z" fill="url(#paint16_linear_27_8697)" fill-opacity="0.08"/>
<path d="M213.851 45.4448C213.624 44.7657 208.869 43.4075 205.247 43.8602C202.077 44.313 203.209 46.5767 203.888 47.0295C206.152 49.0668 213.851 45.4448 213.851 45.4448Z" fill="url(#paint17_linear_27_8697)" fill-opacity="0.08"/>
<path d="M189.623 29.3723C188.718 29.8251 187.133 30.5042 186.68 30.7306C186.906 30.7306 186.906 30.7306 187.133 30.7306C188.718 30.2778 190.076 30.2778 190.076 30.2778C189.85 30.7306 189.171 30.7306 189.171 31.4097C189.397 31.6361 191.888 30.7306 192.114 30.5042C193.02 30.0514 195.963 27.3349 195.963 26.8822C195.51 26.6558 195.284 27.1085 194.831 27.1085C195.284 26.4294 195.963 26.4294 196.416 25.9767C196.416 25.9767 196.416 25.9767 196.19 25.9767C193.473 26.8822 189.85 28.4668 189.397 28.6932C190.076 28.9195 190.529 28.4668 191.208 28.4668C191.435 28.6932 191.208 28.9195 189.623 29.3723Z" fill="url(#paint18_linear_27_8697)" fill-opacity="0.08"/>
<path d="M176.717 43.6338C176.038 44.0865 175.811 44.3129 176.943 44.7656C177.849 45.2184 179.887 44.7656 181.925 43.181C183.057 42.2755 185.095 40.0117 184.189 40.0117C183.963 40.0117 183.963 40.0117 183.736 40.0117C181.698 40.6909 176.943 43.6338 176.717 43.6338Z" fill="url(#paint19_linear_27_8697)" fill-opacity="0.08"/>
<path d="M206.152 27.5612C205.926 27.5612 205.926 27.5612 205.926 27.5612H205.699C204.341 28.014 202.982 28.4667 201.624 28.9195C200.039 29.3722 198.454 29.825 196.869 30.2777C195.737 30.7305 195.057 30.9569 194.831 30.9569C195.284 30.9569 200.039 30.2777 202.529 29.5986C203.888 29.1459 204.341 28.9195 206.152 27.7876C205.926 27.7876 206.152 27.7876 206.152 27.5612Z" fill="url(#paint20_linear_27_8697)" fill-opacity="0.08"/>
<path d="M194.604 30.0513C195.057 30.0513 200.038 28.0139 201.397 27.3348C202.076 27.1084 202.076 26.8821 202.076 26.6557C202.076 26.4293 201.623 26.4293 201.623 26.2029C201.623 25.9766 201.623 25.9766 201.623 25.7502C201.623 25.7502 201.623 25.7502 201.397 25.5238C201.17 25.5238 200.944 25.5238 200.718 25.5238C200.491 25.5238 200.265 25.7502 200.038 25.9766C198.906 26.6557 198.227 28.0139 197.095 28.4667C195.51 29.1458 194.831 29.1458 194.604 30.0513Z" fill="url(#paint21_linear_27_8697)" fill-opacity="0.08"/>
<path d="M205.699 22.8073C209.096 21.2227 209.096 20.9963 209.096 20.9963H208.869C208.869 20.9963 205.473 22.1282 204.567 22.5809C203.435 23.0337 203.888 23.4864 203.888 23.4864C203.888 23.7128 204.567 23.26 205.699 22.8073Z" fill="url(#paint22_linear_27_8697)" fill-opacity="0.08"/>
<path d="M212.945 21.2227C214.303 20.7699 214.756 20.7699 215.435 20.7699V20.9963C214.983 21.2227 214.53 21.449 213.171 21.9018C209.322 23.0337 208.19 23.4864 207.963 23.7128C207.058 24.1655 207.058 25.2974 207.284 25.5238C207.284 25.5238 207.284 25.5238 210.001 24.8447C210.907 24.6183 212.039 24.8447 212.945 24.3919C215.435 23.4864 217.473 21.9018 219.737 20.9963C221.096 20.3172 222.907 20.0908 224.266 19.4117L224.492 19.1853C224.492 19.1853 224.492 19.1853 223.36 18.9589C223.587 18.7325 223.813 18.7325 224.039 18.5062C226.077 17.6007 226.077 17.6007 226.077 17.3743C225.851 17.3743 225.624 17.3743 225.398 17.1479C225.624 16.6952 226.53 16.6952 226.304 15.7897C226.757 15.3369 227.436 15.1105 227.889 14.6578C227.662 14.6578 227.662 14.6578 227.436 14.6578C224.945 15.3369 216.115 18.5062 215.435 19.1853C215.888 19.1853 216.341 18.9589 216.794 18.9589C216.115 19.4117 214.303 19.8644 213.624 20.0908C210.907 20.7699 209.548 22.1282 209.548 22.1282C209.775 22.1282 212.718 21.2227 212.945 21.2227Z" fill="url(#paint23_linear_27_8697)" fill-opacity="0.08"/>
<path d="M185.095 43.8604C185.321 43.8604 209.775 41.3702 216.341 34.8053C218.152 32.9943 213.85 32.768 213.624 32.768C211.36 32.768 200.265 36.6163 198.001 37.5218C195.963 38.4273 194.378 36.39 194.831 35.9372C195.057 35.7108 195.284 35.7108 196.189 35.4845C200.265 34.3526 198.227 32.9943 197.774 32.9943C196.642 32.9943 195.963 33.4471 194.831 33.6735C193.699 33.8998 192.567 33.4471 191.434 33.4471C190.982 33.4471 189.85 33.6735 189.17 33.8998C188.491 34.1262 186.68 36.1636 186.68 36.6163C187.132 36.6163 187.132 36.6163 188.265 36.1636C189.397 35.7108 190.982 35.2581 191.208 35.4845C191.887 35.9372 189.85 38.4273 189.85 38.4273C188.717 39.5592 186.906 40.012 185.774 41.1438C183.51 43.8604 184.415 43.8604 185.095 43.8604Z" fill="url(#paint24_linear_27_8697)" fill-opacity="0.08"/>
<path d="M675.752 346.524C675.299 336.79 674.62 323.66 673.714 313.926C673.261 310.983 672.808 308.267 672.582 305.777C670.318 298.08 670.091 296.722 665.563 269.557C665.563 269.557 665.789 269.783 665.789 270.009C654.694 232.884 654.694 232.884 654.468 231.073C654.468 231.073 654.468 231.073 654.695 231.299C650.845 219.754 649.034 215.679 643.6 204.134L631.599 180.591C627.071 173.121 621.184 162.934 616.203 155.463C595.145 126.714 594.693 126.261 581.787 112.226L567.748 98.1904C567.296 97.7376 566.616 97.2849 566.163 96.8321C566.843 97.7376 567.069 97.964 572.73 103.85C571.598 103.171 570.692 102.492 569.786 101.812C571.371 104.755 574.315 106.34 576.579 108.83C576.352 108.83 576.126 109.056 576.126 109.283C566.39 101.36 558.239 91.8519 548.276 83.9287C553.257 86.8716 557.107 91.3991 562.314 93.8893C560.956 91.6255 546.238 78.7221 536.276 72.8364C529.257 68.5352 528.351 67.8561 527.672 67.177C528.124 67.4034 528.577 67.4034 529.03 67.6297C528.351 66.9506 527.898 66.7242 525.86 65.5924C525.634 65.8187 525.407 65.8187 525.407 66.0451C524.728 65.8187 523.596 65.366 518.841 62.1967C519.294 62.4231 519.747 62.6495 520.2 62.6495C519.294 60.8385 510.69 56.7637 510.237 56.5373C510.69 57.4428 510.69 57.4428 512.048 59.2538C509.105 58.122 507.52 54.9527 504.577 54.0472C505.029 55.4055 506.614 56.0846 507.294 57.4428C506.162 59.7066 506.161 59.7066 506.388 61.2912C506.614 63.555 513.633 75.5529 513.633 75.7792C518.841 83.7024 518.615 86.4189 518.615 86.8716C517.709 94.342 517.709 94.342 513.633 97.0585C512.049 98.1904 512.275 98.6432 512.954 100.681C512.954 100.907 523.822 126.261 534.011 121.733C537.181 120.149 535.596 114.942 534.917 112.452C535.823 113.131 553.71 130.788 557.107 136.448C558.691 139.164 560.276 141.654 562.993 141.654C563.446 140.749 563.899 133.505 562.088 130.336C558.012 122.865 558.918 122.186 560.956 120.149C560.956 118.338 560.729 117.659 555.522 114.263C551.899 111.773 551.899 111.773 546.918 104.076C545.106 101.133 548.05 97.2849 545.333 94.342C538.087 86.8716 538.087 86.8716 537.861 86.4189C537.634 86.1925 537.634 85.7398 537.408 85.5134C537.408 85.287 537.634 85.0606 537.861 85.0606C540.578 85.9661 549.408 91.8519 550.087 93.6629C549.861 93.6629 549.635 93.6629 549.408 93.6629C556.427 109.056 556.427 109.056 562.993 115.169C568.654 120.602 577.484 119.696 583.145 124.903C582.239 124.676 581.334 124.224 580.428 123.771C580.202 123.771 579.975 123.997 579.975 124.224C580.428 124.903 580.881 125.582 581.107 126.261C577.711 125.355 574.541 123.771 571.145 123.318C574.994 128.525 580.428 132.373 583.371 138.259C579.522 138.032 579.296 132.599 575.447 133.052C575.22 133.279 575.22 133.505 574.994 133.731C574.994 133.731 579.522 142.107 579.975 142.56C580.654 143.239 583.598 147.314 583.371 148.898C581.107 148.672 581.107 148.672 580.654 148.898C580.428 149.578 580.202 150.483 579.975 151.162C580.202 151.389 580.202 151.615 580.428 151.615C569.786 150.936 569.786 150.936 569.786 151.841C569.333 152.068 568.88 152.52 568.428 152.747C566.163 151.389 563.446 150.709 560.503 150.03L565.711 150.936C564.805 150.257 562.541 148.672 558.465 148.672C557.107 148.672 556.654 148.672 552.804 144.145C549.861 140.749 546.465 135.995 546.691 131.92C546.691 130.109 544.2 123.092 542.163 122.865C541.936 122.865 536.502 122.865 537.408 125.582C537.861 126.714 544.88 138.938 549.861 144.824C551.899 147.087 551.899 147.54 552.125 147.54C551.899 147.767 551.899 147.767 550.314 148.219C549.182 148.446 547.823 148.672 546.691 148.898C546.465 149.351 546.012 149.804 545.559 150.257C539.898 150.03 539.898 150.03 538.54 151.615C538.766 153.2 539.446 155.916 541.257 161.123C541.031 161.575 540.578 162.255 540.351 162.707C535.596 162.707 535.596 162.707 533.106 163.613C533.106 163.839 533.106 163.839 535.144 168.82C534.011 169.499 532.426 170.404 531.294 170.857C531.294 171.989 531.068 173.573 530.389 174.705C524.955 174.479 524.049 173.8 521.785 171.989C522.464 173.121 523.143 174.253 523.822 175.384C523.596 175.837 523.37 176.516 523.37 177.195C522.237 177.648 520.879 178.101 519.747 178.554C517.03 176.969 517.03 176.969 512.954 176.743C512.728 177.195 512.501 177.875 512.275 178.327C513.407 179.233 514.766 180.591 515.898 181.497C515.445 181.723 514.766 182.176 514.539 182.628C539.898 189.646 535.823 215 535.596 215.226C523.822 214.321 512.501 210.925 500.727 209.567C501.407 210.473 502.312 211.831 502.992 212.736C502.992 212.963 504.35 244.429 508.199 245.561C507.067 255.295 507.067 255.295 506.841 256.2C514.992 255.521 516.803 255.521 520.2 256.2C521.558 261.633 521.558 261.633 521.558 261.86L540.804 255.521C546.012 254.842 547.37 248.051 544.653 243.75C547.597 231.073 547.823 231.073 555.748 227.903C555.974 217.717 555.974 217.717 556.654 217.037C560.276 214.095 563.22 218.848 566.616 218.848C569.786 213.415 572.277 209.793 577.258 213.868C577.485 214.095 604.202 244.655 606.919 253.257C608.957 259.822 608.051 259.822 596.73 261.407C598.995 265.255 605.787 271.141 605.787 271.141C606.693 267.972 604.882 265.029 605.334 262.086C605.787 262.086 606.467 262.312 606.919 262.312C608.278 260.275 608.957 257.785 610.316 255.521C608.731 249.635 608.731 249.635 608.731 247.598C609.184 247.372 609.863 247.372 610.542 247.145C611.221 248.051 612.127 249.409 612.806 250.315C612.354 247.598 612.354 247.598 603.297 236.732C603.523 236.279 603.523 235.6 603.749 234.921C599.447 233.11 596.051 231.525 584.73 208.435C585.183 207.53 586.315 206.624 587.221 206.171L612.806 236.279C612.806 236.506 612.806 236.506 620.505 258.464L628.656 277.027C628.882 275.895 628.882 274.537 628.882 273.405C628.882 268.877 627.071 264.803 626.392 260.502C623.675 246.693 623.675 246.693 625.033 245.561C627.524 246.013 632.732 249.183 633.864 253.257C634.317 252.352 634.996 250.994 635.449 249.862C635.901 249.862 636.807 249.862 637.26 249.862C638.845 237.185 630.015 226.319 631.599 213.868C632.505 213.642 633.864 213.642 634.769 214.095C634.543 214.547 634.316 215.226 634.09 215.679C635.675 217.49 636.354 217.943 638.166 219.075C638.619 221.339 638.619 221.339 638.166 224.734C639.751 226.545 640.656 229.035 642.015 231.073C648.128 227.451 639.071 221.339 640.883 216.132C643.6 215.453 644.053 216.358 644.732 218.622C644.506 219.075 644.053 219.754 643.826 220.207C644.732 221.791 644.732 221.791 646.09 227.224C645.864 227.677 645.411 228.356 645.185 228.583C649.487 239.449 659.449 247.824 658.997 260.728C658.544 260.954 657.864 261.407 657.412 261.633C652.204 258.011 652.43 246.466 643.826 248.73C643.826 249.635 643.147 250.994 642.468 251.899C641.562 251.673 639.977 251.22 639.071 250.994C639.298 251.899 639.977 253.257 640.656 253.937C638.619 255.521 636.128 254.616 633.864 255.748C633.637 256.879 633.637 258.464 633.637 259.596C634.09 259.822 634.769 259.822 635.222 260.049C636.128 266.387 637.713 278.612 645.638 285.176C646.09 284.724 646.543 284.271 646.77 283.818C646.77 283.365 646.77 282.686 646.77 282.007C649.26 284.271 650.166 287.893 653.11 289.704C653.562 288.798 653.789 287.214 654.015 286.308C654.695 286.987 655.827 287.893 656.959 288.346C658.317 312.794 658.544 316.416 655.827 323.207C652.204 322.981 651.751 322.076 650.619 318.68C649.713 318.68 648.355 319.133 647.675 320.038C635.901 319.133 637.034 302.155 624.807 301.928C622.543 306.003 624.354 310.757 622.769 314.832C622.316 315.058 621.637 315.284 621.184 315.511C618.693 313.7 591.976 289.251 589.938 286.082C589.258 285.176 590.164 283.365 590.843 282.234C592.202 279.97 592.202 279.97 591.296 265.482C588.353 263.671 587.9 263.218 586.089 262.312C583.824 264.124 583.824 264.124 573.862 261.86C572.956 262.539 572.05 263.897 571.371 264.803C558.691 259.822 548.276 273.858 535.823 269.33C534.464 269.104 534.238 269.104 534.011 269.104C530.389 269.783 529.257 270.009 525.407 265.482C524.728 265.029 524.728 265.029 524.728 265.029C524.275 265.482 523.596 265.935 523.143 266.387C520.653 269.33 522.464 273.405 520.2 276.348C517.256 279.97 511.822 279.97 509.105 283.818C508.199 284.95 508.652 286.987 508.652 288.572C507.746 303.966 507.746 303.966 503.671 306.003C500.048 307.814 493.482 312.794 492.803 313.926C490.538 317.548 473.557 346.977 473.557 346.977C472.877 354.9 478.085 361.465 478.085 369.162C478.312 375.727 469.028 378.669 471.972 386.14C476.274 397.232 482.387 407.645 487.595 418.511C489.859 423.039 506.162 438.659 509.105 438.432C524.502 437.074 539.219 431.188 555.069 432.999C555.522 432.999 556.201 433.452 556.654 433.905C559.597 436.169 557.559 440.47 560.276 442.96C562.993 445.224 566.616 444.092 569.56 444.997C571.598 451.109 571.598 451.11 569.107 456.995C595.598 461.976 612.127 466.277 624.128 472.162C612.354 466.503 595.145 461.749 569.107 456.995C562.088 473.294 562.088 473.294 563.22 478.048C564.805 485.519 567.296 495.479 557.786 517.664C553.484 527.851 545.106 535.321 539.446 544.603C534.011 553.205 533.559 563.618 528.577 572.447C509.331 606.629 508.879 607.082 505.709 610.251C503.671 612.289 502.539 613.647 500.275 618.627C510.011 621.57 521.558 613.873 525.407 611.157L540.578 600.517L559.824 585.124C564.126 580.596 566.843 574.71 571.371 570.409C576.579 565.429 583.824 563.165 589.032 558.185C601.485 546.187 613.259 522.418 614.391 519.475C619.146 507.703 635.901 489.367 640.883 484.16C648.581 475.558 658.997 453.147 661.487 444.318C659.449 443.639 659.449 443.639 656.053 444.318C655.374 443.186 655.374 443.186 656.959 429.151C657.638 423.944 656.279 418.738 656.279 413.531C656.053 399.949 658.544 386.593 657.412 373.01L653.789 330.451C654.695 331.81 654.694 331.81 655.6 337.922C656.506 337.243 657.185 335.658 657.638 334.526C666.469 366.672 657.185 398.817 658.091 430.962C661.714 429.378 661.714 429.377 663.299 429.604C672.582 409.456 672.582 409.456 673.035 406.966C673.035 407.645 672.808 408.325 672.808 408.777C673.035 407.645 673.261 406.287 673.488 405.155L673.714 404.023L674.846 396.553C675.299 393.157 675.752 388.856 676.657 377.311C676.657 377.99 676.657 378.443 676.657 379.122C675.073 368.709 675.752 356.258 675.752 346.524ZM621.41 170.857C622.09 171.31 622.769 171.989 623.448 172.442C622.995 171.989 622.09 171.31 621.41 170.857ZM624.354 173.121C626.392 174.932 628.203 176.743 630.014 178.78C628.203 176.743 626.392 174.932 624.354 173.121ZM673.488 383.876C672.808 382.518 672.808 382.518 673.261 370.294C673.035 374.142 673.035 374.142 672.808 375.727C671.903 349.467 672.355 347.203 672.808 343.808C674.393 346.071 675.073 365.54 674.62 376.632C674.167 381.386 674.167 382.065 673.488 383.876Z" fill="url(#paint25_linear_27_8697)" fill-opacity="0.08"/>
<path d="M666.016 269.33C666.016 269.783 666.242 270.236 666.469 270.688L668.28 278.385C668.28 278.159 668.28 278.159 668.28 277.932C668.959 282.46 669.865 287.214 670.771 291.741C668.054 274.537 667.148 271.141 663.072 256.879C662.393 254.616 661.714 252.578 661.035 250.541C665.11 264.576 665.337 265.029 666.922 272.499C666.469 271.82 666.242 270.688 666.016 269.33Z" fill="url(#paint26_linear_27_8697)" fill-opacity="0.08"/>
<path d="M659.676 247.372C659.902 247.824 659.902 248.277 660.129 248.73C659.676 247.145 658.997 245.334 658.544 243.75C658.77 244.202 658.997 244.882 658.997 245.334L654.921 233.11V233.336C654.468 231.978 654.242 231.752 654.242 231.525C655.827 236.279 657.865 242.618 660.582 251.22C660.582 249.862 660.129 248.73 659.676 247.372Z" fill="url(#paint27_linear_27_8697)" fill-opacity="0.08"/>
<path d="M672.808 307.135C672.356 302.154 671.45 297.174 670.318 292.194C670.997 296.042 671.676 300.57 672.356 306.003C672.582 306.456 672.808 306.682 672.808 307.135Z" fill="url(#paint28_linear_27_8697)" fill-opacity="0.08"/>
<path d="M473.557 142.786C473.557 142.786 473.557 143.013 473.33 143.013C471.972 145.503 471.066 150.483 471.066 150.483C470.84 152.52 470.84 153.426 471.519 154.105C472.651 155.463 477.859 154.784 481.708 152.52C482.614 151.841 483.519 151.162 484.651 150.709C485.784 150.03 487.368 150.483 488.274 149.351C488.727 148.672 488.501 146.861 487.595 144.371C487.142 143.013 486.463 142.333 486.01 141.428C485.104 140.07 484.878 139.391 485.557 138.032C485.784 137.353 486.236 136.221 486.01 134.863C485.557 133.505 484.651 132.599 483.746 132.147C483.293 131.92 482.84 131.467 482.387 131.241C481.255 130.562 479.897 130.336 478.764 129.883C477.859 129.43 477.632 129.204 477.406 128.977L477.18 128.751C476.953 128.751 469.028 130.788 474.01 133.505C474.236 133.731 474.462 133.731 475.142 133.731C474.915 133.958 474.689 133.958 474.462 134.184C471.293 135.769 470.387 136.674 469.708 137.353C469.255 137.806 468.575 138.938 468.802 140.296C469.028 140.749 469.255 141.428 470.613 142.107C471.293 142.786 472.425 142.56 473.557 142.786Z" fill="url(#paint29_linear_27_8697)" fill-opacity="0.08"/>
<path d="M146.377 50.4251C145.697 50.8779 139.358 54.4999 139.131 54.9526C139.358 54.7263 139.81 54.7263 146.377 50.4251Z" fill="url(#paint30_linear_27_8697)" fill-opacity="0.08"/>
<path d="M639.524 291.062C639.524 291.062 639.751 291.062 639.524 291.062C639.751 290.836 639.751 290.836 639.524 291.062C639.751 290.836 636.581 286.987 636.581 286.987C636.128 286.308 635.449 286.308 635.222 286.082C634.317 285.855 633.184 285.855 632.279 285.629C630.694 284.95 630.694 284.95 630.467 284.95C629.788 284.95 629.562 285.629 630.015 286.535C631.147 288.119 637.713 291.741 639.524 291.062Z" fill="url(#paint31_linear_27_8697)" fill-opacity="0.08"/>
<path d="M576.126 244.202C576.805 244.881 578.164 244.655 578.39 245.787C578.617 246.919 578.164 248.051 578.39 248.956C578.617 249.862 579.296 250.088 579.522 250.088C580.202 250.314 583.825 249.183 584.051 246.24C584.051 246.013 584.051 245.561 584.051 245.108C583.825 243.976 583.372 242.844 583.145 241.486C582.919 240.128 583.145 238.769 582.919 237.637C582.692 235.6 581.787 235.374 581.107 235.147C579.975 235.147 577.032 236.279 576.126 238.09C575.447 239.222 575.22 243.07 576.126 244.202Z" fill="url(#paint32_linear_27_8697)" fill-opacity="0.08"/>
<path d="M558.012 243.523C558.012 243.523 559.597 241.939 559.597 241.712C559.824 241.033 558.692 240.58 556.88 240.354C554.843 240.128 551.673 240.58 553.031 241.939C553.71 242.618 556.201 243.75 557.333 243.75C557.56 243.976 557.786 243.75 558.012 243.523Z" fill="url(#paint33_linear_27_8697)" fill-opacity="0.08"/>
<path d="M576.126 226.998C575.9 227.224 575.447 227.451 575.673 228.13C575.673 228.356 575.9 228.809 576.126 229.035L579.07 232.431C579.749 232.204 579.07 226.998 578.617 224.508C578.617 224.508 577.711 220.433 577.258 220.207C577.258 220.207 577.032 220.433 577.032 220.659V220.886C576.805 222.244 577.258 223.376 577.258 224.734C577.032 226.092 576.579 226.545 576.126 226.998Z" fill="url(#paint34_linear_27_8697)" fill-opacity="0.08"/>
<path d="M651.298 300.117C651.298 300.117 652.883 300.343 653.11 300.343C653.336 300.117 653.789 296.269 653.789 296.269V296.042C653.789 295.59 653.789 295.59 653.563 295.59C653.11 295.59 652.657 295.816 652.204 295.816C651.978 295.816 651.525 295.59 651.072 295.59C650.619 295.363 650.393 294.91 649.94 294.684C649.487 294.458 649.487 294.684 649.261 294.91C648.808 295.59 649.261 298.306 650.393 299.664C650.846 299.891 651.072 299.891 651.298 300.117Z" fill="url(#paint35_linear_27_8697)" fill-opacity="0.08"/>
<path d="M111.054 76.6846C111.281 76.911 111.507 76.6846 111.507 76.6846C113.545 75.3264 115.13 73.5154 117.168 72.1571C120.791 69.667 124.64 67.6296 128.263 64.9131C129.168 64.234 129.168 64.234 130.074 62.423V62.1966C128.715 62.423 127.81 63.3285 126.904 64.0076C127.81 63.3285 127.81 63.3285 128.036 62.6493C128.036 62.6493 128.036 62.6493 127.81 62.6493C127.583 62.6493 127.583 62.6493 127.357 62.8757C122.828 64.6867 122.828 64.6867 103.356 80.7594C101.545 82.1176 100.413 83.2495 98.8277 86.1924H99.0541C103.809 83.7022 106.979 79.8539 111.054 76.6846Z" fill="url(#paint36_linear_27_8697)" fill-opacity="0.08"/>
<path d="M138.452 58.1217C138.905 58.1217 140.49 57.2162 142.075 56.5371C148.188 53.1415 151.132 51.7832 151.132 51.7832C153.169 51.1041 155.207 50.4249 157.019 49.5194C158.604 48.8403 164.038 44.7656 164.038 44.7656C165.17 44.0864 165.17 43.8601 165.396 43.6337C164.717 43.6337 163.811 44.0864 163.811 44.0864C162 44.9919 160.641 46.3502 158.83 47.4821C160.868 45.4447 163.358 43.6337 165.396 41.5963H165.17C165.17 41.5963 158.151 45.2183 157.924 46.1238C157.698 46.8029 156.792 48.6139 151.584 49.9722C151.584 49.9722 151.584 49.9722 151.358 49.7458C151.584 49.5194 151.584 49.5194 151.811 49.2931C151.811 49.2931 151.811 49.2931 152.037 49.0667C152.717 48.1612 155.207 47.7084 154.302 46.5766C154.075 46.5766 139.811 53.5942 139.811 55.4052C139.811 55.4052 139.811 55.4052 146.83 51.5568C146.15 52.6887 144.792 53.1415 143.886 53.8206C144.113 53.8206 144.113 53.8206 145.697 52.9151C146.15 52.6887 147.056 52.236 148.641 51.5568C147.056 52.6887 142.075 55.4052 139.131 56.5371C137.999 57.4426 137.999 58.1217 138.452 58.1217Z" fill="url(#paint37_linear_27_8697)" fill-opacity="0.08"/>
<path d="M98.6018 93.6629C99.7339 93.8893 100.413 92.9838 101.319 92.9838C101.319 92.9838 101.319 93.2101 101.545 93.2101C101.092 94.342 99.9603 95.2475 99.281 96.3794C100.413 96.3794 110.149 92.0783 115.583 87.7771C117.395 86.4189 118.074 85.7398 118.98 85.5134C118.98 85.5134 119.206 85.5134 119.206 85.7398C118.753 86.6453 118.753 86.6453 118.753 86.8716C119.206 87.3244 122.829 88.0035 122.829 88.0035C126.225 86.8716 126.225 86.8716 129.622 83.0233C129.848 82.7969 129.848 82.7969 129.848 82.7969C129.395 82.7969 129.395 82.7969 126.225 84.3815C126.678 83.2496 129.848 80.7595 132.112 80.7595C133.018 80.7595 133.018 80.7595 133.471 80.5331C133.471 80.5331 135.282 78.9485 134.829 77.5903C133.018 76.4584 132.339 74.6474 133.244 73.2891C134.15 72.1572 141.396 63.1022 141.396 62.4231C140.943 62.1967 140.716 62.1967 140.263 61.9704C140.263 61.9704 140.263 61.744 140.037 61.5176C136.641 64.4605 134.376 68.5352 130.301 70.799C129.848 69.2144 131.659 68.5352 132.112 67.4034L131.886 67.177C130.301 67.8561 128.942 68.988 127.357 69.2144C127.81 68.5352 128.716 68.0825 128.942 67.177L128.716 66.9506C126.452 67.6297 124.867 69.4407 122.603 70.1199C123.961 68.3089 126.225 67.4034 127.584 65.8187C126.225 66.0451 108.564 77.3639 109.017 79.4013C109.244 79.4013 109.47 79.6276 109.696 79.854C109.47 80.5331 109.244 80.5331 107.206 81.665C103.809 83.7024 103.583 84.1551 103.583 84.6079C103.809 84.6079 104.036 84.8343 104.262 84.6079C106.3 84.1551 107.885 83.0233 109.696 82.5705C111.055 82.3441 112.414 82.7969 113.772 82.5705C111.281 84.3815 108.111 85.5134 106.527 85.9661C97.9225 89.1354 97.0168 93.2101 98.6018 93.6629Z" fill="url(#paint38_linear_27_8697)" fill-opacity="0.08"/>
<path d="M179.208 110.188C179.434 109.509 178.755 109.509 178.076 109.509C178.076 109.509 175.359 109.962 174.679 110.867C173.774 111.999 174 113.81 174.453 114.037C175.359 114.942 178.755 111.32 179.208 110.188Z" fill="url(#paint39_linear_27_8697)" fill-opacity="0.08"/>
<path d="M174.68 103.85C174.906 103.85 175.132 103.623 175.359 103.397C175.585 102.718 175.132 101.812 174.906 101.36C174.227 100.907 173.547 100.454 173.095 100.001C172.189 99.0958 171.736 97.5112 170.604 96.832C170.377 96.6057 170.151 96.6057 169.925 96.3793C168.793 95.7002 167.434 95.9265 166.302 95.2474C165.623 94.7947 165.623 93.8892 164.943 93.4364H164.717C163.811 93.8892 160.188 98.643 160.188 98.8694C159.736 99.5485 159.283 100.454 158.83 100.907L154.981 107.019C157.245 107.245 157.245 107.245 157.471 108.377C157.698 109.735 157.698 109.735 157.924 109.735C158.151 109.735 158.83 109.283 159.962 108.151C161.773 106.566 164.717 104.302 168.113 103.85C169.925 103.397 172.415 104.529 174.68 103.85Z" fill="url(#paint40_linear_27_8697)" fill-opacity="0.08"/>
<path d="M168.566 107.925C168.566 107.925 163.585 109.056 162 110.188C161.094 110.867 160.868 112.905 161.547 113.358C162.679 114.037 168.793 110.415 169.925 108.83C170.151 108.377 170.151 107.698 168.566 107.925Z" fill="url(#paint41_linear_27_8697)" fill-opacity="0.08"/>
<path d="M155.887 385.008C154.075 385.687 154.981 388.63 156.339 389.083C157.019 389.309 162 390.214 162 388.177C161.774 387.045 158.377 384.555 155.887 385.008Z" fill="url(#paint42_linear_27_8697)" fill-opacity="0.08"/>
<path d="M496.199 141.428C495.746 141.428 495.973 141.654 495.973 142.107L498.237 142.333C497.105 141.654 496.425 141.428 496.199 141.428Z" fill="url(#paint43_linear_27_8697)" fill-opacity="0.08"/>
<path d="M267.513 166.556C269.777 163.613 270.682 161.575 270.456 160.67C270.23 160.67 270.23 160.67 270.003 160.67C268.871 161.123 265.475 163.839 262.984 167.008C259.814 170.857 257.776 175.158 254.833 179.006C253.248 181.044 250.984 182.402 249.399 184.666C248.72 185.571 249.172 185.798 249.625 185.798C250.078 186.024 250.078 186.024 259.135 186.703C264.343 187.156 268.192 187.609 272.267 188.74C272.72 188.967 273.4 188.967 273.852 189.193C275.437 189.193 276.796 187.835 278.381 189.42C279.06 190.099 279.06 191.457 279.287 192.362C279.287 193.268 279.739 193.494 280.192 193.494C281.551 193.268 283.362 190.551 283.589 188.061C283.815 184.213 280.872 178.327 278.154 175.158C276.569 173.573 276.569 173.573 271.362 174.705C269.777 175.158 269.324 174.705 269.098 173.347C268.418 170.857 267.739 170.404 266.833 169.725C266.38 169.499 266.38 169.272 266.607 168.819C266.38 167.914 267.06 167.008 267.513 166.556Z" fill="url(#paint44_linear_27_8697)" fill-opacity="0.08"/>
<path d="M480.123 119.017C480.35 120.828 478.991 122.639 479.67 124.45C480.35 124.676 481.482 124.45 483.972 122.639C484.878 121.96 485.784 121.281 486.237 121.733C488.727 123.092 485.784 126.034 486.689 128.072C488.501 132.147 490.539 132.826 493.256 133.505C497.558 134.637 498.011 134.637 498.69 135.316C498.916 135.995 498.463 136.674 498.916 137.353C500.048 139.391 502.086 140.749 502.992 142.786C503.445 145.05 500.954 143.692 498.916 142.786C498.011 142.333 498.011 142.333 495.746 142.107C496.652 144.824 499.822 146.182 500.501 149.125C500.728 150.709 499.369 151.615 497.105 152.52C496.652 152.747 495.746 153.199 495.973 153.879C496.199 154.105 497.105 155.237 502.086 155.237C504.35 155.237 508.652 155.011 508.879 156.595C508.879 157.953 507.973 157.953 506.388 157.953C504.803 157.953 504.35 158.406 503.898 158.859C502.765 159.764 502.539 161.349 501.633 162.481C500.501 163.839 498.916 164.745 497.558 165.877C497.558 166.103 497.558 166.103 497.558 166.329C498.237 166.556 498.237 166.556 507.973 165.197C512.954 164.518 517.936 164.971 522.917 164.292H523.143L531.521 161.349V161.123C529.71 159.312 527.445 160.896 525.634 160.217C524.728 157.727 526.993 155.237 526.087 152.747C524.276 148.219 522.464 148.219 521.106 148.446C517.936 148.672 515.672 143.918 515.672 143.918V143.692C515.898 143.692 515.898 143.692 518.389 144.144C519.521 144.597 521.106 145.05 521.106 144.597C520.879 144.371 520.653 143.918 519.747 143.239C515.672 140.07 510.69 138.711 507.067 135.089C505.256 133.278 504.124 131.241 501.86 129.883C498.237 127.619 494.841 126.94 493.029 126.94C495.067 125.129 498.011 115.621 492.124 115.395C490.991 115.395 489.859 115.621 489.18 115.621C485.557 116.074 484.878 116.074 484.878 115.168C484.878 113.357 488.048 109.735 485.331 109.509C485.331 109.509 478.085 109.735 477.18 112.226C477.18 112.452 477.18 112.905 477.18 113.131C478.085 114.942 479.67 116.753 480.123 119.017Z" fill="url(#paint45_linear_27_8697)" fill-opacity="0.08"/>
<path d="M8.2589 212.283C9.16459 210.246 9.61743 207.756 10.5231 205.719C10.976 204.36 11.6552 203.228 12.1081 201.87C12.1081 201.644 12.1081 201.417 12.3345 201.417C12.3345 201.417 12.7873 200.286 12.1081 200.286C12.1081 200.286 11.8817 200.286 11.8817 200.512C9.84385 202.097 7.80605 212.057 8.03247 212.736C8.03247 212.51 8.03247 212.51 8.2589 212.283Z" fill="url(#paint46_linear_27_8697)" fill-opacity="0.08"/>
<path d="M433.48 71.4781C433.48 71.2517 433.48 71.2517 433.48 71.0253C433.027 70.3462 431.895 68.988 430.537 68.3088C430.31 68.3088 430.084 68.0825 429.857 68.0825C427.82 67.6297 425.555 68.0825 423.518 67.177C422.159 66.4978 421.027 65.1396 419.216 65.366C417.178 65.8187 415.366 66.7242 413.329 67.177C411.517 67.6297 409.479 67.4033 407.442 68.0825C406.309 68.5352 407.215 69.8935 406.083 70.5726C404.951 71.2517 404.045 70.1198 402.913 70.5726C402.687 70.5726 402.46 70.799 402.46 70.799C402.007 72.61 403.592 74.421 401.781 76.0056C401.102 75.7792 396.8 72.1572 396.12 70.799C394.536 67.6297 387.516 65.8187 385.705 67.4033C386.158 68.988 388.196 68.5352 389.101 69.6671C388.649 71.9308 385.931 71.4781 384.799 73.2891C385.479 73.7418 387.516 73.5155 388.875 73.2891C390.913 72.8363 397.705 75.3265 394.083 78.2693C395.668 80.3067 397.932 78.4957 399.743 79.1748C401.328 79.854 401.328 80.5331 401.328 82.1177C401.781 82.5705 402.234 82.5705 405.857 82.3441C408.347 82.1177 409.253 82.1177 409.932 82.1177C411.744 82.3441 413.329 83.0232 415.14 83.2496C415.366 83.2496 415.593 83.2496 415.819 83.2496C416.498 83.2496 417.404 83.2496 422.385 81.8913C426.914 80.7595 433.933 75.7792 433.48 74.1946C433.254 73.2891 432.348 72.61 432.122 71.7045C432.801 71.4781 432.801 71.4781 433.48 71.4781Z" fill="url(#paint47_linear_27_8697)" fill-opacity="0.08"/>
<path d="M162 376.858C164.037 379.348 176.491 380.48 176.717 378.896C176.944 378.217 160.868 359.654 160.641 359.654C159.056 358.522 154.075 355.126 144.792 356.937C139.584 358.522 135.961 362.144 135.961 362.144C136.64 362.823 140.49 362.144 143.886 360.333C148.414 357.616 151.584 359.201 151.811 359.88C151.584 360.333 150.905 361.012 149.546 360.107C149.546 360.107 149.32 360.106 149.32 360.333C149.546 362.597 153.169 363.502 155.66 364.181C160.188 365.313 160.415 366.219 161.32 369.162C161.773 370.52 162 371.425 163.132 372.557C163.811 373.463 164.264 373.915 164.264 374.368C164.49 376.179 162.679 376.179 162 376.858Z" fill="url(#paint48_linear_27_8697)" fill-opacity="0.08"/>
<path d="M181.925 392.252C183.283 392.931 182.151 395.421 183.963 395.647C187.133 395.874 186.68 391.573 189.623 391.346C189.85 391.346 190.303 391.346 191.208 391.573C196.19 392.478 204.567 392.704 204.567 392.704C205.02 392.704 205.246 392.478 205.246 392.252C205.246 390.893 204.114 389.762 204.567 388.177C205.699 383.649 182.378 381.612 181.019 381.838C180.566 381.838 180.566 382.065 180.34 382.065C180.34 382.518 180.34 382.518 180.566 382.744C183.963 385.913 182.831 389.535 182.604 389.762C182.151 390.214 180.34 389.762 177.849 389.535C173.094 388.856 172.642 388.856 172.415 389.082C172.415 389.082 172.415 389.309 172.642 389.309C175.585 390.667 178.981 390.667 181.925 392.252Z" fill="url(#paint49_linear_27_8697)" fill-opacity="0.08"/>
<path d="M228.568 176.516C226.53 177.195 231.058 179.459 231.964 179.912C237.851 182.628 240.115 179.685 240.115 179.685C241.021 177.874 230.832 176.063 228.568 176.516Z" fill="url(#paint50_linear_27_8697)" fill-opacity="0.08"/>
<path d="M603.976 550.035C597.41 558.638 597.183 558.638 592.881 560.222C589.258 561.581 588.353 563.165 582.919 570.862C580.202 574.71 579.296 575.389 576.579 577.427C568.654 583.765 557.786 597.348 557.559 598.48C560.503 598.48 560.503 598.48 571.371 588.066C580.428 579.464 588.126 569.956 596.73 560.901C596.73 561.128 596.73 561.128 596.051 562.486C596.504 562.26 596.504 562.26 597.183 561.128C599.221 558.638 605.334 550.262 606.466 547.319H606.24C605.787 547.998 605.787 547.998 603.976 550.035Z" fill="url(#paint51_linear_27_8697)" fill-opacity="0.08"/>
<path d="M22.2971 171.31C22.2971 171.083 22.5235 171.083 22.2971 171.31C22.5235 171.083 22.5235 171.083 22.2971 171.31Z" fill="url(#paint52_linear_27_8697)" fill-opacity="0.08"/>
<path d="M381.629 487.782C381.177 485.292 384.346 481.896 381.403 480.312C379.139 479.18 377.101 480.765 374.837 480.312C367.818 478.727 363.063 472.615 356.27 470.578C346.081 467.408 335.666 465.597 325.477 463.107C319.59 460.844 318.91 454.052 315.288 449.977C308.948 445.903 304.419 439.338 297.853 435.489C289.249 430.509 278.834 432.32 270.23 427.114C263.437 423.039 258.908 416.248 251.889 412.626C250.757 412.173 249.399 411.72 248.267 411.494C213.398 406.287 186.001 402.212 182.831 429.604C172.415 422.36 145.924 433.905 148.414 416.7C149.999 406.287 145.471 398.59 145.471 398.59C137.32 394.516 129.169 398.817 121.017 398.138C123.734 389.309 123.734 389.309 121.697 385.008C125.319 376.858 125.319 376.858 126.451 369.388C124.866 368.03 111.281 357.164 108.564 387.724C103.809 387.498 100.866 394.063 95.4316 390.894C82.9784 383.65 78.6763 374.595 77.0914 369.841C75.28 363.955 80.2613 359.201 80.2613 353.542C80.2613 349.92 75.28 348.109 76.6385 344.034C78.2235 338.827 88.1861 328.64 90.4503 327.056C94.5259 323.886 110.375 327.508 110.602 327.508C111.055 327.056 111.508 326.603 111.96 326.377C110.828 325.018 109.017 324.566 107.658 323.434C107.885 322.981 107.885 322.302 108.111 321.623C111.281 319.812 136.64 317.548 136.64 317.548C147.509 323.434 140.942 338.601 151.358 344.487C163.585 331.583 143.886 320.038 146.15 307.135C148.414 293.552 161.773 290.609 169.472 282.007C169.245 282.007 169.245 282.007 169.245 282.007C169.019 281.554 168.566 281.101 168.113 280.649C168.113 280.196 168.34 279.517 168.34 279.064C168.792 278.838 169.472 278.838 169.925 278.611C169.925 277.932 170.151 277.253 170.151 276.574C169.698 276.348 169.019 276.121 168.566 275.895L171.057 251.22C171.283 254.842 171.283 265.934 171.283 265.934C172.415 265.255 172.415 265.255 173.547 248.956C174.453 250.767 176.038 252.125 176.491 254.163C178.755 250.314 178.076 245.334 181.472 241.939C181.472 241.939 196.19 234.015 197.095 234.015C198.454 221.338 198.454 221.338 205.699 214.547C206.831 214.547 206.831 214.547 227.662 202.549C227.436 203.002 227.209 203.455 226.983 203.908C228.115 204.36 229.474 204.587 230.832 204.587C230.832 205.039 230.832 205.945 230.832 206.398C218.832 215 218.832 215 218.605 217.49C226.757 217.716 251.889 203.002 247.361 191.683C243.965 193.947 243.738 198.248 241.7 201.417C238.983 200.738 236.946 200.059 235.134 199.606C236.946 199.154 238.304 197.343 238.304 197.343C238.078 197.343 238.078 197.343 237.625 197.343C234.455 197.795 232.643 197.116 231.964 196.89C230.379 195.984 230.153 195.079 230.153 193.721C230.153 193.268 230.153 193.268 230.153 193.041C229.926 193.268 229.021 195.758 229.926 197.795C226.757 196.211 226.304 194.626 224.945 191.004C222.002 189.872 221.775 189.646 220.643 188.061C224.945 186.929 228.115 186.024 229.247 181.496C226.983 179.233 226.983 179.233 195.737 198.927C217.247 176.516 217.247 176.516 239.436 169.725C244.417 173.12 267.06 162.028 270.456 155.69C269.324 152.973 269.324 152.973 270.909 148.898C270.682 148.446 270.23 147.766 270.003 147.314C268.192 146.861 266.38 146.635 264.569 146.182C262.984 146.182 262.984 146.182 262.984 146.182C261.852 146.182 258.456 146.635 252.569 150.483C252.342 150.03 252.116 149.351 251.889 148.898C253.701 146.408 254.606 145.955 261.173 143.465C248.267 144.597 235.587 145.729 221.549 147.087C234.455 145.729 245.55 144.824 261.173 143.465C261.626 143.239 262.078 143.013 262.305 142.786C262.531 141.881 257.324 137.58 250.757 139.164C249.172 139.617 249.172 139.617 248.493 139.391C248.04 138.032 249.172 136.674 248.04 135.542C246.682 133.958 244.417 134.41 243.059 132.599C242.606 131.92 242.832 131.241 243.965 129.883C245.323 127.845 245.323 127.845 242.153 122.186C234.228 107.924 234.228 107.924 230.379 115.395C229.7 116.527 231.285 117.659 230.379 118.79C229.247 120.149 227.209 118.79 226.077 120.375C223.587 123.771 223.587 123.771 222.907 123.997C218.605 125.355 215.662 121.733 211.813 121.054C211.133 119.922 212.718 112.225 214.983 110.188C212.718 109.509 210.454 110.414 208.19 109.735C207.737 109.509 207.284 109.283 206.605 107.924C206.379 107.472 205.926 106.566 200.492 104.755C199.359 104.302 198.907 104.302 198.001 104.529C193.02 105.887 187.585 104.755 182.831 106.792C183.736 111.32 178.076 115.621 181.925 120.375C181.246 122.639 178.302 123.318 178.076 126.034C177.849 129.204 181.019 131.015 181.019 133.958C181.019 134.184 181.246 145.955 174.453 147.54C172.868 147.993 169.472 148.898 170.377 151.388C170.151 151.841 169.925 152.068 168.566 152.973C166.755 159.991 171.283 168.593 163.358 174.026C160.868 170.178 156.566 169.272 153.169 166.782C154.981 161.349 154.301 159.312 153.169 156.821C153.622 156.369 154.528 155.69 155.207 155.237C155.207 155.01 155.207 154.331 155.207 154.105C154.528 154.105 153.849 153.879 153.169 153.879C149.999 150.709 145.924 153.652 142.527 152.747C138.905 151.841 137.093 148.219 133.697 147.087C133.018 146.861 132.338 146.635 131.659 146.635C128.489 146.182 126.451 148.446 123.734 149.125C122.829 148.446 122.829 148.446 121.697 141.202C121.244 138.711 121.244 138.711 115.357 138.259C113.998 130.788 132.338 116.979 140.263 111.32C139.357 108.83 136.64 109.962 135.282 108.83C150.452 106.113 150.452 106.113 159.283 96.832C153.396 97.9638 152.037 98.1902 147.282 95.2473C152.943 93.21 160.188 96.832 164.717 90.0407C164.264 89.8143 163.585 89.588 163.132 89.3616C163.132 89.3616 166.075 85.9659 169.019 87.7769C178.981 84.1549 178.981 84.1549 181.472 81.8912C181.925 81.4384 182.604 80.5329 183.057 80.0802C184.189 78.2692 182.378 76.4582 183.283 74.6472C184.189 73.0626 186.227 73.0625 187.359 71.9307C188.038 71.0252 188.038 70.1197 188.491 69.2142C188.491 69.2142 180.114 60.6119 177.17 72.6098C171.962 75.5527 168.34 87.5506 162 82.1176C162.453 78.4956 170.151 76.0054 166.528 72.3834C162.453 73.9681 160.868 77.8164 157.924 80.5329C157.245 78.4956 161.32 73.2889 161.32 73.2889C161.094 73.2889 161.094 73.2889 157.471 73.0625C163.585 63.102 163.585 63.102 163.585 61.9702C163.358 61.7438 162.905 61.5174 162.679 61.291C166.302 55.858 166.302 55.858 182.604 46.1239C181.472 45.8975 181.472 45.8975 179.661 46.3503C165.622 50.6514 147.962 75.3263 147.735 75.5527C147.962 75.7791 147.962 76.2318 148.188 76.4582C149.547 76.4582 150.905 76.2318 152.264 76.0054C152.264 76.2318 152.49 76.6846 152.49 76.9109C149.547 78.2692 149.094 78.7219 147.735 79.8538C147.735 80.5329 147.735 80.5329 147.735 80.5329C147.962 80.5329 148.414 80.7593 148.641 80.7593C145.924 85.5132 139.81 87.0978 137.546 92.5308C135.508 90.2671 135.508 90.2671 139.357 85.9659C137.093 85.2868 137.093 85.2868 129.621 91.1726C129.169 91.399 126.678 92.9836 117.395 92.7572C116.715 91.8517 116.942 90.7198 116.262 89.8143C108.79 91.6253 106.526 96.1528 102.224 104.755C101.319 102.491 103.356 100.68 103.13 98.643C99.0543 99.3221 95.8844 102.491 91.356 102.039C93.1674 100.228 96.1108 99.5485 96.7901 96.6056C96.5637 96.3792 96.3373 96.3792 96.1108 96.1528C95.2052 96.6056 94.9787 96.832 92.0352 96.3792C91.8088 95.9265 91.1296 95.2473 90.9031 95.021C88.8653 95.4737 87.7332 97.2847 86.1483 98.1902C86.3747 97.7375 86.8275 96.832 87.2804 96.3792C86.1483 97.2847 86.1483 97.2847 84.3369 98.8693C85.2426 96.832 85.2426 96.832 88.1861 93.4363C83.4312 97.9638 83.4312 97.9638 74.3743 105.434C77.0914 102.718 80.2613 100.228 82.9784 97.7375C82.9784 97.7375 76.6385 102.491 68.7138 110.414C68.9402 109.962 69.393 109.283 69.8459 108.83C64.8646 114.263 58.2983 121.733 53.5435 127.166C32.2598 155.01 31.8069 155.69 22.5236 171.083C22.75 170.857 22.75 170.63 22.9764 170.404C16.6366 186.25 16.6366 186.25 15.9574 190.551C15.5045 191.91 15.0517 193.494 14.5988 194.626C14.8252 195.079 15.2781 195.758 15.5045 196.211C13.4667 202.549 13.4667 202.549 11.4289 213.189C10.9761 215.679 11.4289 218.169 12.3346 220.433C12.1082 220.433 11.4289 220.207 10.7496 220.207C10.2968 220.207 10.2968 220.207 10.0704 219.98C9.84395 219.754 9.84395 219.754 9.61753 219.075C9.61753 218.622 9.16469 217.49 8.71184 217.264C8.71184 217.264 7.80615 220.886 8.71184 224.055C9.39111 226.545 11.2025 226.319 11.2025 226.319C11.6553 226.092 12.1082 225.64 12.3346 224.96C12.561 224.281 12.561 223.602 12.561 223.376C12.561 222.923 12.561 222.47 12.561 222.244C12.561 222.244 12.561 222.244 12.561 222.018C13.4667 224.508 14.3724 226.998 14.146 229.488C13.2403 229.035 12.1082 228.356 11.2025 227.903C0.560641 241.033 -3.06212 307.135 3.95698 319.585C5.08909 319.812 5.08909 319.812 20.4858 351.278C19.3537 351.278 17.9952 351.278 16.863 351.504C18.6744 355.353 32.2598 372.784 32.2598 373.01C33.3919 371.199 34.7504 369.388 28.637 360.559C25.6935 356.484 22.5236 351.957 17.0895 329.999C23.8821 334.979 24.5614 338.148 25.4671 342.223C26.1464 345.166 26.8256 348.335 28.1842 350.599C30.9012 355.126 34.2976 358.975 37.2411 363.276C41.0902 368.935 47.6565 371.878 50.8264 377.99C53.317 382.97 52.1849 389.535 57.3926 393.157C58.0719 393.61 59.204 394.063 60.1097 394.289C61.6947 394.968 63.506 395.874 65.091 396.327C70.5251 397.685 76.1857 398.59 81.6198 399.949C87.2804 401.307 93.1674 398.138 98.6015 401.307C111.281 408.551 111.281 408.551 115.583 409.004C116.262 409.004 117.168 409.23 117.847 409.23C137.546 411.946 145.924 436.621 167.66 435.716C177.396 419.643 183.283 438.885 185.321 447.94C186.001 450.883 186.001 450.883 180.566 462.655C180.566 462.881 175.359 484.387 177.396 488.235C177.849 488.914 178.302 489.82 178.755 490.499C185.774 501.138 214.983 529.888 215.209 530.114C222.228 536.226 231.964 537.585 239.436 543.018C245.097 547.093 249.399 555.242 251.437 565.882C251.437 566.334 262.758 616.59 282.23 643.981C306.91 678.843 330.911 674.995 331.137 674.768C308.042 662.997 308.042 662.997 310.306 653.263C307.136 649.867 307.136 649.867 301.023 633.342C301.929 633.115 301.929 633.115 306.231 633.115C306.231 632.662 306.231 632.662 301.023 625.418C305.099 621.796 305.099 621.796 304.872 618.853C305.099 618.627 305.551 618.401 305.778 618.174C313.023 620.438 315.288 614.552 313.476 611.836L311.438 608.893C327.741 608.44 334.534 569.051 334.76 568.825C337.024 563.844 343.138 560.901 345.855 559.77C351.515 557.279 351.742 550.715 355.817 546.866C357.629 545.282 359.214 545.055 360.572 545.282C362.836 545.508 363.063 545.508 363.516 543.471C364.195 538.49 363.742 533.51 363.968 528.756C364.195 526.04 362.383 523.097 364.195 520.38C366.233 517.211 367.138 516.079 365.553 514.042C365.327 513.589 364.874 513.136 364.874 512.683C378.459 507.703 383.214 492.989 383.214 492.762C383.214 492.536 383.214 492.31 383.214 492.31C383.214 490.725 381.856 489.367 381.629 487.782ZM40.6374 180.591C45.3923 179.006 50.6 177.422 55.8077 176.063C50.6 177.422 45.3923 179.006 40.6374 180.591ZM209.096 459.259C204.567 459.712 199.812 460.391 194.831 461.07C199.359 460.391 204.114 459.938 209.096 459.259ZM332.722 547.092C332.496 544.602 331.59 536.906 330.458 523.097C331.137 531.246 332.043 539.169 332.722 547.772C332.722 547.545 332.722 547.319 332.722 547.092Z" fill="url(#paint53_linear_27_8697)" fill-opacity="0.08"/>
<path d="M212.492 394.063C210.681 395.421 212.945 397.685 215.209 398.138C216.794 398.364 222.002 397.685 222.228 397.232C222.455 397.006 222.002 396.327 218.152 395.195C214.077 393.61 213.398 393.836 212.492 394.063Z" fill="url(#paint54_linear_27_8697)" fill-opacity="0.08"/>
<defs>
<linearGradient id="paint0_linear_27_8697" x1="170.91" y1="39.5592" x2="170.91" y2="42.5449" gradientUnits="userSpaceOnUse">
<stop offset="0.40625" stop-color="#00AFE5"/>
<stop offset="1" stop-color="#00AFE5" stop-opacity="0"/>
</linearGradient>
<linearGradient id="paint1_linear_27_8697" x1="167.321" y1="37.748" x2="167.321" y2="39.1063" gradientUnits="userSpaceOnUse">
<stop offset="0.40625" stop-color="#00AFE5"/>
<stop offset="1" stop-color="#00AFE5" stop-opacity="0"/>
</linearGradient>
<linearGradient id="paint2_linear_27_8697" x1="177.17" y1="31.636" x2="177.17" y2="35.9371" gradientUnits="userSpaceOnUse">
<stop offset="0.40625" stop-color="#00AFE5"/>
<stop offset="1" stop-color="#00AFE5" stop-opacity="0"/>
</linearGradient>
<linearGradient id="paint3_linear_27_8697" x1="170.264" y1="35.0315" x2="170.264" y2="40.2381" gradientUnits="userSpaceOnUse">
<stop offset="0.40625" stop-color="#00AFE5"/>
<stop offset="1" stop-color="#00AFE5" stop-opacity="0"/>
</linearGradient>
<linearGradient id="paint4_linear_27_8697" x1="177.17" y1="34.5787" x2="177.17" y2="37.2952" gradientUnits="userSpaceOnUse">
<stop offset="0.40625" stop-color="#00AFE5"/>
<stop offset="1" stop-color="#00AFE5" stop-opacity="0"/>
</linearGradient>
<linearGradient id="paint5_linear_27_8697" x1="161.252" y1="46.8031" x2="161.252" y2="49.2933" gradientUnits="userSpaceOnUse">
<stop offset="0.40625" stop-color="#00AFE5"/>
<stop offset="1" stop-color="#00AFE5" stop-opacity="0"/>
</linearGradient>
<linearGradient id="paint6_linear_27_8697" x1="156.566" y1="52.3619" x2="156.566" y2="66.8375" gradientUnits="userSpaceOnUse">
<stop offset="0.40625" stop-color="#00AFE5"/>
<stop offset="1" stop-color="#00AFE5" stop-opacity="0"/>
</linearGradient>
<linearGradient id="paint7_linear_27_8697" x1="150.226" y1="41.3701" x2="150.226" y2="54.2735" gradientUnits="userSpaceOnUse">
<stop offset="0.40625" stop-color="#00AFE5"/>
<stop offset="1" stop-color="#00AFE5" stop-opacity="0"/>
</linearGradient>
<linearGradient id="paint8_linear_27_8697" x1="139.744" y1="76.911" x2="139.744" y2="84.6078" gradientUnits="userSpaceOnUse">
<stop offset="0.40625" stop-color="#00AFE5"/>
<stop offset="1" stop-color="#00AFE5" stop-opacity="0"/>
</linearGradient>
<linearGradient id="paint9_linear_27_8697" x1="146.756" y1="56.7636" x2="146.756" y2="61.1008" gradientUnits="userSpaceOnUse">
<stop offset="0.40625" stop-color="#00AFE5"/>
<stop offset="1" stop-color="#00AFE5" stop-opacity="0"/>
</linearGradient>
<linearGradient id="paint10_linear_27_8697" x1="314.022" y1="0" x2="314.022" y2="105.467" gradientUnits="userSpaceOnUse">
<stop offset="0.40625" stop-color="#00AFE5"/>
<stop offset="1" stop-color="#00AFE5" stop-opacity="0"/>
</linearGradient>
<linearGradient id="paint11_linear_27_8697" x1="201.366" y1="73.4868" x2="201.366" y2="81.3567" gradientUnits="userSpaceOnUse">
<stop offset="0.40625" stop-color="#00AFE5"/>
<stop offset="1" stop-color="#00AFE5" stop-opacity="0"/>
</linearGradient>
<linearGradient id="paint12_linear_27_8697" x1="237.851" y1="5.60286" x2="237.851" y2="33.2206" gradientUnits="userSpaceOnUse">
<stop offset="0.40625" stop-color="#00AFE5"/>
<stop offset="1" stop-color="#00AFE5" stop-opacity="0"/>
</linearGradient>
<linearGradient id="paint13_linear_27_8697" x1="175.811" y1="36.3898" x2="175.811" y2="46.5767" gradientUnits="userSpaceOnUse">
<stop offset="0.40625" stop-color="#00AFE5"/>
<stop offset="1" stop-color="#00AFE5" stop-opacity="0"/>
</linearGradient>
<linearGradient id="paint14_linear_27_8697" x1="208.967" y1="45.0662" x2="208.967" y2="104.139" gradientUnits="userSpaceOnUse">
<stop offset="0.40625" stop-color="#00AFE5"/>
<stop offset="1" stop-color="#00AFE5" stop-opacity="0"/>
</linearGradient>
<linearGradient id="paint15_linear_27_8697" x1="158.377" y1="43.1811" x2="158.377" y2="44.8101" gradientUnits="userSpaceOnUse">
<stop offset="0.40625" stop-color="#00AFE5"/>
<stop offset="1" stop-color="#00AFE5" stop-opacity="0"/>
</linearGradient>
<linearGradient id="paint16_linear_27_8697" x1="282.068" y1="52.4624" x2="282.068" y2="57.4427" gradientUnits="userSpaceOnUse">
<stop offset="0.40625" stop-color="#00AFE5"/>
<stop offset="1" stop-color="#00AFE5" stop-opacity="0"/>
</linearGradient>
<linearGradient id="paint17_linear_27_8697" x1="208.487" y1="43.7697" x2="208.487" y2="47.6512" gradientUnits="userSpaceOnUse">
<stop offset="0.40625" stop-color="#00AFE5"/>
<stop offset="1" stop-color="#00AFE5" stop-opacity="0"/>
</linearGradient>
<linearGradient id="paint18_linear_27_8697" x1="191.548" y1="25.9767" x2="191.548" y2="31.4457" gradientUnits="userSpaceOnUse">
<stop offset="0.40625" stop-color="#00AFE5"/>
<stop offset="1" stop-color="#00AFE5" stop-opacity="0"/>
</linearGradient>
<linearGradient id="paint19_linear_27_8697" x1="180.283" y1="40.0117" x2="180.283" y2="44.932" gradientUnits="userSpaceOnUse">
<stop offset="0.40625" stop-color="#00AFE5"/>
<stop offset="1" stop-color="#00AFE5" stop-opacity="0"/>
</linearGradient>
<linearGradient id="paint20_linear_27_8697" x1="200.492" y1="27.5612" x2="200.492" y2="30.9569" gradientUnits="userSpaceOnUse">
<stop offset="0.40625" stop-color="#00AFE5"/>
<stop offset="1" stop-color="#00AFE5" stop-opacity="0"/>
</linearGradient>
<linearGradient id="paint21_linear_27_8697" x1="198.34" y1="25.5238" x2="198.34" y2="30.0513" gradientUnits="userSpaceOnUse">
<stop offset="0.40625" stop-color="#00AFE5"/>
<stop offset="1" stop-color="#00AFE5" stop-opacity="0"/>
</linearGradient>
<linearGradient id="paint22_linear_27_8697" x1="206.447" y1="20.9963" x2="206.447" y2="23.5466" gradientUnits="userSpaceOnUse">
<stop offset="0.40625" stop-color="#00AFE5"/>
<stop offset="1" stop-color="#00AFE5" stop-opacity="0"/>
</linearGradient>
<linearGradient id="paint23_linear_27_8697" x1="217.524" y1="14.6578" x2="217.524" y2="25.5238" gradientUnits="userSpaceOnUse">
<stop offset="0.40625" stop-color="#00AFE5"/>
<stop offset="1" stop-color="#00AFE5" stop-opacity="0"/>
</linearGradient>
<linearGradient id="paint24_linear_27_8697" x1="200.557" y1="32.768" x2="200.557" y2="43.8604" gradientUnits="userSpaceOnUse">
<stop offset="0.40625" stop-color="#00AFE5"/>
<stop offset="1" stop-color="#00AFE5" stop-opacity="0"/>
</linearGradient>
<linearGradient id="paint25_linear_27_8697" x1="574.026" y1="54.0472" x2="574.026" y2="619.287" gradientUnits="userSpaceOnUse">
<stop offset="0.40625" stop-color="#00AFE5"/>
<stop offset="1" stop-color="#00AFE5" stop-opacity="0"/>
</linearGradient>
<linearGradient id="paint26_linear_27_8697" x1="665.903" y1="250.541" x2="665.903" y2="291.741" gradientUnits="userSpaceOnUse">
<stop offset="0.40625" stop-color="#00AFE5"/>
<stop offset="1" stop-color="#00AFE5" stop-opacity="0"/>
</linearGradient>
<linearGradient id="paint27_linear_27_8697" x1="657.412" y1="231.525" x2="657.412" y2="251.22" gradientUnits="userSpaceOnUse">
<stop offset="0.40625" stop-color="#00AFE5"/>
<stop offset="1" stop-color="#00AFE5" stop-opacity="0"/>
</linearGradient>
<linearGradient id="paint28_linear_27_8697" x1="671.563" y1="292.194" x2="671.563" y2="307.135" gradientUnits="userSpaceOnUse">
<stop offset="0.40625" stop-color="#00AFE5"/>
<stop offset="1" stop-color="#00AFE5" stop-opacity="0"/>
</linearGradient>
<linearGradient id="paint29_linear_27_8697" x1="478.629" y1="128.751" x2="478.629" y2="154.802" gradientUnits="userSpaceOnUse">
<stop offset="0.40625" stop-color="#00AFE5"/>
<stop offset="1" stop-color="#00AFE5" stop-opacity="0"/>
</linearGradient>
<linearGradient id="paint30_linear_27_8697" x1="142.754" y1="50.4251" x2="142.754" y2="54.9526" gradientUnits="userSpaceOnUse">
<stop offset="0.40625" stop-color="#00AFE5"/>
<stop offset="1" stop-color="#00AFE5" stop-opacity="0"/>
</linearGradient>
<linearGradient id="paint31_linear_27_8697" x1="634.737" y1="284.95" x2="634.737" y2="291.146" gradientUnits="userSpaceOnUse">
<stop offset="0.40625" stop-color="#00AFE5"/>
<stop offset="1" stop-color="#00AFE5" stop-opacity="0"/>
</linearGradient>
<linearGradient id="paint32_linear_27_8697" x1="579.79" y1="235.147" x2="579.79" y2="250.116" gradientUnits="userSpaceOnUse">
<stop offset="0.40625" stop-color="#00AFE5"/>
<stop offset="1" stop-color="#00AFE5" stop-opacity="0"/>
</linearGradient>
<linearGradient id="paint33_linear_27_8697" x1="556.165" y1="240.298" x2="556.165" y2="243.843" gradientUnits="userSpaceOnUse">
<stop offset="0.40625" stop-color="#00AFE5"/>
<stop offset="1" stop-color="#00AFE5" stop-opacity="0"/>
</linearGradient>
<linearGradient id="paint34_linear_27_8697" x1="577.484" y1="220.207" x2="577.484" y2="232.431" gradientUnits="userSpaceOnUse">
<stop offset="0.40625" stop-color="#00AFE5"/>
<stop offset="1" stop-color="#00AFE5" stop-opacity="0"/>
</linearGradient>
<linearGradient id="paint35_linear_27_8697" x1="651.438" y1="294.59" x2="651.438" y2="300.343" gradientUnits="userSpaceOnUse">
<stop offset="0.40625" stop-color="#00AFE5"/>
<stop offset="1" stop-color="#00AFE5" stop-opacity="0"/>
</linearGradient>
<linearGradient id="paint36_linear_27_8697" x1="114.451" y1="62.1966" x2="114.451" y2="86.1924" gradientUnits="userSpaceOnUse">
<stop offset="0.40625" stop-color="#00AFE5"/>
<stop offset="1" stop-color="#00AFE5" stop-opacity="0"/>
</linearGradient>
<linearGradient id="paint37_linear_27_8697" x1="151.783" y1="41.5963" x2="151.783" y2="58.1217" gradientUnits="userSpaceOnUse">
<stop offset="0.40625" stop-color="#00AFE5"/>
<stop offset="1" stop-color="#00AFE5" stop-opacity="0"/>
</linearGradient>
<linearGradient id="paint38_linear_27_8697" x1="119.678" y1="61.5176" x2="119.678" y2="96.3794" gradientUnits="userSpaceOnUse">
<stop offset="0.40625" stop-color="#00AFE5"/>
<stop offset="1" stop-color="#00AFE5" stop-opacity="0"/>
</linearGradient>
<linearGradient id="paint39_linear_27_8697" x1="176.654" y1="109.509" x2="176.654" y2="114.18" gradientUnits="userSpaceOnUse">
<stop offset="0.40625" stop-color="#00AFE5"/>
<stop offset="1" stop-color="#00AFE5" stop-opacity="0"/>
</linearGradient>
<linearGradient id="paint40_linear_27_8697" x1="165.201" y1="93.4364" x2="165.201" y2="109.735" gradientUnits="userSpaceOnUse">
<stop offset="0.40625" stop-color="#00AFE5"/>
<stop offset="1" stop-color="#00AFE5" stop-opacity="0"/>
</linearGradient>
<linearGradient id="paint41_linear_27_8697" x1="165.592" y1="107.88" x2="165.592" y2="113.441" gradientUnits="userSpaceOnUse">
<stop offset="0.40625" stop-color="#00AFE5"/>
<stop offset="1" stop-color="#00AFE5" stop-opacity="0"/>
</linearGradient>
<linearGradient id="paint42_linear_27_8697" x1="158.436" y1="384.953" x2="158.436" y2="389.479" gradientUnits="userSpaceOnUse">
<stop offset="0.40625" stop-color="#00AFE5"/>
<stop offset="1" stop-color="#00AFE5" stop-opacity="0"/>
</linearGradient>
<linearGradient id="paint43_linear_27_8697" x1="497.076" y1="141.428" x2="497.076" y2="142.333" gradientUnits="userSpaceOnUse">
<stop offset="0.40625" stop-color="#00AFE5"/>
<stop offset="1" stop-color="#00AFE5" stop-opacity="0"/>
</linearGradient>
<linearGradient id="paint44_linear_27_8697" x1="266.327" y1="160.67" x2="266.327" y2="193.494" gradientUnits="userSpaceOnUse">
<stop offset="0.40625" stop-color="#00AFE5"/>
<stop offset="1" stop-color="#00AFE5" stop-opacity="0"/>
</linearGradient>
<linearGradient id="paint45_linear_27_8697" x1="504.35" y1="109.509" x2="504.35" y2="166.441" gradientUnits="userSpaceOnUse">
<stop offset="0.40625" stop-color="#00AFE5"/>
<stop offset="1" stop-color="#00AFE5" stop-opacity="0"/>
</linearGradient>
<linearGradient id="paint46_linear_27_8697" x1="10.2488" y1="200.286" x2="10.2488" y2="212.736" gradientUnits="userSpaceOnUse">
<stop offset="0.40625" stop-color="#00AFE5"/>
<stop offset="1" stop-color="#00AFE5" stop-opacity="0"/>
</linearGradient>
<linearGradient id="paint47_linear_27_8697" x1="409.15" y1="65.3408" x2="409.15" y2="83.2496" gradientUnits="userSpaceOnUse">
<stop offset="0.40625" stop-color="#00AFE5"/>
<stop offset="1" stop-color="#00AFE5" stop-opacity="0"/>
</linearGradient>
<linearGradient id="paint48_linear_27_8697" x1="156.34" y1="356.416" x2="156.34" y2="379.627" gradientUnits="userSpaceOnUse">
<stop offset="0.40625" stop-color="#00AFE5"/>
<stop offset="1" stop-color="#00AFE5" stop-opacity="0"/>
</linearGradient>
<linearGradient id="paint49_linear_27_8697" x1="188.831" y1="381.821" x2="188.831" y2="395.656" gradientUnits="userSpaceOnUse">
<stop offset="0.40625" stop-color="#00AFE5"/>
<stop offset="1" stop-color="#00AFE5" stop-opacity="0"/>
</linearGradient>
<linearGradient id="paint50_linear_27_8697" x1="234.109" y1="176.446" x2="234.109" y2="181.063" gradientUnits="userSpaceOnUse">
<stop offset="0.40625" stop-color="#00AFE5"/>
<stop offset="1" stop-color="#00AFE5" stop-opacity="0"/>
</linearGradient>
<linearGradient id="paint51_linear_27_8697" x1="582.013" y1="547.319" x2="582.013" y2="598.48" gradientUnits="userSpaceOnUse">
<stop offset="0.40625" stop-color="#00AFE5"/>
<stop offset="1" stop-color="#00AFE5" stop-opacity="0"/>
</linearGradient>
<linearGradient id="paint52_linear_27_8697" x1="22.382" y1="171.14" x2="22.382" y2="171.31" gradientUnits="userSpaceOnUse">
<stop offset="0.40625" stop-color="#00AFE5"/>
<stop offset="1" stop-color="#00AFE5" stop-opacity="0"/>
</linearGradient>
<linearGradient id="paint53_linear_27_8697" x1="191.778" y1="45.9752" x2="191.778" y2="675" gradientUnits="userSpaceOnUse">
<stop offset="0.40625" stop-color="#00AFE5"/>
<stop offset="1" stop-color="#00AFE5" stop-opacity="0"/>
</linearGradient>
<linearGradient id="paint54_linear_27_8697" x1="217.055" y1="393.903" x2="217.055" y2="398.183" gradientUnits="userSpaceOnUse">
<stop offset="0.40625" stop-color="#00AFE5"/>
<stop offset="1" stop-color="#00AFE5" stop-opacity="0"/>
</linearGradient>
</defs>
</svg>
