<svg width="825" height="413" viewBox="0 0 825 413" fill="none" xmlns="http://www.w3.org/2000/svg">
<path d="M822.768 64.5328C822.023 63.3821 821.279 62.2315 822.023 61.0808C822.768 60.6973 823.884 60.3137 825 59.9302C824.256 59.1631 823.884 58.7795 823.14 58.7795C816.814 56.4782 810.861 54.1769 804.536 53.4098C803.791 54.1769 802.675 54.944 801.931 54.944C799.326 54.5604 796.722 54.1769 795.233 52.2591C794.861 51.492 794.117 51.492 793.373 51.8755C793.001 51.8755 791.885 51.8755 791.885 51.492C790.396 49.5742 788.164 49.9578 785.931 49.5742C782.955 48.8071 779.978 48.8071 777.001 46.8894C776.257 46.1222 774.769 46.1222 773.653 45.7387C768.443 45.3551 763.979 43.4374 758.769 42.6703C755.793 40.7525 752.444 40.369 749.095 40.7525C744.258 39.6018 739.421 38.8347 734.584 39.2183C733.096 39.2183 731.979 38.8347 730.491 38.4512C727.887 38.0676 725.654 37.6841 723.049 38.4512C723.794 40.369 726.398 40.369 726.026 43.0538C724.91 43.4374 723.422 43.8209 722.305 44.588C720.445 43.8209 718.956 42.6703 717.096 42.6703C715.236 42.2867 713.375 41.5196 713.375 38.8347C712.259 38.4512 711.143 38.4512 710.399 38.4512C707.794 40.7525 706.678 41.5196 704.073 40.7525C699.98 39.9854 695.887 39.9854 691.794 39.9854C688.818 39.9854 685.469 39.9854 682.492 39.9854C679.888 39.9854 677.655 38.8347 676.167 37.3005C674.679 35.7663 673.562 35.3828 672.074 34.6157C669.097 33.8486 665.749 33.0814 662.772 32.3143H662.028C658.679 33.465 655.33 31.5472 651.982 32.6979C650.493 33.0814 649.377 33.465 647.889 33.465C645.656 33.465 643.424 32.6979 641.191 33.465C640.819 33.465 640.075 33.0814 639.331 32.6979C637.098 31.9308 635.238 30.3966 633.005 30.3966C631.517 30.3966 629.657 30.013 628.168 30.013C626.68 30.013 625.192 29.2459 624.075 28.4788C622.215 26.9446 619.983 25.7939 617.75 26.561C617.378 26.561 616.634 26.561 615.89 26.561C614.773 26.561 613.657 26.561 612.541 27.7117C611.797 28.8624 610.68 28.4788 609.564 27.3282C607.332 25.0268 604.355 23.8762 601.378 24.6433C599.518 25.0268 597.658 25.4104 595.797 24.6433C593.565 23.8762 590.96 23.8762 588.728 23.8762C588.356 23.8762 588.355 23.8762 587.611 24.2597C587.239 25.0268 586.867 25.7939 586.495 26.1775C587.239 27.3282 587.611 28.0953 588.355 28.8624C587.611 29.6295 586.495 30.3966 585.379 30.013C585.007 30.013 583.89 29.6295 583.89 30.013C582.774 31.9308 581.658 31.1637 580.17 30.7801C577.565 30.013 574.961 30.013 572.356 30.7801C570.123 31.5472 568.263 31.5472 566.031 30.7801C564.914 30.3966 563.426 30.3966 562.31 30.013C561.566 31.5472 562.682 33.465 561.193 34.6157C558.217 33.8486 554.868 32.6979 551.891 31.5472C550.775 31.1637 550.031 30.3966 549.287 29.6295C548.543 28.4788 547.798 27.7117 546.31 27.3282C544.822 26.9446 543.706 25.7939 542.961 24.2597C542.217 23.1091 541.845 23.1091 540.729 22.342C537.752 20.8078 534.776 20.8078 531.799 19.6571C531.055 19.6571 530.311 19.6571 529.938 20.0406C529.194 20.4242 528.45 20.0406 527.334 20.0406C525.101 19.6571 522.869 20.0406 520.636 18.89C520.264 18.5064 519.52 18.89 519.148 19.2735C518.776 20.0406 518.776 20.8078 518.776 21.5749C518.404 21.5749 518.032 21.9584 517.66 21.9584C514.311 22.342 510.962 21.5749 507.614 22.7255H506.869C505.753 21.5749 504.265 22.342 502.776 21.9584C501.66 21.5749 500.172 21.1913 499.428 20.4242C498.311 19.6571 497.567 19.2735 496.451 19.2735C493.102 19.2735 489.382 19.2735 486.033 19.2735C485.289 19.2735 484.172 19.2735 483.428 19.6571C481.196 20.4242 479.335 20.8078 477.475 18.89C477.103 18.5064 476.731 18.5064 476.359 18.5064C473.754 18.5064 470.777 16.9722 468.173 19.2735C468.173 19.2735 467.429 19.2735 467.057 19.2735C464.452 19.2735 462.964 21.1913 460.731 21.5749C458.499 22.342 456.266 21.9584 454.034 22.342C453.662 22.342 453.289 22.7255 452.545 22.7255C452.917 20.0406 455.15 19.2735 456.266 17.7393C458.871 17.3558 460.359 15.438 462.219 13.9038C462.592 13.5202 463.336 13.1367 464.08 13.1367C466.312 13.1367 467.801 11.2189 469.289 10.4518C465.94 6.99984 465.94 6.99984 461.847 6.23274C460.731 6.23274 459.987 5.84918 458.871 5.46563C458.127 5.08208 457.382 4.69852 456.638 4.69852C452.173 4.69852 447.708 3.93142 443.243 5.08208C441.383 5.46563 439.522 5.08208 438.406 3.16431C438.034 2.78076 437.662 2.39721 437.29 2.01365C436.174 2.39721 434.685 2.78076 433.569 2.78076C432.453 2.78076 431.337 1.6301 430.22 1.24655C425.755 -0.287665 421.662 -0.671218 417.197 1.6301C417.57 2.78076 417.57 4.31497 416.453 5.08208C415.337 5.08208 414.221 5.46563 413.105 5.46563C411.244 6.23274 409.756 6.99984 407.895 8.1505C406.779 7.76695 405.663 7.3834 404.547 6.99984C404.175 4.69852 402.686 5.84918 401.57 6.23274C400.082 6.61629 398.965 8.1505 397.105 6.99984C396.733 6.99984 395.989 7.3834 395.617 7.76695C395.245 7.76695 394.873 8.53406 394.5 8.1505C392.64 6.99984 391.152 8.53406 389.291 8.91761C387.431 9.30116 385.943 10.0683 384.082 10.0683C381.478 10.0683 379.245 10.8354 377.385 12.7531C376.268 12.3696 375.524 11.986 374.78 11.6025C374.78 11.6025 374.408 11.6025 374.036 11.986C373.664 12.3696 373.292 12.7531 372.92 13.5202C372.548 13.9038 372.176 14.2874 371.431 15.0545C372.92 15.438 374.408 15.8216 375.524 16.2051C375.152 18.89 374.78 19.2735 373.292 19.6571C372.548 19.6571 371.431 20.0406 370.687 19.6571C366.966 18.89 363.245 20.0406 359.525 19.6571C358.78 19.6571 358.036 20.0406 358.036 20.8078V21.1913C359.153 22.342 360.269 23.8762 361.385 25.0268C362.501 25.7939 363.99 25.7939 365.478 26.1775C366.594 26.561 367.338 26.561 367.711 27.7117C366.594 28.4788 365.106 28.4788 363.618 28.0953C364.734 26.9446 363.618 26.561 362.501 26.561C358.78 26.561 355.432 25.7939 351.711 25.0268C350.967 24.6433 350.223 25.4104 350.223 26.561C350.967 26.561 352.083 26.9446 353.199 26.9446C351.711 27.3282 350.223 27.3282 349.106 27.7117C351.339 29.6295 351.339 29.6295 350.967 31.5472C349.478 31.5472 347.618 31.5472 345.758 31.5472C344.641 29.2459 343.525 26.9446 342.409 24.2597C342.409 26.9446 340.548 27.3282 339.432 28.0953C338.316 28.8624 338.316 30.3966 339.06 31.1637C339.804 31.5472 340.548 32.3143 341.293 32.6979C342.409 33.465 343.525 34.6157 343.153 36.917C343.153 37.6841 343.525 38.8347 343.897 39.6018C344.269 40.369 345.386 41.1361 345.758 41.5196C346.874 42.6703 347.99 43.0538 349.478 42.2867C350.967 41.9032 352.455 40.7525 354.315 41.1361C355.06 41.1361 355.804 41.5196 355.432 42.2867C354.316 42.6703 353.199 42.6703 352.083 43.0538C350.967 43.4374 349.478 43.8209 349.851 45.7387C350.967 46.5058 352.455 46.8894 352.455 48.04C352.083 49.9578 351.339 51.8755 351.339 53.0262C349.851 53.7933 348.734 54.5604 347.618 55.3275C347.246 55.7111 346.874 56.0946 346.502 56.4782C345.386 56.8617 344.641 56.8617 343.897 56.0946C343.153 55.3275 342.781 54.1769 343.897 53.4098C345.385 52.6427 345.013 50.7249 346.13 49.9578C346.874 49.1907 346.874 48.8071 346.502 47.6565C346.13 46.8894 346.502 46.1222 346.502 44.9716C344.641 43.8209 342.781 43.0538 341.665 42.2867C340.548 40.369 340.176 38.8347 339.06 37.3005C338.316 36.1499 337.572 35.3828 337.572 33.8486C337.572 32.3143 336.456 31.5472 334.967 31.1637C334.595 31.1637 333.851 31.1637 333.107 31.1637C331.618 30.7801 331.246 30.013 331.246 28.8624C331.246 27.7117 331.618 26.1775 331.991 24.6433C327.526 21.9584 322.688 22.342 318.223 23.4926C318.223 25.0268 318.223 26.561 318.223 27.7117C317.479 28.4788 317.107 28.8624 316.735 29.6295C316.363 30.7801 315.991 31.1637 315.619 31.5472C317.479 34.2321 317.479 34.2321 318.223 38.8347C320.828 38.0676 323.061 39.2183 324.921 40.7525C326.037 41.5196 326.781 43.0538 328.27 43.0538C328.642 43.0538 328.642 44.2045 328.642 44.588C328.27 45.7387 327.526 46.5058 326.409 46.8894C323.061 45.3551 319.712 43.8209 315.991 42.2867C312.27 41.1361 308.549 40.369 304.456 39.6018C301.852 39.2183 299.619 38.4512 297.015 38.8347C295.899 38.8347 294.41 38.8347 292.922 39.2183C294.038 39.9854 294.782 40.369 295.154 40.7525C295.526 41.5196 295.899 42.6703 296.271 43.4374C293.666 44.2045 292.178 47.2729 289.201 45.3551C288.829 44.2045 288.829 43.0538 288.457 41.9032C287.713 42.2867 287.341 42.2867 286.969 42.2867C285.852 43.0538 284.736 44.588 282.876 43.4374L281.759 43.8209C279.155 45.3551 275.434 43.8209 272.829 46.1222H272.457C270.969 46.1222 269.481 45.7387 267.62 45.7387C267.62 44.588 267.248 43.8209 267.248 42.6703C265.388 42.2867 263.899 43.8209 262.783 44.588C261.667 45.3551 260.551 45.7387 259.434 45.3551C259.062 44.9716 258.318 45.3551 257.946 45.7387C256.086 47.2729 253.853 48.4236 251.249 48.8071C249.76 49.1907 248.644 49.9578 247.528 51.1084C246.784 51.492 246.784 53.0262 246.412 53.7933C244.923 53.7933 243.807 53.7933 242.319 53.7933C239.342 54.1769 237.11 52.6427 235.993 50.3413C235.993 47.6565 238.97 48.4236 240.458 46.8894C237.482 46.8894 235.249 43.8209 232.272 45.3551C232.272 46.8894 232.272 48.8071 232.272 50.3413C233.389 51.492 234.505 52.2591 235.621 53.4098C235.249 54.944 234.877 56.4782 234.133 58.0124C233.389 58.0124 232.272 58.0124 231.9 57.6288C230.412 56.0946 228.552 56.0946 226.691 56.0946C225.575 56.8617 224.459 57.6288 223.342 58.0124C222.226 58.396 221.11 58.7795 219.622 59.5466C219.25 61.0808 218.877 62.2315 220.366 63.3821C220.738 63.7657 220.738 64.5328 221.11 64.9163C218.133 66.4506 215.529 65.6835 212.924 65.6835C212.552 66.8341 212.18 67.9848 211.808 68.7519C211.064 70.6696 209.947 71.0532 208.087 70.2861C205.482 69.1354 202.878 67.9848 200.273 66.8341C198.413 66.067 196.18 62.615 196.18 61.0808C196.18 58.7795 195.064 57.6288 193.204 56.8617C192.46 56.4782 191.715 56.4782 190.971 56.0946C190.971 55.3275 190.599 54.1769 190.971 53.7933C191.343 53.4098 192.46 53.0262 193.204 53.0262H193.576C195.064 54.5604 196.925 53.7933 198.413 54.5604C199.901 55.3275 202.134 55.7111 203.622 55.7111C206.227 55.7111 208.459 56.4782 210.32 57.2453C212.552 56.4782 214.412 56.0946 216.273 55.7111C217.017 55.3275 217.761 54.944 218.133 54.1769C220.366 51.8755 219.994 49.9578 217.389 48.8071C215.529 48.4236 214.412 47.2729 213.668 46.1222C212.18 46.5058 210.692 47.2729 209.575 46.1222C208.459 45.3551 207.343 45.3551 206.227 44.588C202.878 43.4374 199.529 41.9032 196.18 41.1361C194.32 40.369 192.46 39.9854 190.599 40.369C188.367 40.7525 187.25 39.9854 185.762 38.8347C184.274 37.6841 182.413 36.5334 180.553 38.0676L179.437 38.4512C177.576 37.6841 175.344 37.6841 174.228 36.1499C174.228 35.3828 174.228 34.2321 174.228 33.465C172.367 33.0814 171.251 32.6979 169.39 32.3143C167.902 31.9308 166.042 31.9308 164.181 31.5472C163.809 33.465 163.437 33.8486 162.693 34.6157C161.949 34.9992 161.205 35.3828 160.46 35.7663C159.716 34.2321 158.6 33.0815 156.74 33.8486C155.623 31.9308 154.135 34.6157 153.019 33.8486C151.53 33.0815 150.042 34.2321 148.554 34.6157C148.182 34.9992 147.438 35.3828 147.065 35.3828C145.205 34.9992 143.717 36.1499 142.228 36.917C140.368 38.0676 138.508 38.8347 136.275 38.4512C134.787 38.0676 134.043 38.0676 132.926 39.2183C132.554 39.6018 131.438 39.2183 130.322 39.2183C128.461 41.1361 128.461 41.1361 125.113 41.1361C124.741 41.9032 124.741 42.6703 124.368 43.4374C122.508 43.4374 120.648 43.8209 118.787 43.8209C118.043 43.8209 117.299 44.2045 116.183 44.2045L115.811 44.9716L116.183 45.7387C116.927 46.1222 118.043 46.1223 118.787 46.5058C119.159 47.6565 118.787 48.4236 118.043 48.8071C116.927 49.5742 116.183 49.9578 115.438 51.492C115.066 52.6427 113.95 54.1769 112.834 54.5604C110.601 55.3275 109.485 57.2453 108.369 59.163C107.625 60.3137 107.625 62.2315 106.881 62.9986C105.764 64.1492 104.276 64.5328 102.788 65.2999C102.416 65.6835 102.043 65.6835 101.671 66.067C99.4389 68.3683 97.2064 70.6696 94.9739 72.5874C93.1135 74.1216 91.6252 71.4367 90.5089 72.971C89.3927 74.1216 87.5322 73.7381 86.7881 75.6558L86.416 76.0394C83.0673 76.4229 81.5789 79.1078 78.6023 80.2585C77.8581 80.642 76.7419 81.4091 76.3698 82.1762C75.6256 84.8611 74.5094 87.1624 75.2535 89.8473C75.9977 90.6144 76.7419 90.9979 77.8581 91.7651C77.486 93.6828 75.2535 94.8335 76.3698 96.7513C77.1139 97.1348 77.8581 97.5184 78.6023 97.9019C78.6023 99.0526 78.6023 100.203 78.6023 100.97C80.4627 102.121 81.951 102.888 83.4394 104.039C84.1835 104.806 85.2998 104.806 86.416 104.422C89.3927 102.505 92.7414 100.97 95.7181 99.0526C96.8343 98.2855 98.3226 97.5184 99.811 96.7513C100.927 96.3677 102.043 97.1348 102.416 98.2855C102.416 99.0526 102.416 99.8197 102.788 100.587C103.16 101.737 103.16 102.888 103.532 104.039C105.392 106.34 106.136 109.025 108.369 110.943C109.857 111.71 109.857 113.244 109.113 114.778C108.741 115.545 108.369 116.696 108.741 117.08C109.857 118.23 107.997 119.764 109.113 120.915C110.973 122.449 112.834 120.532 114.322 121.299H115.066C115.438 120.915 115.811 120.532 115.811 119.764C115.811 118.997 115.438 118.614 115.438 117.847C116.927 116.696 118.043 115.929 119.903 116.696C120.648 117.08 122.136 117.08 122.508 116.696C123.252 115.545 125.113 115.545 125.857 114.778C126.229 114.395 126.601 114.011 126.973 113.244C126.229 112.86 125.857 112.477 125.485 112.093C127.345 109.025 126.601 105.957 126.229 102.505C127.717 102.121 128.833 101.354 130.322 100.97C132.554 100.203 134.787 99.8197 134.787 96.7513C134.787 96.3677 135.531 95.6006 135.903 95.217C133.671 92.9157 133.671 92.9157 133.298 90.998C131.81 90.6144 130.322 90.2308 128.833 89.8473C128.461 88.6966 126.973 87.1624 128.089 85.6282C128.833 84.4775 128.089 83.3269 128.089 82.1762C130.694 78.7243 133.298 75.2723 137.763 74.1216C139.996 73.7381 141.484 72.2038 142.973 70.2861C144.089 69.1354 144.089 67.6012 143.345 66.4506C144.833 63.7657 147.065 62.9986 148.926 61.4644C152.275 61.4644 155.623 61.0808 158.6 62.9986C159.344 63.3821 159.344 64.1492 158.6 64.9163C157.856 64.9163 157.112 64.9163 156.368 64.9163C156.368 65.6834 157.484 66.4506 156.74 67.2177C156.368 67.6012 155.995 67.9848 155.623 68.3683C153.019 70.6696 150.042 71.8203 147.438 73.7381C147.065 74.1216 146.693 74.1216 146.321 74.5052C145.577 74.5052 144.833 74.5052 144.461 74.5052C144.089 74.5052 143.717 74.8887 143.345 75.2723C143.717 76.0394 144.089 76.4229 144.833 76.8065C143.717 77.9572 143.345 78.7243 144.089 80.2585C145.205 82.1762 145.577 84.094 146.321 86.0118C145.949 87.1624 145.205 87.546 145.205 88.3131C145.577 90.6144 147.438 91.7651 148.926 93.2993C150.414 93.2993 151.903 94.0664 153.019 94.8335C153.763 95.217 155.251 95.217 156.368 94.4499C158.6 92.9157 161.577 92.5322 163.809 92.5322C165.298 92.5322 166.414 92.1486 167.902 91.7651C170.879 90.9979 174.228 90.2308 177.204 91.7651C178.32 92.1486 179.065 92.9157 178.693 94.8335C175.716 95.6006 173.111 97.1348 169.763 96.7513C168.274 96.3677 166.786 95.9841 165.298 96.3677C163.809 96.7513 161.949 96.7513 160.46 97.1348C158.6 97.5184 156.368 97.9019 155.623 100.587C155.251 101.737 154.135 101.737 153.391 102.121C153.019 102.888 151.903 102.888 151.158 102.888C150.414 102.888 149.298 102.888 148.926 104.039C149.298 104.806 149.67 105.573 150.414 106.34C152.275 105.573 154.135 104.806 155.623 104.039C157.484 104.422 158.6 104.806 160.088 105.189C160.088 106.34 160.088 107.491 160.46 109.025C160.833 111.326 160.46 112.093 158.228 112.093C156.74 112.093 155.995 111.326 154.879 110.176C154.135 109.409 153.763 108.641 153.019 107.874C151.53 108.258 150.414 108.641 149.298 109.025L148.554 109.409C147.81 111.326 145.577 112.477 146.693 114.778C145.949 116.312 146.321 118.23 146.693 119.764C147.066 120.915 146.693 121.682 145.949 122.066C145.205 122.833 144.089 123.6 143.345 123.984C142.6 124.367 141.856 124.751 141.856 125.134C140.74 127.052 139.252 127.435 137.019 127.052C137.019 126.668 137.019 125.901 136.647 125.518C135.903 124.751 134.787 123.984 133.298 124.367C132.554 124.751 131.81 125.134 131.066 125.518C129.206 125.901 127.345 125.901 126.229 127.819L125.485 128.203C122.88 128.203 120.648 129.737 118.043 130.887C116.183 129.353 114.694 127.819 112.834 125.901C112.462 126.285 111.718 127.052 111.346 127.052C109.857 127.052 108.741 127.436 107.625 128.203C106.508 128.97 105.02 129.353 103.904 129.737C103.16 129.737 102.416 130.12 102.416 128.586C103.904 127.052 106.508 127.052 107.253 124.751C107.997 122.833 109.857 120.915 109.113 118.614C106.881 118.614 106.881 118.614 103.532 120.148C103.16 120.148 103.16 120.532 102.788 120.915C103.16 121.682 103.904 122.449 104.648 123.6C101.671 123.984 101.671 123.6 101.299 119.764C100.555 119.764 99.4389 120.915 98.3227 119.764C98.6947 119.381 99.0668 118.997 99.4389 118.614C100.927 117.463 100.927 116.696 99.811 115.929C98.3226 114.778 98.3227 112.86 97.2064 111.326C94.2298 112.477 91.9973 114.395 89.3927 116.312C89.7648 117.847 90.1368 119.381 90.5089 120.532C90.881 122.833 91.6252 124.751 93.4856 125.901C93.1135 127.052 92.7414 128.203 92.7414 128.97C92.7414 130.12 92.7414 131.271 91.6252 131.655C90.5089 132.422 89.0206 133.189 87.5323 132.805C84.5556 132.038 81.951 133.189 78.9744 133.956C78.6023 133.956 77.486 134.339 77.486 134.723C76.7419 136.641 74.8814 136.641 73.3931 137.024C71.9048 140.476 69.3002 143.161 66.6956 145.846C64.8352 147.38 62.9748 148.147 61.1144 148.531C59.6261 148.914 58.1377 149.682 58.1377 151.599C58.1377 153.134 57.0215 154.284 55.5331 154.668C54.4169 155.435 53.3007 155.818 52.1844 156.586C50.324 158.503 48.0915 158.503 45.859 157.736C44.7428 157.353 43.6265 156.586 42.5103 155.818C42.1382 157.736 43.6265 159.654 42.5103 161.955C40.6498 161.572 39.1615 162.339 37.6732 163.489C34.6965 161.955 34.6965 161.955 31.7199 162.722C30.2315 161.188 29.4874 161.188 28.7432 161.188C28.7432 162.722 29.1153 163.873 30.6036 164.257C31.3478 164.64 32.0919 165.407 33.2082 165.791C34.6965 166.558 36.5569 166.941 37.6732 168.092C39.1615 169.243 39.9057 171.161 41.0219 172.311C41.394 173.078 42.1382 173.462 42.1382 174.229C42.1382 176.147 43.6265 177.297 43.9986 179.215C43.2544 181.133 41.7661 183.051 42.8823 185.736C42.8823 186.119 42.5103 186.503 42.5103 186.886C41.7661 189.188 41.0219 191.105 39.5336 193.407C35.8128 193.023 32.464 195.708 29.1153 192.64C26.5107 194.174 23.534 193.79 21.3015 193.023C18.697 191.872 16.4645 191.872 13.8599 193.023C12.7436 192.256 11.9995 191.872 11.2553 191.489C10.1391 191.105 8.65074 191.105 8.27865 191.872C7.16241 193.79 5.30199 193.407 3.81366 194.557C3.81366 195.324 3.81366 196.091 3.81366 196.859C3.81366 197.626 4.55783 198.393 4.55783 199.16C4.18575 200.694 3.81366 202.228 3.81366 203.379C3.81366 204.913 4.55783 206.447 4.18575 207.982C4.18575 209.899 3.81366 212.201 3.0695 214.118C2.69742 215.269 2.69742 217.187 1.58117 217.954C-0.279246 219.105 -0.279246 221.022 0.464919 222.94C1.20908 222.94 1.95325 223.324 2.69742 223.707C2.69742 226.392 1.20908 229.077 3.0695 231.762C4.55783 232.529 6.04616 232.529 7.53449 232.145C8.65074 231.762 9.3949 232.145 10.5112 232.145C11.9995 232.145 13.1157 232.913 13.4878 234.063C14.232 236.365 16.0924 237.899 17.2086 239.817H19.0691C19.0691 238.666 19.4411 237.899 20.1853 237.132C20.9295 237.132 21.6736 237.132 21.6736 236.748C23.534 234.83 25.3945 234.447 27.999 234.83C30.2315 234.83 32.8361 234.83 35.4407 234.83C36.1849 234.063 36.5569 232.913 37.3011 232.145C38.0453 231.378 38.7894 230.228 39.9057 230.228C41.394 230.228 42.5103 229.077 42.8823 227.543C43.2544 225.242 44.3707 224.091 46.2311 222.94C46.6032 222.557 46.9753 222.557 47.3473 222.173C46.6032 221.406 45.1148 221.022 45.859 219.105C46.2311 217.954 45.859 216.803 45.859 215.653C46.6032 214.502 47.7194 213.735 48.4636 212.584C50.6961 209.516 52.9286 206.831 56.6494 205.68C57.3936 205.68 58.1377 204.53 58.8819 204.53C61.4865 204.146 62.9748 202.228 63.3469 199.927C62.9748 198.393 62.6027 197.242 61.8586 195.708C63.719 193.023 65.9515 191.872 68.9281 193.023C71.5327 192.256 73.7652 194.557 76.7419 194.557C78.2302 194.557 79.3464 194.557 80.8348 193.023C81.951 191.489 84.1835 191.105 85.6718 189.955C86.416 189.571 87.5323 189.188 87.9043 188.037C88.2764 186.886 89.7648 186.503 90.881 186.886C94.2297 187.653 96.8343 188.804 97.9506 192.64C98.3226 193.79 98.3227 195.324 99.4389 196.091C103.532 199.543 107.997 202.612 111.346 206.831C112.462 206.447 113.206 206.447 114.322 206.064C115.066 207.215 116.183 208.365 117.299 209.899C118.415 210.283 120.648 209.132 120.648 211.817C120.648 212.201 121.392 212.584 121.764 212.968C122.508 213.351 123.624 213.735 124.368 214.118C125.857 216.036 125.113 218.721 126.601 220.639C126.601 220.639 126.229 221.406 125.857 221.79C125.485 222.557 125.113 223.324 124.741 224.091C123.252 224.474 121.764 224.858 119.903 225.625C117.671 226.392 115.438 226.776 113.206 226.009C112.462 225.625 111.718 226.009 111.346 226.009C109.113 225.242 108.369 227.159 107.253 228.693C107.997 229.077 108.369 229.461 109.113 229.461C111.718 230.228 113.95 232.145 116.555 232.913C116.927 232.913 117.299 233.296 117.671 233.68C118.415 235.214 119.903 234.83 121.392 235.214C122.136 234.063 123.252 232.913 122.136 231.378C121.764 230.995 122.136 230.611 122.136 230.228C122.136 228.693 122.88 227.926 124.368 227.543C124.741 227.543 125.485 227.926 125.485 227.543C126.601 226.009 128.833 225.242 129.206 223.324C129.578 222.173 129.578 221.406 131.066 221.022C131.81 221.022 131.81 218.721 131.438 217.954C131.066 217.57 130.694 216.803 129.95 216.42C129.578 216.036 128.833 216.036 128.461 215.653C128.833 214.886 128.833 214.118 129.206 213.351C129.95 211.05 130.694 210.667 132.926 211.817C133.671 212.201 134.043 212.968 134.787 213.351C135.159 213.735 135.903 214.118 136.647 214.502C137.019 214.502 137.019 214.502 137.391 214.502C137.391 214.118 137.391 213.351 137.391 212.968C137.763 211.817 137.019 210.667 135.903 210.283C132.926 208.749 130.322 206.447 126.973 205.68C125.113 204.913 125.485 203.763 125.485 202.228C124.741 202.228 123.996 202.228 123.624 202.228C122.88 202.228 121.764 202.228 121.764 201.845C120.648 200.311 118.415 200.311 117.299 198.776C116.183 197.242 115.066 196.091 114.322 194.174C113.95 193.023 112.834 191.872 112.09 191.105C110.973 189.955 109.857 188.804 108.741 188.037C107.253 186.886 106.136 185.736 107.625 183.818C107.997 183.434 107.253 182.284 106.881 181.516C107.997 179.982 110.229 179.982 111.346 178.064C111.718 177.297 113.206 178.448 113.206 179.215C112.834 181.133 112.834 182.667 114.322 184.201C115.438 183.818 116.555 183.434 118.043 183.051C117.671 183.818 117.299 184.585 116.927 185.352C117.671 185.736 118.415 185.736 118.787 186.119L119.159 186.886C118.415 188.804 119.903 189.955 121.02 190.338C123.252 191.105 124.741 192.64 126.601 193.407H126.973H126.229C126.601 194.941 127.345 196.475 129.578 196.091C131.066 195.708 131.81 197.626 132.554 197.626C135.159 197.626 137.019 199.16 139.252 199.927C140.368 200.311 141.112 201.461 141.856 202.612L142.228 203.763C141.112 206.447 142.973 209.516 141.856 211.817C142.973 213.735 143.717 214.886 144.461 216.42L145.205 216.036L145.577 216.803L145.205 217.954C146.693 217.57 146.693 219.872 148.926 219.488C148.182 222.173 147.81 224.091 147.065 226.009C148.554 226.392 148.554 228.31 149.298 229.077C150.414 227.926 148.926 226.776 149.67 226.009C150.042 225.242 149.67 224.091 149.298 222.94C151.53 222.557 150.042 224.091 150.414 224.474C150.786 224.858 151.53 225.625 152.275 226.009C151.903 226.392 151.53 226.776 151.158 227.159L151.53 227.926C153.391 229.077 153.763 230.611 153.763 232.529C153.763 233.68 154.135 234.83 155.623 234.83H156.368C157.484 236.365 158.6 236.365 159.716 235.214C161.205 235.981 159.344 237.899 161.205 238.666C162.321 236.748 162.321 236.748 161.577 234.83C161.205 233.68 161.205 232.529 161.949 231.762C162.693 230.995 163.437 229.461 163.809 228.693C164.553 228.693 164.925 228.694 165.298 229.077C166.042 227.926 166.414 226.776 167.158 225.625L167.53 223.707C167.902 222.557 167.53 221.79 166.042 221.79H165.298C164.181 221.406 162.693 220.639 162.693 219.105C162.693 217.57 161.949 216.803 160.833 216.036C159.344 214.886 159.344 213.351 159.344 211.434C160.46 211.817 160.833 211.817 161.577 212.201C162.321 212.584 162.321 214.118 163.437 213.351C164.553 212.584 164.925 213.735 165.67 213.735C166.042 213.735 166.786 213.351 167.158 212.968C167.158 211.434 166.042 212.584 165.67 211.817C165.298 211.434 165.298 210.666 164.925 209.516C165.298 209.516 165.67 209.132 166.042 209.132C166.414 208.749 167.158 207.982 167.53 208.365C169.018 209.516 170.135 207.598 171.623 207.982C172.739 208.365 173.483 208.365 174.6 208.749C175.344 209.132 176.088 209.516 176.832 209.516C177.204 209.899 177.948 209.899 178.693 210.283C178.32 210.667 178.32 211.05 177.948 211.817C176.46 214.502 176.46 214.502 178.32 217.187C177.948 217.954 177.204 218.721 176.832 219.488C178.32 219.872 179.437 219.872 180.925 220.255C180.553 220.639 180.181 221.022 180.181 221.406C180.181 221.79 180.553 222.173 180.925 222.94C179.065 222.94 177.576 222.94 176.088 222.557C176.088 223.324 176.088 223.707 176.46 223.707C177.204 224.091 177.948 224.091 178.32 224.091C180.181 224.091 180.925 225.242 181.669 226.776C182.041 227.926 182.785 228.694 183.158 229.844C182.785 231.378 182.413 232.529 181.669 234.063C183.902 234.063 185.762 234.447 187.622 233.68C189.855 232.913 191.715 234.063 193.204 235.597C193.948 236.365 195.064 237.515 196.552 237.899C197.669 237.132 198.785 236.748 199.529 235.981C200.273 235.214 199.901 233.68 201.39 232.913C203.25 233.68 205.482 234.063 207.343 235.214C208.459 235.597 209.203 236.748 209.947 237.515C211.064 238.666 212.18 239.049 213.296 238.282C214.412 237.515 215.529 237.515 216.645 237.515C217.761 237.515 218.505 237.132 218.877 235.981C220.366 233.68 220.366 233.68 222.226 234.447C224.087 235.214 225.203 235.214 226.319 233.68H227.063L227.435 234.83C227.063 235.597 226.691 235.981 226.319 236.748V237.132C227.435 238.666 225.947 240.2 226.691 241.734C227.435 243.652 227.435 245.953 228.18 248.255C227.807 249.405 226.319 250.556 226.319 252.474C226.319 252.857 226.319 253.241 225.947 253.624C224.087 257.076 224.087 260.912 223.342 264.364C222.598 267.432 219.994 269.35 217.017 269.734C215.157 269.734 213.296 269.734 211.808 268.967L222.226 289.678C222.598 289.678 222.97 289.678 223.342 290.062C223.715 289.678 224.087 288.911 224.831 288.144C225.947 288.528 227.435 288.528 228.552 288.911C229.668 290.829 230.784 291.98 231.528 293.514C233.389 296.199 235.249 298.5 235.993 301.952C236.365 303.486 237.109 305.021 238.97 305.404C240.086 305.788 240.458 306.938 240.086 308.473C239.714 310.007 240.458 311.541 241.574 312.308C244.179 313.075 244.923 315.76 246.784 316.911C247.9 317.678 248.644 318.828 249.016 320.363C249.016 320.746 249.016 321.513 249.388 321.897C250.877 323.431 250.504 325.732 250.877 327.65C250.877 331.102 251.993 333.787 254.225 336.472C256.086 338.39 257.946 340.307 259.807 341.842C260.923 342.992 262.039 344.143 262.411 345.677C262.783 347.978 263.899 349.513 265.388 351.047C266.876 352.965 267.992 355.266 269.481 357.184C271.713 359.869 273.201 363.321 271.713 367.156C271.341 367.923 271.713 369.074 272.085 370.225C273.202 373.293 273.202 376.745 274.69 379.813V380.58C274.69 382.882 275.806 384.416 276.922 385.95C281.015 386.334 281.015 386.334 284.364 384.032C286.596 382.882 288.457 381.348 291.434 381.348C292.922 381.348 294.782 380.964 295.899 379.813C297.759 378.279 299.247 377.512 301.48 377.512C302.596 377.512 302.968 376.745 303.712 375.594C304.829 374.06 306.317 372.909 308.177 372.526C311.154 372.142 313.386 370.225 316.363 369.457C318.596 369.074 320.828 367.54 321.2 364.471C321.572 362.553 323.061 361.019 324.549 360.252C327.153 359.102 329.758 357.567 333.107 357.951C334.967 358.334 336.083 356.8 336.828 355.266C337.2 354.499 337.2 353.732 337.2 352.965C338.316 352.581 338.688 352.198 339.432 352.198C341.293 351.814 342.409 351.047 343.153 349.129C343.525 347.978 344.641 347.211 345.386 346.444C346.502 345.677 347.618 345.294 348.734 344.527C347.246 341.458 348.734 339.157 349.851 336.472C350.223 336.088 350.595 335.705 350.967 335.321C352.455 334.554 353.943 333.403 354.315 331.486C354.315 330.719 355.06 330.335 355.432 329.952C358.036 327.65 358.036 324.965 355.804 323.048C354.316 321.897 353.199 320.746 352.455 318.828C352.083 318.061 350.967 318.061 350.223 317.678C347.99 316.911 345.386 316.527 343.153 315.376C339.804 313.842 338.316 311.157 337.944 307.705C337.944 306.555 337.572 305.788 336.083 305.404C334.223 306.555 332.735 307.705 331.618 310.007C330.874 311.924 329.758 314.993 326.409 313.842L326.037 314.226C325.293 315.376 323.805 315.376 323.061 314.993C321.572 314.226 320.084 314.609 318.596 315.376C317.479 315.76 316.735 316.527 315.619 317.294C314.131 314.993 312.642 313.075 313.014 310.007C313.014 308.089 312.27 305.404 311.154 304.253C310.41 305.404 309.666 306.171 308.921 307.705C305.201 305.788 304.084 302.719 304.084 298.884C303.34 298.117 302.224 297.35 301.852 296.582C301.108 294.665 300.364 293.898 298.503 293.514C297.759 293.13 297.387 293.13 297.015 291.98C296.643 291.213 296.271 290.829 295.899 290.062C294.038 286.994 292.55 283.542 291.434 279.706C292.922 278.172 294.038 276.638 295.526 275.487C296.271 275.103 297.387 274.72 297.759 274.72C299.247 276.254 301.108 274.336 302.596 274.72C304.456 277.021 307.061 278.939 307.061 282.391C307.061 283.158 307.805 283.542 308.177 284.309C308.921 285.076 309.666 286.226 310.038 286.994C310.41 288.911 311.526 289.678 313.386 289.678C315.619 289.678 317.479 290.829 318.596 292.747C318.968 293.13 319.34 293.897 320.084 294.281C322.316 295.432 324.549 296.199 326.409 297.349C329.014 298.884 331.246 297.733 333.107 295.432C333.851 294.665 334.595 293.898 335.339 293.514C336.083 293.13 337.2 293.13 337.572 293.514C339.432 294.665 341.293 296.199 341.293 298.5C341.293 300.034 342.409 301.185 343.525 301.952C344.269 302.336 345.013 302.719 345.386 303.103C346.502 303.103 347.99 302.719 348.734 303.103C351.339 304.253 354.688 303.103 357.292 305.404C357.664 305.788 358.036 305.404 358.408 305.404C360.641 305.404 362.501 305.788 364.734 306.171C366.966 306.938 368.827 305.404 371.059 305.404C371.803 305.404 372.175 305.404 372.92 305.404C375.896 305.021 379.245 305.404 382.222 304.637C385.198 304.253 388.547 304.253 391.896 304.637C392.268 305.404 392.64 306.171 393.012 306.555C394.5 308.089 395.989 309.623 396.733 312.308C397.105 313.075 398.221 314.226 399.338 314.226C401.57 314.609 402.686 315.76 403.802 317.294C405.663 319.596 407.895 321.513 410.872 319.979C411.616 319.596 412.732 320.363 412.732 321.13C413.105 321.897 412.36 323.048 411.616 323.431C410.872 323.815 410.128 323.815 409.384 323.815C408.267 323.815 407.151 324.198 405.663 324.582C409.012 328.417 411.988 331.486 416.081 333.787C417.57 333.02 418.686 332.253 420.174 331.486C421.29 330.719 422.407 329.951 422.035 328.034C421.662 326.883 423.151 326.5 424.267 326.883V326.499L424.639 326.883C425.755 329.184 426.872 331.102 427.988 333.403C428.36 334.171 427.988 335.705 427.616 336.855C427.244 337.623 426.872 338.39 426.5 338.773C426.5 339.157 426.5 339.54 426.872 339.54C428.36 341.458 429.476 342.992 428.36 345.677C428.36 346.061 428.36 346.828 428.732 347.211C429.104 347.978 429.476 349.129 429.848 349.896C430.592 352.198 431.337 354.499 431.709 356.8C432.453 359.869 433.197 362.553 434.685 365.238C434.313 367.156 436.174 368.307 436.546 369.841C436.918 371.759 437.662 373.293 438.778 374.827C439.895 376.361 440.267 377.512 440.639 379.046C441.383 382.115 442.127 384.8 443.987 387.484C445.476 389.786 446.592 392.471 447.708 395.156C449.569 398.607 449.941 402.443 451.057 405.895C451.801 407.813 452.917 409.731 454.034 411.265C455.15 413.182 457.382 412.799 458.499 411.265C458.871 410.881 459.243 410.114 459.243 409.731C459.615 407.429 460.731 406.662 462.964 406.279C463.708 402.827 464.452 399.758 467.429 398.607C467.801 396.69 467.801 394.772 467.429 392.854C467.057 390.936 467.429 389.019 468.173 386.717C468.917 385.183 469.289 383.649 469.661 382.115C469.289 380.964 468.545 380.197 468.545 379.43C468.545 376.361 468.173 373.677 467.057 370.992C465.94 368.307 467.429 365.622 470.033 364.855C470.405 364.471 471.149 364.471 471.522 364.471C472.266 363.321 472.638 362.553 473.382 361.403C474.87 361.019 476.359 361.019 477.847 360.636C477.847 359.102 478.219 357.567 478.219 356.033C480.079 354.882 481.568 353.732 482.684 352.198C483.056 351.43 483.8 350.663 484.544 350.28C486.405 349.129 487.521 347.211 488.637 345.677C490.498 342.609 492.73 340.307 496.079 339.157H496.451C497.939 338.006 499.428 336.855 499.428 334.554C499.428 333.02 499.428 331.102 499.8 329.568C501.288 328.417 502.777 327.65 504.265 326.883C505.009 326.5 506.125 326.5 506.497 326.883C507.986 328.801 509.846 328.417 511.334 327.65C513.567 326.5 515.799 326.5 518.404 325.732C519.148 323.815 521.009 322.664 523.241 321.897C524.357 323.431 525.101 324.965 526.218 326.499C527.706 329.568 528.078 333.02 531.427 334.938C531.799 335.321 532.171 336.088 532.543 336.855C532.915 337.623 533.287 338.773 534.031 339.54C536.636 338.773 537.752 339.157 537.752 341.075C537.752 342.992 538.869 344.143 539.985 345.294C541.845 346.828 542.961 349.129 543.706 351.43C544.078 352.965 544.45 354.115 544.45 355.65C544.078 356.417 543.333 357.567 543.333 358.334C543.333 359.485 543.706 361.019 543.333 362.17C542.961 363.321 544.078 364.471 545.194 364.471C546.31 364.471 547.426 364.855 548.543 364.855C548.915 364.855 549.659 364.855 550.031 364.471C551.519 362.937 553.008 361.786 554.124 360.252C554.868 359.102 555.24 357.567 555.612 356.417C557.845 356.033 558.217 356.417 558.961 357.951C559.333 358.718 559.333 359.869 559.705 360.252C561.566 362.17 561.938 364.855 562.682 367.156C563.054 369.457 563.426 371.759 564.542 373.677C565.286 374.827 564.914 376.361 565.286 377.512C566.031 378.663 567.147 379.813 567.519 380.964C568.635 384.033 569.379 387.484 567.891 390.936C569.751 391.32 570.496 392.854 570.496 394.388C570.496 395.156 571.24 395.923 571.612 396.69L572.356 395.923C572.356 393.238 573.472 390.936 574.961 389.019C574.961 386.334 574.588 383.649 574.588 381.348C574.588 380.964 575.333 379.813 575.705 379.813C578.309 379.046 579.798 379.813 580.542 382.882C580.542 383.649 580.914 384.033 580.914 384.8C585.007 384.416 585.007 384.416 587.983 387.484C588.355 387.868 589.1 388.252 589.472 389.019C590.588 390.169 591.704 391.704 592.82 392.854C592.82 395.539 594.681 396.69 596.541 397.073C598.774 397.84 600.634 399.375 602.495 400.525C603.983 401.292 604.355 401.676 603.983 403.594C603.239 407.046 603.239 407.046 604.355 409.731C605.471 408.963 605.471 407.046 606.96 406.662C609.936 405.511 611.425 402.827 612.169 399.758L612.913 398.991C617.378 397.84 620.727 394.005 624.448 391.32C624.448 389.019 624.82 386.717 624.448 384.416C624.075 381.731 623.703 379.046 622.959 376.361C622.215 373.677 621.471 370.992 619.61 369.074C617.75 366.773 615.89 364.855 614.029 362.553C611.053 359.102 606.588 356.8 605.471 351.814C605.471 351.43 604.727 351.047 604.355 350.663C603.611 349.896 602.867 349.129 602.122 348.746C600.634 347.979 600.262 346.444 600.634 344.91C601.006 343.376 601.006 341.842 600.634 340.691C601.75 339.157 603.239 337.623 603.611 336.088C604.355 333.787 605.471 333.02 607.332 332.636L608.076 332.253C608.448 331.486 608.448 330.719 608.448 330.335C610.308 329.568 611.797 328.801 613.285 328.034C615.89 328.801 618.494 329.568 621.471 330.335C622.215 331.486 619.982 333.787 622.959 334.938C623.331 334.171 623.703 333.02 624.448 332.253C624.82 331.869 625.192 331.102 625.564 331.102C627.424 330.719 628.54 329.568 630.029 328.801C631.517 328.417 633.005 327.267 634.494 326.499C635.238 326.116 636.726 325.349 637.098 325.732C638.959 326.883 638.959 324.198 640.447 324.198C640.819 324.582 641.563 324.965 642.307 324.965C643.424 325.349 644.168 325.349 644.54 323.815C644.912 322.664 645.656 322.28 646.4 321.897C647.889 321.513 649.005 321.513 650.493 321.513C651.61 321.513 652.726 321.13 653.098 319.596C653.47 318.445 654.214 317.678 655.33 316.911C656.447 316.144 657.191 315.376 658.307 314.609C661.284 312.308 663.144 308.856 665.377 306.171C666.493 305.021 666.493 303.486 666.121 302.336C665.749 300.801 666.121 299.651 666.493 298.5C666.865 296.199 668.353 294.281 669.842 292.747C669.842 291.596 669.469 290.446 669.469 289.295C670.586 288.528 671.702 287.761 672.446 286.994C671.702 283.925 673.562 281.24 672.818 278.172C672.074 277.405 670.958 276.254 669.842 275.871C668.725 275.487 667.237 275.487 666.121 275.487C665.377 272.802 667.609 271.651 668.353 270.117C667.981 268.967 667.609 268.199 667.237 267.432C667.609 266.665 668.725 266.665 668.353 265.515C667.609 265.131 666.865 265.131 666.493 264.364C665.749 263.98 665.377 263.213 664.632 262.83C663.144 262.063 662.028 260.912 661.656 259.378C660.912 256.309 657.935 254.775 656.447 252.09C655.702 250.556 653.842 249.789 651.982 249.022C649.005 247.871 647.889 245.186 649.005 242.885C650.121 240.584 650.865 238.282 653.098 236.365C654.586 235.214 656.075 233.296 658.307 232.913C658.679 232.913 659.423 232.529 659.795 232.145C660.167 231.762 659.795 230.611 659.423 230.611C658.679 230.611 657.935 230.228 657.191 230.228C654.958 230.611 652.726 229.844 650.865 228.31C649.377 229.461 647.517 230.995 646.028 232.145C644.912 232.145 643.424 231.762 642.307 231.762C641.563 229.844 641.935 227.159 639.703 226.392C638.959 226.392 637.842 226.776 637.098 226.776C633.378 226.776 631.517 224.474 631.517 220.639C631.517 219.872 631.517 219.105 631.889 218.721C633.75 217.187 635.61 219.872 637.47 218.338C637.47 217.187 637.842 216.036 637.842 215.269C640.447 212.968 642.307 210.666 644.912 208.365C645.656 208.365 646.772 208.365 647.517 208.749C650.865 209.899 651.609 212.201 650.121 215.653C649.749 216.42 649.749 216.803 649.377 217.187C650.121 218.338 650.865 219.488 651.982 221.022C653.098 219.105 654.214 217.57 655.33 216.036C656.819 216.036 658.307 215.653 659.423 215.653C660.912 216.036 661.284 213.735 663.144 214.118C665.005 215.653 668.353 215.653 670.214 218.338C670.214 220.639 670.214 222.94 670.214 225.242C672.446 225.242 673.935 226.776 676.167 226.776C677.283 226.776 678.772 227.543 680.26 228.31C681.376 228.693 681.748 229.461 682.12 230.611C682.492 231.762 682.865 233.296 682.865 234.447C682.865 236.365 683.609 237.899 685.097 238.666C685.469 240.584 685.469 242.501 685.841 244.036C685.841 244.803 686.213 245.57 686.585 246.337C686.957 247.104 686.957 247.871 687.329 248.255C688.074 249.022 688.446 248.255 689.19 247.488C689.562 247.104 690.306 247.104 690.678 247.104C691.422 247.488 691.794 247.104 692.539 247.104C695.143 246.337 697.004 244.803 698.864 243.269C699.236 242.118 699.236 240.584 698.12 239.817C697.004 238.666 696.632 237.515 696.259 235.981C695.887 234.063 695.515 232.529 694.027 230.995C689.934 227.159 686.585 222.94 681.004 220.639C679.516 219.872 678.772 219.105 678.399 217.57C678.399 216.803 678.027 216.036 677.283 214.886C680.632 213.351 682.864 210.667 684.353 207.215V206.831C683.237 205.68 682.492 204.53 682.865 202.612C683.237 201.078 683.609 199.543 685.469 198.776L685.841 197.626C686.213 197.242 686.957 197.242 687.329 196.859C688.074 194.557 689.562 194.174 691.05 194.174C693.283 194.941 694.771 195.708 696.259 196.475C698.12 195.708 699.236 195.324 700.724 194.941C702.213 194.174 703.329 193.023 703.329 191.489C703.701 186.503 705.189 182.284 707.05 177.681C707.422 176.53 707.422 175.763 707.422 174.229C707.05 170.777 706.678 166.941 707.794 163.489C708.166 162.339 708.166 161.188 707.794 160.038C707.05 157.736 705.562 155.818 705.189 153.517L704.445 152.75C704.073 152.366 703.329 152.366 702.957 151.983C701.469 150.065 700.724 147.38 699.236 145.462C698.492 144.695 698.864 142.778 698.864 141.627C698.864 140.86 698.492 140.093 698.492 138.942C696.631 137.791 695.143 136.257 695.143 133.956C692.539 134.339 690.306 132.805 688.446 131.655C686.957 130.887 685.097 130.12 683.609 128.97C682.12 127.819 680.632 128.203 678.772 128.586C678.772 129.353 678.772 130.12 679.144 130.887C678.027 131.271 677.283 131.655 676.167 132.038C675.051 132.422 673.935 132.422 673.562 130.887C672.818 129.353 671.702 130.12 670.586 130.12C669.47 128.586 667.981 127.435 666.121 125.518C665.377 125.518 663.888 125.518 662.772 125.518C661.656 125.518 660.167 125.134 659.051 125.134C657.935 120.532 660.54 118.23 663.144 115.929C663.144 115.162 663.516 114.778 663.516 114.395C663.516 110.943 663.516 110.943 665.377 107.874C665.749 107.107 666.493 106.34 666.865 105.189C667.237 103.272 667.609 101.354 667.981 99.4361C668.353 97.9019 669.097 97.1348 670.586 96.7513C673.562 96.7513 676.167 95.6006 679.144 95.6006C681.748 95.6006 684.725 96.7513 687.329 95.9841L688.074 96.3677C689.562 96.7513 691.05 97.5184 692.911 95.9841C693.283 95.6006 694.027 95.9841 694.399 95.9841C695.515 96.3677 696.26 95.9841 697.004 95.217C697.748 94.8335 698.492 94.4499 698.492 94.0664C700.724 94.4499 702.213 95.217 703.701 95.217C706.306 94.8335 707.794 95.6006 709.654 97.9019C711.515 100.203 714.492 100.203 716.352 98.2855C717.468 97.1348 717.468 96.3677 716.724 95.217C715.608 93.2993 714.492 91.7651 716.724 89.8473C717.096 89.8473 717.096 89.0802 717.096 88.6966C717.096 87.9295 717.096 86.7789 717.096 86.0118C717.096 82.9433 717.468 82.5598 720.445 82.5598C723.794 82.5598 726.77 82.9433 729.747 81.7927C731.607 82.9433 732.351 84.4776 732.724 86.3953C734.584 87.1624 736.072 87.9295 737.561 88.6966C737.933 87.546 739.049 86.7789 739.049 85.6282C739.049 84.094 740.909 84.4776 741.281 83.3269C740.909 81.7927 739.049 80.642 740.537 79.1078C742.026 78.7243 743.142 78.7243 744.258 80.642C745.374 82.1762 746.491 83.7104 747.979 84.8611C748.723 85.2447 749.467 85.6282 749.839 86.3953C749.467 88.3131 748.723 89.8473 747.979 91.3815C746.491 94.0664 745.002 96.7513 746.119 100.203C746.863 102.505 746.118 105.189 743.142 106.34C742.026 106.724 741.654 107.874 742.77 109.025C743.514 110.176 743.514 110.943 743.142 111.71C742.77 112.093 742.77 112.477 742.398 113.244C743.142 113.628 743.514 114.011 743.886 114.395C744.63 116.312 745.746 117.847 747.607 118.997C747.979 119.381 747.979 119.764 748.351 120.148C749.095 122.449 750.584 123.984 752.816 124.751C753.188 125.134 753.932 125.134 754.304 125.518C755.049 126.668 755.793 127.819 756.909 128.97C758.025 130.12 759.886 130.504 760.63 131.271C763.606 134.723 767.699 137.408 770.676 141.243C771.42 142.011 772.164 142.778 773.281 143.545C774.025 144.312 774.397 145.462 775.885 145.462C777.746 144.312 777.373 142.394 777.373 140.86C777.746 138.559 775.513 138.175 774.769 136.641C775.513 135.49 775.885 134.339 776.629 133.572C775.513 131.655 774.397 130.504 774.025 128.203C774.397 127.436 774.769 126.285 775.513 125.518C776.257 124.751 777.001 124.367 777.746 123.6C772.164 119.381 772.536 117.847 774.397 114.395C773.653 114.011 772.909 113.628 772.164 113.244C769.932 112.86 768.443 111.326 768.071 109.409C767.327 107.107 766.211 106.724 764.351 106.724C763.979 106.724 763.234 106.724 762.49 106.724C760.258 106.34 759.141 105.189 759.141 102.888C759.141 101.354 759.141 99.8197 758.769 98.2855C758.025 97.5183 757.281 97.1348 756.165 96.7513C756.165 95.6006 756.537 94.0664 756.537 92.5322C759.514 92.9157 762.118 92.1486 763.979 89.8473C764.723 90.2308 765.095 90.2309 765.467 90.6144C766.955 92.1486 768.443 92.1486 769.932 90.6144C770.676 90.2309 771.792 89.8473 772.536 89.8473C775.885 89.4637 778.862 89.4637 781.839 91.7651C782.583 90.9979 783.327 90.2308 784.071 89.4637C785.931 86.3953 787.048 85.2447 790.024 83.3269C790.768 82.9433 791.141 82.1762 791.885 81.4091C794.117 79.4914 796.35 77.5736 799.698 79.1078C800.443 79.4914 801.559 79.8749 802.303 78.3407C801.187 76.8065 799.698 75.6558 798.21 74.8887C797.466 74.5052 796.35 73.7381 795.606 73.3545C792.257 72.2039 789.28 69.9025 785.559 70.2861C784.815 70.2861 784.071 69.9025 783.699 69.519C782.211 68.7519 782.583 67.9848 782.955 66.8341C784.815 66.067 786.676 66.8341 788.164 66.8341C790.768 65.2999 787.42 62.9986 788.908 61.4644C790.024 60.6973 791.141 61.4644 792.629 61.8479C794.117 62.2315 795.606 62.9986 796.722 62.615C801.187 61.0808 804.908 62.615 808.256 64.5328C809 64.9163 810.117 65.2999 810.861 65.6835C814.582 66.8341 818.303 67.2177 821.651 69.1354C822.023 69.519 822.768 69.1354 823.512 69.1354C824.256 66.4506 823.512 65.6834 822.768 64.5328ZM96.0902 122.066V121.299L96.4622 121.682L96.0902 122.066ZM100.183 125.134C99.0668 125.901 99.0668 125.901 96.8343 123.984C99.0668 123.216 99.811 123.216 100.183 123.984V125.134ZM308.177 180.749L307.805 181.133L307.433 180.749H308.177ZM219.994 172.695C221.854 172.311 222.97 172.311 224.087 171.928C227.435 170.01 231.156 169.626 234.877 169.243C234.877 171.161 233.017 170.393 232.272 171.161C231.528 171.928 230.412 172.311 228.924 172.695C229.296 173.078 229.668 173.462 230.04 173.845C230.784 174.229 231.528 174.613 233.017 174.996C230.412 175.763 229.668 178.064 228.18 179.982C227.063 179.599 225.575 179.215 224.087 179.599C222.598 180.366 221.11 180.366 219.994 180.366C218.877 179.599 217.761 178.832 216.645 178.064C217.389 175.763 218.877 174.613 219.994 172.695ZM180.181 91.3815L180.925 92.1486L180.181 92.9157V91.3815ZM179.437 219.488L179.065 218.721L179.437 218.338V219.488ZM190.227 210.667C187.995 211.817 185.762 210.667 183.902 210.283L183.53 210.667H183.158L183.53 210.283H183.902C183.902 209.899 183.902 209.516 183.902 209.516C183.902 209.132 183.902 209.132 184.274 208.749C185.018 207.982 185.762 207.598 186.506 207.215C187.622 207.598 188.739 208.365 189.855 208.749C190.227 208.749 190.599 209.132 190.971 209.132C190.599 209.899 190.599 210.283 190.227 210.667ZM250.132 205.68C248.272 206.447 246.784 207.598 244.551 207.598C242.319 207.215 239.714 207.598 237.482 207.598C235.249 207.982 232.645 207.598 230.412 206.447C228.18 205.297 225.947 204.913 224.087 203.379C223.342 202.612 221.854 202.995 220.738 202.995C220.366 202.612 220.366 201.845 219.994 201.461C219.622 201.078 218.505 200.694 218.505 200.694C217.761 201.845 216.645 201.461 215.901 201.078C212.18 200.694 208.831 201.461 205.855 203.379C203.994 204.146 202.506 205.297 200.273 206.447C200.273 206.447 199.157 206.064 198.413 206.064C196.925 205.68 195.808 205.68 194.32 206.064C193.576 206.447 192.832 206.447 192.46 206.447C189.855 206.447 187.995 204.913 186.134 202.995L185.762 201.845C185.018 200.694 184.646 199.16 183.902 197.626C184.274 196.859 184.646 196.091 185.018 194.941C185.018 194.557 185.018 193.79 185.39 193.79C187.995 192.64 187.622 189.955 187.622 186.886C187.995 186.503 189.111 185.736 189.855 184.968C191.343 184.201 192.087 182.667 192.832 180.749C193.948 177.297 196.18 174.613 199.157 172.311C200.273 173.078 201.017 173.462 201.762 174.229C201.762 173.462 201.762 173.078 201.762 172.311C202.134 172.311 202.506 172.695 202.878 172.695C203.25 173.462 203.622 174.229 203.994 174.996C204.738 176.147 205.855 176.53 207.343 176.53C208.459 176.147 209.947 175.763 211.064 176.914C209.947 178.448 207.343 177.681 206.599 179.982C207.343 180.366 208.087 180.749 208.831 181.133C209.575 181.516 210.32 182.284 210.32 183.051C210.692 183.818 210.692 184.968 210.692 185.736C212.18 186.886 213.668 186.503 214.785 185.736C217.389 183.434 220.738 183.051 224.087 182.284C224.459 182.284 224.831 181.9 225.575 181.516C228.18 182.667 230.784 184.201 233.389 185.736C234.133 186.119 234.877 186.503 235.621 186.886C236.365 187.27 237.11 187.653 237.854 188.037C238.598 188.42 239.714 189.188 240.086 189.955C241.574 192.639 243.807 193.79 246.412 194.557C248.272 194.941 249.016 196.859 250.877 196.859L251.621 197.626C251.993 199.16 252.737 200.311 253.853 201.461C253.853 201.845 253.481 201.845 253.481 202.228C251.993 204.146 251.249 204.913 250.132 205.68ZM314.503 233.296C313.758 233.68 312.642 233.68 311.898 233.68C307.061 235.597 302.968 234.447 299.619 230.995C298.503 230.228 297.759 229.461 296.271 229.077C294.782 229.077 293.294 228.694 292.55 227.159C291.806 225.625 290.689 223.324 291.434 221.79C292.55 219.105 292.178 216.036 293.294 213.735C293.294 213.351 293.666 213.351 293.666 212.968C294.41 212.968 295.526 212.968 296.643 212.584C296.271 211.817 295.899 211.05 295.526 210.667C294.038 210.283 292.922 209.516 292.178 208.749C290.689 207.598 289.945 206.447 288.829 204.913C287.713 202.995 285.852 201.845 284.364 200.311C283.248 199.16 282.504 197.626 281.387 196.859C279.527 194.941 279.527 192.64 279.527 190.338C278.039 189.188 276.922 187.653 275.062 186.119C275.434 184.968 276.178 183.818 276.55 182.667C277.294 179.982 278.783 178.832 281.387 178.832C281.759 178.832 281.759 178.832 282.504 178.832C283.62 176.147 286.224 174.613 288.829 173.078C289.573 172.695 290.317 172.311 291.061 171.928C292.178 171.161 292.922 171.161 294.038 171.544C294.782 171.928 295.526 171.928 295.899 172.311C296.643 172.695 297.387 172.695 298.131 172.311C299.991 171.544 300.363 171.928 301.108 173.462C301.48 174.613 301.852 175.763 302.596 176.53V177.297V177.681L302.224 177.297V176.914C300.736 177.681 301.48 179.599 300.364 180.749C299.619 180.749 298.875 180.749 298.503 180.749C295.526 180.366 294.782 180.749 294.038 182.667C294.038 185.352 294.41 188.42 294.782 191.105C295.154 191.489 295.526 192.256 295.899 192.64C296.643 193.79 297.015 195.324 298.503 195.708C299.991 196.091 300.364 197.626 302.224 197.626C303.712 197.626 304.456 198.393 303.712 199.927C302.968 202.228 304.084 203.763 305.201 205.297C306.689 207.215 307.433 208.749 306.689 211.05C306.317 212.201 307.061 213.351 307.805 214.118C308.549 214.886 309.666 214.886 310.41 214.886C310.41 216.036 310.41 217.187 310.41 218.338C311.898 219.488 313.014 220.255 314.503 221.406C314.503 222.94 314.503 224.858 314.503 226.776C314.875 228.693 315.247 230.228 315.991 232.529C315.991 232.529 315.247 232.913 314.503 233.296ZM355.432 31.5472L354.688 30.7801L355.432 30.3966L356.548 31.1637L355.432 31.5472ZM363.245 47.2729C362.501 46.5058 362.501 45.3551 361.385 44.9716C360.269 44.588 359.153 44.588 358.78 43.4374C361.385 43.0538 362.501 43.4374 364.734 47.2729C363.99 47.2729 363.245 47.6565 363.245 47.2729ZM379.245 16.9722L378.501 16.5887L378.873 16.2051L379.245 16.9722ZM666.493 265.131C666.865 265.131 667.237 265.131 667.609 265.131V265.515L667.237 265.898C666.865 265.898 666.493 265.898 666.121 265.898L666.493 265.131ZM781.094 66.4506V65.6835L781.839 66.067L781.094 66.4506ZM787.42 59.9302L787.048 59.163C787.048 58.3959 787.792 58.0124 788.536 58.0124C788.908 58.0124 788.908 58.3959 789.28 59.163C788.536 59.5466 788.164 59.9302 787.42 59.9302Z" fill="url(#paint0_linear_27_8824)"/>
<path d="M563.243 217.629C563.243 218.776 562.313 219.706 561.166 219.706C560.019 219.706 559.089 218.776 559.089 217.629C559.089 216.482 560.019 215.552 561.166 215.552C562.313 215.552 563.243 216.482 563.243 217.629Z" fill="#CBE0EC"/>
<path d="M443.623 220.383C443.623 221.53 442.693 222.46 441.546 222.46C440.399 222.46 439.469 221.53 439.469 220.383C439.469 219.236 440.399 218.306 441.546 218.306C442.693 218.306 443.623 219.236 443.623 220.383Z" fill="#CBE0EC"/>
<path d="M282.258 208.597C282.258 209.744 281.328 210.674 280.181 210.674C279.034 210.674 278.104 209.744 278.104 208.597C278.104 207.45 279.034 206.52 280.181 206.52C281.328 206.52 282.258 207.45 282.258 208.597Z" fill="#CBE0EC"/>
<path d="M265.185 195.82C265.185 196.967 264.255 197.897 263.108 197.897C261.961 197.897 261.031 196.967 261.031 195.82C261.031 194.673 261.961 193.743 263.108 193.743C264.255 193.743 265.185 194.673 265.185 195.82Z" fill="#CBE0EC"/>
<path d="M203.613 125.877C203.613 127.024 202.683 127.954 201.536 127.954C200.389 127.954 199.459 127.024 199.459 125.877C199.459 124.73 200.389 123.8 201.536 123.8C202.683 123.8 203.613 124.73 203.613 125.877Z" fill="#CBE0EC"/>
<path d="M205.706 151.541C205.706 152.688 204.776 153.618 203.629 153.618C202.482 153.618 201.552 152.688 201.552 151.541C201.552 150.394 202.482 149.464 203.629 149.464C204.776 149.464 205.706 150.394 205.706 151.541Z" fill="#CBE0EC"/>
<path d="M192.819 169.495C192.819 170.642 191.889 171.572 190.742 171.572C189.595 171.572 188.665 170.642 188.665 169.495C188.665 168.348 189.595 167.418 190.742 167.418C191.889 167.418 192.819 168.348 192.819 169.495Z" fill="#CBE0EC"/>
<path d="M166.824 190.974C166.824 192.121 165.894 193.051 164.747 193.051C163.6 193.051 162.67 192.121 162.67 190.974C162.67 189.827 163.6 188.897 164.747 188.897C165.894 188.897 166.824 189.827 166.824 190.974Z" fill="#CBE0EC"/>
<path d="M172.441 105.72C172.441 106.867 171.512 107.797 170.364 107.797C169.217 107.797 168.287 106.867 168.287 105.72C168.287 104.573 169.217 103.643 170.364 103.643C171.512 103.643 172.441 104.573 172.441 105.72Z" fill="#CBE0EC"/>
<path d="M165.502 121.03C165.502 122.178 164.573 123.108 163.425 123.108C162.278 123.108 161.348 122.178 161.348 121.03C161.348 119.883 162.278 118.953 163.425 118.953C164.573 118.953 165.502 119.883 165.502 121.03Z" fill="#CBE0EC"/>
<path d="M151.513 130.723C151.513 131.871 150.584 132.8 149.436 132.8C148.289 132.8 147.359 131.871 147.359 130.723C147.359 129.576 148.289 128.646 149.436 128.646C150.584 128.646 151.513 129.576 151.513 130.723Z" fill="#CBE0EC"/>
<path d="M140.499 140.637C140.499 141.784 139.569 142.714 138.422 142.714C137.275 142.714 136.345 141.784 136.345 140.637C136.345 139.49 137.275 138.56 138.422 138.56C139.569 138.56 140.499 139.49 140.499 140.637Z" fill="#CBE0EC"/>
<path d="M151.513 157.82C151.513 158.967 150.584 159.897 149.436 159.897C148.289 159.897 147.359 158.967 147.359 157.82C147.359 156.672 148.289 155.743 149.436 155.743C150.584 155.743 151.513 156.672 151.513 157.82Z" fill="#CBE0EC"/>
<path d="M133.56 171.588C133.56 172.735 132.63 173.665 131.483 173.665C130.335 173.665 129.405 172.735 129.405 171.588C129.405 170.441 130.335 169.511 131.483 169.511C132.63 169.511 133.56 170.441 133.56 171.588Z" fill="#CBE0EC"/>
<path d="M115.936 152.973C115.936 154.12 115.006 155.05 113.859 155.05C112.712 155.05 111.782 154.12 111.782 152.973C111.782 151.826 112.712 150.896 113.859 150.896C115.006 150.896 115.936 151.826 115.936 152.973Z" fill="#CBE0EC"/>
<path d="M173.763 157.82C173.763 158.967 172.833 159.897 171.686 159.897C170.539 159.897 169.609 158.967 169.609 157.82C169.609 156.672 170.539 155.743 171.686 155.743C172.833 155.743 173.763 156.672 173.763 157.82Z" fill="#CBE0EC"/>
<path d="M190.065 139.535C190.065 140.682 189.135 141.612 187.988 141.612C186.841 141.612 185.911 140.682 185.911 139.535C185.911 138.388 186.841 137.458 187.988 137.458C189.135 137.458 190.065 138.388 190.065 139.535Z" fill="#CBE0EC"/>
<path d="M260.339 215.537C260.339 216.684 259.409 217.614 258.262 217.614C257.114 217.614 256.185 216.684 256.185 215.537C256.185 214.389 257.114 213.459 258.262 213.459C259.409 213.459 260.339 214.389 260.339 215.537Z" fill="#CBE0EC"/>
<defs>
<linearGradient id="paint0_linear_27_8824" x1="0" y1="206.282" x2="825" y2="206.282" gradientUnits="userSpaceOnUse">
<stop stop-color="#1E3C72"/>
<stop offset="1" stop-color="#2A5298"/>
</linearGradient>
</defs>
</svg>
