<svg width="297" height="297" viewBox="0 0 297 297" fill="none" xmlns="http://www.w3.org/2000/svg">
<circle cx="148.844" cy="148.64" r="106.5" transform="rotate(49.9192 148.844 148.64)" fill="#1383C6" stroke="white" stroke-width="3"/>
<mask id="path-2-outside-1_107_284" maskUnits="userSpaceOnUse" x="-3.32878" y="19.6468" width="276.8" height="281.166" fill="black">
<rect fill="white" x="-3.32878" y="19.6468" width="276.8" height="281.166"/>
<path d="M216.45 228.979C203.558 239.828 188.245 247.415 171.804 251.099C155.363 254.783 138.276 254.457 121.988 250.147C105.699 245.838 90.6871 237.672 78.2191 226.339C65.751 215.006 56.1933 200.84 50.3531 185.035C44.513 169.231 42.5619 152.253 44.6646 135.536C46.7674 118.819 52.8622 102.853 62.4344 88.9874C72.0066 75.1217 84.775 63.7631 99.6612 55.871C114.547 47.9789 131.114 43.7851 147.963 43.6437L148.844 148.64L216.45 228.979Z"/>
</mask>
<path d="M216.45 228.979C203.558 239.828 188.245 247.415 171.804 251.099C155.363 254.783 138.276 254.457 121.988 250.147C105.699 245.838 90.6871 237.672 78.2191 226.339C65.751 215.006 56.1933 200.84 50.3531 185.035C44.513 169.231 42.5619 152.253 44.6646 135.536C46.7674 118.819 52.8622 102.853 62.4344 88.9874C72.0066 75.1217 84.775 63.7631 99.6612 55.871C114.547 47.9789 131.114 43.7851 147.963 43.6437L148.844 148.64L216.45 228.979Z" fill="#CB3F8E"/>
<path d="M216.45 228.979C203.558 239.828 188.245 247.415 171.804 251.099C155.363 254.783 138.276 254.457 121.988 250.147C105.699 245.838 90.6871 237.672 78.2191 226.339C65.751 215.006 56.1933 200.84 50.3531 185.035C44.513 169.231 42.5619 152.253 44.6646 135.536C46.7674 118.819 52.8622 102.853 62.4344 88.9874C72.0066 75.1217 84.775 63.7631 99.6612 55.871C114.547 47.9789 131.114 43.7851 147.963 43.6437L148.844 148.64L216.45 228.979Z" stroke="white" stroke-width="6" mask="url(#path-2-outside-1_107_284)"/>
<path d="M83.992 182.042L81.64 178.458H79.992V182.042H78.456V178.458H76.808L74.472 182.042H72.648L75.56 177.658L72.872 173.562H74.504L76.792 177.146H78.456V173.562H79.992V177.146H81.656L83.944 173.562H85.592L82.904 177.674L85.816 182.042H83.992ZM94.8889 177.85C94.8889 177.978 94.8729 178.17 94.8569 178.314H87.9769C88.1689 179.802 89.3689 180.794 91.0489 180.794C92.0409 180.794 92.8729 180.458 93.4969 179.77L94.3449 180.762C93.5769 181.658 92.4089 182.138 91.0009 182.138C88.2649 182.138 86.4409 180.33 86.4409 177.802C86.4409 175.29 88.2489 173.482 90.6969 173.482C93.1449 173.482 94.8889 175.242 94.8889 177.85ZM90.6969 174.778C89.2249 174.778 88.1369 175.77 87.9769 177.21H93.4169C93.2569 175.786 92.1849 174.778 90.6969 174.778ZM97.2718 182.042V173.562H98.8078V177.162H103.64V173.562H105.176V182.042H103.64V178.49H98.8078V182.042H97.2718ZM120.242 180.698H121.506V183.85H120.066V182.042H108.162V173.562H109.698V180.698H113.442V173.562H114.978V180.698H118.706V173.562H120.242V180.698ZM123.225 182.042V173.562H124.761V179.738L129.961 173.562H131.353V182.042H129.817V175.866L124.633 182.042H123.225ZM134.334 182.042V173.562H135.87V177.162H140.702V173.562H142.238V182.042H140.702V178.49H135.87V182.042H134.334ZM149.049 176.442C151.193 176.458 152.345 177.466 152.345 179.21C152.345 181.05 151.065 182.074 148.793 182.058L145.225 182.042V173.562H146.761V176.426L149.049 176.442ZM153.609 182.042V173.562H155.145V182.042H153.609ZM148.681 180.89C150.057 180.906 150.793 180.33 150.793 179.194C150.793 178.074 150.073 177.594 148.681 177.578L146.761 177.546V180.874L148.681 180.89Z" fill="white"/>
<path d="M172.311 127.598H173.751V136.078H172.359V129.886L169.191 135.118H168.519L165.383 129.87V136.078H163.975V127.598H165.559L168.887 133.326L172.311 127.598ZM182.804 127.598H184.308L180.196 136.926C179.444 138.718 178.468 139.278 177.172 139.278C176.356 139.278 175.524 139.006 174.996 138.494L175.652 137.342C176.068 137.742 176.596 137.966 177.172 137.966C177.908 137.966 178.372 137.63 178.788 136.654L179.06 136.062L175.316 127.598H176.916L179.876 134.382L182.804 127.598ZM195.461 136.078L193.109 132.494H191.461V136.078H189.925V132.494H188.277L185.941 136.078H184.117L187.029 131.694L184.341 127.598H185.973L188.261 131.182H189.925V127.598H191.461V131.182H193.125L195.413 127.598H197.061L194.373 131.71L197.285 136.078H195.461ZM204.051 127.598H205.587V136.078H204.051V132.654C203.187 133.054 202.259 133.294 201.315 133.294C199.251 133.294 198.003 132.366 198.003 130.35V127.598H199.539V130.254C199.539 131.454 200.339 132.03 201.635 132.03C202.403 132.03 203.235 131.822 204.051 131.47V127.598ZM208.569 136.078V127.598H210.105V133.774L215.305 127.598H216.697V136.078H215.161V129.902L209.977 136.078H208.569ZM219.678 136.078V127.598H221.214V131.198H226.046V127.598H227.582V136.078H226.046V132.526H221.214V136.078H219.678ZM234.393 130.478C236.537 130.494 237.689 131.502 237.689 133.246C237.689 135.086 236.409 136.11 234.137 136.094L230.569 136.078V127.598H232.105V130.462L234.393 130.478ZM238.953 136.078V127.598H240.489V136.078H238.953ZM234.025 134.926C235.401 134.942 236.137 134.366 236.137 133.23C236.137 132.11 235.417 131.63 234.025 131.614L232.105 131.582V134.91L234.025 134.926Z" fill="white"/>
<path d="M92.2268 151.388C96.6748 151.388 99.9068 154.044 99.9068 158.172C99.9068 162.492 96.4188 165.244 91.9708 165.244C85.9548 165.244 82.5628 161.212 82.5628 154.076C82.5628 146.428 86.8828 142.332 93.1548 142.332C95.2668 142.332 97.2828 142.748 98.7228 143.644L97.5068 146.14C96.3548 145.372 94.8188 145.084 93.2188 145.084C88.6748 145.084 85.7628 147.932 85.7628 153.532C85.7628 153.788 85.7628 154.044 85.7948 154.332C87.0748 152.412 89.4428 151.388 92.2268 151.388ZM91.8428 162.652C94.7548 162.652 96.8028 160.956 96.8028 158.3C96.8028 155.676 94.8188 153.98 91.6828 153.98C88.6428 153.98 86.5308 155.868 86.5308 158.332C86.5308 160.636 88.3868 162.652 91.8428 162.652ZM101.033 142.588H109.257V164.988H106.089V145.372H101.033V142.588ZM119.021 154.62C115.917 154.62 113.805 152.156 113.805 148.508C113.805 144.86 115.917 142.396 119.021 142.396C122.125 142.396 124.205 144.828 124.205 148.508C124.205 152.188 122.125 154.62 119.021 154.62ZM117.229 164.988L132.525 142.588H134.989L119.693 164.988H117.229ZM119.021 152.796C120.973 152.796 122.157 151.196 122.157 148.508C122.157 145.82 120.973 144.22 119.021 144.22C117.101 144.22 115.885 145.852 115.885 148.508C115.885 151.164 117.101 152.796 119.021 152.796ZM133.197 165.18C130.093 165.18 128.013 162.716 128.013 159.068C128.013 155.42 130.093 152.956 133.197 152.956C136.301 152.956 138.413 155.42 138.413 159.068C138.413 162.716 136.301 165.18 133.197 165.18ZM133.197 163.356C135.117 163.356 136.333 161.724 136.333 159.068C136.333 156.412 135.117 154.78 133.197 154.78C131.245 154.78 130.061 156.38 130.061 159.068C130.061 161.756 131.245 163.356 133.197 163.356Z" fill="white"/>
<path d="M180.112 107.008C184.592 107.424 186.864 109.952 186.864 113.408C186.864 117.184 184.08 120.256 178.384 120.256C175.184 120.256 172.048 119.232 170.16 117.536L171.632 115.008C173.136 116.416 175.632 117.408 178.384 117.408C181.744 117.408 183.664 115.872 183.664 113.44C183.664 111.072 181.968 109.536 178.128 109.536H176.336V107.296L181.968 100.384H171.184V97.6H185.968V99.776L180.112 107.008ZM197.113 97.344C203.129 97.344 206.521 101.376 206.521 108.512C206.521 116.16 202.201 120.256 195.929 120.256C193.817 120.256 191.801 119.84 190.361 118.944L191.577 116.448C192.761 117.216 194.265 117.504 195.897 117.504C200.441 117.504 203.321 114.656 203.321 109.056V108.256C202.009 110.208 199.641 111.2 196.857 111.2C192.409 111.2 189.209 108.544 189.209 104.416C189.209 100.096 192.665 97.344 197.113 97.344ZM197.401 108.608C200.473 108.608 202.585 106.72 202.585 104.256C202.585 101.952 200.729 99.936 197.241 99.936C194.329 99.936 192.312 101.632 192.312 104.288C192.312 106.912 194.265 108.608 197.401 108.608ZM214.463 109.632C211.359 109.632 209.247 107.168 209.247 103.52C209.247 99.872 211.359 97.408 214.463 97.408C217.567 97.408 219.647 99.84 219.647 103.52C219.647 107.2 217.567 109.632 214.463 109.632ZM212.671 120L227.967 97.6H230.431L215.135 120H212.671ZM214.463 107.808C216.415 107.808 217.599 106.208 217.599 103.52C217.599 100.832 216.415 99.232 214.463 99.232C212.543 99.232 211.327 100.864 211.327 103.52C211.327 106.176 212.543 107.808 214.463 107.808ZM228.639 120.192C225.535 120.192 223.455 117.728 223.455 114.08C223.455 110.432 225.535 107.968 228.639 107.968C231.743 107.968 233.855 110.432 233.855 114.08C233.855 117.728 231.743 120.192 228.639 120.192ZM228.639 118.368C230.559 118.368 231.775 116.736 231.775 114.08C231.775 111.424 230.559 109.792 228.639 109.792C226.687 109.792 225.503 111.392 225.503 114.08C225.503 116.768 226.687 118.368 228.639 118.368Z" fill="white"/>
</svg>
