<?xml version="1.0" encoding="utf-8"?>
<!-- Generator: Adobe Illustrator 27.0.0, SVG Export Plug-In . SVG Version: 6.00 Build 0)  -->
<svg version="1.1" id="Layer_1" xmlns="http://www.w3.org/2000/svg" xmlns:xlink="http://www.w3.org/1999/xlink" x="0px" y="0px"
	 viewBox="0 0 219 221" style="enable-background:new 0 0 219 221;" xml:space="preserve">
<style type="text/css">
	.st0{fill:#1383C6;stroke:#FFFFFF;stroke-width:3;}
	.st1{fill:#CB3F8E;}
	.st2{fill:#FFFFFF;filter:url(#Adobe_OpacityMaskFilter);}
	
		.st3{mask:url(#path-2-outside-1_107_284_00000048486042510554944800000011292352799728148886_);fill:none;stroke:#FFFFFF;stroke-width:6;}
	.st4{fill:#FFFFFF;}
</style>
<circle class="st0" cx="109.8" cy="110.6" r="106.5"/>
<path class="st1" d="M177.4,191c-12.9,10.8-28.2,18.4-44.6,22.1s-33.5,3.4-49.8-1c-16.3-4.3-31.3-12.5-43.8-23.8
	c-12.5-11.3-22-25.5-27.9-41.3c-5.8-15.8-7.8-32.8-5.7-49.5C7.8,80.8,13.9,64.9,23.4,51C33,37.1,45.8,25.8,60.7,17.9
	C75.5,10,92.1,5.8,109,5.6l0.9,105L177.4,191z"/>
<defs>
	<filter id="Adobe_OpacityMaskFilter" filterUnits="userSpaceOnUse" x="1.8" y="2.6" width="179.8" height="216">
		<feColorMatrix  type="matrix" values="1 0 0 0 0  0 1 0 0 0  0 0 1 0 0  0 0 0 1 0"/>
	</filter>
</defs>
<mask maskUnits="userSpaceOnUse" x="1.8" y="2.6" width="179.8" height="216" id="path-2-outside-1_107_284_00000048486042510554944800000011292352799728148886_">
	<rect x="-42.3" y="-18.4" class="st2" width="276.8" height="281.2"/>
	<path d="M177.4,191c-12.9,10.8-28.2,18.4-44.6,22.1s-33.5,3.4-49.8-1c-16.3-4.3-31.3-12.5-43.8-23.8c-12.5-11.3-22-25.5-27.9-41.3
		c-5.8-15.8-7.8-32.8-5.7-49.5C7.8,80.8,13.9,64.9,23.4,51C33,37.1,45.8,25.8,60.7,17.9C75.5,10,92.1,5.8,109,5.6l0.9,105L177.4,191
		z"/>
</mask>
<path class="st3" d="M177.4,191c-12.9,10.8-28.2,18.4-44.6,22.1s-33.5,3.4-49.8-1c-16.3-4.3-31.3-12.5-43.8-23.8
	c-12.5-11.3-22-25.5-27.9-41.3c-5.8-15.8-7.8-32.8-5.7-49.5C7.8,80.8,13.9,64.9,23.4,51C33,37.1,45.8,25.8,60.7,17.9
	C75.5,10,92.1,5.8,109,5.6l0.9,105L177.4,191z"/>
<path class="st4" d="M45,144l-2.4-3.6H41v3.6h-1.5v-3.6h-1.6l-2.3,3.6h-1.8l2.9-4.4l-2.7-4.1h1.6l2.3,3.6h1.7v-3.6H41v3.6h1.7
	l2.3-3.6h1.6l-2.7,4.1l2.9,4.4H45z M55.9,139.9c0,0.1,0,0.3,0,0.5H49c0.2,1.5,1.4,2.5,3.1,2.5c1,0,1.8-0.3,2.4-1l0.8,1
	c-0.8,0.9-1.9,1.4-3.3,1.4c-2.7,0-4.6-1.8-4.6-4.3c0-2.5,1.8-4.3,4.3-4.3S55.9,137.2,55.9,139.9z M51.7,136.8c-1.5,0-2.6,1-2.7,2.4
	h5.4C54.3,137.8,53.2,136.8,51.7,136.8z M58.3,144v-8.5h1.5v3.6h4.8v-3.6h1.5v8.5h-1.5v-3.6h-4.8v3.6H58.3z M81.2,142.7h1.3v3.2
	h-1.4V144H69.2v-8.5h1.5v7.1h3.7v-7.1H76v7.1h3.7v-7.1h1.5V142.7z M84.2,144v-8.5h1.5v6.2l5.2-6.2h1.4v8.5h-1.5v-6.2l-5.2,6.2H84.2z
	 M95.3,144v-8.5h1.5v3.6h4.8v-3.6h1.5v8.5h-1.5v-3.6h-4.8v3.6H95.3z M110,138.4c2.1,0,3.3,1,3.3,2.8c0,1.8-1.3,2.9-3.6,2.8l-3.6,0
	v-8.5h1.5v2.9L110,138.4z M114.6,144v-8.5h1.5v8.5H114.6z M109.7,142.9c1.4,0,2.1-0.6,2.1-1.7c0-1.1-0.7-1.6-2.1-1.6l-1.9,0v3.3
	L109.7,142.9z"/>
<path class="st4" d="M133.3,89.6h1.4v8.5h-1.4v-6.2l-3.2,5.2h-0.7l-3.1-5.2v6.2H125v-8.5h1.6l3.3,5.7L133.3,89.6z M143.8,89.6h1.5
	l-4.1,9.3c-0.8,1.8-1.7,2.4-3,2.4c-0.8,0-1.6-0.3-2.2-0.8l0.7-1.2c0.4,0.4,0.9,0.6,1.5,0.6c0.7,0,1.2-0.3,1.6-1.3l0.3-0.6l-3.7-8.5
	h1.6l3,6.8L143.8,89.6z M156.5,98.1l-2.4-3.6h-1.6v3.6h-1.5v-3.6h-1.6l-2.3,3.6h-1.8l2.9-4.4l-2.7-4.1h1.6l2.3,3.6h1.7v-3.6h1.5v3.6
	h1.7l2.3-3.6h1.6l-2.7,4.1l2.9,4.4H156.5z M165.1,89.6h1.5v8.5h-1.5v-3.4c-0.9,0.4-1.8,0.6-2.7,0.6c-2.1,0-3.3-0.9-3.3-2.9v-2.8h1.5
	v2.7c0,1.2,0.8,1.8,2.1,1.8c0.8,0,1.6-0.2,2.4-0.6V89.6z M169.6,98.1v-8.5h1.5v6.2l5.2-6.2h1.4v8.5h-1.5v-6.2l-5.2,6.2H169.6z
	 M180.7,98.1v-8.5h1.5v3.6h4.8v-3.6h1.5v8.5H187v-3.6h-4.8v3.6H180.7z M195.4,92.5c2.1,0,3.3,1,3.3,2.8c0,1.8-1.3,2.9-3.6,2.8
	l-3.6,0v-8.5h1.5v2.9L195.4,92.5z M200,98.1v-8.5h1.5v8.5H200z M195,96.9c1.4,0,2.1-0.6,2.1-1.7c0-1.1-0.7-1.6-2.1-1.6l-1.9,0v3.3
	L195,96.9z"/>
<path class="st4" d="M53.2,113.4c4.4,0,7.7,2.7,7.7,6.8c0,4.3-3.5,7.1-7.9,7.1c-6,0-9.4-4-9.4-11.2c0-7.6,4.3-11.7,10.6-11.7
	c2.1,0,4.1,0.4,5.6,1.3l-1.2,2.5c-1.2-0.8-2.7-1.1-4.3-1.1c-4.5,0-7.5,2.8-7.5,8.4c0,0.3,0,0.5,0,0.8
	C48.1,114.4,50.4,113.4,53.2,113.4z M52.8,124.7c2.9,0,5-1.7,5-4.4c0-2.6-2-4.3-5.1-4.3c-3,0-5.2,1.9-5.2,4.4
	C47.5,122.6,49.4,124.7,52.8,124.7z M62,104.6h8.2V127h-3.2v-19.6H62V104.6z M80,116.6c-3.1,0-5.2-2.5-5.2-6.1
	c0-3.6,2.1-6.1,5.2-6.1c3.1,0,5.2,2.4,5.2,6.1C85.2,114.2,83.1,116.6,80,116.6z M78.2,127l15.3-22.4H96L80.7,127H78.2z M80,114.8
	c2,0,3.1-1.6,3.1-4.3c0-2.7-1.2-4.3-3.1-4.3c-1.9,0-3.1,1.6-3.1,4.3C76.9,113.2,78.1,114.8,80,114.8z M94.2,127.2
	c-3.1,0-5.2-2.5-5.2-6.1c0-3.6,2.1-6.1,5.2-6.1c3.1,0,5.2,2.5,5.2,6.1C99.4,124.7,97.3,127.2,94.2,127.2z M94.2,125.4
	c1.9,0,3.1-1.6,3.1-4.3c0-2.7-1.2-4.3-3.1-4.3c-2,0-3.1,1.6-3.1,4.3C91.1,123.8,92.2,125.4,94.2,125.4z"/>
<path class="st4" d="M141.1,69c4.5,0.4,6.8,2.9,6.8,6.4c0,3.8-2.8,6.8-8.5,6.8c-3.2,0-6.3-1-8.2-2.7l1.5-2.5c1.5,1.4,4,2.4,6.8,2.4
	c3.4,0,5.3-1.5,5.3-4c0-2.4-1.7-3.9-5.5-3.9h-1.8v-2.2l5.6-6.9h-10.8v-2.8H147v2.2L141.1,69z M158.1,59.3c6,0,9.4,4,9.4,11.2
	c0,7.6-4.3,11.7-10.6,11.7c-2.1,0-4.1-0.4-5.6-1.3l1.2-2.5c1.2,0.8,2.7,1.1,4.3,1.1c4.5,0,7.4-2.8,7.4-8.4v-0.8
	c-1.3,2-3.7,2.9-6.5,2.9c-4.4,0-7.6-2.7-7.6-6.8C150.2,62.1,153.7,59.3,158.1,59.3z M158.4,70.6c3.1,0,5.2-1.9,5.2-4.4
	c0-2.3-1.9-4.3-5.3-4.3c-2.9,0-4.9,1.7-4.9,4.4C153.3,68.9,155.3,70.6,158.4,70.6z M175.5,71.6c-3.1,0-5.2-2.5-5.2-6.1
	c0-3.6,2.1-6.1,5.2-6.1s5.2,2.4,5.2,6.1S178.6,71.6,175.5,71.6z M173.7,82L189,59.6h2.5L176.1,82H173.7z M175.5,69.8
	c2,0,3.1-1.6,3.1-4.3c0-2.7-1.2-4.3-3.1-4.3c-1.9,0-3.1,1.6-3.1,4.3C172.3,68.2,173.5,69.8,175.5,69.8z M189.6,82.2
	c-3.1,0-5.2-2.5-5.2-6.1c0-3.6,2.1-6.1,5.2-6.1c3.1,0,5.2,2.5,5.2,6.1C194.9,79.7,192.7,82.2,189.6,82.2z M189.6,80.4
	c1.9,0,3.1-1.6,3.1-4.3s-1.2-4.3-3.1-4.3c-2,0-3.1,1.6-3.1,4.3C186.5,78.8,187.7,80.4,189.6,80.4z"/>
</svg>
