<svg width="102" height="102" viewBox="0 0 102 102" fill="none" xmlns="http://www.w3.org/2000/svg">
<path d="M81.0304 50.9995C81.0304 67.5253 67.5834 80.9223 51.0009 80.9223C34.4155 80.9223 20.9713 67.5253 20.9713 50.9995C20.9713 34.4736 34.4155 21.0757 51.0009 21.0757C67.5834 21.0766 81.0304 34.4736 81.0304 50.9995Z" fill="white"/>
<path d="M27.81 58.3758V44.0703H32.6031L35.6952 48.785L38.6239 44.0703H43.3282V58.3758H38.6239V50.3301L36.2694 54.0644H34.7998L32.6031 50.7995V58.3758H27.81Z" fill="black"/>
<path d="M50.7326 58.3758L54.7918 51.7911V58.3758H59.5896V44.0703H54.7918L50.7326 50.8193V44.0703H45.9348V58.3758H50.7326Z" fill="black"/>
<path d="M68.2077 51.9555C69.2551 51.9555 70.4847 51.5484 70.4847 49.4348C70.4847 47.8113 69.4175 47.4061 68.2077 47.4061H66.9827V51.9555H68.2077ZM62.1878 58.3758V44.0703H69.0152C72.1791 44.0703 75.2778 45.6173 75.2778 49.4357C75.2778 53.578 72.0176 55.2856 69.0152 55.2856H66.9837V58.3768H62.1878V58.3758Z" fill="black"/>
<path d="M77.5595 39.995L98.1022 31.4846C93.1098 19.4307 83.5181 9.28356 70.5093 3.89551L62.0074 24.4362C69.0218 27.3517 74.6422 32.9683 77.5595 39.995Z" fill="#B2D237"/>
<path d="M24.4374 62.0005L3.89478 70.5043C8.88994 82.562 18.477 92.7195 31.4858 98.1028L40.0009 77.5517C32.9723 74.6362 27.3472 69.0205 24.4374 62.0005Z" fill="#1383C6"/>
<path d="M22.2548 50.9975C22.2548 47.1026 23.0311 43.3872 24.4374 39.9947L3.89479 31.4834C-1.09659 43.5355 -1.49609 57.4981 3.89479 70.5031L24.4374 61.9993C23.0321 58.6126 22.2548 54.9009 22.2548 50.9975Z" fill="#1D93D1"/>
<path d="M50.998 79.7343C47.1022 79.7343 43.3868 78.958 39.9953 77.5508L31.4849 98.1019C44.4899 103.492 58.4563 103.101 70.5084 98.1019L61.9999 77.5508C58.6102 78.958 54.9005 79.7343 50.998 79.7343Z" fill="#1D93D1"/>
<path d="M39.9952 24.4362L31.4858 3.89551C18.4761 9.28356 8.88994 19.4307 3.89478 31.4837L24.4374 39.9941C27.3472 32.9683 32.9723 27.3517 39.9952 24.4362Z" fill="#00AB6C"/>
<path d="M77.5595 62.0005C74.6422 69.0205 69.0227 74.6362 62.0074 77.5517L70.5093 98.1028C83.5181 92.7195 93.1108 82.562 98.1022 70.5043L77.5595 62.0005Z" fill="#00AB6C"/>
<path d="M98.1012 31.4834L77.5586 39.9938C78.9573 43.3815 79.7478 47.1017 79.7478 50.9966C79.7478 54.8933 78.9583 58.6116 77.5586 61.9993L98.1012 70.5031C103.099 58.452 103.496 44.4988 98.1012 31.4834Z" fill="#8CC541"/>
<path d="M50.998 22.2536C54.9005 22.2536 58.6102 23.0308 61.9999 24.4362L70.5084 3.89546C57.4967 -1.49354 43.5407 -1.0997 31.4849 3.89546L39.9953 24.4362C43.3877 23.0308 47.1031 22.2536 50.998 22.2536Z" fill="#8CC541"/>
</svg>
