<svg width="91" height="91" viewBox="0 0 91 91" fill="none" xmlns="http://www.w3.org/2000/svg">
<g clip-path="url(#clip0_107_61)">
<path d="M72.2919 45.5C72.2919 60.2437 60.2951 72.1959 45.5009 72.1959C30.7041 72.1959 18.7098 60.2437 18.7098 45.5C18.7098 30.7563 30.7041 18.8033 45.5009 18.8033C60.2951 18.8042 72.2919 30.7563 72.2919 45.5Z" fill="white"/>
<path d="M69.1954 35.6821L87.5226 28.0895C83.0687 17.3355 74.5113 8.2827 62.9055 3.47571L55.3204 21.8013C61.5784 24.4023 66.5926 29.4132 69.1954 35.6821Z" fill="#B2D237"/>
<path d="M21.8021 55.3145L3.47485 62.9012C7.93133 73.6586 16.4845 82.7207 28.0904 87.5235L35.6872 69.1886C29.4166 66.5876 24.3981 61.5775 21.8021 55.3145Z" fill="#1383C6"/>
<path d="M19.8548 45.4983C19.8548 42.0235 20.5474 38.7087 21.8021 35.6821L3.47483 28.0887C-0.978273 38.841 -1.33469 51.2979 3.47483 62.9004L21.8021 55.3137C20.5483 52.2922 19.8548 48.9808 19.8548 45.4983Z" fill="#1D93D1"/>
<path d="M45.4983 71.1359C42.0226 71.1359 38.7078 70.4433 35.6821 69.1878L28.0895 87.5226C39.692 92.3313 52.1522 91.9825 62.9046 87.5226L55.3136 69.1878C52.2896 70.4433 48.9799 71.1359 45.4983 71.1359Z" fill="#1D93D1"/>
<path d="M35.6821 21.8013L28.0904 3.47571C16.4836 8.2827 7.93133 17.3355 3.47485 28.0887L21.8021 35.6813C24.3981 29.4132 29.4166 24.4023 35.6821 21.8013Z" fill="#00AB6C"/>
<path d="M69.1954 55.3145C66.5926 61.5775 61.5792 66.5876 55.3204 69.1886L62.9055 87.5235C74.5113 82.7207 83.0695 73.6586 87.5226 62.9012L69.1954 55.3145Z" fill="#00AB6C"/>
<path d="M87.5218 28.0887L69.1946 35.6813C70.4425 38.7037 71.1477 42.0226 71.1477 45.4975C71.1477 48.974 70.4433 52.2913 69.1946 55.3137L87.5218 62.9004C91.9808 52.1489 92.3347 39.7005 87.5218 28.0887Z" fill="#8CC541"/>
<path d="M45.4983 19.854C48.9799 19.854 52.2896 20.5475 55.3136 21.8012L62.9046 3.4757C51.2962 -1.33213 38.8452 -0.980773 28.0895 3.4757L35.6821 21.8012C38.7087 20.5475 42.0234 19.854 45.4983 19.854Z" fill="#8CC541"/>
<path d="M28.1678 58.9436V48.1348H31.791L34.1258 51.6981L36.3368 48.1348H39.8976V58.9436H36.3368V52.8626L34.5648 55.6912H33.4492L31.791 53.2198V58.9436H28.1678Z" fill="black"/>
<path d="M45.4924 58.9436L48.5619 53.9714V58.9436H52.1851V48.1348H48.5619L45.4924 53.2359V48.1348H41.8658V58.9436H45.4924Z" fill="black"/>
<path d="M58.7009 54.0911C59.4896 54.0911 60.4164 53.7869 60.4164 52.1885C60.4164 50.9609 59.6084 50.6558 58.7009 50.6558H57.7656V54.0911H58.7009ZM54.1484 58.9436V48.1348H59.3076C61.6988 48.1348 64.0413 49.306 64.0413 52.1894C64.0413 55.323 61.5716 56.6113 59.3076 56.6113H57.7656V58.9436H54.1484Z" fill="black"/>
<path d="M31.3444 46.4302C31.3444 44.3861 32.0193 43.0143 33.3717 41.6199C36.2188 38.6598 40.6862 37.5063 40.6862 34.6912C40.6862 33.6093 39.6482 32.9841 38.6345 32.9841C36.7033 32.9841 36.1708 34.5952 36.1708 36.2323H31.657C31.657 31.1793 34.4561 29.2304 38.8747 29.2304C42.4001 29.2304 45.7073 30.7715 45.7073 34.7148C45.7073 39.0449 40.6862 40.2481 37.7641 42.3411H45.7073V46.4311H31.3444V46.4302Z" fill="black"/>
<path d="M46.6105 38.8755L54.552 29.4688H59.2368V39.1418H61.3618V42.893H59.2368V46.4302H54.4568V42.893H46.6105V38.8755ZM50.3997 39.1426H54.4559V33.9936L50.3997 39.1426Z" fill="black"/>
<path d="M72.2919 45.5C72.2919 60.2437 60.2951 72.1959 45.5009 72.1959C30.7041 72.1959 18.7098 60.2437 18.7098 45.5C18.7098 30.7563 30.7041 18.8033 45.5009 18.8033C60.2951 18.8042 72.2919 30.7563 72.2919 45.5Z" fill="white"/>
<path d="M69.1954 35.6821L87.5226 28.0895C83.0687 17.3355 74.5113 8.2827 62.9055 3.47571L55.3204 21.8013C61.5784 24.4023 66.5926 29.4132 69.1954 35.6821Z" fill="#B2D237"/>
<path d="M21.8021 55.3145L3.47485 62.9012C7.93133 73.6586 16.4845 82.7207 28.0904 87.5235L35.6872 69.1886C29.4166 66.5876 24.3981 61.5775 21.8021 55.3145Z" fill="#1383C6"/>
<path d="M19.8548 45.4983C19.8548 42.0235 20.5474 38.7087 21.8021 35.6821L3.47483 28.0887C-0.978273 38.841 -1.33469 51.2979 3.47483 62.9004L21.8021 55.3137C20.5483 52.2922 19.8548 48.9808 19.8548 45.4983Z" fill="#1D93D1"/>
<path d="M45.4983 71.1359C42.0226 71.1359 38.7078 70.4433 35.6821 69.1878L28.0895 87.5226C39.692 92.3313 52.1522 91.9825 62.9046 87.5226L55.3136 69.1878C52.2896 70.4433 48.9799 71.1359 45.4983 71.1359Z" fill="#1D93D1"/>
<path d="M35.6821 21.8013L28.0904 3.47571C16.4836 8.2827 7.93133 17.3355 3.47485 28.0887L21.8021 35.6813C24.3981 29.4132 29.4166 24.4023 35.6821 21.8013Z" fill="#00AB6C"/>
<path d="M69.1954 55.3145C66.5926 61.5775 61.5792 66.5876 55.3204 69.1886L62.9055 87.5235C74.5113 82.7207 83.0695 73.6586 87.5226 62.9012L69.1954 55.3145Z" fill="#00AB6C"/>
<path d="M87.5218 28.0887L69.1946 35.6813C70.4425 38.7037 71.1477 42.0226 71.1477 45.4975C71.1477 48.974 70.4433 52.2913 69.1946 55.3137L87.5218 62.9004C91.9808 52.1489 92.3347 39.7005 87.5218 28.0887Z" fill="#8CC541"/>
<path d="M45.4983 19.854C48.9799 19.854 52.2896 20.5475 55.3136 21.8012L62.9046 3.4757C51.2962 -1.33213 38.8452 -0.980773 28.0895 3.4757L35.6821 21.8012C38.7087 20.5475 42.0234 19.854 45.4983 19.854Z" fill="#8CC541"/>
<path d="M28.1678 58.9436V48.1348H31.791L34.1258 51.6981L36.3368 48.1348H39.8976V58.9436H36.3368V52.8626L34.5648 55.6912H33.4492L31.791 53.2198V58.9436H28.1678Z" fill="black"/>
<path d="M45.4924 58.9436L48.5619 53.9714V58.9436H52.1851V48.1348H48.5619L45.4924 53.2359V48.1348H41.8658V58.9436H45.4924Z" fill="black"/>
<path d="M58.7009 54.0911C59.4896 54.0911 60.4164 53.7869 60.4164 52.1885C60.4164 50.9609 59.6084 50.6558 58.7009 50.6558H57.7656V54.0911H58.7009ZM54.1484 58.9436V48.1348H59.3076C61.6988 48.1348 64.0413 49.306 64.0413 52.1894C64.0413 55.323 61.5716 56.6113 59.3076 56.6113H57.7656V58.9436H54.1484Z" fill="black"/>
<path d="M31.3444 46.4302C31.3444 44.3861 32.0193 43.0143 33.3717 41.6199C36.2188 38.6598 40.6862 37.5063 40.6862 34.6912C40.6862 33.6093 39.6482 32.9841 38.6345 32.9841C36.7033 32.9841 36.1708 34.5952 36.1708 36.2323H31.657C31.657 31.1793 34.4561 29.2304 38.8747 29.2304C42.4001 29.2304 45.7073 30.7715 45.7073 34.7148C45.7073 39.0449 40.6862 40.2481 37.7641 42.3411H45.7073V46.4311H31.3444V46.4302Z" fill="black"/>
<path d="M46.6105 38.8755L54.552 29.4688H59.2368V39.1418H61.3618V42.893H59.2368V46.4302H54.4568V42.893H46.6105V38.8755ZM50.3997 39.1426H54.4559V33.9936L50.3997 39.1426Z" fill="black"/>
</g>
<defs>
<clipPath id="clip0_107_61">
<rect width="91" height="91" fill="white"/>
</clipPath>
</defs>
</svg>
