<svg width="161" height="40" viewBox="0 0 161 40" fill="none" xmlns="http://www.w3.org/2000/svg">
<rect width="161" height="40" rx="20" fill="#1383C6"/>
<path d="M57.2541 17.264C59.3021 17.264 60.7741 18.448 60.7741 21.072V26H58.2781V21.456C58.2781 20.064 57.6541 19.424 56.6461 19.424C55.5261 19.424 54.7421 20.144 54.7421 21.68V26H52.2461V21.456C52.2461 20.064 51.6541 19.424 50.6141 19.424C49.5101 19.424 48.7261 20.144 48.7261 21.68V26H46.2301V17.392H48.6141V18.384C49.2541 17.648 50.2141 17.264 51.3181 17.264C52.5181 17.264 53.5421 17.728 54.1501 18.672C54.8381 17.792 55.9581 17.264 57.2541 17.264ZM64.2594 16.192C63.3314 16.192 62.7074 15.584 62.7074 14.8C62.7074 14.016 63.3314 13.408 64.2594 13.408C65.1874 13.408 65.8114 13.984 65.8114 14.752C65.8114 15.584 65.1874 16.192 64.2594 16.192ZM63.0114 26V17.392H65.5074V26H63.0114ZM70.2079 18.528C70.8159 17.696 71.8399 17.264 73.1679 17.264V19.568C72.9599 19.552 72.7999 19.536 72.6079 19.536C71.2319 19.536 70.3199 20.288 70.3199 21.936V26H67.8239V17.392H70.2079V18.528ZM77.8323 23.888H82.6483V26H74.1842V24.32L78.5043 20.24C79.4963 19.296 79.6723 18.72 79.6723 18.176C79.6723 17.296 79.0643 16.784 77.8802 16.784C76.9203 16.784 76.1043 17.152 75.5603 17.904L73.6723 16.688C74.5363 15.424 76.1043 14.608 78.1203 14.608C80.6163 14.608 82.2803 15.888 82.2803 17.92C82.2803 19.008 81.9763 20 80.4083 21.456L77.8323 23.888ZM93.8175 21.536V23.648H91.9935V26H89.4655V23.648H83.4335V21.904L88.7135 14.8H91.4335L86.5375 21.536H89.5455V19.44H91.9935V21.536H93.8175ZM96.3773 26.128C95.5133 26.128 94.8253 25.472 94.8253 24.56C94.8253 23.632 95.5133 23.024 96.3773 23.024C97.2413 23.024 97.9293 23.632 97.9293 24.56C97.9293 25.472 97.2413 26.128 96.3773 26.128ZM104.438 23.824L105.11 25.584C104.598 25.952 103.846 26.128 103.078 26.128C101.046 26.128 99.8623 25.088 99.8623 23.04V19.504H98.5343V17.584H99.8623V15.488H102.358V17.584H104.502V19.504H102.358V23.008C102.358 23.744 102.758 24.144 103.43 24.144C103.798 24.144 104.166 24.032 104.438 23.824ZM112.655 17.392H115.055L111.423 26H108.847L105.231 17.392H107.807L110.191 23.248L112.655 17.392Z" fill="white"/>
</svg>
