<svg width="35" height="35" viewBox="0 0 35 35" fill="none" xmlns="http://www.w3.org/2000/svg">
<rect width="35" height="35" rx="5" fill="#1383C6"/>
<circle cx="13" cy="12" r="1.5" fill="#1383C6" stroke="#E5E5E5"/>
<circle cx="22" cy="12" r="1.5" fill="#1383C6" stroke="#E5E5E5"/>
<path d="M8.99655 18.8789C8.37737 18.3285 7.42926 18.3843 6.87889 19.0035C6.32851 19.6226 6.38428 20.5707 7.00345 21.1211L8.99655 18.8789ZM8 20L7.00345 21.1211C7.85242 21.8757 9.33895 22.9514 11.1483 23.8449C12.9507 24.735 15.1855 25.5 17.5 25.5V24V22.5C15.8145 22.5 14.0493 21.9316 12.4767 21.1551C10.911 20.3819 9.64758 19.4576 8.99655 18.8789L8 20ZM17.5 24V25.5C19.8226 25.5 21.9829 24.7304 23.6986 23.8274C25.4155 22.9238 26.7875 21.8338 27.5607 21.0607L26.5 20L25.4393 18.9393C24.8791 19.4995 23.7512 20.4096 22.3014 21.1726C20.8504 21.9363 19.1774 22.5 17.5 22.5V24Z" fill="#E5E5E5"/>
<path d="M25.5 18.5L28.5 21.5" stroke="#E5E5E5" stroke-width="3" stroke-linecap="round"/>
<path d="M9.5 18.5L6.5 21.5" stroke="#E5E5E5" stroke-width="3" stroke-linecap="round"/>
</svg>
