<svg width="40" height="40" viewBox="0 0 40 40" fill="none" xmlns="http://www.w3.org/2000/svg">
<path d="M20 0C16.0444 0 12.1776 1.17298 8.8886 3.37061C5.59962 5.56824 3.03617 8.69181 1.52242 12.3463C0.00866572 16.0009 -0.387401 20.0222 0.384303 23.9018C1.15601 27.7814 3.06082 31.3451 5.85787 34.1421C8.65492 36.9392 12.2186 38.844 16.0982 39.6157C19.9778 40.3874 23.9991 39.9913 27.6537 38.4776C31.3082 36.9638 34.4318 34.4004 36.6294 31.1114C38.827 27.8224 40 23.9556 40 20C40 14.6957 37.8929 9.60859 34.1421 5.85786C30.3914 2.10714 25.3043 0 20 0ZM20 6.66667C21.3613 6.66667 22.692 7.07033 23.8238 7.82661C24.9557 8.58288 25.8378 9.65781 26.3588 10.9155C26.8797 12.1731 27.016 13.557 26.7504 14.8921C26.4849 16.2272 25.8293 17.4536 24.8668 18.4161C23.9042 19.3787 22.6779 20.0342 21.3427 20.2998C20.0076 20.5653 18.6238 20.429 17.3661 19.9081C16.1085 19.3872 15.0336 18.505 14.2773 17.3731C13.521 16.2413 13.1173 14.9106 13.1173 13.5493C13.1195 11.7246 13.8453 9.97518 15.1356 8.68489C16.4259 7.3946 18.1753 6.66878 20 6.66667ZM26.632 29.8907C27.009 30.2682 27.2207 30.7798 27.2207 31.3133C27.2207 31.8468 27.009 32.3585 26.632 32.736C26.4452 32.9234 26.2233 33.0721 25.9789 33.1735C25.7346 33.2749 25.4726 33.3272 25.208 33.3272C24.9434 33.3272 24.6814 33.2749 24.4371 33.1735C24.1927 33.0721 23.9708 32.9234 23.784 32.736L20 28.9627L16.2187 32.7413C16.0326 32.9336 15.8102 33.0869 15.5643 33.1924C15.3184 33.2978 15.054 33.3532 14.7865 33.3554C14.5189 33.3577 14.2536 33.3066 14.006 33.2052C13.7584 33.1039 13.5335 32.9542 13.3443 32.765C13.1551 32.5759 13.0055 32.3509 12.9041 32.1033C12.8028 31.8557 12.7517 31.5904 12.7539 31.3229C12.7561 31.0554 12.8115 30.7909 12.917 30.545C13.0224 30.2991 13.1757 30.0767 13.368 29.8907L17.2133 26.0427C15.7967 25.7198 14.4445 25.1609 13.2133 24.3893C12.9888 24.2476 12.7943 24.0629 12.6412 23.8459C12.4881 23.6289 12.3794 23.3838 12.3212 23.1247C12.2629 22.8656 12.2564 22.5975 12.302 22.3359C12.3476 22.0743 12.4443 21.8242 12.5867 21.6C12.8715 21.1479 13.3242 20.8274 13.8452 20.7089C14.3662 20.5904 14.913 20.6836 15.3653 20.968C16.754 21.8371 18.3591 22.2981 19.9973 22.2981C21.6355 22.2981 23.2407 21.8371 24.6293 20.968C24.8536 20.827 25.1035 20.7317 25.3647 20.6873C25.6258 20.6429 25.8932 20.6504 26.1514 20.7093C26.4097 20.7682 26.6539 20.8775 26.8699 21.0307C27.086 21.184 27.2697 21.3784 27.4107 21.6027C27.5516 21.827 27.647 22.0768 27.6914 22.338C27.7358 22.5992 27.7283 22.8665 27.6694 23.1248C27.6104 23.383 27.5012 23.6272 27.3479 23.8432C27.1946 24.0593 27.0003 24.243 26.776 24.384C25.5449 25.1557 24.1927 25.7146 22.776 26.0373L26.632 29.8907Z" fill="#1383C6"/>
<path d="M20.0001 16.3972C20.5634 16.3972 21.114 16.2301 21.5824 15.9172C22.0507 15.6043 22.4157 15.1595 22.6313 14.6391C22.8469 14.1187 22.9033 13.546 22.7934 12.9936C22.6835 12.4411 22.4122 11.9336 22.0139 11.5353C21.6156 11.137 21.1082 10.8658 20.5557 10.7559C20.0033 10.646 19.4306 10.7024 18.9102 10.918C18.3898 11.1335 17.945 11.4986 17.6321 11.9669C17.3191 12.4353 17.1521 12.9859 17.1521 13.5492C17.1528 14.3043 17.4531 15.0283 17.987 15.5622C18.521 16.0962 19.245 16.3965 20.0001 16.3972Z" fill="#1383C6"/>
</svg>
