<svg width="35" height="35" viewBox="0 0 35 35" fill="none" xmlns="http://www.w3.org/2000/svg">
<path fill-rule="evenodd" clip-rule="evenodd" d="M0.92642 0.92642C0 1.85285 0 3.3439 0 6.32601V28.674C0 31.6561 0 33.1472 0.92642 34.0736C1.85285 35 3.3439 35 6.32601 35H28.674C31.6561 35 33.1472 35 34.0736 34.0736C35 33.1472 35 31.6561 35 28.674V6.32601C35 3.3439 35 1.85285 34.0736 0.92642C33.1472 0 31.6561 0 28.674 0H6.32601C3.3439 0 1.85285 0 0.92642 0.92642ZM17.5749 22.0361L21.4698 27.9424V27.982H27.3915L22.5428 20.8469C24.7287 19.5784 26.0402 17.3982 26.0402 14.7423C26.0402 10.3424 22.6223 7.56759 17.4954 7.56759H8.51355V27.9424H13.6404V22.0361H17.5352H17.5749ZM17.4557 17.4775H13.6801V12.0072H17.4557C19.4031 12.0072 20.9531 13.0378 20.9531 14.7027C20.9531 16.4072 19.4428 17.4775 17.4557 17.4775Z" fill="#1383C6"/>
</svg>
