<svg width="49" height="49" viewBox="0 0 49 49" fill="none" xmlns="http://www.w3.org/2000/svg">
<g clip-path="url(#clip0_107_351)">
<path d="M48.0309 26.9898C49.3158 25.6932 49.3158 23.5902 48.0309 22.2936C47.6498 21.9122 47.1816 21.6616 46.6807 21.509C45.2651 12.9338 39.2218 5.81858 31.0116 3.04007C30.9571 2.27733 30.6522 1.5255 30.0642 0.937108C28.812 -0.31595 26.6342 -0.31595 25.382 0.937108C25.1098 1.20951 24.9138 1.5146 24.7613 1.84149C24.3476 1.8197 23.9229 1.78701 23.5091 1.78701C19.3387 1.78701 15.2336 2.90931 11.662 5.00137C11.6511 5.00137 11.6293 5.02316 11.6184 5.03406C11.5531 5.06675 11.4987 5.11033 11.4442 5.14302C10.3989 4.95779 9.25556 5.25198 8.48244 6.02561C7.90533 6.60311 7.61133 7.33315 7.546 8.08498C7.42622 8.20484 7.28467 8.3138 7.17578 8.43366C2.548 12.9229 0 18.9484 0 25.399C0 29.0056 0.794889 32.4488 2.34111 35.6413C2.19956 36.6329 2.50444 37.6898 3.26667 38.4526C3.60422 38.8012 4.018 39.0518 4.46444 39.2153C8.88533 45.3498 15.974 49.0109 23.52 49.0109C31.4689 49.0109 38.6991 45.0883 43.0656 38.4744C43.2724 38.5179 43.4902 38.5397 43.708 38.5397C44.59 38.5397 45.4284 38.1911 46.0491 37.57C47.334 36.2733 47.334 34.1704 46.0491 32.8737C45.9838 32.8084 45.9184 32.7648 45.8531 32.7103C46.3758 31.1086 46.7242 29.4414 46.8876 27.7416C47.3122 27.5782 47.7042 27.3276 48.0309 27.0007V26.9898ZM46.4847 25.4535C46.06 25.8784 45.3087 25.8784 44.884 25.4535C44.4376 25.0067 44.4376 24.2767 44.884 23.8408C45.3087 23.4159 46.06 23.4159 46.4847 23.8408C46.9311 24.2876 46.9311 25.0176 46.4847 25.4643V25.4535ZM44.4811 21.5744C44.394 21.6071 44.3178 21.6507 44.2416 21.6834C41.2798 18.6651 37.6211 16.5404 33.5487 15.4617C33.4507 14.7752 33.1567 14.0997 32.6231 13.5657C32.2747 13.2171 31.8609 12.9774 31.4036 12.8248C31.2947 10.3841 30.8156 7.99781 29.9662 5.70962C29.9989 5.68783 30.0316 5.66604 30.0533 5.63335C30.2058 5.4808 30.3364 5.31736 30.4453 5.15392C37.73 7.68183 43.0982 13.9689 44.4702 21.5635L44.4811 21.5744ZM33.2982 38.9102C32.8518 38.4635 32.8518 37.7334 33.2982 37.2976C33.7229 36.8726 34.4742 36.8726 34.8989 37.2976C35.3453 37.7443 35.3453 38.4743 34.8989 38.9102C34.4742 39.346 33.7229 39.346 33.2982 38.9102ZM34.0387 34.8132C33.2002 34.8241 32.3618 35.1401 31.752 35.7503C31.36 36.1426 31.1096 36.6111 30.9462 37.1123C27.8864 36.9053 24.9138 36.0445 22.2242 34.5735C22.4093 33.9416 22.4093 33.266 22.2024 32.634C26.5362 29.2998 29.5416 24.6362 30.7938 19.3189C33.124 22.8166 34.3544 26.8808 34.3544 31.1303C34.3544 32.3834 34.2456 33.6256 34.0278 34.8241L34.0387 34.8132ZM8.79822 35.2818C8.65667 34.7152 8.38444 34.1813 7.94889 33.7454C7.63311 33.4294 7.26289 33.2006 6.86 33.0372C7.46978 30.5964 8.51511 28.2538 9.94156 26.1617C10.3227 26.3142 10.7256 26.3905 11.1502 26.3905C11.2482 26.3905 11.3462 26.3687 11.4442 26.3578C12.5984 28.6569 14.112 30.7272 15.9522 32.5468C15.8107 32.95 15.7562 33.375 15.778 33.789C13.5458 34.6716 11.2156 35.1728 8.79822 35.26V35.2818ZM6.40267 36.9053C5.978 37.3303 5.22667 37.3303 4.802 36.9053C4.35556 36.4586 4.35556 35.7285 4.802 35.2927C5.01978 35.0747 5.30289 34.9549 5.59689 34.9549C5.89089 34.9549 6.18489 35.0747 6.40267 35.2927C6.84911 35.7394 6.84911 36.4695 6.40267 36.9053ZM13.1647 10.7219C13.4587 10.4277 13.6656 10.1008 13.8289 9.7412C18.5547 9.91554 23.0518 11.6371 26.6778 14.6881C21.5056 14.8842 16.562 16.7692 12.5767 20.0816C12.2282 19.9182 11.858 19.8201 11.466 19.7766C11.2156 18.4363 11.074 17.0743 11.074 15.7232C11.074 14.3721 11.2156 12.9556 11.4769 11.6153C12.1084 11.4846 12.6964 11.1795 13.1538 10.711L13.1647 10.7219ZM20.9393 30.8688C20.3949 30.4984 19.7524 30.3022 19.0882 30.3022C18.4458 30.3022 17.836 30.4875 17.3133 30.8253C15.7453 29.2453 14.4496 27.4583 13.4478 25.4752C13.4696 25.4534 13.4913 25.4426 13.5131 25.4208C14.5367 24.3965 14.7327 22.8711 14.1338 21.6289C17.8142 18.6216 22.3767 16.9327 27.1351 16.8455C27.2876 17.3576 27.5489 17.8479 27.9518 18.2511C28.1696 18.4799 28.4309 18.6543 28.7031 18.7959C27.5816 23.612 24.8593 27.8397 20.9393 30.8688ZM11.5858 24.135C11.4551 24.1895 11.3136 24.2222 11.1611 24.2222C10.8562 24.2222 10.5731 24.1023 10.3662 23.8844C9.91978 23.4377 9.91978 22.7076 10.3662 22.2718C10.584 22.0539 10.8671 21.934 11.1611 21.934C11.4551 21.934 11.7491 22.0539 11.9669 22.2718C12.4133 22.7185 12.4133 23.4486 11.9669 23.8844C11.858 23.9934 11.7382 24.0696 11.6076 24.1241C11.6076 24.1241 11.6076 24.1241 11.5967 24.1241L11.5858 24.135ZM30.282 14.7752C30.5869 14.7752 30.87 14.8951 31.0769 15.113C31.5233 15.5597 31.5233 16.2898 31.0769 16.7256C30.6522 17.1506 29.9009 17.1506 29.4762 16.7256C29.0298 16.2789 29.0298 15.5488 29.4762 15.113C29.694 14.8951 29.9771 14.7752 30.282 14.7752ZM18.2716 32.8193C18.4893 32.6013 18.7724 32.4815 19.0773 32.4815C19.3822 32.4815 19.6653 32.6013 19.8722 32.8193C20.3187 33.266 20.3187 33.996 19.8722 34.4319C19.4476 34.8677 18.6962 34.8568 18.2716 34.4319C17.8251 33.9851 17.8251 33.2551 18.2716 32.8193ZM27.7231 2.14658C28.028 2.14658 28.3111 2.26644 28.518 2.48436C28.9644 2.9311 28.9644 3.66115 28.518 4.09699C28.0933 4.52194 27.342 4.52194 26.9173 4.09699C26.4709 3.65025 26.4709 2.92021 26.9173 2.48436C27.1351 2.26644 27.4182 2.14658 27.7122 2.14658H27.7231ZM23.5091 3.96624C23.8358 3.96624 24.1733 3.99893 24.5 4.00982C24.6307 4.60911 24.9247 5.16481 25.382 5.63335C26.0027 6.26533 26.8411 6.60311 27.7231 6.60311C27.8102 6.60311 27.8973 6.58131 27.9736 6.58131C28.7031 8.58621 29.1169 10.6674 29.2258 12.7921C28.8991 12.8902 28.6051 13.0427 28.322 13.2389C24.304 9.76299 19.2951 7.77989 14.0031 7.56197C13.9051 7.16971 13.7418 6.79924 13.5022 6.46146C16.562 4.82703 19.992 3.95534 23.4873 3.95534L23.5091 3.96624ZM10.0178 7.57286C10.2356 7.35494 10.5187 7.23508 10.8127 7.23508C11.1176 7.23508 11.4007 7.35494 11.6184 7.57286C12.0649 8.01961 12.0649 8.74965 11.6184 9.18549C11.4007 9.40342 11.1176 9.52327 10.8127 9.52327C10.5078 9.52327 10.2247 9.40342 10.0178 9.18549C9.57133 8.73875 9.57133 8.00871 10.0178 7.57286ZM8.25378 10.4603C8.33 10.5475 8.38444 10.6456 8.47156 10.7219C8.722 10.9725 9.016 11.1686 9.32089 11.3211C9.04867 12.7703 8.89622 14.2522 8.89622 15.745C8.89622 17.2378 9.05956 18.7959 9.35356 20.2996C9.15756 20.4303 8.98333 20.572 8.82 20.7354C7.742 21.8141 7.57867 23.4704 8.30822 24.7343C6.57689 27.2077 5.33556 30.0189 4.66044 32.95C4.33378 33.0481 4.018 33.1788 3.73489 33.375C2.72222 30.847 2.18867 28.1775 2.18867 25.3881C2.18867 19.7439 4.35556 14.481 8.26467 10.4494L8.25378 10.4603ZM7.08867 39.0518C7.40444 38.8993 7.69844 38.7032 7.94889 38.4417C8.232 38.1584 8.43889 37.8315 8.60222 37.4828C11.3789 37.4065 14.0684 36.8617 16.6273 35.8375C16.6709 35.8811 16.6927 35.9246 16.7362 35.9682C17.3569 36.6002 18.1953 36.938 19.0773 36.938C19.7633 36.938 20.4167 36.7201 20.9611 36.3387C24.0427 38.0712 27.4836 39.0736 31.0116 39.2807C31.1749 39.7056 31.4144 40.0979 31.752 40.4357C31.85 40.5337 31.9698 40.6209 32.0787 40.7081C31.0551 42.7674 29.7049 44.6634 28.028 46.3305C26.558 46.6465 25.0444 46.8208 23.4982 46.8208C17.1282 46.8208 11.1176 43.9442 7.07778 39.0518H7.08867ZM31.9807 45.0665C32.8191 43.9115 33.5487 42.6912 34.1693 41.4163C35.0296 41.3945 35.8353 41.0567 36.4451 40.4466C36.9024 39.978 37.1964 39.4114 37.3271 38.823C38.5576 38.5615 39.7662 38.2019 40.9313 37.7443C38.6338 41.024 35.5304 43.5302 31.9807 45.0665ZM44.5029 36.0118C44.2851 36.2297 44.002 36.3496 43.708 36.3496C43.4031 36.3496 43.12 36.2297 42.9131 36.0118C42.4667 35.5651 42.4667 34.835 42.9131 34.3992C43.1309 34.1813 43.414 34.0614 43.708 34.0614C44.0129 34.0614 44.296 34.1813 44.5138 34.3992C44.9602 34.8459 44.9602 35.576 44.5138 36.0118H44.5029ZM43.708 31.8822C42.826 31.8822 41.9876 32.2309 41.3669 32.8519C40.6264 33.5929 40.3216 34.6062 40.4413 35.5869C39.3524 36.0336 38.2309 36.3823 37.0767 36.6438C36.9242 36.3278 36.7282 36.0118 36.456 35.7503C36.358 35.6522 36.2491 35.576 36.1402 35.4888C36.4124 34.0723 36.554 32.6013 36.554 31.1194C36.554 26.4777 35.2147 22.0321 32.6884 18.1966C32.8627 18.0114 33.0151 17.8044 33.1349 17.5973C36.7827 18.5889 40.0602 20.5066 42.7171 23.2197C42.14 24.451 42.336 25.9656 43.3487 26.9898C43.7298 27.3712 44.198 27.6327 44.6989 27.7961C44.5464 29.2017 44.2524 30.5746 43.8278 31.904C43.7842 31.904 43.7516 31.8931 43.708 31.8931V31.8822Z" fill="#00AB6C"/>
</g>
<defs>
<clipPath id="clip0_107_351">
<rect width="49" height="49" fill="white"/>
</clipPath>
</defs>
</svg>
