<svg width="183" height="40" viewBox="0 0 183 40" fill="none" xmlns="http://www.w3.org/2000/svg">
<rect width="183" height="40" rx="20" fill="#00AB6C"/>
<path d="M22.0161 25.192C18.5441 25.192 15.9521 22.776 15.9521 19.4C15.9521 16.024 18.5441 13.608 22.0321 13.608C23.9681 13.608 25.5841 14.312 26.6401 15.592L24.9761 17.128C24.2241 16.264 23.2801 15.816 22.1601 15.816C20.0641 15.816 18.5761 17.288 18.5761 19.4C18.5761 21.512 20.0641 22.984 22.1601 22.984C23.2801 22.984 24.2241 22.536 24.9761 21.656L26.6401 23.192C25.5841 24.488 23.9681 25.192 22.0161 25.192ZM31.8726 25.128C29.1366 25.128 27.1366 23.288 27.1366 20.696C27.1366 18.104 29.1366 16.264 31.8726 16.264C34.6086 16.264 36.5926 18.104 36.5926 20.696C36.5926 23.288 34.6086 25.128 31.8726 25.128ZM31.8726 23.08C33.1206 23.08 34.0646 22.184 34.0646 20.696C34.0646 19.208 33.1206 18.312 31.8726 18.312C30.6246 18.312 29.6646 19.208 29.6646 20.696C29.6646 22.184 30.6246 23.08 31.8726 23.08ZM46.7574 22.952H48.0054V26.888H45.6854V25H38.3094V16.392H40.7894V22.952H44.2614V16.392H46.7574V22.952ZM49.575 25V16.392H52.055V21.512L56.247 16.392H58.535V25H56.055V19.88L51.879 25H49.575ZM64.2784 16.264C66.9024 16.264 68.4224 17.48 68.4224 20.088V25H66.0864V23.928C65.6224 24.712 64.7264 25.128 63.4624 25.128C61.4464 25.128 60.2464 24.008 60.2464 22.52C60.2464 21 61.3184 19.944 63.9424 19.944H65.9264C65.9264 18.872 65.2864 18.248 63.9424 18.248C63.0304 18.248 62.0864 18.552 61.4624 19.048L60.5664 17.304C61.5104 16.632 62.9024 16.264 64.2784 16.264ZM64.0864 23.448C64.9184 23.448 65.6384 23.064 65.9264 22.28V21.4H64.2144C63.0464 21.4 62.6784 21.832 62.6784 22.408C62.6784 23.032 63.2064 23.448 64.0864 23.448ZM71.4866 16.392H78.8466V25H76.3506V18.44H73.6306L73.5506 19.96C73.4226 23.032 72.9266 25.176 70.7986 25.176C70.4146 25.176 69.9986 25.112 69.5026 24.984L69.6306 22.936C69.7586 22.952 69.8866 22.968 69.9986 22.968C71.1826 22.968 71.2786 21.48 71.3586 19.848L71.4866 16.392ZM85.9029 19.144C88.1589 19.16 89.3749 20.2 89.3749 22.008C89.3749 23.912 87.9669 25.016 85.5669 25.016L81.2469 25V16.392H83.7269V19.144H85.9029ZM85.3429 23.24C86.3029 23.256 86.8309 22.824 86.8309 21.976C86.8309 21.128 86.3029 20.776 85.3429 20.76L83.7269 20.744V23.24H85.3429ZM90.9344 25V16.392H93.4144V19.752H97.1584V16.392H99.6544V25H97.1584V21.784H93.4144V25H90.9344ZM106.572 19.144C108.828 19.16 109.98 20.2 109.98 22.008C109.98 23.912 108.636 25.016 106.236 25.016L102.044 25V16.392H104.524V19.144H106.572ZM110.908 25V16.392H113.388V25H110.908ZM106.012 23.24C106.972 23.256 107.5 22.824 107.5 21.976C107.5 21.128 106.972 20.776 106.012 20.76L104.524 20.744V23.24H106.012ZM124.162 20.728C124.162 20.92 124.13 21.192 124.114 21.4H117.602C117.842 22.472 118.754 23.128 120.066 23.128C120.978 23.128 121.634 22.856 122.226 22.296L123.554 23.736C122.754 24.648 121.554 25.128 120.002 25.128C117.026 25.128 115.09 23.256 115.09 20.696C115.09 18.12 117.058 16.264 119.682 16.264C122.21 16.264 124.162 17.96 124.162 20.728ZM119.698 18.152C118.562 18.152 117.746 18.84 117.57 19.944H121.81C121.634 18.856 120.818 18.152 119.698 18.152ZM134.702 25.128C131.902 25.128 129.902 23.288 129.902 20.696C129.902 18.104 131.902 16.264 134.702 16.264C136.51 16.264 137.934 17.048 138.558 18.456L136.622 19.496C136.158 18.68 135.47 18.312 134.686 18.312C133.422 18.312 132.43 19.192 132.43 20.696C132.43 22.2 133.422 23.08 134.686 23.08C135.47 23.08 136.158 22.728 136.622 21.896L138.558 22.952C137.934 24.328 136.51 25.128 134.702 25.128ZM148.334 20.728C148.334 20.92 148.302 21.192 148.286 21.4H141.774C142.014 22.472 142.926 23.128 144.238 23.128C145.15 23.128 145.806 22.856 146.398 22.296L147.726 23.736C146.926 24.648 145.726 25.128 144.174 25.128C141.198 25.128 139.262 23.256 139.262 20.696C139.262 18.12 141.23 16.264 143.854 16.264C146.382 16.264 148.334 17.96 148.334 20.728ZM143.87 18.152C142.734 18.152 141.918 18.84 141.742 19.944H145.982C145.806 18.856 144.99 18.152 143.87 18.152ZM157.182 16.392V18.44H154.27V25H151.79V18.44H148.878V16.392H157.182ZM158.513 25V16.392H160.993V21.512L165.185 16.392H167.473V25H164.993V19.88L160.817 25H158.513Z" fill="white"/>
</svg>
