<svg width="40" height="40" viewBox="0 0 40 40" fill="none" xmlns="http://www.w3.org/2000/svg">
<path d="M20 0C8.94526 0 0 8.94526 0 20C0 31.0547 8.94526 40 20 40C31.0547 40 40 31.0547 40 20C40 8.94526 31.0547 0 20 0ZM29.5327 13.004C29.4793 13.8051 28.9987 16.6355 28.5447 19.7063C27.8505 24.032 27.1028 28.785 27.1028 28.785C27.1028 28.785 26.996 30.1202 26.008 30.3338C25.02 30.5474 23.3912 29.5327 23.1242 29.2924C22.8838 29.1055 18.7984 26.5154 17.2764 25.2336C16.8758 24.8865 16.3952 24.1923 17.3298 23.3912C19.4125 21.4953 21.8959 19.1188 23.3912 17.5968C24.0854 16.9025 24.7797 15.2737 21.8959 17.2497C17.8104 20.1068 13.7517 22.777 13.7517 22.777C13.7517 22.777 12.8171 23.3645 11.0814 22.8304C9.34579 22.2964 7.34312 21.6288 7.34312 21.6288C7.34312 21.6288 5.95461 20.7477 8.33111 19.8398C8.33111 19.8398 18.3445 15.7276 21.8158 14.2857C23.1509 13.6983 27.6636 11.8558 27.6636 11.8558C27.6636 11.8558 29.7196 11.0547 29.5327 13.004Z" fill="#1383C6"/>
</svg>
