<svg width="40" height="40" viewBox="0 0 40 40" fill="none" xmlns="http://www.w3.org/2000/svg">
<path fill-rule="evenodd" clip-rule="evenodd" d="M20 0C16.0444 0 12.1776 1.17298 8.8886 3.37061C5.59962 5.56823 3.03617 8.69181 1.52242 12.3463C0.00866572 16.0009 -0.387401 20.0222 0.384303 23.9018C1.15601 27.7814 3.06082 31.3451 5.85787 34.1421C8.65492 36.9392 12.2186 38.844 16.0982 39.6157C19.9778 40.3874 23.9992 39.9913 27.6537 38.4776C31.3082 36.9638 34.4318 34.4004 36.6294 31.1114C38.827 27.8224 40 23.9556 40 20C40 14.6957 37.8929 9.60859 34.1421 5.85786C30.3914 2.10714 25.3043 0 20 0ZM32.6587 28.8747H29.2373C28.12 28.8747 27.9813 28.0587 25.9333 26.104C24.2053 24.4 23.4667 24.2667 23.048 24.2667C22.6773 24.2667 22.4213 24.5333 22.4213 25.1973V27.8027C22.4213 28.5707 21.9787 28.8693 20.1627 28.8693C17.184 28.8693 13.88 27.0293 11.3627 23.632C7.62134 18.5893 6.66668 14.8187 6.66668 14.0053C6.66394 13.9047 6.6821 13.8046 6.72001 13.7114C6.75792 13.6181 6.81476 13.5337 6.88693 13.4636C6.95911 13.3934 7.04505 13.339 7.13932 13.3037C7.2336 13.2684 7.33417 13.2531 7.43468 13.2587H10.4827C11.2827 13.2587 11.576 13.4933 11.856 14.3253C13.2507 18.4267 15.7333 22.032 16.8 22.032C17.1947 22.032 17.2427 21.7067 17.2427 20.8693V16.704C17.2427 14.6853 16.1013 14.5173 16.1013 13.7707C16.1036 13.6959 16.1216 13.6225 16.1541 13.5552C16.1866 13.4879 16.2329 13.4282 16.29 13.3799C16.3471 13.3316 16.4137 13.2959 16.4855 13.275C16.5572 13.2541 16.6326 13.2485 16.7067 13.2587H21.5813C22.2347 13.2587 22.328 13.4933 22.328 14.2827V19.9387C22.328 20.584 22.4587 20.8213 22.7467 20.8213C23.1013 20.8213 23.4293 20.608 24.08 19.8907C26.0773 17.68 27.7333 14.168 27.7333 14.168C27.8149 13.9309 27.9741 13.7283 28.185 13.5928C28.396 13.4573 28.6465 13.3969 28.896 13.4213H31.944C32.5493 13.4213 32.8053 13.7493 32.6907 14.3307C32.3413 15.96 28.8267 20.9147 28.8267 20.9147C28.5013 21.4267 28.3627 21.7147 28.8267 22.1947C29.152 22.6133 30.176 23.528 30.8053 24.36C32.3413 25.9893 33.3413 27.36 33.3413 28.128C33.3333 28.7093 33.008 28.8747 32.6587 28.8747Z" fill="#1383C6"/>
</svg>
