<svg width="37" height="37" viewBox="0 0 37 37" fill="none" xmlns="http://www.w3.org/2000/svg">
<path d="M31.543 5.4575C28.2133 2.1275 23.7738 0.185 19.1492 0C19.0567 0 18.9642 0 18.8717 0H18.7792C18.6867 0 18.5942 0 18.5018 0C14.8021 0 11.2874 1.11 8.23521 3.145C5.183 5.18 2.77823 8.0475 1.39086 11.47C0.00349926 14.8 -0.366466 18.5 0.373464 22.1075C1.11339 25.715 2.87072 28.9525 5.46048 31.5425C8.05023 34.1325 11.3799 35.89 14.8946 36.63C16.1895 36.9075 17.4844 37 18.7792 37C18.7792 37 18.7792 37 18.8717 37C18.8717 37 18.8717 37 18.9642 37C21.2765 36.9075 23.4963 36.445 25.6236 35.6125C29.0458 34.225 31.913 31.82 33.9478 28.7675C35.8901 25.715 37 22.2 37 18.5C37 13.5975 35.0577 8.88 31.543 5.4575ZM34.5027 21.645C34.3178 22.2 34.2253 22.6625 34.0403 23.125H25.9011C26.086 21.645 26.1785 20.0725 26.1785 18.5C26.1785 16.9275 26.086 15.355 25.9011 13.875H34.1328C34.8727 16.3725 34.9652 19.055 34.5027 21.645ZM18.9642 34.78C18.8717 34.78 18.8717 34.78 18.7792 34.78C18.0393 34.6875 16.8369 33.485 15.8195 30.8025C15.1721 29.23 14.7096 27.38 14.4321 25.4375H23.4038C23.0338 27.4725 22.5714 29.23 22.0164 30.8025C20.9065 33.3925 19.7041 34.6875 18.9642 34.78ZM14.0622 23.125C13.8772 21.645 13.7847 20.0725 13.7847 18.5C13.7847 16.9275 13.8772 15.355 14.0622 13.875H23.5888C23.7738 15.355 23.8662 16.9275 23.8662 18.5C23.8662 20.0725 23.7738 21.645 23.5888 23.125H14.0622ZM18.7792 2.22C18.8717 2.22 18.8717 2.22 18.9642 2.22C19.7041 2.3125 20.9065 3.515 21.9239 6.1975C22.5714 7.77 23.0338 9.62 23.3113 11.5625H14.3397C14.7096 9.62 15.1721 7.77 15.727 6.1975C16.8369 3.515 18.1318 2.3125 18.7792 2.22ZM33.2079 11.5625H25.6236C25.0686 7.8625 24.0512 4.81 22.7564 2.775C24.5137 3.2375 26.086 3.9775 27.5659 4.995C29.9707 6.66 32.0055 8.88 33.2079 11.5625ZM7.03283 7.03C9.25264 4.81 12.1199 3.2375 15.2646 2.59C13.8772 4.625 12.8598 7.8625 12.2124 11.655H3.88813C4.62806 9.8975 5.64546 8.325 7.03283 7.03ZM2.96322 13.875H11.9349C11.7499 15.355 11.6574 16.9275 11.6574 18.5C11.6574 20.0725 11.7499 21.645 11.9349 23.125H2.87072C2.40827 21.645 2.22329 20.0725 2.22329 18.5C2.22329 16.9275 2.50076 15.355 2.96322 13.875ZM12.3048 33.5775C9.34513 32.375 6.75535 30.2475 4.99802 27.565C4.53557 26.9175 4.1656 26.1775 3.79564 25.4375H12.2124C12.7673 29.23 13.8772 32.375 15.2646 34.5025C14.1547 34.225 13.2298 33.9475 12.3048 33.5775ZM29.9707 29.97C27.9359 32.005 25.4386 33.485 22.6639 34.225C23.9587 32.19 24.9761 29.045 25.6236 25.4375H33.2079C32.4679 27.1025 31.358 28.675 29.9707 29.97Z" fill="#34618E"/>
</svg>
