<svg width="49" height="49" viewBox="0 0 49 49" fill="none" xmlns="http://www.w3.org/2000/svg">
<path d="M41.4663 7.17372C37.0891 2.79653 31.2529 0.243177 25.1734 0C25.0518 0 24.9303 0 24.8087 0H24.6871C24.5655 0 24.4439 0 24.3223 0C19.4588 0 14.8384 1.45906 10.826 4.13401C6.81355 6.80895 3.65225 10.5782 1.82842 15.077C0.00460017 19.4542 -0.481754 24.3177 0.490954 29.0596C1.46366 33.8016 3.77384 38.0572 7.17831 41.4617C10.5828 44.8661 14.96 47.1763 19.5804 48.149C21.2826 48.5138 22.9848 48.6354 24.6871 48.6354C24.6871 48.6354 24.6871 48.6354 24.8087 48.6354C24.8087 48.6354 24.8087 48.6354 24.9303 48.6354C27.97 48.5138 30.8881 47.9059 33.6846 46.8116C38.1834 44.9877 41.9526 41.8264 44.6276 37.814C47.1809 33.8016 48.64 29.1812 48.64 24.3177C48.64 17.8735 46.0866 11.6725 41.4663 7.17372ZM45.3571 28.4517C45.1139 29.1812 44.9923 29.7892 44.7492 30.3971H34.0494C34.2926 28.4517 34.4142 26.3847 34.4142 24.3177C34.4142 22.2507 34.2926 20.1837 34.0494 18.2383H44.8708C45.8435 21.5212 45.965 25.0472 45.3571 28.4517ZM24.9303 45.7173C24.8087 45.7173 24.8087 45.7173 24.6871 45.7173C23.7144 45.5957 22.1337 44.015 20.7962 40.489C19.9451 38.422 19.3372 35.9902 18.9724 33.4368H30.7665C30.2801 36.1118 29.6722 38.422 28.9427 40.489C27.4836 43.8934 25.903 45.5957 24.9303 45.7173ZM18.4861 30.3971C18.2429 28.4517 18.1213 26.3847 18.1213 24.3177C18.1213 22.2507 18.2429 20.1837 18.4861 18.2383H31.0097C31.2528 20.1837 31.3744 22.2507 31.3744 24.3177C31.3744 26.3847 31.2528 28.4517 31.0097 30.3971H18.4861ZM24.6871 2.91812C24.8087 2.91812 24.8087 2.91812 24.9303 2.91812C25.903 3.03971 27.4836 4.62036 28.8211 8.14643C29.6722 10.2134 30.2801 12.6452 30.6449 15.1986H18.8508C19.3372 12.6452 19.9451 10.2134 20.6747 8.14643C22.1337 4.62036 23.836 3.03971 24.6871 2.91812ZM43.6549 15.1986H33.6846C32.9551 10.335 31.6176 6.3226 29.9154 3.64765C32.2256 4.2556 34.2926 5.2283 36.238 6.56578C39.3993 8.75437 42.0742 11.6725 43.6549 15.1986ZM9.24532 9.24072C12.1635 6.3226 15.9327 4.2556 20.0667 3.40448C18.2429 6.07942 16.9054 10.335 16.0543 15.3201H5.11131C6.08402 13.01 7.42149 10.943 9.24532 9.24072ZM3.89543 18.2383H15.6895C15.4464 20.1837 15.3248 22.2507 15.3248 24.3177C15.3248 26.3847 15.4464 28.4517 15.6895 30.3971H3.77384C3.1659 28.4517 2.92272 26.3847 2.92272 24.3177C2.92272 22.2507 3.28748 20.1837 3.89543 18.2383ZM16.1759 44.1366C12.2851 42.556 8.88055 39.7594 6.57037 36.2334C5.96243 35.3822 5.47608 34.4095 4.98972 33.4368H16.0543C16.7838 38.422 18.2429 42.556 20.0667 45.3525C18.6077 44.9877 17.3918 44.623 16.1759 44.1366ZM39.3993 39.3947C36.7243 42.0696 33.4414 44.015 29.7938 44.9877C31.496 42.3128 32.8335 38.1788 33.6846 33.4368H43.6549C42.6822 35.6254 41.2231 37.6924 39.3993 39.3947Z" fill="#1D93D1"/>
</svg>
