<svg width="40" height="30" viewBox="0 0 40 30" fill="none" xmlns="http://www.w3.org/2000/svg">
<path d="M39.164 4.68429C38.9358 3.77639 38.489 2.94861 37.8685 2.28375C37.248 1.61889 36.4754 1.14026 35.628 0.895714C32.508 2.07265e-07 20 6.46524e-08 20 6.46524e-08C20 6.46524e-08 7.492 1.26398e-07 4.372 0.895714C3.52463 1.14026 2.75204 1.61889 2.1315 2.28375C1.51097 2.94861 1.06424 3.77639 0.836 4.68429C-1.46661e-08 8.02714 -2.7406e-08 15 -2.7406e-08 15C-2.7406e-08 15 -4.01458e-08 21.9729 0.836 25.3157C1.06424 26.2236 1.51097 27.0514 2.1315 27.7162C2.75204 28.3811 3.52463 28.8597 4.372 29.1043C7.492 30 20 30 20 30C20 30 32.508 30 35.628 29.1043C36.4754 28.8597 37.248 28.3811 37.8685 27.7162C38.489 27.0514 38.9358 26.2236 39.164 25.3157C40 21.9729 40 15 40 15C40 15 40 8.02714 39.164 4.68429ZM16 21.4286L16 8.57143L26.4 15L16 21.4286Z" fill="#1383C6"/>
</svg>
